<svg width="120" height="121" fill="none" xmlns="http://www.w3.org/2000/svg"><mask id="a" maskUnits="userSpaceOnUse" x="0" y="0" width="59" height="121"><path d="M0 0h59v121H0V0z" fill="#C4C4C4"/></mask><g mask="url(#a)"><circle cx="60" cy="61" r="58" stroke="url(#paint0_linear)" stroke-width="4"/></g><mask id="b" maskUnits="userSpaceOnUse" x="61" y="1" width="59" height="59"><path d="M61 1h59v59H61V1z" fill="#C4C4C4"/></mask><g mask="url(#b)"><circle cx="60" cy="61" r="58" stroke="url(#paint1_linear)" stroke-width="4"/></g><mask id="c" maskUnits="userSpaceOnUse" x="61" y="62" width="59" height="59"><path d="M120 62v59H61V62h59z" fill="#C4C4C4"/></mask><g mask="url(#c)"><circle cx="60" cy="61" r="58" transform="rotate(90 60 61)" stroke="url(#paint2_linear)" stroke-width="4"/></g><path d="M50.921 57.36c.384 0 .704.128.96.384s.384.576.384.96c0 .368-.128.68-.384.936-.256.24-.576.36-.96.36h-8.16c-.416 0-.744-.128-.984-.384s-.36-.584-.36-.984.144-.752.432-1.056l5.232-5.592c.592-.64 1.056-1.28 1.392-1.92.352-.656.528-1.256.528-1.8a2.6 2.6 0 00-.768-1.872c-.512-.528-1.104-.792-1.776-.792-.464 0-.936.16-1.416.48a5.09 5.09 0 00-1.272 1.224c-.288.384-.656.576-1.104.576-.352 0-.68-.136-.984-.408-.288-.272-.432-.576-.432-.912 0-.24.08-.48.24-.72.16-.256.4-.544.72-.864a7.236 7.236 0 012.112-1.464c.8-.368 1.568-.552 2.304-.552 1.056 0 1.984.224 2.784.672a4.667 4.667 0 011.848 1.848c.432.784.648 1.672.648 2.664 0 .976-.264 1.984-.792 3.024-.512 1.024-1.208 2.008-2.088 2.952l-3.048 3.24h4.944zm9.051-8.256c.832 0 1.648.256 2.448.768a5.798 5.798 0 011.992 2.04c.512.848.768 1.768.768 2.76a5.411 5.411 0 01-.768 2.808 5.536 5.536 0 01-2.016 2.016 5.46 5.46 0 01-2.808.744c-1.104 0-2.088-.304-2.952-.912a6.148 6.148 0 01-1.992-2.424 7.6 7.6 0 01-.696-3.216c0-1.168.2-2.448.6-3.84.416-1.408 1.16-2.736 2.232-3.984 1.088-1.248 2.56-2.136 4.416-2.664.192-.048.376-.072.552-.072.416 0 .76.112 1.032.336.272.208.408.544.408 1.008 0 .352-.12.664-.36.936-.224.256-.528.44-.912.552-1.008.288-1.944.8-2.808 1.536a6.662 6.662 0 00-1.872 2.64c.8-.688 1.712-1.032 2.736-1.032zm-.384 8.496c.752 0 1.392-.28 1.92-.84.528-.56.792-1.256.792-2.088 0-.832-.264-1.528-.792-2.088s-1.168-.84-1.92-.84c-.768 0-1.416.28-1.944.84-.512.56-.768 1.256-.768 2.088 0 .832.256 1.528.768 2.088.528.56 1.176.84 1.944.84zm13.917 2.64c-1.344 0-2.504-.36-3.48-1.08-.96-.72-1.688-1.728-2.184-3.024-.496-1.312-.744-2.824-.744-4.536 0-1.712.248-3.216.744-4.512.496-1.312 1.224-2.328 2.184-3.048.976-.72 2.136-1.08 3.48-1.08 1.344 0 2.496.36 3.456 1.08.976.72 1.712 1.736 2.208 3.048.496 1.296.744 2.8.744 4.512 0 1.712-.248 3.224-.744 4.536-.496 1.296-1.232 2.304-2.208 3.024-.96.72-2.112 1.08-3.456 1.08zm0-2.88c1.024 0 1.824-.488 2.4-1.464.592-.976.888-2.408.888-4.296 0-1.888-.296-3.32-.888-4.296-.576-.976-1.376-1.464-2.4-1.464s-1.832.488-2.424 1.464c-.576.976-.864 2.408-.864 4.296 0 1.888.288 3.32.864 4.296.592.976 1.4 1.464 2.424 1.464zM35.267 71.184H31.27L31.283 78H29.35v-8.4h5.928l-.012 1.584zm4.35 6.96c-.872 0-1.66-.188-2.364-.564a4.255 4.255 0 01-1.645-1.548c-.391-.664-.587-1.408-.587-2.232 0-.824.196-1.564.587-2.22.4-.664.949-1.184 1.645-1.56.703-.376 1.492-.564 2.364-.564.872 0 1.656.188 2.352.564a4.226 4.226 0 011.643 1.56c.4.656.6 1.396.6 2.22 0 .824-.2 1.568-.6 2.232a4.255 4.255 0 01-1.644 1.548c-.696.376-1.48.564-2.352.564zm0-1.656c.495 0 .944-.112 1.344-.336.4-.232.712-.552.936-.96.232-.408.348-.872.348-1.392 0-.52-.116-.984-.348-1.392a2.372 2.372 0 00-.936-.948 2.63 2.63 0 00-1.344-.348 2.63 2.63 0 00-1.344.348c-.4.224-.717.54-.949.948a2.844 2.844 0 00-.335 1.392c0 .52.111.984.336 1.392.231.408.547.728.947.96.4.224.849.336 1.345.336zM52.964 69.6V78h-1.92v-6.816h-2.88l-.06 1.752c-.04 1.192-.136 2.16-.288 2.904-.152.736-.408 1.304-.768 1.704-.352.392-.848.588-1.488.588-.264 0-.584-.044-.96-.132l.12-1.644c.104.032.22.048.348.048.464 0 .788-.272.972-.816.184-.552.3-1.412.348-2.58l.12-3.408h6.456zm6.106 8.544c-.872 0-1.66-.188-2.364-.564a4.255 4.255 0 01-1.644-1.548c-.392-.664-.588-1.408-.588-2.232 0-.824.196-1.564.588-2.22.4-.664.948-1.184 1.644-1.56.704-.376 1.492-.564 2.364-.564.872 0 1.656.188 2.352.564a4.226 4.226 0 011.644 1.56c.4.656.6 1.396.6 2.22 0 .824-.2 1.568-.6 2.232a4.255 4.255 0 01-1.644 1.548c-.696.376-1.48.564-2.352.564zm0-1.656c.496 0 .944-.112 1.344-.336.4-.232.712-.552.936-.96.232-.408.348-.872.348-1.392 0-.52-.116-.984-.348-1.392a2.372 2.372 0 00-.936-.948 2.63 2.63 0 00-1.344-.348 2.63 2.63 0 00-1.344.348c-.4.224-.716.54-.948.948a2.844 2.844 0 00-.336 1.392c0 .52.112.984.336 1.392.232.408.548.728.948.96.4.224.848.336 1.344.336zm10.065 1.656c-.856 0-1.632-.184-2.328-.552a4.277 4.277 0 01-1.632-1.548c-.392-.664-.588-1.412-.588-2.244 0-.832.196-1.576.588-2.232.4-.664.944-1.18 1.632-1.548.696-.376 1.476-.564 2.34-.564.728 0 1.384.128 1.968.384a3.943 3.943 0 011.488 1.104l-1.248 1.152c-.568-.656-1.272-.984-2.112-.984-.52 0-.984.116-1.392.348-.408.224-.728.54-.96.948a2.844 2.844 0 00-.336 1.392c0 .52.112.984.336 1.392.232.408.552.728.96.96.408.224.872.336 1.392.336.84 0 1.544-.332 2.112-.996l1.248 1.152c-.4.488-.896.86-1.488 1.116-.592.256-1.252.384-1.98.384zm8.567 0c-.872 0-1.66-.188-2.364-.564a4.255 4.255 0 01-1.644-1.548c-.392-.664-.588-1.408-.588-2.232 0-.824.196-1.564.588-2.22.4-.664.948-1.184 1.644-1.56.704-.376 1.492-.564 2.364-.564.872 0 1.656.188 2.352.564a4.226 4.226 0 011.644 1.56c.4.656.6 1.396.6 2.22 0 .824-.2 1.568-.6 2.232a4.255 4.255 0 01-1.644 1.548c-.696.376-1.48.564-2.352.564zm0-1.656c.496 0 .944-.112 1.344-.336.4-.232.712-.552.936-.96.232-.408.348-.872.348-1.392 0-.52-.116-.984-.348-1.392a2.372 2.372 0 00-.936-.948 2.63 2.63 0 00-1.344-.348 2.63 2.63 0 00-1.344.348c-.4.224-.716.54-.948.948a2.844 2.844 0 00-.336 1.392c0 .52.112.984.336 1.392.232.408.548.728.948.96.4.224.848.336 1.344.336zm11.914-2.868c.512.152.904.4 1.176.744.272.344.408.768.408 1.272 0 .744-.284 1.324-.852 1.74-.56.416-1.364.624-2.412.624h-4.14v-8.4h3.912c.976 0 1.736.188 2.28.564.544.376.816.912.816 1.608 0 .416-.104.784-.312 1.104-.208.312-.5.56-.876.744zm-3.888-.54h1.812c.424 0 .744-.084.96-.252.216-.176.324-.432.324-.768 0-.328-.112-.58-.336-.756-.216-.176-.532-.264-.948-.264h-1.812v2.04zm2.136 3.48c.912 0 1.368-.36 1.368-1.08 0-.696-.456-1.044-1.368-1.044h-2.136v2.124h2.136z" fill="#BC9CFF"/><defs><linearGradient id="paint0_linear" x1="60" y1="1" x2="60" y2="121" gradientUnits="userSpaceOnUse"><stop stop-color="#FFE39C"/><stop offset="1" stop-color="#FFBA9C"/></linearGradient><linearGradient id="paint1_linear" x1="60" y1="1" x2="60" y2="121" gradientUnits="userSpaceOnUse"><stop stop-color="#BC9CFF"/><stop offset="1" stop-color="#8BA4F9"/></linearGradient><linearGradient id="paint2_linear" x1="60" y1="1" x2="60" y2="121" gradientUnits="userSpaceOnUse"><stop stop-color="#6FCF97"/><stop offset="1" stop-color="#66D2EA"/></linearGradient></defs></svg>