<?xml version="1.0" standalone="no"?>
  <!DOCTYPE svg PUBLIC "-//W3C//DTD SVG 1.1//EN" "http://www.w3.org/Graphics/SVG/1.1/DTD/svg11.dtd" >
  <svg>
  <metadata>
  Created by font-carrier
  </metadata>
  <defs>
  <font id="Montserrat-Thin" horiz-adv-x="1566" vert-adv-y="1566" >
    <font-face
      
      font-family="Montserrat Thin"
      
      font-weight="400"
      
      font-stretch="normal"
      
      units-per-em="1000"
      
      ascent="968"
      
      descent="-251"
      
    />
      <missing-glyph />

      

      
      <glyph glyph-name="uni41" unicode="&#x41;" d="M558 211L130 211L32 0L9 0L334 700L354 700L679 0L656 0L558 211M549 230L344 673L139 230L549 230Z"  horiz-adv-x="688" vert-adv-y="1000"  />

      
      <glyph glyph-name="unic1" unicode="&#xc1;" d="M558 211L130 211L32 0L9 0L334 700L354 700L679 0L656 0L558 211M549 230L344 673L139 230L549 230M439 867L479 867L329 757L299 757L439 867Z"  horiz-adv-x="688" vert-adv-y="1000"  />

      
      <glyph glyph-name="uni0102" unicode="&#x0102;" d="M558 211L130 211L32 0L9 0L334 700L354 700L679 0L656 0L558 211M549 230L344 673L139 230L549 230M344 754Q289 754 251 785Q213 816 212 867L231 867Q232 824 264 798.50Q296 773 344 773Q392 773 424 798.50Q456 824 457 867L476 867Q475 816 437 785Q399 754 344 754Z"  horiz-adv-x="688" vert-adv-y="1000"  />

      
      <glyph glyph-name="uni1EAE" unicode="&#x1EAE;" d="M558 211L130 211L32 0L9 0L334 700L354 700L679 0L656 0L558 211M549 230L344 673L139 230L549 230M344 754Q290 754 254.50 776Q219 798 212 837L231 837Q238 806 267.50 789.50Q297 773 344 773Q391 773 420.50 789.50Q450 806 457 837L476 837Q469 798 433.50 776Q398 754 344 754M426 951L466 951L329 851L299 851L426 951Z"  horiz-adv-x="688" vert-adv-y="1000"  />

      
      <glyph glyph-name="uni1EB6" unicode="&#x1EB6;" d="M558 211L130 211L32 0L9 0L334 700L354 700L679 0L656 0L558 211M549 230L344 673L139 230L549 230M344-176Q333-176 325.50-168.50Q318-161 318-150Q318-140 325.50-132Q333-124 344-124Q354-124 362-132Q370-140 370-150Q370-161 362-168.50Q354-176 344-176M344 754Q289 754 251 785Q213 816 212 867L231 867Q232 824 264 798.50Q296 773 344 773Q392 773 424 798.50Q456 824 457 867L476 867Q475 816 437 785Q399 754 344 754Z"  horiz-adv-x="688" vert-adv-y="1000"  />

      
      <glyph glyph-name="uni1EB0" unicode="&#x1EB0;" d="M558 211L130 211L32 0L9 0L334 700L354 700L679 0L656 0L558 211M549 230L344 673L139 230L549 230M344 754Q290 754 254.50 776Q219 798 212 837L231 837Q238 806 267.50 789.50Q297 773 344 773Q391 773 420.50 789.50Q450 806 457 837L476 837Q469 798 433.50 776Q398 754 344 754M222 951L262 951L389 851L359 851L222 951Z"  horiz-adv-x="688" vert-adv-y="1000"  />

      
      <glyph glyph-name="uni1EB2" unicode="&#x1EB2;" d="M558 211L130 211L32 0L9 0L334 700L354 700L679 0L656 0L558 211M549 230L344 673L139 230L549 230M344 754Q290 754 254.50 776Q219 798 212 837L231 837Q238 806 267.50 789.50Q297 773 344 773Q391 773 420.50 789.50Q450 806 457 837L476 837Q469 798 433.50 776Q398 754 344 754M337 842Q358 852 370 866.50Q382 881 382 898Q382 914 370.50 924Q359 934 340 934Q316 934 297 921L289 937Q311 953 341 953Q369 953 385 938Q401 923 401 898Q401 851 347 827L337 842Z"  horiz-adv-x="688" vert-adv-y="1000"  />

      
      <glyph glyph-name="uni1EB4" unicode="&#x1EB4;" d="M558 211L130 211L32 0L9 0L334 700L354 700L679 0L656 0L558 211M549 230L344 673L139 230L549 230M344 754Q290 754 254.50 776Q219 798 212 837L231 837Q238 806 267.50 789.50Q297 773 344 773Q391 773 420.50 789.50Q450 806 457 837L476 837Q469 798 433.50 776Q398 754 344 754M405 866Q386 866 372 873Q358 880 337 895Q321 907 308.50 913.50Q296 920 283 920Q259 920 244.50 906.50Q230 893 229 868L210 868Q211 900 231 919.50Q251 939 283 939Q301 939 315.50 932Q330 925 351 910Q367 898 379.50 891.50Q392 885 405 885Q429 885 443.50 898Q458 911 459 935L478 935Q477 904 457 885Q437 866 405 866Z"  horiz-adv-x="688" vert-adv-y="1000"  />

      
      <glyph glyph-name="uni01CD" unicode="&#x01CD;" d="M558 211L130 211L32 0L9 0L334 700L354 700L679 0L656 0L558 211M549 230L344 673L139 230L549 230M482 867L360 757L328 757L206 867L233 867L344 774L455 867L482 867Z"  horiz-adv-x="688" vert-adv-y="1000"  />

      
      <glyph glyph-name="unic2" unicode="&#xc2;" d="M558 211L130 211L32 0L9 0L334 700L354 700L679 0L656 0L558 211M549 230L344 673L139 230L549 230M455 757L344 850L233 757L206 757L328 867L360 867L482 757L455 757Z"  horiz-adv-x="688" vert-adv-y="1000"  />

      
      <glyph glyph-name="uni1EA4" unicode="&#x1EA4;" d="M558 211L130 211L32 0L9 0L334 700L354 700L679 0L656 0L558 211M549 230L344 673L139 230L549 230M452 757L344 821L236 757L206 757L329 837L359 837L482 757L452 757M546 932L586 932L449 832L419 832L546 932Z"  horiz-adv-x="688" vert-adv-y="1000"  />

      
      <glyph glyph-name="uni1EAC" unicode="&#x1EAC;" d="M558 211L130 211L32 0L9 0L334 700L354 700L679 0L656 0L558 211M549 230L344 673L139 230L549 230M344-176Q333-176 325.50-168.50Q318-161 318-150Q318-140 325.50-132Q333-124 344-124Q354-124 362-132Q370-140 370-150Q370-161 362-168.50Q354-176 344-176M455 757L344 850L233 757L206 757L328 867L360 867L482 757L455 757Z"  horiz-adv-x="688" vert-adv-y="1000"  />

      
      <glyph glyph-name="uni1EA6" unicode="&#x1EA6;" d="M558 211L130 211L32 0L9 0L334 700L354 700L679 0L656 0L558 211M549 230L344 673L139 230L549 230M452 757L344 821L236 757L206 757L329 837L359 837L482 757L452 757M342 932L382 932L509 832L479 832L342 932Z"  horiz-adv-x="688" vert-adv-y="1000"  />

      
      <glyph glyph-name="uni1EA8" unicode="&#x1EA8;" d="M558 211L130 211L32 0L9 0L334 700L354 700L679 0L656 0L558 211M549 230L344 673L139 230L549 230M452 757L344 821L236 757L206 757L329 837L359 837L482 757L452 757M437 833Q458 843 470 857.50Q482 872 482 889Q482 905 470.50 915Q459 925 440 925Q416 925 397 912L389 928Q411 944 441 944Q469 944 485 929Q501 914 501 889Q501 842 447 818L437 833Z"  horiz-adv-x="688" vert-adv-y="1000"  />

      
      <glyph glyph-name="uni1EAA" unicode="&#x1EAA;" d="M558 211L130 211L32 0L9 0L334 700L354 700L679 0L656 0L558 211M549 230L344 673L139 230L549 230M452 757L344 821L236 757L206 757L329 837L359 837L482 757L452 757M405 870Q386 870 372 877Q358 884 337 899Q321 911 308.50 917.50Q296 924 283 924Q259 924 244.50 910.50Q230 897 229 872L210 872Q211 904 231 923.50Q251 943 283 943Q301 943 315.50 936Q330 929 351 914Q367 902 379.50 895.50Q392 889 405 889Q429 889 443.50 902Q458 915 459 939L478 939Q477 908 457 889Q437 870 405 870Z"  horiz-adv-x="688" vert-adv-y="1000"  />

      
      <glyph glyph-name="uni0200" unicode="&#x0200;" d="M558 211L130 211L32 0L9 0L334 700L354 700L679 0L656 0L558 211M549 230L344 673L139 230L549 230M143 867L177 867L288 757L261 757L143 867M282 867L316 867L427 757L400 757L282 867Z"  horiz-adv-x="688" vert-adv-y="1000"  />

      
      <glyph glyph-name="unic4" unicode="&#xc4;" d="M558 211L130 211L32 0L9 0L334 700L354 700L679 0L656 0L558 211M549 230L344 673L139 230L549 230M262 791Q251 791 243.50 799Q236 807 236 817Q236 828 243.50 835.50Q251 843 262 843Q272 843 280 835.50Q288 828 288 817Q288 807 280 799Q272 791 262 791M426 791Q415 791 407.50 799Q400 807 400 817Q400 828 407.50 835.50Q415 843 426 843Q436 843 444 835.50Q452 828 452 817Q452 807 444 799Q436 791 426 791Z"  horiz-adv-x="688" vert-adv-y="1000"  />

      
      <glyph glyph-name="uni1EA0" unicode="&#x1EA0;" d="M558 211L130 211L32 0L9 0L334 700L354 700L679 0L656 0L558 211M549 230L344 673L139 230L549 230M344-176Q333-176 325.50-168.50Q318-161 318-150Q318-140 325.50-132Q333-124 344-124Q354-124 362-132Q370-140 370-150Q370-161 362-168.50Q354-176 344-176Z"  horiz-adv-x="688" vert-adv-y="1000"  />

      
      <glyph glyph-name="unic0" unicode="&#xc0;" d="M558 211L130 211L32 0L9 0L334 700L354 700L679 0L656 0L558 211M549 230L344 673L139 230L549 230M209 867L249 867L389 757L359 757L209 867Z"  horiz-adv-x="688" vert-adv-y="1000"  />

      
      <glyph glyph-name="uni1EA2" unicode="&#x1EA2;" d="M558 211L130 211L32 0L9 0L334 700L354 700L679 0L656 0L558 211M549 230L344 673L139 230L549 230M336 769Q399 797 399 846Q399 869 382.50 884.50Q366 900 341 900Q308 900 279 881L271 898Q284 908 303 913.50Q322 919 340 919Q376 919 397.50 899.50Q419 880 419 847Q419 817 401 794Q383 771 346 753L336 769Z"  horiz-adv-x="688" vert-adv-y="1000"  />

      
      <glyph glyph-name="uni0202" unicode="&#x0202;" d="M558 211L130 211L32 0L9 0L334 700L354 700L679 0L656 0L558 211M549 230L344 673L139 230L549 230M212 757Q213 808 251 839Q289 870 344 870Q399 870 437 839Q475 808 476 757L457 757Q456 800 424 825.50Q392 851 344 851Q296 851 264 825.50Q232 800 231 757L212 757Z"  horiz-adv-x="688" vert-adv-y="1000"  />

      
      <glyph glyph-name="uni0100" unicode="&#x0100;" d="M558 211L130 211L32 0L9 0L334 700L354 700L679 0L656 0L558 211M549 230L344 673L139 230L549 230M208 822L480 822L480 802L208 802L208 822Z"  horiz-adv-x="688" vert-adv-y="1000"  />

      
      <glyph glyph-name="uni0104" unicode="&#x0104;" d="M558 211L130 211L32 0L9 0L334 700L354 700L679 0L656 0L558 211M549 230L344 673L139 230L549 230M623-213Q583-213 557.50-190.50Q532-168 532-130Q532-45 669 16L679 0Q605-32 578.50-64.50Q552-97 552-130Q552-161 572-177.50Q592-194 624-194Q661-194 686-171L697-186Q666-213 623-213Z"  horiz-adv-x="688" vert-adv-y="1000"  />

      
      <glyph glyph-name="unic5" unicode="&#xc5;" d="M558 211L130 211L32 0L9 0L334 700L354 700L679 0L656 0L558 211M549 230L344 673L139 230L549 230M343 780Q303 780 277 806.50Q251 833 251 870Q251 908 277.50 935.50Q304 963 343 963Q382 963 409 935.50Q436 908 436 870Q436 833 409.50 806.50Q383 780 343 780M343 799Q375 799 395.50 819.50Q416 840 416 870Q416 900 395 922Q374 944 343 944Q312 944 291.50 922.50Q271 901 271 870Q271 840 291 819.50Q311 799 343 799Z"  horiz-adv-x="688" vert-adv-y="1000"  />

      
      <glyph glyph-name="uni01FA" unicode="&#x01FA;" d="M558 211L130 211L32 0L9 0L334 700L354 700L679 0L656 0L558 211M549 230L344 673L139 230L549 230M414 931Q436 904 436 870Q436 833 409.50 806.50Q383 780 343 780Q303 780 277 806.50Q251 833 251 870Q251 908 277.50 935.50Q304 963 343 963Q373 963 398 945L479 1021L496 1008L414 931M343 799Q375 799 395.50 819.50Q416 840 416 870Q416 900 395 922Q374 944 343 944Q312 944 291.50 922.50Q271 901 271 870Q271 840 291 819.50Q311 799 343 799Z"  horiz-adv-x="688" vert-adv-y="1000"  />

      
      <glyph glyph-name="unic3" unicode="&#xc3;" d="M558 211L130 211L32 0L9 0L334 700L354 700L679 0L656 0L558 211M549 230L344 673L139 230L549 230M407 769Q387 769 371.50 778.50Q356 788 336 807Q320 822 307.50 830Q295 838 281 838Q257 838 243 820Q229 802 227 771L208 771Q210 810 229.50 833.50Q249 857 281 857Q301 857 316.50 847.50Q332 838 352 819Q368 804 380.50 796Q393 788 407 788Q431 788 445 805.50Q459 823 461 853L480 853Q478 815 458.50 792Q439 769 407 769Z"  horiz-adv-x="688" vert-adv-y="1000"  />

      
      <glyph glyph-name="unic6" unicode="&#xc6;" d="M936 19L936 0L470 0L470 211L166 211L32 0L9 0L454 700L921 700L921 681L490 681L490 365L876 365L876 346L490 346L490 19L936 19M470 230L470 681L464 681L178 230L470 230Z"  horiz-adv-x="1005" vert-adv-y="1000"  />

      
      <glyph glyph-name="uni01FC" unicode="&#x01FC;" d="M936 19L936 0L470 0L470 211L166 211L32 0L9 0L454 700L921 700L921 681L490 681L490 365L876 365L876 346L490 346L490 19L936 19M470 230L470 681L464 681L178 230L470 230M575 867L615 867L465 757L435 757L575 867Z"  horiz-adv-x="1005" vert-adv-y="1000"  />

      
      <glyph glyph-name="uni42" unicode="&#x42;" d="M507 359Q683 335 683 183Q683 94 619.50 47Q556 0 430 0L133 0L133 700L410 700Q520 700 582.50 654.50Q645 609 645 523Q645 457 608.50 415.50Q572 374 507 359M153 681L153 365L414 365Q515 365 570 405.50Q625 446 625 523Q625 600 570 640.50Q515 681 414 681L153 681M434 19Q663 19 663 183Q663 266 605.50 306Q548 346 434 346L153 346L153 19L434 19Z"  horiz-adv-x="748" vert-adv-y="1000"  />

      
      <glyph glyph-name="uni43" unicode="&#x43;" d="M418-3Q317-3 235 43Q153 89 106 169.50Q59 250 59 350Q59 450 106 530.50Q153 611 235 657Q317 703 418 703Q489 703 550.50 680.50Q612 658 656 614L644 600Q556 684 418 684Q323 684 245.50 640Q168 596 123.50 519.50Q79 443 79 350Q79 257 123.50 180.50Q168 104 245.50 60Q323 16 418 16Q555 16 644 101L656 87Q612 43 550 20Q488-3 418-3Z"  horiz-adv-x="711" vert-adv-y="1000"  />

      
      <glyph glyph-name="uni0106" unicode="&#x0106;" d="M418-3Q317-3 235 43Q153 89 106 169.50Q59 250 59 350Q59 450 106 530.50Q153 611 235 657Q317 703 418 703Q489 703 550.50 680.50Q612 658 656 614L644 600Q556 684 418 684Q323 684 245.50 640Q168 596 123.50 519.50Q79 443 79 350Q79 257 123.50 180.50Q168 104 245.50 60Q323 16 418 16Q555 16 644 101L656 87Q612 43 550 20Q488-3 418-3M503 867L543 867L393 757L363 757L503 867Z"  horiz-adv-x="711" vert-adv-y="1000"  />

      
      <glyph glyph-name="uni010C" unicode="&#x010C;" d="M418-3Q317-3 235 43Q153 89 106 169.50Q59 250 59 350Q59 450 106 530.50Q153 611 235 657Q317 703 418 703Q489 703 550.50 680.50Q612 658 656 614L644 600Q556 684 418 684Q323 684 245.50 640Q168 596 123.50 519.50Q79 443 79 350Q79 257 123.50 180.50Q168 104 245.50 60Q323 16 418 16Q555 16 644 101L656 87Q612 43 550 20Q488-3 418-3M546 867L424 757L392 757L270 867L297 867L408 774L519 867L546 867Z"  horiz-adv-x="711" vert-adv-y="1000"  />

      
      <glyph glyph-name="unic7" unicode="&#xc7;" d="M418-3Q317-3 235 43Q153 89 106 169.50Q59 250 59 350Q59 450 106 530.50Q153 611 235 657Q317 703 418 703Q489 703 550.50 680.50Q612 658 656 614L644 600Q556 684 418 684Q323 684 245.50 640Q168 596 123.50 519.50Q79 443 79 350Q79 257 123.50 180.50Q168 104 245.50 60Q323 16 418 16Q555 16 644 101L656 87Q612 43 550 20Q488-3 418-3M392-213Q349-213 318-186L329-171Q354-194 391-194Q423-194 443-178Q463-162 463-134Q463-107 444-90.50Q425-74 392-74L376-74L398 5L417 5L400-56Q438-58 460.50-79Q483-100 483-134Q483-170 457.50-191.50Q432-213 392-213Z"  horiz-adv-x="711" vert-adv-y="1000"  />

      
      <glyph glyph-name="uni1E08" unicode="&#x1E08;" d="M418-3Q317-3 235 43Q153 89 106 169.50Q59 250 59 350Q59 450 106 530.50Q153 611 235 657Q317 703 418 703Q489 703 550.50 680.50Q612 658 656 614L644 600Q556 684 418 684Q323 684 245.50 640Q168 596 123.50 519.50Q79 443 79 350Q79 257 123.50 180.50Q168 104 245.50 60Q323 16 418 16Q555 16 644 101L656 87Q612 43 550 20Q488-3 418-3M392-213Q349-213 318-186L329-171Q354-194 391-194Q423-194 443-178Q463-162 463-134Q463-107 444-90.50Q425-74 392-74L376-74L398 5L417 5L400-56Q438-58 460.50-79Q483-100 483-134Q483-170 457.50-191.50Q432-213 392-213M503 867L543 867L393 757L363 757L503 867Z"  horiz-adv-x="711" vert-adv-y="1000"  />

      
      <glyph glyph-name="uni0108" unicode="&#x0108;" d="M418-3Q317-3 235 43Q153 89 106 169.50Q59 250 59 350Q59 450 106 530.50Q153 611 235 657Q317 703 418 703Q489 703 550.50 680.50Q612 658 656 614L644 600Q556 684 418 684Q323 684 245.50 640Q168 596 123.50 519.50Q79 443 79 350Q79 257 123.50 180.50Q168 104 245.50 60Q323 16 418 16Q555 16 644 101L656 87Q612 43 550 20Q488-3 418-3M519 757L408 850L297 757L270 757L392 867L424 867L546 757L519 757Z"  horiz-adv-x="711" vert-adv-y="1000"  />

      
      <glyph glyph-name="uni010A" unicode="&#x010A;" d="M418-3Q317-3 235 43Q153 89 106 169.50Q59 250 59 350Q59 450 106 530.50Q153 611 235 657Q317 703 418 703Q489 703 550.50 680.50Q612 658 656 614L644 600Q556 684 418 684Q323 684 245.50 640Q168 596 123.50 519.50Q79 443 79 350Q79 257 123.50 180.50Q168 104 245.50 60Q323 16 418 16Q555 16 644 101L656 87Q612 43 550 20Q488-3 418-3M408 791Q397 791 389.50 799Q382 807 382 817Q382 828 389.50 835.50Q397 843 408 843Q418 843 426 835.50Q434 828 434 817Q434 807 426 799Q418 791 408 791Z"  horiz-adv-x="711" vert-adv-y="1000"  />

      
      <glyph glyph-name="uni44" unicode="&#x44;" d="M133 700L398 700Q507 700 590.50 655Q674 610 720.50 530Q767 450 767 350Q767 250 720.50 170Q674 90 590.50 45Q507 0 398 0L133 0L133 700M396 19Q501 19 580.50 61.50Q660 104 703.50 179.50Q747 255 747 350Q747 445 703.50 520.50Q660 596 580.50 638.50Q501 681 396 681L153 681L153 19L396 19Z"  horiz-adv-x="826" vert-adv-y="1000"  />

      
      <glyph glyph-name="uni01C4" unicode="&#x01C4;" d="M133 700L398 700Q507 700 590.50 655Q674 610 720.50 530Q767 450 767 350Q767 250 720.50 170Q674 90 590.50 45Q507 0 398 0L133 0L133 700M396 19Q501 19 580.50 61.50Q660 104 703.50 179.50Q747 255 747 350Q747 445 703.50 520.50Q660 596 580.50 638.50Q501 681 396 681L153 681L153 19L396 19M1411 19L1411 0L861 0L861 15L1373 681L866 681L866 700L1401 700L1401 685L889 19L1411 19M1274 867L1152 757L1120 757L998 867L1025 867L1136 774L1247 867L1274 867Z"  horiz-adv-x="1461" vert-adv-y="1000"  />

      
      <glyph glyph-name="unid0" unicode="&#xd0;" d="M133 700L398 700Q507 700 590.50 655Q674 610 720.50 530Q767 450 767 350Q767 250 720.50 170Q674 90 590.50 45Q507 0 398 0L133 0L133 700M396 19Q501 19 580.50 61.50Q660 104 703.50 179.50Q747 255 747 350Q747 445 703.50 520.50Q660 596 580.50 638.50Q501 681 396 681L153 681L153 19L396 19M20 365L380 365L380 346L20 346L20 365Z"  horiz-adv-x="826" vert-adv-y="1000"  />

      
      <glyph glyph-name="uni010E" unicode="&#x010E;" d="M133 700L398 700Q507 700 590.50 655Q674 610 720.50 530Q767 450 767 350Q767 250 720.50 170Q674 90 590.50 45Q507 0 398 0L133 0L133 700M396 19Q501 19 580.50 61.50Q660 104 703.50 179.50Q747 255 747 350Q747 445 703.50 520.50Q660 596 580.50 638.50Q501 681 396 681L153 681L153 19L396 19M529 866L407 756L375 756L253 866L280 866L391 773L502 866L529 866Z"  horiz-adv-x="826" vert-adv-y="1000"  />

      
      <glyph glyph-name="uni0110" unicode="&#x0110;" d="M133 700L398 700Q507 700 590.50 655Q674 610 720.50 530Q767 450 767 350Q767 250 720.50 170Q674 90 590.50 45Q507 0 398 0L133 0L133 700M396 19Q501 19 580.50 61.50Q660 104 703.50 179.50Q747 255 747 350Q747 445 703.50 520.50Q660 596 580.50 638.50Q501 681 396 681L153 681L153 19L396 19M20 365L380 365L380 346L20 346L20 365Z"  horiz-adv-x="826" vert-adv-y="1000"  />

      
      <glyph glyph-name="uni1E0C" unicode="&#x1E0C;" d="M133 700L398 700Q507 700 590.50 655Q674 610 720.50 530Q767 450 767 350Q767 250 720.50 170Q674 90 590.50 45Q507 0 398 0L133 0L133 700M396 19Q501 19 580.50 61.50Q660 104 703.50 179.50Q747 255 747 350Q747 445 703.50 520.50Q660 596 580.50 638.50Q501 681 396 681L153 681L153 19L396 19M396-176Q385-176 377.50-168.50Q370-161 370-150Q370-140 377.50-132Q385-124 396-124Q406-124 414-132Q422-140 422-150Q422-161 414-168.50Q406-176 396-176Z"  horiz-adv-x="826" vert-adv-y="1000"  />

      
      <glyph glyph-name="uni1E0E" unicode="&#x1E0E;" d="M133 700L398 700Q507 700 590.50 655Q674 610 720.50 530Q767 450 767 350Q767 250 720.50 170Q674 90 590.50 45Q507 0 398 0L133 0L133 700M396 19Q501 19 580.50 61.50Q660 104 703.50 179.50Q747 255 747 350Q747 445 703.50 520.50Q660 596 580.50 638.50Q501 681 396 681L153 681L153 19L396 19M260-140L532-140L532-160L260-160L260-140Z"  horiz-adv-x="826" vert-adv-y="1000"  />

      
      <glyph glyph-name="uni01C5" unicode="&#x01C5;" d="M133 700L398 700Q507 700 590.50 655Q674 610 720.50 530Q767 450 767 350Q767 250 720.50 170Q674 90 590.50 45Q507 0 398 0L133 0L133 700M396 19Q501 19 580.50 61.50Q660 104 703.50 179.50Q747 255 747 350Q747 445 703.50 520.50Q660 596 580.50 638.50Q501 681 396 681L153 681L153 19L396 19M1269 19L1269 0L872 0L872 15L1236 498L877 498L877 517L1264 517L1264 502L900 19L1269 19M1209 717L1087 607L1055 607L933 717L960 717L1071 624L1182 717L1209 717Z"  horiz-adv-x="1317" vert-adv-y="1000"  />

      
      <glyph glyph-name="uni45" unicode="&#x45;" d="M599 19L599 0L133 0L133 700L584 700L584 681L153 681L153 365L539 365L539 346L153 346L153 19L599 19Z"  horiz-adv-x="668" vert-adv-y="1000"  />

      
      <glyph glyph-name="unic9" unicode="&#xc9;" d="M599 19L599 0L133 0L133 700L584 700L584 681L153 681L153 365L539 365L539 346L153 346L153 19L599 19M454 867L494 867L344 757L314 757L454 867Z"  horiz-adv-x="668" vert-adv-y="1000"  />

      
      <glyph glyph-name="uni0114" unicode="&#x0114;" d="M599 19L599 0L133 0L133 700L584 700L584 681L153 681L153 365L539 365L539 346L153 346L153 19L599 19M359 754Q304 754 266 785Q228 816 227 867L246 867Q247 824 279 798.50Q311 773 359 773Q407 773 439 798.50Q471 824 472 867L491 867Q490 816 452 785Q414 754 359 754Z"  horiz-adv-x="668" vert-adv-y="1000"  />

      
      <glyph glyph-name="uni011A" unicode="&#x011A;" d="M599 19L599 0L133 0L133 700L584 700L584 681L153 681L153 365L539 365L539 346L153 346L153 19L599 19M497 867L375 757L343 757L221 867L248 867L359 774L470 867L497 867Z"  horiz-adv-x="668" vert-adv-y="1000"  />

      
      <glyph glyph-name="uni1E1C" unicode="&#x1E1C;" d="M599 19L599 0L133 0L133 700L584 700L584 681L153 681L153 365L539 365L539 346L153 346L153 19L599 19M360-213Q317-213 286-186L297-171Q322-194 359-194Q391-194 411-178Q431-162 431-134Q431-107 412-90.50Q393-74 360-74L344-74L366 5L385 5L368-56Q406-58 428.50-79Q451-100 451-134Q451-170 425.50-191.50Q400-213 360-213M359 754Q304 754 266 785Q228 816 227 867L246 867Q247 824 279 798.50Q311 773 359 773Q407 773 439 798.50Q471 824 472 867L491 867Q490 816 452 785Q414 754 359 754Z"  horiz-adv-x="668" vert-adv-y="1000"  />

      
      <glyph glyph-name="unica" unicode="&#xca;" d="M599 19L599 0L133 0L133 700L584 700L584 681L153 681L153 365L539 365L539 346L153 346L153 19L599 19M470 757L359 850L248 757L221 757L343 867L375 867L497 757L470 757Z"  horiz-adv-x="668" vert-adv-y="1000"  />

      
      <glyph glyph-name="uni1EBE" unicode="&#x1EBE;" d="M599 19L599 0L133 0L133 700L584 700L584 681L153 681L153 365L539 365L539 346L153 346L153 19L599 19M467 757L359 821L251 757L221 757L344 837L374 837L497 757L467 757M561 932L601 932L464 832L434 832L561 932Z"  horiz-adv-x="668" vert-adv-y="1000"  />

      
      <glyph glyph-name="uni1EC6" unicode="&#x1EC6;" d="M599 19L599 0L133 0L133 700L584 700L584 681L153 681L153 365L539 365L539 346L153 346L153 19L599 19M376-176Q365-176 357.50-168.50Q350-161 350-150Q350-140 357.50-132Q365-124 376-124Q386-124 394-132Q402-140 402-150Q402-161 394-168.50Q386-176 376-176M470 757L359 850L248 757L221 757L343 867L375 867L497 757L470 757Z"  horiz-adv-x="668" vert-adv-y="1000"  />

      
      <glyph glyph-name="uni1EC0" unicode="&#x1EC0;" d="M599 19L599 0L133 0L133 700L584 700L584 681L153 681L153 365L539 365L539 346L153 346L153 19L599 19M467 757L359 821L251 757L221 757L344 837L374 837L497 757L467 757M357 932L397 932L524 832L494 832L357 932Z"  horiz-adv-x="668" vert-adv-y="1000"  />

      
      <glyph glyph-name="uni1EC2" unicode="&#x1EC2;" d="M599 19L599 0L133 0L133 700L584 700L584 681L153 681L153 365L539 365L539 346L153 346L153 19L599 19M467 757L359 821L251 757L221 757L344 837L374 837L497 757L467 757M452 833Q473 843 485 857.50Q497 872 497 889Q497 905 485.50 915Q474 925 455 925Q431 925 412 912L404 928Q426 944 456 944Q484 944 500 929Q516 914 516 889Q516 842 462 818L452 833Z"  horiz-adv-x="668" vert-adv-y="1000"  />

      
      <glyph glyph-name="uni1EC4" unicode="&#x1EC4;" d="M599 19L599 0L133 0L133 700L584 700L584 681L153 681L153 365L539 365L539 346L153 346L153 19L599 19M467 757L359 821L251 757L221 757L344 837L374 837L497 757L467 757M420 870Q401 870 387 877Q373 884 352 899Q336 911 323.50 917.50Q311 924 298 924Q274 924 259.50 910.50Q245 897 244 872L225 872Q226 904 246 923.50Q266 943 298 943Q316 943 330.50 936Q345 929 366 914Q382 902 394.50 895.50Q407 889 420 889Q444 889 458.50 902Q473 915 474 939L493 939Q492 908 472 889Q452 870 420 870Z"  horiz-adv-x="668" vert-adv-y="1000"  />

      
      <glyph glyph-name="uni0204" unicode="&#x0204;" d="M599 19L599 0L133 0L133 700L584 700L584 681L153 681L153 365L539 365L539 346L153 346L153 19L599 19M158 867L192 867L303 757L276 757L158 867M297 867L331 867L442 757L415 757L297 867Z"  horiz-adv-x="668" vert-adv-y="1000"  />

      
      <glyph glyph-name="unicb" unicode="&#xcb;" d="M599 19L599 0L133 0L133 700L584 700L584 681L153 681L153 365L539 365L539 346L153 346L153 19L599 19M277 791Q266 791 258.50 799Q251 807 251 817Q251 828 258.50 835.50Q266 843 277 843Q287 843 295 835.50Q303 828 303 817Q303 807 295 799Q287 791 277 791M441 791Q430 791 422.50 799Q415 807 415 817Q415 828 422.50 835.50Q430 843 441 843Q451 843 459 835.50Q467 828 467 817Q467 807 459 799Q451 791 441 791Z"  horiz-adv-x="668" vert-adv-y="1000"  />

      
      <glyph glyph-name="uni0116" unicode="&#x0116;" d="M599 19L599 0L133 0L133 700L584 700L584 681L153 681L153 365L539 365L539 346L153 346L153 19L599 19M359 791Q348 791 340.50 799Q333 807 333 817Q333 828 340.50 835.50Q348 843 359 843Q369 843 377 835.50Q385 828 385 817Q385 807 377 799Q369 791 359 791Z"  horiz-adv-x="668" vert-adv-y="1000"  />

      
      <glyph glyph-name="uni1EB8" unicode="&#x1EB8;" d="M599 19L599 0L133 0L133 700L584 700L584 681L153 681L153 365L539 365L539 346L153 346L153 19L599 19M376-176Q365-176 357.50-168.50Q350-161 350-150Q350-140 357.50-132Q365-124 376-124Q386-124 394-132Q402-140 402-150Q402-161 394-168.50Q386-176 376-176Z"  horiz-adv-x="668" vert-adv-y="1000"  />

      
      <glyph glyph-name="unic8" unicode="&#xc8;" d="M599 19L599 0L133 0L133 700L584 700L584 681L153 681L153 365L539 365L539 346L153 346L153 19L599 19M224 867L264 867L404 757L374 757L224 867Z"  horiz-adv-x="668" vert-adv-y="1000"  />

      
      <glyph glyph-name="uni1EBA" unicode="&#x1EBA;" d="M599 19L599 0L133 0L133 700L584 700L584 681L153 681L153 365L539 365L539 346L153 346L153 19L599 19M351 769Q414 797 414 846Q414 869 397.50 884.50Q381 900 356 900Q323 900 294 881L286 898Q299 908 318 913.50Q337 919 355 919Q391 919 412.50 899.50Q434 880 434 847Q434 817 416 794Q398 771 361 753L351 769Z"  horiz-adv-x="668" vert-adv-y="1000"  />

      
      <glyph glyph-name="uni0206" unicode="&#x0206;" d="M599 19L599 0L133 0L133 700L584 700L584 681L153 681L153 365L539 365L539 346L153 346L153 19L599 19M227 757Q228 808 266 839Q304 870 359 870Q414 870 452 839Q490 808 491 757L472 757Q471 800 439 825.50Q407 851 359 851Q311 851 279 825.50Q247 800 246 757L227 757Z"  horiz-adv-x="668" vert-adv-y="1000"  />

      
      <glyph glyph-name="uni0112" unicode="&#x0112;" d="M599 19L599 0L133 0L133 700L584 700L584 681L153 681L153 365L539 365L539 346L153 346L153 19L599 19M223 822L495 822L495 802L223 802L223 822Z"  horiz-adv-x="668" vert-adv-y="1000"  />

      
      <glyph glyph-name="uni1E16" unicode="&#x1E16;" d="M599 19L599 0L133 0L133 700L584 700L584 681L153 681L153 365L539 365L539 346L153 346L153 19L599 19M223 807L495 807L495 787L223 787L223 807M441 970L481 970L344 870L314 870L441 970Z"  horiz-adv-x="668" vert-adv-y="1000"  />

      
      <glyph glyph-name="uni1E14" unicode="&#x1E14;" d="M599 19L599 0L133 0L133 700L584 700L584 681L153 681L153 365L539 365L539 346L153 346L153 19L599 19M223 807L495 807L495 787L223 787L223 807M237 970L277 970L404 870L374 870L237 970Z"  horiz-adv-x="668" vert-adv-y="1000"  />

      
      <glyph glyph-name="uni0118" unicode="&#x0118;" d="M599 19L599 0L133 0L133 700L584 700L584 681L153 681L153 365L539 365L539 346L153 346L153 19L599 19M543-213Q503-213 477.50-190.50Q452-168 452-130Q452-45 589 16L599 0Q525-32 498.50-64.50Q472-97 472-130Q472-161 492-177.50Q512-194 544-194Q581-194 606-171L617-186Q586-213 543-213Z"  horiz-adv-x="668" vert-adv-y="1000"  />

      
      <glyph glyph-name="uni1EBC" unicode="&#x1EBC;" d="M599 19L599 0L133 0L133 700L584 700L584 681L153 681L153 365L539 365L539 346L153 346L153 19L599 19M422 769Q402 769 386.50 778.50Q371 788 351 807Q335 822 322.50 830Q310 838 296 838Q272 838 258 820Q244 802 242 771L223 771Q225 810 244.50 833.50Q264 857 296 857Q316 857 331.50 847.50Q347 838 367 819Q383 804 395.50 796Q408 788 422 788Q446 788 460 805.50Q474 823 476 853L495 853Q493 815 473.50 792Q454 769 422 769Z"  horiz-adv-x="668" vert-adv-y="1000"  />

      
      <glyph glyph-name="uni01B7" unicode="&#x01B7;" d="M273 387Q401 387 467 334.50Q533 282 533 192Q533 103 469 50Q405-3 289-3Q206-3 137 24.50Q68 52 34 96L47 109Q80 68 144.50 42Q209 16 290 16Q397 16 455 63Q513 110 513 192Q513 275 453 321.50Q393 368 274 368L237 368L237 383L477 681L57 681L57 700L505 700L505 685L265 387L273 387Z"  horiz-adv-x="599" vert-adv-y="1000"  />

      
      <glyph glyph-name="uni01EE" unicode="&#x01EE;" d="M273 387Q401 387 467 334.50Q533 282 533 192Q533 103 469 50Q405-3 289-3Q206-3 137 24.50Q68 52 34 96L47 109Q80 68 144.50 42Q209 16 290 16Q397 16 455 63Q513 110 513 192Q513 275 453 321.50Q393 368 274 368L237 368L237 383L477 681L57 681L57 700L505 700L505 685L265 387L273 387M425 867L303 757L271 757L149 867L176 867L287 774L398 867L425 867Z"  horiz-adv-x="599" vert-adv-y="1000"  />

      
      <glyph glyph-name="uni46" unicode="&#x46;" d="M153 681L153 345L539 345L539 326L153 326L153 0L133 0L133 700L584 700L584 681L153 681Z"  horiz-adv-x="629" vert-adv-y="1000"  />

      
      <glyph glyph-name="uni47" unicode="&#x47;" d="M643 343L662 343L662 87Q618 43 555.50 20Q493-3 421-3Q318-3 235.50 43Q153 89 106 169.50Q59 250 59 350Q59 450 106 530.50Q153 611 235.50 657Q318 703 421 703Q494 703 556 680.50Q618 658 662 614L650 600Q562 684 421 684Q325 684 246.50 640Q168 596 123.50 519.50Q79 443 79 350Q79 257 123.50 180.50Q168 104 246.50 60Q325 16 421 16Q560 16 643 95L643 343Z"  horiz-adv-x="774" vert-adv-y="1000"  />

      
      <glyph glyph-name="uni011E" unicode="&#x011E;" d="M643 343L662 343L662 87Q618 43 555.50 20Q493-3 421-3Q318-3 235.50 43Q153 89 106 169.50Q59 250 59 350Q59 450 106 530.50Q153 611 235.50 657Q318 703 421 703Q494 703 556 680.50Q618 658 662 614L650 600Q562 684 421 684Q325 684 246.50 640Q168 596 123.50 519.50Q79 443 79 350Q79 257 123.50 180.50Q168 104 246.50 60Q325 16 421 16Q560 16 643 95L643 343M402 753Q347 753 309 784Q271 815 270 866L289 866Q290 823 322 797.50Q354 772 402 772Q450 772 482 797.50Q514 823 515 866L534 866Q533 815 495 784Q457 753 402 753Z"  horiz-adv-x="774" vert-adv-y="1000"  />

      
      <glyph glyph-name="uni01E6" unicode="&#x01E6;" d="M643 343L662 343L662 87Q618 43 555.50 20Q493-3 421-3Q318-3 235.50 43Q153 89 106 169.50Q59 250 59 350Q59 450 106 530.50Q153 611 235.50 657Q318 703 421 703Q494 703 556 680.50Q618 658 662 614L650 600Q562 684 421 684Q325 684 246.50 640Q168 596 123.50 519.50Q79 443 79 350Q79 257 123.50 180.50Q168 104 246.50 60Q325 16 421 16Q560 16 643 95L643 343M540 866L418 756L386 756L264 866L291 866L402 773L513 866L540 866Z"  horiz-adv-x="774" vert-adv-y="1000"  />

      
      <glyph glyph-name="uni011C" unicode="&#x011C;" d="M643 343L662 343L662 87Q618 43 555.50 20Q493-3 421-3Q318-3 235.50 43Q153 89 106 169.50Q59 250 59 350Q59 450 106 530.50Q153 611 235.50 657Q318 703 421 703Q494 703 556 680.50Q618 658 662 614L650 600Q562 684 421 684Q325 684 246.50 640Q168 596 123.50 519.50Q79 443 79 350Q79 257 123.50 180.50Q168 104 246.50 60Q325 16 421 16Q560 16 643 95L643 343M513 756L402 849L291 756L264 756L386 866L418 866L540 756L513 756Z"  horiz-adv-x="774" vert-adv-y="1000"  />

      
      <glyph glyph-name="uni0122" unicode="&#x0122;" d="M643 343L662 343L662 87Q618 43 555.50 20Q493-3 421-3Q318-3 235.50 43Q153 89 106 169.50Q59 250 59 350Q59 450 106 530.50Q153 611 235.50 657Q318 703 421 703Q494 703 556 680.50Q618 658 662 614L650 600Q562 684 421 684Q325 684 246.50 640Q168 596 123.50 519.50Q79 443 79 350Q79 257 123.50 180.50Q168 104 246.50 60Q325 16 421 16Q560 16 643 95L643 343M402-124Q413-124 420.50-132Q428-140 428-150Q428-160 422-182L399-259L381-259L399-176Q389-174 382.50-167Q376-160 376-150Q376-139 383.50-131.50Q391-124 402-124Z"  horiz-adv-x="774" vert-adv-y="1000"  />

      
      <glyph glyph-name="uni0120" unicode="&#x0120;" d="M643 343L662 343L662 87Q618 43 555.50 20Q493-3 421-3Q318-3 235.50 43Q153 89 106 169.50Q59 250 59 350Q59 450 106 530.50Q153 611 235.50 657Q318 703 421 703Q494 703 556 680.50Q618 658 662 614L650 600Q562 684 421 684Q325 684 246.50 640Q168 596 123.50 519.50Q79 443 79 350Q79 257 123.50 180.50Q168 104 246.50 60Q325 16 421 16Q560 16 643 95L643 343M402 790Q391 790 383.50 798Q376 806 376 816Q376 827 383.50 834.50Q391 842 402 842Q412 842 420 834.50Q428 827 428 816Q428 806 420 798Q412 790 402 790Z"  horiz-adv-x="774" vert-adv-y="1000"  />

      
      <glyph glyph-name="uni1E20" unicode="&#x1E20;" d="M643 343L662 343L662 87Q618 43 555.50 20Q493-3 421-3Q318-3 235.50 43Q153 89 106 169.50Q59 250 59 350Q59 450 106 530.50Q153 611 235.50 657Q318 703 421 703Q494 703 556 680.50Q618 658 662 614L650 600Q562 684 421 684Q325 684 246.50 640Q168 596 123.50 519.50Q79 443 79 350Q79 257 123.50 180.50Q168 104 246.50 60Q325 16 421 16Q560 16 643 95L643 343M266 821L538 821L538 801L266 801L266 821Z"  horiz-adv-x="774" vert-adv-y="1000"  />

      
      <glyph glyph-name="uni01E4" unicode="&#x01E4;" d="M643 343L662 343L662 87Q618 43 555.50 20Q493-3 421-3Q318-3 235.50 43Q153 89 106 169.50Q59 250 59 350Q59 450 106 530.50Q153 611 235.50 657Q318 703 421 703Q494 703 556 680.50Q618 658 662 614L650 600Q562 684 421 684Q325 684 246.50 640Q168 596 123.50 519.50Q79 443 79 350Q79 257 123.50 180.50Q168 104 246.50 60Q325 16 421 16Q560 16 643 95L643 343M420 243L780 243L780 224L420 224L420 243Z"  horiz-adv-x="804" vert-adv-y="1000"  />

      
      <glyph glyph-name="uni48" unicode="&#x48;" d="M683 700L683 0L663 0L663 346L153 346L153 0L133 0L133 700L153 700L153 365L663 365L663 700L683 700Z"  horiz-adv-x="816" vert-adv-y="1000"  />

      
      <glyph glyph-name="uni0126" unicode="&#x0126;" d="M683 700L683 0L663 0L663 346L153 346L153 0L133 0L133 700L153 700L153 365L663 365L663 700L683 700M20 548L796 548L796 529L20 529L20 548Z"  horiz-adv-x="816" vert-adv-y="1000"  />

      
      <glyph glyph-name="uni1E2A" unicode="&#x1E2A;" d="M683 700L683 0L663 0L663 346L153 346L153 0L133 0L133 700L153 700L153 365L663 365L663 700L683 700M408-198Q353-198 315-168.50Q277-139 276-90L295-90Q296-130 328-154.50Q360-179 408-179Q456-179 488-154.50Q520-130 521-90L540-90Q539-139 501-168.50Q463-198 408-198Z"  horiz-adv-x="816" vert-adv-y="1000"  />

      
      <glyph glyph-name="uni021E" unicode="&#x021E;" d="M683 700L683 0L663 0L663 346L153 346L153 0L133 0L133 700L153 700L153 365L663 365L663 700L683 700M546 867L424 757L392 757L270 867L297 867L408 774L519 867L546 867Z"  horiz-adv-x="816" vert-adv-y="1000"  />

      
      <glyph glyph-name="uni0124" unicode="&#x0124;" d="M683 700L683 0L663 0L663 346L153 346L153 0L133 0L133 700L153 700L153 365L663 365L663 700L683 700M519 757L408 850L297 757L270 757L392 867L424 867L546 757L519 757Z"  horiz-adv-x="816" vert-adv-y="1000"  />

      
      <glyph glyph-name="uni1E24" unicode="&#x1E24;" d="M683 700L683 0L663 0L663 346L153 346L153 0L133 0L133 700L153 700L153 365L663 365L663 700L683 700M408-176Q397-176 389.50-168.50Q382-161 382-150Q382-140 389.50-132Q397-124 408-124Q418-124 426-132Q434-140 434-150Q434-161 426-168.50Q418-176 408-176Z"  horiz-adv-x="816" vert-adv-y="1000"  />

      
      <glyph glyph-name="uni49" unicode="&#x49;" d="M133 700L153 700L153 0L133 0L133 700Z"  horiz-adv-x="286" vert-adv-y="1000"  />

      
      <glyph glyph-name="uni0132" unicode="&#x0132;" d="M327-3Q269-3 216 14.50Q163 32 120 62L132 78Q172 48 222.50 32Q273 16 328 16Q441 16 504 86Q567 156 567 294L567 700L587 700L587 293Q587 148 517.50 72.50Q448-3 327-3M127 700L147 700L147 290L127 290L127 700Z"  horiz-adv-x="714" vert-adv-y="1000"  />

      
      <glyph glyph-name="unicd" unicode="&#xcd;" d="M133 700L153 700L153 0L133 0L133 700M238 867L278 867L128 757L98 757L238 867Z"  horiz-adv-x="286" vert-adv-y="1000"  />

      
      <glyph glyph-name="uni012C" unicode="&#x012C;" d="M133 700L153 700L153 0L133 0L133 700M143 754Q88 754 50 785Q12 816 11 867L30 867Q31 824 63 798.50Q95 773 143 773Q191 773 223 798.50Q255 824 256 867L275 867Q274 816 236 785Q198 754 143 754Z"  horiz-adv-x="286" vert-adv-y="1000"  />

      
      <glyph glyph-name="unice" unicode="&#xce;" d="M133 700L153 700L153 0L133 0L133 700M254 757L143 850L32 757L5 757L127 867L159 867L281 757L254 757Z"  horiz-adv-x="286" vert-adv-y="1000"  />

      
      <glyph glyph-name="uni0208" unicode="&#x0208;" d="M133 700L153 700L153 0L133 0L133 700M-58 867L-24 867L87 757L60 757L-58 867M81 867L115 867L226 757L199 757L81 867Z"  horiz-adv-x="286" vert-adv-y="1000"  />

      
      <glyph glyph-name="unicf" unicode="&#xcf;" d="M133 700L153 700L153 0L133 0L133 700M61 791Q50 791 42.50 799Q35 807 35 817Q35 828 42.50 835.50Q50 843 61 843Q71 843 79 835.50Q87 828 87 817Q87 807 79 799Q71 791 61 791M225 791Q214 791 206.50 799Q199 807 199 817Q199 828 206.50 835.50Q214 843 225 843Q235 843 243 835.50Q251 828 251 817Q251 807 243 799Q235 791 225 791Z"  horiz-adv-x="286" vert-adv-y="1000"  />

      
      <glyph glyph-name="uni1E2E" unicode="&#x1E2E;" d="M133 700L153 700L153 0L133 0L133 700M61 791Q50 791 42.50 799Q35 807 35 817Q35 828 42.50 835.50Q50 843 61 843Q71 843 79 835.50Q87 828 87 817Q87 807 79 799Q71 791 61 791M225 791Q214 791 206.50 799Q199 807 199 817Q199 828 206.50 835.50Q214 843 225 843Q235 843 243 835.50Q251 828 251 817Q251 807 243 799Q235 791 225 791M225 970L265 970L128 870L98 870L225 970Z"  horiz-adv-x="286" vert-adv-y="1000"  />

      
      <glyph glyph-name="uni0130" unicode="&#x0130;" d="M133 700L153 700L153 0L133 0L133 700M143 791Q132 791 124.50 799Q117 807 117 817Q117 828 124.50 835.50Q132 843 143 843Q153 843 161 835.50Q169 828 169 817Q169 807 161 799Q153 791 143 791Z"  horiz-adv-x="286" vert-adv-y="1000"  />

      
      <glyph glyph-name="uni1ECA" unicode="&#x1ECA;" d="M133 700L153 700L153 0L133 0L133 700M143-176Q132-176 124.50-168.50Q117-161 117-150Q117-140 124.50-132Q132-124 143-124Q153-124 161-132Q169-140 169-150Q169-161 161-168.50Q153-176 143-176Z"  horiz-adv-x="286" vert-adv-y="1000"  />

      
      <glyph glyph-name="unicc" unicode="&#xcc;" d="M133 700L153 700L153 0L133 0L133 700M8 867L48 867L188 757L158 757L8 867Z"  horiz-adv-x="286" vert-adv-y="1000"  />

      
      <glyph glyph-name="uni1EC8" unicode="&#x1EC8;" d="M133 700L153 700L153 0L133 0L133 700M135 769Q198 797 198 846Q198 869 181.50 884.50Q165 900 140 900Q107 900 78 881L70 898Q83 908 102 913.50Q121 919 139 919Q175 919 196.50 899.50Q218 880 218 847Q218 817 200 794Q182 771 145 753L135 769Z"  horiz-adv-x="286" vert-adv-y="1000"  />

      
      <glyph glyph-name="uni020A" unicode="&#x020A;" d="M133 700L153 700L153 0L133 0L133 700M11 757Q12 808 50 839Q88 870 143 870Q198 870 236 839Q274 808 275 757L256 757Q255 800 223 825.50Q191 851 143 851Q95 851 63 825.50Q31 800 30 757L11 757Z"  horiz-adv-x="286" vert-adv-y="1000"  />

      
      <glyph glyph-name="uni012A" unicode="&#x012A;" d="M133 700L153 700L153 0L133 0L133 700M32 823L254 823L254 803L32 803L32 823Z"  horiz-adv-x="286" vert-adv-y="1000"  />

      
      <glyph glyph-name="uni012E" unicode="&#x012E;" d="M133 700L153 700L153 0L133 0L133 700M145-213Q115-213 96.50-191.50Q78-170 78-135Q78-52 145 17L153 0Q118-39 108-70Q98-101 98-134Q98-163 111.50-179Q125-195 145-195Q168-195 185-175L196-189Q177-213 145-213Z"  horiz-adv-x="286" vert-adv-y="1000"  />

      
      <glyph glyph-name="uni0128" unicode="&#x0128;" d="M133 700L153 700L153 0L133 0L133 700M206 769Q186 769 170.50 778.50Q155 788 135 807Q119 822 106.50 830Q94 838 80 838Q56 838 42 820Q28 802 26 771L7 771Q9 810 28.50 833.50Q48 857 80 857Q100 857 115.50 847.50Q131 838 151 819Q167 804 179.50 796Q192 788 206 788Q230 788 244 805.50Q258 823 260 853L279 853Q277 815 257.50 792Q238 769 206 769Z"  horiz-adv-x="286" vert-adv-y="1000"  />

      
      <glyph glyph-name="uni4a" unicode="&#x4a;" d="M178-3Q125-3 78.50 23.50Q32 50 4 96L18 108Q47 64 88.50 40Q130 16 179 16Q256 16 293 60.50Q330 105 330 196L330 681L68 681L68 700L350 700L350 194Q350-3 178-3Z"  horiz-adv-x="477" vert-adv-y="1000"  />

      
      <glyph glyph-name="uni0134" unicode="&#x0134;" d="M178-3Q125-3 78.50 23.50Q32 50 4 96L18 108Q47 64 88.50 40Q130 16 179 16Q256 16 293 60.50Q330 105 330 196L330 681L68 681L68 700L350 700L350 194Q350-3 178-3M320 757L209 850L98 757L71 757L193 867L225 867L347 757L320 757Z"  horiz-adv-x="477" vert-adv-y="1000"  />

      
      <glyph glyph-name="uni4b" unicode="&#x4b;" d="M327 365L153 186L153 0L133 0L133 700L153 700L153 213L627 700L654 700L342 379L677 0L650 0L327 365Z"  horiz-adv-x="693" vert-adv-y="1000"  />

      
      <glyph glyph-name="uni01E8" unicode="&#x01E8;" d="M327 365L153 186L153 0L133 0L133 700L153 700L153 213L627 700L654 700L342 379L677 0L650 0L327 365M508 867L386 757L354 757L232 867L259 867L370 774L481 867L508 867Z"  horiz-adv-x="693" vert-adv-y="1000"  />

      
      <glyph glyph-name="uni0136" unicode="&#x0136;" d="M327 365L153 186L153 0L133 0L133 700L153 700L153 213L627 700L654 700L342 379L677 0L650 0L327 365M370-124Q381-124 388.50-132Q396-140 396-150Q396-160 390-182L367-259L349-259L367-176Q357-174 350.50-167Q344-160 344-150Q344-139 351.50-131.50Q359-124 370-124Z"  horiz-adv-x="693" vert-adv-y="1000"  />

      
      <glyph glyph-name="uni4c" unicode="&#x4c;" d="M133 700L153 700L153 19L570 19L570 0L133 0L133 700Z"  horiz-adv-x="580" vert-adv-y="1000"  />

      
      <glyph glyph-name="uni01C7" unicode="&#x01C7;" d="M133 700L153 700L153 19L570 19L570 0L133 0L133 700M758-3Q705-3 658.50 23.50Q612 50 584 96L598 108Q627 64 668.50 40Q710 16 759 16Q836 16 873 60.50Q910 105 910 196L910 681L648 681L648 700L930 700L930 194Q930-3 758-3Z"  horiz-adv-x="1057" vert-adv-y="1000"  />

      
      <glyph glyph-name="uni0139" unicode="&#x0139;" d="M133 700L153 700L153 19L570 19L570 0L133 0L133 700M238 867L278 867L128 757L98 757L238 867Z"  horiz-adv-x="580" vert-adv-y="1000"  />

      
      <glyph glyph-name="uni013D" unicode="&#x013D;" d="M133 700L153 700L153 19L570 19L570 0L133 0L133 700M446 720L466 720L464 540L446 540L446 720Z"  horiz-adv-x="580" vert-adv-y="1000"  />

      
      <glyph glyph-name="uni013B" unicode="&#x013B;" d="M133 700L153 700L153 19L570 19L570 0L133 0L133 700M362-124Q373-124 380.50-132Q388-140 388-150Q388-160 382-182L359-259L341-259L359-176Q349-174 342.50-167Q336-160 336-150Q336-139 343.50-131.50Q351-124 362-124Z"  horiz-adv-x="580" vert-adv-y="1000"  />

      
      <glyph glyph-name="uni013F" unicode="&#x013F;" d="M133 700L153 700L153 19L570 19L570 0L133 0L133 700M433 334Q423 334 415 342Q407 350 407 360Q407 371 415 378.50Q423 386 433 386Q444 386 451.50 378.50Q459 371 459 360Q459 350 451.50 342Q444 334 433 334Z"  horiz-adv-x="580" vert-adv-y="1000"  />

      
      <glyph glyph-name="uni1E36" unicode="&#x1E36;" d="M133 700L153 700L153 19L570 19L570 0L133 0L133 700M362-176Q351-176 343.50-168.50Q336-161 336-150Q336-140 343.50-132Q351-124 362-124Q372-124 380-132Q388-140 388-150Q388-161 380-168.50Q372-176 362-176Z"  horiz-adv-x="580" vert-adv-y="1000"  />

      
      <glyph glyph-name="uni01C8" unicode="&#x01C8;" d="M133 700L153 700L153 19L570 19L570 0L133 0L133 700M598-197Q567-197 539-187.50Q511-178 494-160L508-146Q542-178 597-178Q647-178 673.50-149Q700-120 700-65L700 517L720 517L720-70Q720-128 688-162.50Q656-197 598-197M710 660Q699 660 691.50 668Q684 676 684 686Q684 697 691.50 704.50Q699 712 710 712Q720 712 728 704.50Q736 697 736 686Q736 676 728 668Q720 660 710 660Z"  horiz-adv-x="835" vert-adv-y="1000"  />

      
      <glyph glyph-name="uni1E3A" unicode="&#x1E3A;" d="M133 700L153 700L153 19L570 19L570 0L133 0L133 700M226-140L498-140L498-160L226-160L226-140Z"  horiz-adv-x="580" vert-adv-y="1000"  />

      
      <glyph glyph-name="uni0141" unicode="&#x0141;" d="M133 700L153 700L153 19L570 19L570 0L133 0L133 700M41 296L284 475L295 461L52 282L41 296Z"  horiz-adv-x="580" vert-adv-y="1000"  />

      
      <glyph glyph-name="uni4d" unicode="&#x4d;" d="M823 700L823 0L803 0L803 657L484 99L472 99L153 655L153 0L133 0L133 700L150 700L478 126L806 700L823 700Z"  horiz-adv-x="956" vert-adv-y="1000"  />

      
      <glyph glyph-name="uni1E42" unicode="&#x1E42;" d="M823 700L823 0L803 0L803 657L484 99L472 99L153 655L153 0L133 0L133 700L150 700L478 126L806 700L823 700M478-176Q467-176 459.50-168.50Q452-161 452-150Q452-140 459.50-132Q467-124 478-124Q488-124 496-132Q504-140 504-150Q504-161 496-168.50Q488-176 478-176Z"  horiz-adv-x="956" vert-adv-y="1000"  />

      
      <glyph glyph-name="uni4e" unicode="&#x4e;" d="M683 700L683 0L666 0L153 663L153 0L133 0L133 700L150 700L663 37L663 700L683 700Z"  horiz-adv-x="816" vert-adv-y="1000"  />

      
      <glyph glyph-name="uni01CA" unicode="&#x01CA;" d="M683 700L683 0L666 0L153 663L153 0L133 0L133 700L150 700L663 37L663 700L683 700M994-3Q941-3 894.50 23.50Q848 50 820 96L834 108Q863 64 904.50 40Q946 16 995 16Q1072 16 1109 60.50Q1146 105 1146 196L1146 681L884 681L884 700L1166 700L1166 194Q1166-3 994-3Z"  horiz-adv-x="1293" vert-adv-y="1000"  />

      
      <glyph glyph-name="uni0143" unicode="&#x0143;" d="M683 700L683 0L666 0L153 663L153 0L133 0L133 700L150 700L663 37L663 700L683 700M503 867L543 867L393 757L363 757L503 867Z"  horiz-adv-x="816" vert-adv-y="1000"  />

      
      <glyph glyph-name="uni0147" unicode="&#x0147;" d="M683 700L683 0L666 0L153 663L153 0L133 0L133 700L150 700L663 37L663 700L683 700M546 867L424 757L392 757L270 867L297 867L408 774L519 867L546 867Z"  horiz-adv-x="816" vert-adv-y="1000"  />

      
      <glyph glyph-name="uni0145" unicode="&#x0145;" d="M683 700L683 0L666 0L153 663L153 0L133 0L133 700L150 700L663 37L663 700L683 700M408-124Q419-124 426.50-132Q434-140 434-150Q434-160 428-182L405-259L387-259L405-176Q395-174 388.50-167Q382-160 382-150Q382-139 389.50-131.50Q397-124 408-124Z"  horiz-adv-x="816" vert-adv-y="1000"  />

      
      <glyph glyph-name="uni1E44" unicode="&#x1E44;" d="M683 700L683 0L666 0L153 663L153 0L133 0L133 700L150 700L663 37L663 700L683 700M408 791Q397 791 389.50 799Q382 807 382 817Q382 828 389.50 835.50Q397 843 408 843Q418 843 426 835.50Q434 828 434 817Q434 807 426 799Q418 791 408 791Z"  horiz-adv-x="816" vert-adv-y="1000"  />

      
      <glyph glyph-name="uni1E46" unicode="&#x1E46;" d="M683 700L683 0L666 0L153 663L153 0L133 0L133 700L150 700L663 37L663 700L683 700M408-176Q397-176 389.50-168.50Q382-161 382-150Q382-140 389.50-132Q397-124 408-124Q418-124 426-132Q434-140 434-150Q434-161 426-168.50Q418-176 408-176Z"  horiz-adv-x="816" vert-adv-y="1000"  />

      
      <glyph glyph-name="uni014A" unicode="&#x014A;" d="M683 700L683 0Q683-197 511-197Q458-197 411.50-170.50Q365-144 337-98L351-86Q380-130 421.50-154Q463-178 512-178Q589-178 626-133.50Q663-89 663 2L663 4L153 663L153 0L133 0L133 700L150 700L663 37L663 700L683 700Z"  horiz-adv-x="816" vert-adv-y="1000"  />

      
      <glyph glyph-name="uni01CB" unicode="&#x01CB;" d="M683 700L683 0L666 0L153 663L153 0L133 0L133 700L150 700L663 37L663 700L683 700M834-197Q803-197 775-187.50Q747-178 730-160L744-146Q778-178 833-178Q883-178 909.50-149Q936-120 936-65L936 517L956 517L956-70Q956-128 924-162.50Q892-197 834-197M946 660Q935 660 927.50 668Q920 676 920 686Q920 697 927.50 704.50Q935 712 946 712Q956 712 964 704.50Q972 697 972 686Q972 676 964 668Q956 660 946 660Z"  horiz-adv-x="1071" vert-adv-y="1000"  />

      
      <glyph glyph-name="uni1E48" unicode="&#x1E48;" d="M683 700L683 0L666 0L153 663L153 0L133 0L133 700L150 700L663 37L663 700L683 700M272-140L544-140L544-160L272-160L272-140Z"  horiz-adv-x="816" vert-adv-y="1000"  />

      
      <glyph glyph-name="unid1" unicode="&#xd1;" d="M683 700L683 0L666 0L153 663L153 0L133 0L133 700L150 700L663 37L663 700L683 700M471 769Q451 769 435.50 778.50Q420 788 400 807Q384 822 371.50 830Q359 838 345 838Q321 838 307 820Q293 802 291 771L272 771Q274 810 293.50 833.50Q313 857 345 857Q365 857 380.50 847.50Q396 838 416 819Q432 804 444.50 796Q457 788 471 788Q495 788 509 805.50Q523 823 525 853L544 853Q542 815 522.50 792Q503 769 471 769Z"  horiz-adv-x="816" vert-adv-y="1000"  />

      
      <glyph glyph-name="uni4f" unicode="&#x4f;" d="M418-3Q317-3 235 43Q153 89 106 169.50Q59 250 59 350Q59 450 106 530.50Q153 611 235 657Q317 703 418 703Q519 703 601 657Q683 611 730 530.50Q777 450 777 350Q777 250 730 169.50Q683 89 601 43Q519-3 418-3M418 16Q513 16 590.50 59.50Q668 103 712.50 179.50Q757 256 757 350Q757 444 712.50 520.50Q668 597 590.50 640.50Q513 684 418 684Q323 684 245.50 640.50Q168 597 123.50 520.50Q79 444 79 350Q79 256 123.50 179.50Q168 103 245.50 59.50Q323 16 418 16Z"  horiz-adv-x="836" vert-adv-y="1000"  />

      
      <glyph glyph-name="unid3" unicode="&#xd3;" d="M418-3Q317-3 235 43Q153 89 106 169.50Q59 250 59 350Q59 450 106 530.50Q153 611 235 657Q317 703 418 703Q519 703 601 657Q683 611 730 530.50Q777 450 777 350Q777 250 730 169.50Q683 89 601 43Q519-3 418-3M418 16Q513 16 590.50 59.50Q668 103 712.50 179.50Q757 256 757 350Q757 444 712.50 520.50Q668 597 590.50 640.50Q513 684 418 684Q323 684 245.50 640.50Q168 597 123.50 520.50Q79 444 79 350Q79 256 123.50 179.50Q168 103 245.50 59.50Q323 16 418 16M513 867L553 867L403 757L373 757L513 867Z"  horiz-adv-x="836" vert-adv-y="1000"  />

      
      <glyph glyph-name="uni014E" unicode="&#x014E;" d="M418-3Q317-3 235 43Q153 89 106 169.50Q59 250 59 350Q59 450 106 530.50Q153 611 235 657Q317 703 418 703Q519 703 601 657Q683 611 730 530.50Q777 450 777 350Q777 250 730 169.50Q683 89 601 43Q519-3 418-3M418 16Q513 16 590.50 59.50Q668 103 712.50 179.50Q757 256 757 350Q757 444 712.50 520.50Q668 597 590.50 640.50Q513 684 418 684Q323 684 245.50 640.50Q168 597 123.50 520.50Q79 444 79 350Q79 256 123.50 179.50Q168 103 245.50 59.50Q323 16 418 16M418 754Q363 754 325 785Q287 816 286 867L305 867Q306 824 338 798.50Q370 773 418 773Q466 773 498 798.50Q530 824 531 867L550 867Q549 816 511 785Q473 754 418 754Z"  horiz-adv-x="836" vert-adv-y="1000"  />

      
      <glyph glyph-name="unid4" unicode="&#xd4;" d="M418-3Q317-3 235 43Q153 89 106 169.50Q59 250 59 350Q59 450 106 530.50Q153 611 235 657Q317 703 418 703Q519 703 601 657Q683 611 730 530.50Q777 450 777 350Q777 250 730 169.50Q683 89 601 43Q519-3 418-3M418 16Q513 16 590.50 59.50Q668 103 712.50 179.50Q757 256 757 350Q757 444 712.50 520.50Q668 597 590.50 640.50Q513 684 418 684Q323 684 245.50 640.50Q168 597 123.50 520.50Q79 444 79 350Q79 256 123.50 179.50Q168 103 245.50 59.50Q323 16 418 16M529 757L418 850L307 757L280 757L402 867L434 867L556 757L529 757Z"  horiz-adv-x="836" vert-adv-y="1000"  />

      
      <glyph glyph-name="uni1ED0" unicode="&#x1ED0;" d="M418-3Q317-3 235 43Q153 89 106 169.50Q59 250 59 350Q59 450 106 530.50Q153 611 235 657Q317 703 418 703Q519 703 601 657Q683 611 730 530.50Q777 450 777 350Q777 250 730 169.50Q683 89 601 43Q519-3 418-3M418 16Q513 16 590.50 59.50Q668 103 712.50 179.50Q757 256 757 350Q757 444 712.50 520.50Q668 597 590.50 640.50Q513 684 418 684Q323 684 245.50 640.50Q168 597 123.50 520.50Q79 444 79 350Q79 256 123.50 179.50Q168 103 245.50 59.50Q323 16 418 16M526 757L418 821L310 757L280 757L403 837L433 837L556 757L526 757M620 932L660 932L523 832L493 832L620 932Z"  horiz-adv-x="836" vert-adv-y="1000"  />

      
      <glyph glyph-name="uni1ED8" unicode="&#x1ED8;" d="M418-3Q317-3 235 43Q153 89 106 169.50Q59 250 59 350Q59 450 106 530.50Q153 611 235 657Q317 703 418 703Q519 703 601 657Q683 611 730 530.50Q777 450 777 350Q777 250 730 169.50Q683 89 601 43Q519-3 418-3M418 16Q513 16 590.50 59.50Q668 103 712.50 179.50Q757 256 757 350Q757 444 712.50 520.50Q668 597 590.50 640.50Q513 684 418 684Q323 684 245.50 640.50Q168 597 123.50 520.50Q79 444 79 350Q79 256 123.50 179.50Q168 103 245.50 59.50Q323 16 418 16M418-176Q407-176 399.50-168.50Q392-161 392-150Q392-140 399.50-132Q407-124 418-124Q428-124 436-132Q444-140 444-150Q444-161 436-168.50Q428-176 418-176M529 757L418 850L307 757L280 757L402 867L434 867L556 757L529 757Z"  horiz-adv-x="836" vert-adv-y="1000"  />

      
      <glyph glyph-name="uni1ED2" unicode="&#x1ED2;" d="M418-3Q317-3 235 43Q153 89 106 169.50Q59 250 59 350Q59 450 106 530.50Q153 611 235 657Q317 703 418 703Q519 703 601 657Q683 611 730 530.50Q777 450 777 350Q777 250 730 169.50Q683 89 601 43Q519-3 418-3M418 16Q513 16 590.50 59.50Q668 103 712.50 179.50Q757 256 757 350Q757 444 712.50 520.50Q668 597 590.50 640.50Q513 684 418 684Q323 684 245.50 640.50Q168 597 123.50 520.50Q79 444 79 350Q79 256 123.50 179.50Q168 103 245.50 59.50Q323 16 418 16M526 757L418 821L310 757L280 757L403 837L433 837L556 757L526 757M416 932L456 932L583 832L553 832L416 932Z"  horiz-adv-x="836" vert-adv-y="1000"  />

      
      <glyph glyph-name="uni1ED4" unicode="&#x1ED4;" d="M418-3Q317-3 235 43Q153 89 106 169.50Q59 250 59 350Q59 450 106 530.50Q153 611 235 657Q317 703 418 703Q519 703 601 657Q683 611 730 530.50Q777 450 777 350Q777 250 730 169.50Q683 89 601 43Q519-3 418-3M418 16Q513 16 590.50 59.50Q668 103 712.50 179.50Q757 256 757 350Q757 444 712.50 520.50Q668 597 590.50 640.50Q513 684 418 684Q323 684 245.50 640.50Q168 597 123.50 520.50Q79 444 79 350Q79 256 123.50 179.50Q168 103 245.50 59.50Q323 16 418 16M526 757L418 821L310 757L280 757L403 837L433 837L556 757L526 757M511 833Q532 843 544 857.50Q556 872 556 889Q556 905 544.50 915Q533 925 514 925Q490 925 471 912L463 928Q485 944 515 944Q543 944 559 929Q575 914 575 889Q575 842 521 818L511 833Z"  horiz-adv-x="836" vert-adv-y="1000"  />

      
      <glyph glyph-name="uni1ED6" unicode="&#x1ED6;" d="M418-3Q317-3 235 43Q153 89 106 169.50Q59 250 59 350Q59 450 106 530.50Q153 611 235 657Q317 703 418 703Q519 703 601 657Q683 611 730 530.50Q777 450 777 350Q777 250 730 169.50Q683 89 601 43Q519-3 418-3M418 16Q513 16 590.50 59.50Q668 103 712.50 179.50Q757 256 757 350Q757 444 712.50 520.50Q668 597 590.50 640.50Q513 684 418 684Q323 684 245.50 640.50Q168 597 123.50 520.50Q79 444 79 350Q79 256 123.50 179.50Q168 103 245.50 59.50Q323 16 418 16M526 757L418 821L310 757L280 757L403 837L433 837L556 757L526 757M479 870Q460 870 446 877Q432 884 411 899Q395 911 382.50 917.50Q370 924 357 924Q333 924 318.50 910.50Q304 897 303 872L284 872Q285 904 305 923.50Q325 943 357 943Q375 943 389.50 936Q404 929 425 914Q441 902 453.50 895.50Q466 889 479 889Q503 889 517.50 902Q532 915 533 939L552 939Q551 908 531 889Q511 870 479 870Z"  horiz-adv-x="836" vert-adv-y="1000"  />

      
      <glyph glyph-name="uni020C" unicode="&#x020C;" d="M418-3Q317-3 235 43Q153 89 106 169.50Q59 250 59 350Q59 450 106 530.50Q153 611 235 657Q317 703 418 703Q519 703 601 657Q683 611 730 530.50Q777 450 777 350Q777 250 730 169.50Q683 89 601 43Q519-3 418-3M418 16Q513 16 590.50 59.50Q668 103 712.50 179.50Q757 256 757 350Q757 444 712.50 520.50Q668 597 590.50 640.50Q513 684 418 684Q323 684 245.50 640.50Q168 597 123.50 520.50Q79 444 79 350Q79 256 123.50 179.50Q168 103 245.50 59.50Q323 16 418 16M217 867L251 867L362 757L335 757L217 867M356 867L390 867L501 757L474 757L356 867Z"  horiz-adv-x="836" vert-adv-y="1000"  />

      
      <glyph glyph-name="unid6" unicode="&#xd6;" d="M418-3Q317-3 235 43Q153 89 106 169.50Q59 250 59 350Q59 450 106 530.50Q153 611 235 657Q317 703 418 703Q519 703 601 657Q683 611 730 530.50Q777 450 777 350Q777 250 730 169.50Q683 89 601 43Q519-3 418-3M418 16Q513 16 590.50 59.50Q668 103 712.50 179.50Q757 256 757 350Q757 444 712.50 520.50Q668 597 590.50 640.50Q513 684 418 684Q323 684 245.50 640.50Q168 597 123.50 520.50Q79 444 79 350Q79 256 123.50 179.50Q168 103 245.50 59.50Q323 16 418 16M336 791Q325 791 317.50 799Q310 807 310 817Q310 828 317.50 835.50Q325 843 336 843Q346 843 354 835.50Q362 828 362 817Q362 807 354 799Q346 791 336 791M500 791Q489 791 481.50 799Q474 807 474 817Q474 828 481.50 835.50Q489 843 500 843Q510 843 518 835.50Q526 828 526 817Q526 807 518 799Q510 791 500 791Z"  horiz-adv-x="836" vert-adv-y="1000"  />

      
      <glyph glyph-name="uni022A" unicode="&#x022A;" d="M418-3Q317-3 235 43Q153 89 106 169.50Q59 250 59 350Q59 450 106 530.50Q153 611 235 657Q317 703 418 703Q519 703 601 657Q683 611 730 530.50Q777 450 777 350Q777 250 730 169.50Q683 89 601 43Q519-3 418-3M418 16Q513 16 590.50 59.50Q668 103 712.50 179.50Q757 256 757 350Q757 444 712.50 520.50Q668 597 590.50 640.50Q513 684 418 684Q323 684 245.50 640.50Q168 597 123.50 520.50Q79 444 79 350Q79 256 123.50 179.50Q168 103 245.50 59.50Q323 16 418 16M336 791Q325 791 317.50 799Q310 807 310 817Q310 828 317.50 835.50Q325 843 336 843Q346 843 354 835.50Q362 828 362 817Q362 807 354 799Q346 791 336 791M500 791Q489 791 481.50 799Q474 807 474 817Q474 828 481.50 835.50Q489 843 500 843Q510 843 518 835.50Q526 828 526 817Q526 807 518 799Q510 791 500 791M282 920L554 920L554 900L282 900L282 920Z"  horiz-adv-x="836" vert-adv-y="1000"  />

      
      <glyph glyph-name="uni0230" unicode="&#x0230;" d="M418-3Q317-3 235 43Q153 89 106 169.50Q59 250 59 350Q59 450 106 530.50Q153 611 235 657Q317 703 418 703Q519 703 601 657Q683 611 730 530.50Q777 450 777 350Q777 250 730 169.50Q683 89 601 43Q519-3 418-3M418 16Q513 16 590.50 59.50Q668 103 712.50 179.50Q757 256 757 350Q757 444 712.50 520.50Q668 597 590.50 640.50Q513 684 418 684Q323 684 245.50 640.50Q168 597 123.50 520.50Q79 444 79 350Q79 256 123.50 179.50Q168 103 245.50 59.50Q323 16 418 16M418 791Q407 791 399.50 799Q392 807 392 817Q392 828 399.50 835.50Q407 843 418 843Q428 843 436 835.50Q444 828 444 817Q444 807 436 799Q428 791 418 791M282 920L554 920L554 900L282 900L282 920Z"  horiz-adv-x="836" vert-adv-y="1000"  />

      
      <glyph glyph-name="uni1ECC" unicode="&#x1ECC;" d="M418-3Q317-3 235 43Q153 89 106 169.50Q59 250 59 350Q59 450 106 530.50Q153 611 235 657Q317 703 418 703Q519 703 601 657Q683 611 730 530.50Q777 450 777 350Q777 250 730 169.50Q683 89 601 43Q519-3 418-3M418 16Q513 16 590.50 59.50Q668 103 712.50 179.50Q757 256 757 350Q757 444 712.50 520.50Q668 597 590.50 640.50Q513 684 418 684Q323 684 245.50 640.50Q168 597 123.50 520.50Q79 444 79 350Q79 256 123.50 179.50Q168 103 245.50 59.50Q323 16 418 16M418-176Q407-176 399.50-168.50Q392-161 392-150Q392-140 399.50-132Q407-124 418-124Q428-124 436-132Q444-140 444-150Q444-161 436-168.50Q428-176 418-176Z"  horiz-adv-x="836" vert-adv-y="1000"  />

      
      <glyph glyph-name="unid2" unicode="&#xd2;" d="M418-3Q317-3 235 43Q153 89 106 169.50Q59 250 59 350Q59 450 106 530.50Q153 611 235 657Q317 703 418 703Q519 703 601 657Q683 611 730 530.50Q777 450 777 350Q777 250 730 169.50Q683 89 601 43Q519-3 418-3M418 16Q513 16 590.50 59.50Q668 103 712.50 179.50Q757 256 757 350Q757 444 712.50 520.50Q668 597 590.50 640.50Q513 684 418 684Q323 684 245.50 640.50Q168 597 123.50 520.50Q79 444 79 350Q79 256 123.50 179.50Q168 103 245.50 59.50Q323 16 418 16M283 867L323 867L463 757L433 757L283 867Z"  horiz-adv-x="836" vert-adv-y="1000"  />

      
      <glyph glyph-name="uni1ECE" unicode="&#x1ECE;" d="M418-3Q317-3 235 43Q153 89 106 169.50Q59 250 59 350Q59 450 106 530.50Q153 611 235 657Q317 703 418 703Q519 703 601 657Q683 611 730 530.50Q777 450 777 350Q777 250 730 169.50Q683 89 601 43Q519-3 418-3M418 16Q513 16 590.50 59.50Q668 103 712.50 179.50Q757 256 757 350Q757 444 712.50 520.50Q668 597 590.50 640.50Q513 684 418 684Q323 684 245.50 640.50Q168 597 123.50 520.50Q79 444 79 350Q79 256 123.50 179.50Q168 103 245.50 59.50Q323 16 418 16M410 769Q473 797 473 846Q473 869 456.50 884.50Q440 900 415 900Q382 900 353 881L345 898Q358 908 377 913.50Q396 919 414 919Q450 919 471.50 899.50Q493 880 493 847Q493 817 475 794Q457 771 420 753L410 769Z"  horiz-adv-x="836" vert-adv-y="1000"  />

      
      <glyph glyph-name="uni01A0" unicode="&#x01A0;" d="M567 673Q664 633 720.50 545.50Q777 458 777 350Q777 250 730 169.50Q683 89 601 43Q519-3 418-3Q317-3 235 43Q153 89 106 169.50Q59 250 59 350Q59 450 106 530.50Q153 611 235 657Q317 703 418 703Q465 703 537 695Q590 688 627 688Q737 688 737 770Q737 802 717 837L735 845Q745 830 751 810Q757 790 757 771Q757 669 627 669Q596 669 567 673M418 16Q513 16 590.50 60Q668 104 712.50 180.50Q757 257 757 350Q757 443 712.50 519.50Q668 596 590.50 640Q513 684 418 684Q323 684 245.50 640Q168 596 123.50 519.50Q79 443 79 350Q79 257 123.50 180.50Q168 104 245.50 60Q323 16 418 16Z"  horiz-adv-x="836" vert-adv-y="1000"  />

      
      <glyph glyph-name="uni1EDA" unicode="&#x1EDA;" d="M567 673Q664 633 720.50 545.50Q777 458 777 350Q777 250 730 169.50Q683 89 601 43Q519-3 418-3Q317-3 235 43Q153 89 106 169.50Q59 250 59 350Q59 450 106 530.50Q153 611 235 657Q317 703 418 703Q465 703 537 695Q590 688 627 688Q737 688 737 770Q737 802 717 837L735 845Q745 830 751 810Q757 790 757 771Q757 669 627 669Q596 669 567 673M418 16Q513 16 590.50 60Q668 104 712.50 180.50Q757 257 757 350Q757 443 712.50 519.50Q668 596 590.50 640Q513 684 418 684Q323 684 245.50 640Q168 596 123.50 519.50Q79 443 79 350Q79 257 123.50 180.50Q168 104 245.50 60Q323 16 418 16M513 867L553 867L403 757L373 757L513 867Z"  horiz-adv-x="836" vert-adv-y="1000"  />

      
      <glyph glyph-name="uni1EE2" unicode="&#x1EE2;" d="M567 673Q664 633 720.50 545.50Q777 458 777 350Q777 250 730 169.50Q683 89 601 43Q519-3 418-3Q317-3 235 43Q153 89 106 169.50Q59 250 59 350Q59 450 106 530.50Q153 611 235 657Q317 703 418 703Q465 703 537 695Q590 688 627 688Q737 688 737 770Q737 802 717 837L735 845Q745 830 751 810Q757 790 757 771Q757 669 627 669Q596 669 567 673M418 16Q513 16 590.50 60Q668 104 712.50 180.50Q757 257 757 350Q757 443 712.50 519.50Q668 596 590.50 640Q513 684 418 684Q323 684 245.50 640Q168 596 123.50 519.50Q79 443 79 350Q79 257 123.50 180.50Q168 104 245.50 60Q323 16 418 16M418-176Q407-176 399.50-168.50Q392-161 392-150Q392-140 399.50-132Q407-124 418-124Q428-124 436-132Q444-140 444-150Q444-161 436-168.50Q428-176 418-176Z"  horiz-adv-x="836" vert-adv-y="1000"  />

      
      <glyph glyph-name="uni1EDC" unicode="&#x1EDC;" d="M567 673Q664 633 720.50 545.50Q777 458 777 350Q777 250 730 169.50Q683 89 601 43Q519-3 418-3Q317-3 235 43Q153 89 106 169.50Q59 250 59 350Q59 450 106 530.50Q153 611 235 657Q317 703 418 703Q465 703 537 695Q590 688 627 688Q737 688 737 770Q737 802 717 837L735 845Q745 830 751 810Q757 790 757 771Q757 669 627 669Q596 669 567 673M418 16Q513 16 590.50 60Q668 104 712.50 180.50Q757 257 757 350Q757 443 712.50 519.50Q668 596 590.50 640Q513 684 418 684Q323 684 245.50 640Q168 596 123.50 519.50Q79 443 79 350Q79 257 123.50 180.50Q168 104 245.50 60Q323 16 418 16M283 867L323 867L463 757L433 757L283 867Z"  horiz-adv-x="836" vert-adv-y="1000"  />

      
      <glyph glyph-name="uni1EDE" unicode="&#x1EDE;" d="M567 673Q664 633 720.50 545.50Q777 458 777 350Q777 250 730 169.50Q683 89 601 43Q519-3 418-3Q317-3 235 43Q153 89 106 169.50Q59 250 59 350Q59 450 106 530.50Q153 611 235 657Q317 703 418 703Q465 703 537 695Q590 688 627 688Q737 688 737 770Q737 802 717 837L735 845Q745 830 751 810Q757 790 757 771Q757 669 627 669Q596 669 567 673M418 16Q513 16 590.50 60Q668 104 712.50 180.50Q757 257 757 350Q757 443 712.50 519.50Q668 596 590.50 640Q513 684 418 684Q323 684 245.50 640Q168 596 123.50 519.50Q79 443 79 350Q79 257 123.50 180.50Q168 104 245.50 60Q323 16 418 16M410 769Q473 797 473 846Q473 869 456.50 884.50Q440 900 415 900Q382 900 353 881L345 898Q358 908 377 913.50Q396 919 414 919Q450 919 471.50 899.50Q493 880 493 847Q493 817 475 794Q457 771 420 753L410 769Z"  horiz-adv-x="836" vert-adv-y="1000"  />

      
      <glyph glyph-name="uni1EE0" unicode="&#x1EE0;" d="M567 673Q664 633 720.50 545.50Q777 458 777 350Q777 250 730 169.50Q683 89 601 43Q519-3 418-3Q317-3 235 43Q153 89 106 169.50Q59 250 59 350Q59 450 106 530.50Q153 611 235 657Q317 703 418 703Q465 703 537 695Q590 688 627 688Q737 688 737 770Q737 802 717 837L735 845Q745 830 751 810Q757 790 757 771Q757 669 627 669Q596 669 567 673M418 16Q513 16 590.50 60Q668 104 712.50 180.50Q757 257 757 350Q757 443 712.50 519.50Q668 596 590.50 640Q513 684 418 684Q323 684 245.50 640Q168 596 123.50 519.50Q79 443 79 350Q79 257 123.50 180.50Q168 104 245.50 60Q323 16 418 16M481 769Q461 769 445.50 778.50Q430 788 410 807Q394 822 381.50 830Q369 838 355 838Q331 838 317 820Q303 802 301 771L282 771Q284 810 303.50 833.50Q323 857 355 857Q375 857 390.50 847.50Q406 838 426 819Q442 804 454.50 796Q467 788 481 788Q505 788 519 805.50Q533 823 535 853L554 853Q552 815 532.50 792Q513 769 481 769Z"  horiz-adv-x="836" vert-adv-y="1000"  />

      
      <glyph glyph-name="uni0150" unicode="&#x0150;" d="M418-3Q317-3 235 43Q153 89 106 169.50Q59 250 59 350Q59 450 106 530.50Q153 611 235 657Q317 703 418 703Q519 703 601 657Q683 611 730 530.50Q777 450 777 350Q777 250 730 169.50Q683 89 601 43Q519-3 418-3M418 16Q513 16 590.50 59.50Q668 103 712.50 179.50Q757 256 757 350Q757 444 712.50 520.50Q668 597 590.50 640.50Q513 684 418 684Q323 684 245.50 640.50Q168 597 123.50 520.50Q79 444 79 350Q79 256 123.50 179.50Q168 103 245.50 59.50Q323 16 418 16M446 867L480 867L362 757L335 757L446 867M585 867L619 867L501 757L474 757L585 867Z"  horiz-adv-x="836" vert-adv-y="1000"  />

      
      <glyph glyph-name="uni020E" unicode="&#x020E;" d="M418-3Q317-3 235 43Q153 89 106 169.50Q59 250 59 350Q59 450 106 530.50Q153 611 235 657Q317 703 418 703Q519 703 601 657Q683 611 730 530.50Q777 450 777 350Q777 250 730 169.50Q683 89 601 43Q519-3 418-3M418 16Q513 16 590.50 59.50Q668 103 712.50 179.50Q757 256 757 350Q757 444 712.50 520.50Q668 597 590.50 640.50Q513 684 418 684Q323 684 245.50 640.50Q168 597 123.50 520.50Q79 444 79 350Q79 256 123.50 179.50Q168 103 245.50 59.50Q323 16 418 16M286 757Q287 808 325 839Q363 870 418 870Q473 870 511 839Q549 808 550 757L531 757Q530 800 498 825.50Q466 851 418 851Q370 851 338 825.50Q306 800 305 757L286 757Z"  horiz-adv-x="836" vert-adv-y="1000"  />

      
      <glyph glyph-name="uni014C" unicode="&#x014C;" d="M418-3Q317-3 235 43Q153 89 106 169.50Q59 250 59 350Q59 450 106 530.50Q153 611 235 657Q317 703 418 703Q519 703 601 657Q683 611 730 530.50Q777 450 777 350Q777 250 730 169.50Q683 89 601 43Q519-3 418-3M418 16Q513 16 590.50 59.50Q668 103 712.50 179.50Q757 256 757 350Q757 444 712.50 520.50Q668 597 590.50 640.50Q513 684 418 684Q323 684 245.50 640.50Q168 597 123.50 520.50Q79 444 79 350Q79 256 123.50 179.50Q168 103 245.50 59.50Q323 16 418 16M282 822L554 822L554 802L282 802L282 822Z"  horiz-adv-x="836" vert-adv-y="1000"  />

      
      <glyph glyph-name="uni1E52" unicode="&#x1E52;" d="M418-3Q317-3 235 43Q153 89 106 169.50Q59 250 59 350Q59 450 106 530.50Q153 611 235 657Q317 703 418 703Q519 703 601 657Q683 611 730 530.50Q777 450 777 350Q777 250 730 169.50Q683 89 601 43Q519-3 418-3M418 16Q513 16 590.50 59.50Q668 103 712.50 179.50Q757 256 757 350Q757 444 712.50 520.50Q668 597 590.50 640.50Q513 684 418 684Q323 684 245.50 640.50Q168 597 123.50 520.50Q79 444 79 350Q79 256 123.50 179.50Q168 103 245.50 59.50Q323 16 418 16M282 807L554 807L554 787L282 787L282 807M500 970L540 970L403 870L373 870L500 970Z"  horiz-adv-x="836" vert-adv-y="1000"  />

      
      <glyph glyph-name="uni1E50" unicode="&#x1E50;" d="M418-3Q317-3 235 43Q153 89 106 169.50Q59 250 59 350Q59 450 106 530.50Q153 611 235 657Q317 703 418 703Q519 703 601 657Q683 611 730 530.50Q777 450 777 350Q777 250 730 169.50Q683 89 601 43Q519-3 418-3M418 16Q513 16 590.50 59.50Q668 103 712.50 179.50Q757 256 757 350Q757 444 712.50 520.50Q668 597 590.50 640.50Q513 684 418 684Q323 684 245.50 640.50Q168 597 123.50 520.50Q79 444 79 350Q79 256 123.50 179.50Q168 103 245.50 59.50Q323 16 418 16M282 807L554 807L554 787L282 787L282 807M296 970L336 970L463 870L433 870L296 970Z"  horiz-adv-x="836" vert-adv-y="1000"  />

      
      <glyph glyph-name="uni01EA" unicode="&#x01EA;" d="M418 703Q519 703 601 657Q683 611 730 530.50Q777 450 777 350Q777 260 740 187.50Q703 115 640 68Q577 21 500 6Q436-7 389-45Q342-83 342-130Q342-161 362-177.50Q382-194 414-194Q451-194 476-171L487-186Q456-213 413-213Q373-213 347.50-190.50Q322-168 322-130Q322-98 344-65.50Q366-33 420-3L418-3Q317-3 235 43Q153 89 106 169.50Q59 250 59 350Q59 450 106 530.50Q153 611 235 657Q317 703 418 703M418 16Q513 16 590.50 59.50Q668 103 712.50 179.50Q757 256 757 350Q757 444 712.50 520.50Q668 597 590.50 640.50Q513 684 418 684Q323 684 245.50 640.50Q168 597 123.50 520.50Q79 444 79 350Q79 256 123.50 179.50Q168 103 245.50 59.50Q323 16 418 16Z"  horiz-adv-x="836" vert-adv-y="1000"  />

      
      <glyph glyph-name="unid8" unicode="&#xd8;" d="M418-3Q317-3 235 43Q153 89 106 169.50Q59 250 59 350Q59 450 106 530.50Q153 611 235 657Q317 703 418 703Q519 703 601 657Q683 611 730 530.50Q777 450 777 350Q777 250 730 169.50Q683 89 601 43Q519-3 418-3M418 16Q513 16 590.50 59.50Q668 103 712.50 179.50Q757 256 757 350Q757 444 712.50 520.50Q668 597 590.50 640.50Q513 684 418 684Q323 684 245.50 640.50Q168 597 123.50 520.50Q79 444 79 350Q79 256 123.50 179.50Q168 103 245.50 59.50Q323 16 418 16M714 770L737 770L122-70L99-70L714 770Z"  horiz-adv-x="836" vert-adv-y="1000"  />

      
      <glyph glyph-name="uni01FE" unicode="&#x01FE;" d="M418-3Q317-3 235 43Q153 89 106 169.50Q59 250 59 350Q59 450 106 530.50Q153 611 235 657Q317 703 418 703Q519 703 601 657Q683 611 730 530.50Q777 450 777 350Q777 250 730 169.50Q683 89 601 43Q519-3 418-3M418 16Q513 16 590.50 59.50Q668 103 712.50 179.50Q757 256 757 350Q757 444 712.50 520.50Q668 597 590.50 640.50Q513 684 418 684Q323 684 245.50 640.50Q168 597 123.50 520.50Q79 444 79 350Q79 256 123.50 179.50Q168 103 245.50 59.50Q323 16 418 16M714 770L737 770L122-70L99-70L714 770M513 867L553 867L403 757L373 757L513 867Z"  horiz-adv-x="836" vert-adv-y="1000"  />

      
      <glyph glyph-name="unid5" unicode="&#xd5;" d="M418-3Q317-3 235 43Q153 89 106 169.50Q59 250 59 350Q59 450 106 530.50Q153 611 235 657Q317 703 418 703Q519 703 601 657Q683 611 730 530.50Q777 450 777 350Q777 250 730 169.50Q683 89 601 43Q519-3 418-3M418 16Q513 16 590.50 59.50Q668 103 712.50 179.50Q757 256 757 350Q757 444 712.50 520.50Q668 597 590.50 640.50Q513 684 418 684Q323 684 245.50 640.50Q168 597 123.50 520.50Q79 444 79 350Q79 256 123.50 179.50Q168 103 245.50 59.50Q323 16 418 16M481 769Q461 769 445.50 778.50Q430 788 410 807Q394 822 381.50 830Q369 838 355 838Q331 838 317 820Q303 802 301 771L282 771Q284 810 303.50 833.50Q323 857 355 857Q375 857 390.50 847.50Q406 838 426 819Q442 804 454.50 796Q467 788 481 788Q505 788 519 805.50Q533 823 535 853L554 853Q552 815 532.50 792Q513 769 481 769Z"  horiz-adv-x="836" vert-adv-y="1000"  />

      
      <glyph glyph-name="uni1E4C" unicode="&#x1E4C;" d="M418-3Q317-3 235 43Q153 89 106 169.50Q59 250 59 350Q59 450 106 530.50Q153 611 235 657Q317 703 418 703Q519 703 601 657Q683 611 730 530.50Q777 450 777 350Q777 250 730 169.50Q683 89 601 43Q519-3 418-3M418 16Q513 16 590.50 59.50Q668 103 712.50 179.50Q757 256 757 350Q757 444 712.50 520.50Q668 597 590.50 640.50Q513 684 418 684Q323 684 245.50 640.50Q168 597 123.50 520.50Q79 444 79 350Q79 256 123.50 179.50Q168 103 245.50 59.50Q323 16 418 16M479 772Q460 772 446 779Q432 786 411 801Q395 813 382.50 819.50Q370 826 357 826Q333 826 318.50 812.50Q304 799 303 774L284 774Q285 806 305 825.50Q325 845 357 845Q375 845 389.50 838Q404 831 425 816Q441 804 453.50 797.50Q466 791 479 791Q503 791 517.50 804Q532 817 533 841L552 841Q551 810 531 791Q511 772 479 772M500 970L540 970L403 870L373 870L500 970Z"  horiz-adv-x="836" vert-adv-y="1000"  />

      
      <glyph glyph-name="uni1E4E" unicode="&#x1E4E;" d="M418-3Q317-3 235 43Q153 89 106 169.50Q59 250 59 350Q59 450 106 530.50Q153 611 235 657Q317 703 418 703Q519 703 601 657Q683 611 730 530.50Q777 450 777 350Q777 250 730 169.50Q683 89 601 43Q519-3 418-3M418 16Q513 16 590.50 59.50Q668 103 712.50 179.50Q757 256 757 350Q757 444 712.50 520.50Q668 597 590.50 640.50Q513 684 418 684Q323 684 245.50 640.50Q168 597 123.50 520.50Q79 444 79 350Q79 256 123.50 179.50Q168 103 245.50 59.50Q323 16 418 16M479 772Q460 772 446 779Q432 786 411 801Q395 813 382.50 819.50Q370 826 357 826Q333 826 318.50 812.50Q304 799 303 774L284 774Q285 806 305 825.50Q325 845 357 845Q375 845 389.50 838Q404 831 425 816Q441 804 453.50 797.50Q466 791 479 791Q503 791 517.50 804Q532 817 533 841L552 841Q551 810 531 791Q511 772 479 772M336 904Q325 904 317.50 912Q310 920 310 930Q310 941 317.50 948.50Q325 956 336 956Q346 956 354 948.50Q362 941 362 930Q362 920 354 912Q346 904 336 904M500 904Q489 904 481.50 912Q474 920 474 930Q474 941 481.50 948.50Q489 956 500 956Q510 956 518 948.50Q526 941 526 930Q526 920 518 912Q510 904 500 904Z"  horiz-adv-x="836" vert-adv-y="1000"  />

      
      <glyph glyph-name="uni022C" unicode="&#x022C;" d="M418-3Q317-3 235 43Q153 89 106 169.50Q59 250 59 350Q59 450 106 530.50Q153 611 235 657Q317 703 418 703Q519 703 601 657Q683 611 730 530.50Q777 450 777 350Q777 250 730 169.50Q683 89 601 43Q519-3 418-3M418 16Q513 16 590.50 59.50Q668 103 712.50 179.50Q757 256 757 350Q757 444 712.50 520.50Q668 597 590.50 640.50Q513 684 418 684Q323 684 245.50 640.50Q168 597 123.50 520.50Q79 444 79 350Q79 256 123.50 179.50Q168 103 245.50 59.50Q323 16 418 16M479 772Q460 772 446 779Q432 786 411 801Q395 813 382.50 819.50Q370 826 357 826Q333 826 318.50 812.50Q304 799 303 774L284 774Q285 806 305 825.50Q325 845 357 845Q375 845 389.50 838Q404 831 425 816Q441 804 453.50 797.50Q466 791 479 791Q503 791 517.50 804Q532 817 533 841L552 841Q551 810 531 791Q511 772 479 772M282 920L554 920L554 900L282 900L282 920Z"  horiz-adv-x="836" vert-adv-y="1000"  />

      
      <glyph glyph-name="uni0152" unicode="&#x0152;" d="M1043 19L1043 0L428 0Q320 0 236 45Q152 90 105.50 169.50Q59 249 59 349Q59 449 105.50 529Q152 609 236 654.50Q320 700 428 700L1028 700L1028 681L597 681L597 365L983 365L983 346L597 346L597 19L1043 19M577 19L577 681L428 681Q324 681 245 638Q166 595 122.50 519.50Q79 444 79 349Q79 254 122.50 179Q166 104 245 61.50Q324 19 428 19L577 19Z"  horiz-adv-x="1112" vert-adv-y="1000"  />

      
      <glyph glyph-name="uni50" unicode="&#x50;" d="M370 700Q499 700 572 639.50Q645 579 645 470Q645 361 572 300.50Q499 240 370 240L153 240L153 0L133 0L133 700L370 700M372 259Q494 259 559.50 314Q625 369 625 470Q625 571 559.50 626Q494 681 372 681L153 681L153 259L372 259Z"  horiz-adv-x="710" vert-adv-y="1000"  />

      
      <glyph glyph-name="unide" unicode="&#xde;" d="M370 600Q499 600 572 539.50Q645 479 645 370Q645 261 572 200Q499 139 370 139L153 139L153 0L133 0L133 700L153 700L153 600L370 600M372 158Q494 158 559.50 213Q625 268 625 370Q625 471 559.50 526Q494 581 372 581L153 581L153 158L372 158Z"  horiz-adv-x="710" vert-adv-y="1000"  />

      
      <glyph glyph-name="uni51" unicode="&#x51;" d="M807-48Q776-85 735.50-104.50Q695-124 648-124Q596-124 544-95Q492-66 431-3L418-3Q317-3 235 43Q153 89 106 169.50Q59 250 59 350Q59 450 106 530.50Q153 611 235 657Q317 703 418 703Q519 703 601 657Q683 611 730 530.50Q777 450 777 350Q777 257 736 180.50Q695 104 622.50 56Q550 8 459-1Q557-105 648-105Q734-105 793-34L807-48M79 350Q79 257 123.50 180.50Q168 104 245.50 60Q323 16 418 16Q513 16 590.50 60Q668 104 712.50 180.50Q757 257 757 350Q757 443 712.50 519.50Q668 596 590.50 640Q513 684 418 684Q323 684 245.50 640Q168 596 123.50 519.50Q79 443 79 350Z"  horiz-adv-x="836" vert-adv-y="1000"  />

      
      <glyph glyph-name="uni52" unicode="&#x52;" d="M630 0L452 247Q417 240 370 240L153 240L153 0L133 0L133 700L370 700Q499 700 572 639.50Q645 579 645 470Q645 386 600 329.50Q555 273 473 252L655 0L630 0M372 259Q494 259 559.50 314Q625 369 625 470Q625 571 559.50 626Q494 681 372 681L153 681L153 259L372 259Z"  horiz-adv-x="716" vert-adv-y="1000"  />

      
      <glyph glyph-name="uni0154" unicode="&#x0154;" d="M630 0L452 247Q417 240 370 240L153 240L153 0L133 0L133 700L370 700Q499 700 572 639.50Q645 579 645 470Q645 386 600 329.50Q555 273 473 252L655 0L630 0M372 259Q494 259 559.50 314Q625 369 625 470Q625 571 559.50 626Q494 681 372 681L153 681L153 259L372 259M461 867L501 867L351 757L321 757L461 867Z"  horiz-adv-x="716" vert-adv-y="1000"  />

      
      <glyph glyph-name="uni0158" unicode="&#x0158;" d="M630 0L452 247Q417 240 370 240L153 240L153 0L133 0L133 700L370 700Q499 700 572 639.50Q645 579 645 470Q645 386 600 329.50Q555 273 473 252L655 0L630 0M372 259Q494 259 559.50 314Q625 369 625 470Q625 571 559.50 626Q494 681 372 681L153 681L153 259L372 259M504 867L382 757L350 757L228 867L255 867L366 774L477 867L504 867Z"  horiz-adv-x="716" vert-adv-y="1000"  />

      
      <glyph glyph-name="uni0156" unicode="&#x0156;" d="M630 0L452 247Q417 240 370 240L153 240L153 0L133 0L133 700L370 700Q499 700 572 639.50Q645 579 645 470Q645 386 600 329.50Q555 273 473 252L655 0L630 0M372 259Q494 259 559.50 314Q625 369 625 470Q625 571 559.50 626Q494 681 372 681L153 681L153 259L372 259M366-124Q377-124 384.50-132Q392-140 392-150Q392-160 386-182L363-259L345-259L363-176Q353-174 346.50-167Q340-160 340-150Q340-139 347.50-131.50Q355-124 366-124Z"  horiz-adv-x="716" vert-adv-y="1000"  />

      
      <glyph glyph-name="uni0210" unicode="&#x0210;" d="M630 0L452 247Q417 240 370 240L153 240L153 0L133 0L133 700L370 700Q499 700 572 639.50Q645 579 645 470Q645 386 600 329.50Q555 273 473 252L655 0L630 0M372 259Q494 259 559.50 314Q625 369 625 470Q625 571 559.50 626Q494 681 372 681L153 681L153 259L372 259M165 867L199 867L310 757L283 757L165 867M304 867L338 867L449 757L422 757L304 867Z"  horiz-adv-x="716" vert-adv-y="1000"  />

      
      <glyph glyph-name="uni1E5A" unicode="&#x1E5A;" d="M630 0L452 247Q417 240 370 240L153 240L153 0L133 0L133 700L370 700Q499 700 572 639.50Q645 579 645 470Q645 386 600 329.50Q555 273 473 252L655 0L630 0M372 259Q494 259 559.50 314Q625 369 625 470Q625 571 559.50 626Q494 681 372 681L153 681L153 259L372 259M366-176Q355-176 347.50-168.50Q340-161 340-150Q340-140 347.50-132Q355-124 366-124Q376-124 384-132Q392-140 392-150Q392-161 384-168.50Q376-176 366-176Z"  horiz-adv-x="716" vert-adv-y="1000"  />

      
      <glyph glyph-name="uni0212" unicode="&#x0212;" d="M630 0L452 247Q417 240 370 240L153 240L153 0L133 0L133 700L370 700Q499 700 572 639.50Q645 579 645 470Q645 386 600 329.50Q555 273 473 252L655 0L630 0M372 259Q494 259 559.50 314Q625 369 625 470Q625 571 559.50 626Q494 681 372 681L153 681L153 259L372 259M234 757Q235 808 273 839Q311 870 366 870Q421 870 459 839Q497 808 498 757L479 757Q478 800 446 825.50Q414 851 366 851Q318 851 286 825.50Q254 800 253 757L234 757Z"  horiz-adv-x="716" vert-adv-y="1000"  />

      
      <glyph glyph-name="uni1E5E" unicode="&#x1E5E;" d="M630 0L452 247Q417 240 370 240L153 240L153 0L133 0L133 700L370 700Q499 700 572 639.50Q645 579 645 470Q645 386 600 329.50Q555 273 473 252L655 0L630 0M372 259Q494 259 559.50 314Q625 369 625 470Q625 571 559.50 626Q494 681 372 681L153 681L153 259L372 259M230-140L502-140L502-160L230-160L230-140Z"  horiz-adv-x="716" vert-adv-y="1000"  />

      
      <glyph glyph-name="uni53" unicode="&#x53;" d="M304-3Q228-3 161 24.50Q94 52 58 96L72 109Q106 69 169 42.50Q232 16 303 16Q412 16 467.50 59.50Q523 103 523 172Q523 226 494 258Q465 290 422.50 306Q380 322 308 339Q231 358 186 375.50Q141 393 109.50 429.50Q78 466 78 527Q78 575 103 615Q128 655 181 679Q234 703 312 703Q368 703 422 685.50Q476 668 515 639L504 623Q463 653 412.50 668.50Q362 684 313 684Q208 684 153 639.50Q98 595 98 526Q98 472 127 439.50Q156 407 199 391Q242 375 315 357Q391 338 436 320.50Q481 303 512 267.50Q543 232 543 172Q543 124 517 84Q491 44 437.50 20.50Q384-3 304-3Z"  horiz-adv-x="601" vert-adv-y="1000"  />

      
      <glyph glyph-name="uni015A" unicode="&#x015A;" d="M304-3Q228-3 161 24.50Q94 52 58 96L72 109Q106 69 169 42.50Q232 16 303 16Q412 16 467.50 59.50Q523 103 523 172Q523 226 494 258Q465 290 422.50 306Q380 322 308 339Q231 358 186 375.50Q141 393 109.50 429.50Q78 466 78 527Q78 575 103 615Q128 655 181 679Q234 703 312 703Q368 703 422 685.50Q476 668 515 639L504 623Q463 653 412.50 668.50Q362 684 313 684Q208 684 153 639.50Q98 595 98 526Q98 472 127 439.50Q156 407 199 391Q242 375 315 357Q391 338 436 320.50Q481 303 512 267.50Q543 232 543 172Q543 124 517 84Q491 44 437.50 20.50Q384-3 304-3M413 867L453 867L303 757L273 757L413 867Z"  horiz-adv-x="601" vert-adv-y="1000"  />

      
      <glyph glyph-name="uni1E64" unicode="&#x1E64;" d="M304-3Q228-3 161 24.50Q94 52 58 96L72 109Q106 69 169 42.50Q232 16 303 16Q412 16 467.50 59.50Q523 103 523 172Q523 226 494 258Q465 290 422.50 306Q380 322 308 339Q231 358 186 375.50Q141 393 109.50 429.50Q78 466 78 527Q78 575 103 615Q128 655 181 679Q234 703 312 703Q368 703 422 685.50Q476 668 515 639L504 623Q463 653 412.50 668.50Q362 684 313 684Q208 684 153 639.50Q98 595 98 526Q98 472 127 439.50Q156 407 199 391Q242 375 315 357Q391 338 436 320.50Q481 303 512 267.50Q543 232 543 172Q543 124 517 84Q491 44 437.50 20.50Q384-3 304-3M400 857L440 857L303 757L273 757L400 857M318 904Q307 904 299.50 912Q292 920 292 930Q292 941 299.50 948.50Q307 956 318 956Q328 956 336 948.50Q344 941 344 930Q344 920 336 912Q328 904 318 904Z"  horiz-adv-x="601" vert-adv-y="1000"  />

      
      <glyph glyph-name="uniA78B" unicode="&#xA78B;" d="M94 700L114 700L114 299L94 299L94 700Z"  horiz-adv-x="208" vert-adv-y="1000"  />

      
      <glyph glyph-name="uni0160" unicode="&#x0160;" d="M304-3Q228-3 161 24.50Q94 52 58 96L72 109Q106 69 169 42.50Q232 16 303 16Q412 16 467.50 59.50Q523 103 523 172Q523 226 494 258Q465 290 422.50 306Q380 322 308 339Q231 358 186 375.50Q141 393 109.50 429.50Q78 466 78 527Q78 575 103 615Q128 655 181 679Q234 703 312 703Q368 703 422 685.50Q476 668 515 639L504 623Q463 653 412.50 668.50Q362 684 313 684Q208 684 153 639.50Q98 595 98 526Q98 472 127 439.50Q156 407 199 391Q242 375 315 357Q391 338 436 320.50Q481 303 512 267.50Q543 232 543 172Q543 124 517 84Q491 44 437.50 20.50Q384-3 304-3M456 867L334 757L302 757L180 867L207 867L318 774L429 867L456 867Z"  horiz-adv-x="601" vert-adv-y="1000"  />

      
      <glyph glyph-name="uni1E66" unicode="&#x1E66;" d="M304-3Q228-3 161 24.50Q94 52 58 96L72 109Q106 69 169 42.50Q232 16 303 16Q412 16 467.50 59.50Q523 103 523 172Q523 226 494 258Q465 290 422.50 306Q380 322 308 339Q231 358 186 375.50Q141 393 109.50 429.50Q78 466 78 527Q78 575 103 615Q128 655 181 679Q234 703 312 703Q368 703 422 685.50Q476 668 515 639L504 623Q463 653 412.50 668.50Q362 684 313 684Q208 684 153 639.50Q98 595 98 526Q98 472 127 439.50Q156 407 199 391Q242 375 315 357Q391 338 436 320.50Q481 303 512 267.50Q543 232 543 172Q543 124 517 84Q491 44 437.50 20.50Q384-3 304-3M456 837L333 757L303 757L180 837L210 837L318 773L426 837L456 837M318 881Q307 881 299.50 889Q292 897 292 907Q292 918 299.50 925.50Q307 933 318 933Q328 933 336 925.50Q344 918 344 907Q344 897 336 889Q328 881 318 881Z"  horiz-adv-x="601" vert-adv-y="1000"  />

      
      <glyph glyph-name="uni015E" unicode="&#x015E;" d="M304-3Q228-3 161 24.50Q94 52 58 96L72 109Q106 69 169 42.50Q232 16 303 16Q412 16 467.50 59.50Q523 103 523 172Q523 226 494 258Q465 290 422.50 306Q380 322 308 339Q231 358 186 375.50Q141 393 109.50 429.50Q78 466 78 527Q78 575 103 615Q128 655 181 679Q234 703 312 703Q368 703 422 685.50Q476 668 515 639L504 623Q463 653 412.50 668.50Q362 684 313 684Q208 684 153 639.50Q98 595 98 526Q98 472 127 439.50Q156 407 199 391Q242 375 315 357Q391 338 436 320.50Q481 303 512 267.50Q543 232 543 172Q543 124 517 84Q491 44 437.50 20.50Q384-3 304-3M302-213Q259-213 228-186L239-171Q264-194 301-194Q333-194 353-178Q373-162 373-134Q373-107 354-90.50Q335-74 302-74L286-74L308 5L327 5L310-56Q348-58 370.50-79Q393-100 393-134Q393-170 367.50-191.50Q342-213 302-213Z"  horiz-adv-x="601" vert-adv-y="1000"  />

      
      <glyph glyph-name="uni015C" unicode="&#x015C;" d="M304-3Q228-3 161 24.50Q94 52 58 96L72 109Q106 69 169 42.50Q232 16 303 16Q412 16 467.50 59.50Q523 103 523 172Q523 226 494 258Q465 290 422.50 306Q380 322 308 339Q231 358 186 375.50Q141 393 109.50 429.50Q78 466 78 527Q78 575 103 615Q128 655 181 679Q234 703 312 703Q368 703 422 685.50Q476 668 515 639L504 623Q463 653 412.50 668.50Q362 684 313 684Q208 684 153 639.50Q98 595 98 526Q98 472 127 439.50Q156 407 199 391Q242 375 315 357Q391 338 436 320.50Q481 303 512 267.50Q543 232 543 172Q543 124 517 84Q491 44 437.50 20.50Q384-3 304-3M429 757L318 850L207 757L180 757L302 867L334 867L456 757L429 757Z"  horiz-adv-x="601" vert-adv-y="1000"  />

      
      <glyph glyph-name="uni0218" unicode="&#x0218;" d="M304-3Q228-3 161 24.50Q94 52 58 96L72 109Q106 69 169 42.50Q232 16 303 16Q412 16 467.50 59.50Q523 103 523 172Q523 226 494 258Q465 290 422.50 306Q380 322 308 339Q231 358 186 375.50Q141 393 109.50 429.50Q78 466 78 527Q78 575 103 615Q128 655 181 679Q234 703 312 703Q368 703 422 685.50Q476 668 515 639L504 623Q463 653 412.50 668.50Q362 684 313 684Q208 684 153 639.50Q98 595 98 526Q98 472 127 439.50Q156 407 199 391Q242 375 315 357Q391 338 436 320.50Q481 303 512 267.50Q543 232 543 172Q543 124 517 84Q491 44 437.50 20.50Q384-3 304-3M318-124Q329-124 336.50-132Q344-140 344-150Q344-160 338-182L315-259L297-259L315-176Q305-174 298.50-167Q292-160 292-150Q292-139 299.50-131.50Q307-124 318-124Z"  horiz-adv-x="601" vert-adv-y="1000"  />

      
      <glyph glyph-name="uni1E60" unicode="&#x1E60;" d="M304-3Q228-3 161 24.50Q94 52 58 96L72 109Q106 69 169 42.50Q232 16 303 16Q412 16 467.50 59.50Q523 103 523 172Q523 226 494 258Q465 290 422.50 306Q380 322 308 339Q231 358 186 375.50Q141 393 109.50 429.50Q78 466 78 527Q78 575 103 615Q128 655 181 679Q234 703 312 703Q368 703 422 685.50Q476 668 515 639L504 623Q463 653 412.50 668.50Q362 684 313 684Q208 684 153 639.50Q98 595 98 526Q98 472 127 439.50Q156 407 199 391Q242 375 315 357Q391 338 436 320.50Q481 303 512 267.50Q543 232 543 172Q543 124 517 84Q491 44 437.50 20.50Q384-3 304-3M318 791Q307 791 299.50 799Q292 807 292 817Q292 828 299.50 835.50Q307 843 318 843Q328 843 336 835.50Q344 828 344 817Q344 807 336 799Q328 791 318 791Z"  horiz-adv-x="601" vert-adv-y="1000"  />

      
      <glyph glyph-name="uni1E62" unicode="&#x1E62;" d="M304-3Q228-3 161 24.50Q94 52 58 96L72 109Q106 69 169 42.50Q232 16 303 16Q412 16 467.50 59.50Q523 103 523 172Q523 226 494 258Q465 290 422.50 306Q380 322 308 339Q231 358 186 375.50Q141 393 109.50 429.50Q78 466 78 527Q78 575 103 615Q128 655 181 679Q234 703 312 703Q368 703 422 685.50Q476 668 515 639L504 623Q463 653 412.50 668.50Q362 684 313 684Q208 684 153 639.50Q98 595 98 526Q98 472 127 439.50Q156 407 199 391Q242 375 315 357Q391 338 436 320.50Q481 303 512 267.50Q543 232 543 172Q543 124 517 84Q491 44 437.50 20.50Q384-3 304-3M318-176Q307-176 299.50-168.50Q292-161 292-150Q292-140 299.50-132Q307-124 318-124Q328-124 336-132Q344-140 344-150Q344-161 336-168.50Q328-176 318-176Z"  horiz-adv-x="601" vert-adv-y="1000"  />

      
      <glyph glyph-name="uni1E68" unicode="&#x1E68;" d="M304-3Q228-3 161 24.50Q94 52 58 96L72 109Q106 69 169 42.50Q232 16 303 16Q412 16 467.50 59.50Q523 103 523 172Q523 226 494 258Q465 290 422.50 306Q380 322 308 339Q231 358 186 375.50Q141 393 109.50 429.50Q78 466 78 527Q78 575 103 615Q128 655 181 679Q234 703 312 703Q368 703 422 685.50Q476 668 515 639L504 623Q463 653 412.50 668.50Q362 684 313 684Q208 684 153 639.50Q98 595 98 526Q98 472 127 439.50Q156 407 199 391Q242 375 315 357Q391 338 436 320.50Q481 303 512 267.50Q543 232 543 172Q543 124 517 84Q491 44 437.50 20.50Q384-3 304-3M318-176Q307-176 299.50-168.50Q292-161 292-150Q292-140 299.50-132Q307-124 318-124Q328-124 336-132Q344-140 344-150Q344-161 336-168.50Q328-176 318-176M318 791Q307 791 299.50 799Q292 807 292 817Q292 828 299.50 835.50Q307 843 318 843Q328 843 336 835.50Q344 828 344 817Q344 807 336 799Q328 791 318 791Z"  horiz-adv-x="601" vert-adv-y="1000"  />

      
      <glyph glyph-name="uni1E9E" unicode="&#x1E9E;" d="M453 393Q556 393 616.50 342Q677 291 677 195Q677 100 618 48.50Q559-3 458-3Q415-3 383.50 3.50Q352 10 319 25L327 44Q383 16 458 16Q550 16 603.50 62Q657 108 657 195Q657 282 602.50 328Q548 374 454 374Q402 374 363 362L356 378L598 628Q526 690 398 690Q278 690 212.50 621Q147 552 147 422L147 0L127 0L127 424Q127 558 199 633.50Q271 709 398 709Q534 709 616 637L616 621L389 386Q417 393 453 393Z"  horiz-adv-x="742" vert-adv-y="1000"  />

      
      <glyph glyph-name="uni018F" unicode="&#x018F;" d="M398 703Q499 703 581 657Q663 611 710 530.50Q757 450 757 351Q757 255 710 174Q663 93 583 45Q503-3 408-3Q309-3 229.50 43Q150 89 104.50 169.50Q59 250 59 350L59 360L737 360Q735 451 689.50 525Q644 599 567.50 641.50Q491 684 398 684Q261 684 167 603L156 618Q203 660 265 681.50Q327 703 398 703M408 16Q495 16 570 59Q645 102 690 176.50Q735 251 737 341L79 341Q81 250 124.50 175.50Q168 101 242 58.50Q316 16 408 16Z"  horiz-adv-x="816" vert-adv-y="1000"  />

      
      <glyph glyph-name="uni54" unicode="&#x54;" d="M264 681L4 681L4 700L544 700L544 681L284 681L284 0L264 0L264 681Z"  horiz-adv-x="548" vert-adv-y="1000"  />

      
      <glyph glyph-name="uni0166" unicode="&#x0166;" d="M264 681L4 681L4 700L544 700L544 681L284 681L284 0L264 0L264 681M94 365L454 365L454 346L94 346L94 365Z"  horiz-adv-x="548" vert-adv-y="1000"  />

      
      <glyph glyph-name="uni0164" unicode="&#x0164;" d="M264 681L4 681L4 700L544 700L544 681L284 681L284 0L264 0L264 681M412 867L290 757L258 757L136 867L163 867L274 774L385 867L412 867Z"  horiz-adv-x="548" vert-adv-y="1000"  />

      
      <glyph glyph-name="uni0162" unicode="&#x0162;" d="M264 681L4 681L4 700L544 700L544 681L284 681L284 0L264 0L264 681M258-213Q215-213 184-186L195-171Q220-194 257-194Q289-194 309-178Q329-162 329-134Q329-107 310-90.50Q291-74 258-74L242-74L264 5L283 5L266-56Q304-58 326.50-79Q349-100 349-134Q349-170 323.50-191.50Q298-213 258-213Z"  horiz-adv-x="548" vert-adv-y="1000"  />

      
      <glyph glyph-name="uni021A" unicode="&#x021A;" d="M264 681L4 681L4 700L544 700L544 681L284 681L284 0L264 0L264 681M274-124Q285-124 292.50-132Q300-140 300-150Q300-160 294-182L271-259L253-259L271-176Q261-174 254.50-167Q248-160 248-150Q248-139 255.50-131.50Q263-124 274-124Z"  horiz-adv-x="548" vert-adv-y="1000"  />

      
      <glyph glyph-name="uni1E6C" unicode="&#x1E6C;" d="M264 681L4 681L4 700L544 700L544 681L284 681L284 0L264 0L264 681M274-176Q263-176 255.50-168.50Q248-161 248-150Q248-140 255.50-132Q263-124 274-124Q284-124 292-132Q300-140 300-150Q300-161 292-168.50Q284-176 274-176Z"  horiz-adv-x="548" vert-adv-y="1000"  />

      
      <glyph glyph-name="uni1E6E" unicode="&#x1E6E;" d="M264 681L4 681L4 700L544 700L544 681L284 681L284 0L264 0L264 681M138-140L410-140L410-160L138-160L138-140Z"  horiz-adv-x="548" vert-adv-y="1000"  />

      
      <glyph glyph-name="uni55" unicode="&#x55;" d="M397-3Q269-3 198 72Q127 147 127 293L127 700L147 700L147 294Q147 156 211.50 86Q276 16 397 16Q518 16 582.50 86Q647 156 647 294L647 700L667 700L667 293Q667 147 596 72Q525-3 397-3Z"  horiz-adv-x="794" vert-adv-y="1000"  />

      
      <glyph glyph-name="unida" unicode="&#xda;" d="M397-3Q269-3 198 72Q127 147 127 293L127 700L147 700L147 294Q147 156 211.50 86Q276 16 397 16Q518 16 582.50 86Q647 156 647 294L647 700L667 700L667 293Q667 147 596 72Q525-3 397-3M492 867L532 867L382 757L352 757L492 867Z"  horiz-adv-x="794" vert-adv-y="1000"  />

      
      <glyph glyph-name="uni016C" unicode="&#x016C;" d="M397-3Q269-3 198 72Q127 147 127 293L127 700L147 700L147 294Q147 156 211.50 86Q276 16 397 16Q518 16 582.50 86Q647 156 647 294L647 700L667 700L667 293Q667 147 596 72Q525-3 397-3M397 754Q342 754 304 785Q266 816 265 867L284 867Q285 824 317 798.50Q349 773 397 773Q445 773 477 798.50Q509 824 510 867L529 867Q528 816 490 785Q452 754 397 754Z"  horiz-adv-x="794" vert-adv-y="1000"  />

      
      <glyph glyph-name="uni01D3" unicode="&#x01D3;" d="M397-3Q269-3 198 72Q127 147 127 293L127 700L147 700L147 294Q147 156 211.50 86Q276 16 397 16Q518 16 582.50 86Q647 156 647 294L647 700L667 700L667 293Q667 147 596 72Q525-3 397-3M535 867L413 757L381 757L259 867L286 867L397 774L508 867L535 867Z"  horiz-adv-x="794" vert-adv-y="1000"  />

      
      <glyph glyph-name="unidb" unicode="&#xdb;" d="M397-3Q269-3 198 72Q127 147 127 293L127 700L147 700L147 294Q147 156 211.50 86Q276 16 397 16Q518 16 582.50 86Q647 156 647 294L647 700L667 700L667 293Q667 147 596 72Q525-3 397-3M508 757L397 850L286 757L259 757L381 867L413 867L535 757L508 757Z"  horiz-adv-x="794" vert-adv-y="1000"  />

      
      <glyph glyph-name="uni0214" unicode="&#x0214;" d="M397-3Q269-3 198 72Q127 147 127 293L127 700L147 700L147 294Q147 156 211.50 86Q276 16 397 16Q518 16 582.50 86Q647 156 647 294L647 700L667 700L667 293Q667 147 596 72Q525-3 397-3M196 867L230 867L341 757L314 757L196 867M335 867L369 867L480 757L453 757L335 867Z"  horiz-adv-x="794" vert-adv-y="1000"  />

      
      <glyph glyph-name="unidc" unicode="&#xdc;" d="M397-3Q269-3 198 72Q127 147 127 293L127 700L147 700L147 294Q147 156 211.50 86Q276 16 397 16Q518 16 582.50 86Q647 156 647 294L647 700L667 700L667 293Q667 147 596 72Q525-3 397-3M315 791Q304 791 296.50 799Q289 807 289 817Q289 828 296.50 835.50Q304 843 315 843Q325 843 333 835.50Q341 828 341 817Q341 807 333 799Q325 791 315 791M479 791Q468 791 460.50 799Q453 807 453 817Q453 828 460.50 835.50Q468 843 479 843Q489 843 497 835.50Q505 828 505 817Q505 807 497 799Q489 791 479 791Z"  horiz-adv-x="794" vert-adv-y="1000"  />

      
      <glyph glyph-name="uni1EE4" unicode="&#x1EE4;" d="M397-3Q269-3 198 72Q127 147 127 293L127 700L147 700L147 294Q147 156 211.50 86Q276 16 397 16Q518 16 582.50 86Q647 156 647 294L647 700L667 700L667 293Q667 147 596 72Q525-3 397-3M397-176Q386-176 378.50-168.50Q371-161 371-150Q371-140 378.50-132Q386-124 397-124Q407-124 415-132Q423-140 423-150Q423-161 415-168.50Q407-176 397-176Z"  horiz-adv-x="794" vert-adv-y="1000"  />

      
      <glyph glyph-name="unid9" unicode="&#xd9;" d="M397-3Q269-3 198 72Q127 147 127 293L127 700L147 700L147 294Q147 156 211.50 86Q276 16 397 16Q518 16 582.50 86Q647 156 647 294L647 700L667 700L667 293Q667 147 596 72Q525-3 397-3M262 867L302 867L442 757L412 757L262 867Z"  horiz-adv-x="794" vert-adv-y="1000"  />

      
      <glyph glyph-name="uni1EE6" unicode="&#x1EE6;" d="M397-3Q269-3 198 72Q127 147 127 293L127 700L147 700L147 294Q147 156 211.50 86Q276 16 397 16Q518 16 582.50 86Q647 156 647 294L647 700L667 700L667 293Q667 147 596 72Q525-3 397-3M389 769Q452 797 452 846Q452 869 435.50 884.50Q419 900 394 900Q361 900 332 881L324 898Q337 908 356 913.50Q375 919 393 919Q429 919 450.50 899.50Q472 880 472 847Q472 817 454 794Q436 771 399 753L389 769Z"  horiz-adv-x="794" vert-adv-y="1000"  />

      
      <glyph glyph-name="uni01AF" unicode="&#x01AF;" d="M397-3Q269-3 198 72Q127 147 127 293L127 700L147 700L147 294Q147 156 211.50 86Q276 16 397 16Q518 16 582.50 86Q647 156 647 294L647 700L667 700L667 293Q667 147 596 72Q525-3 397-3M662 700L672 700Q708 700 725 719.50Q742 739 742 770Q742 802 722 837L740 845Q750 830 756 810Q762 790 762 771Q762 731 740 706Q718 681 672 681L662 681L662 700Z"  horiz-adv-x="794" vert-adv-y="1000"  />

      
      <glyph glyph-name="uni1EE8" unicode="&#x1EE8;" d="M397-3Q269-3 198 72Q127 147 127 293L127 700L147 700L147 294Q147 156 211.50 86Q276 16 397 16Q518 16 582.50 86Q647 156 647 294L647 700L667 700L667 293Q667 147 596 72Q525-3 397-3M662 700L672 700Q708 700 725 719.50Q742 739 742 770Q742 802 722 837L740 845Q750 830 756 810Q762 790 762 771Q762 731 740 706Q718 681 672 681L662 681L662 700M492 867L532 867L382 757L352 757L492 867Z"  horiz-adv-x="794" vert-adv-y="1000"  />

      
      <glyph glyph-name="uni1EF0" unicode="&#x1EF0;" d="M397-3Q269-3 198 72Q127 147 127 293L127 700L147 700L147 294Q147 156 211.50 86Q276 16 397 16Q518 16 582.50 86Q647 156 647 294L647 700L667 700L667 293Q667 147 596 72Q525-3 397-3M662 700L672 700Q708 700 725 719.50Q742 739 742 770Q742 802 722 837L740 845Q750 830 756 810Q762 790 762 771Q762 731 740 706Q718 681 672 681L662 681L662 700M397-176Q386-176 378.50-168.50Q371-161 371-150Q371-140 378.50-132Q386-124 397-124Q407-124 415-132Q423-140 423-150Q423-161 415-168.50Q407-176 397-176Z"  horiz-adv-x="794" vert-adv-y="1000"  />

      
      <glyph glyph-name="uni1EEA" unicode="&#x1EEA;" d="M397-3Q269-3 198 72Q127 147 127 293L127 700L147 700L147 294Q147 156 211.50 86Q276 16 397 16Q518 16 582.50 86Q647 156 647 294L647 700L667 700L667 293Q667 147 596 72Q525-3 397-3M662 700L672 700Q708 700 725 719.50Q742 739 742 770Q742 802 722 837L740 845Q750 830 756 810Q762 790 762 771Q762 731 740 706Q718 681 672 681L662 681L662 700M262 867L302 867L442 757L412 757L262 867Z"  horiz-adv-x="794" vert-adv-y="1000"  />

      
      <glyph glyph-name="uni1EEC" unicode="&#x1EEC;" d="M397-3Q269-3 198 72Q127 147 127 293L127 700L147 700L147 294Q147 156 211.50 86Q276 16 397 16Q518 16 582.50 86Q647 156 647 294L647 700L667 700L667 293Q667 147 596 72Q525-3 397-3M662 700L672 700Q708 700 725 719.50Q742 739 742 770Q742 802 722 837L740 845Q750 830 756 810Q762 790 762 771Q762 731 740 706Q718 681 672 681L662 681L662 700M389 769Q452 797 452 846Q452 869 435.50 884.50Q419 900 394 900Q361 900 332 881L324 898Q337 908 356 913.50Q375 919 393 919Q429 919 450.50 899.50Q472 880 472 847Q472 817 454 794Q436 771 399 753L389 769Z"  horiz-adv-x="794" vert-adv-y="1000"  />

      
      <glyph glyph-name="uni1EEE" unicode="&#x1EEE;" d="M397-3Q269-3 198 72Q127 147 127 293L127 700L147 700L147 294Q147 156 211.50 86Q276 16 397 16Q518 16 582.50 86Q647 156 647 294L647 700L667 700L667 293Q667 147 596 72Q525-3 397-3M662 700L672 700Q708 700 725 719.50Q742 739 742 770Q742 802 722 837L740 845Q750 830 756 810Q762 790 762 771Q762 731 740 706Q718 681 672 681L662 681L662 700M460 769Q440 769 424.50 778.50Q409 788 389 807Q373 822 360.50 830Q348 838 334 838Q310 838 296 820Q282 802 280 771L261 771Q263 810 282.50 833.50Q302 857 334 857Q354 857 369.50 847.50Q385 838 405 819Q421 804 433.50 796Q446 788 460 788Q484 788 498 805.50Q512 823 514 853L533 853Q531 815 511.50 792Q492 769 460 769Z"  horiz-adv-x="794" vert-adv-y="1000"  />

      
      <glyph glyph-name="uni0170" unicode="&#x0170;" d="M397-3Q269-3 198 72Q127 147 127 293L127 700L147 700L147 294Q147 156 211.50 86Q276 16 397 16Q518 16 582.50 86Q647 156 647 294L647 700L667 700L667 293Q667 147 596 72Q525-3 397-3M425 867L459 867L341 757L314 757L425 867M564 867L598 867L480 757L453 757L564 867Z"  horiz-adv-x="794" vert-adv-y="1000"  />

      
      <glyph glyph-name="uni0216" unicode="&#x0216;" d="M397-3Q269-3 198 72Q127 147 127 293L127 700L147 700L147 294Q147 156 211.50 86Q276 16 397 16Q518 16 582.50 86Q647 156 647 294L647 700L667 700L667 293Q667 147 596 72Q525-3 397-3M265 757Q266 808 304 839Q342 870 397 870Q452 870 490 839Q528 808 529 757L510 757Q509 800 477 825.50Q445 851 397 851Q349 851 317 825.50Q285 800 284 757L265 757Z"  horiz-adv-x="794" vert-adv-y="1000"  />

      
      <glyph glyph-name="uni016A" unicode="&#x016A;" d="M397-3Q269-3 198 72Q127 147 127 293L127 700L147 700L147 294Q147 156 211.50 86Q276 16 397 16Q518 16 582.50 86Q647 156 647 294L647 700L667 700L667 293Q667 147 596 72Q525-3 397-3M261 822L533 822L533 802L261 802L261 822Z"  horiz-adv-x="794" vert-adv-y="1000"  />

      
      <glyph glyph-name="uni1E7A" unicode="&#x1E7A;" d="M397-3Q269-3 198 72Q127 147 127 293L127 700L147 700L147 294Q147 156 211.50 86Q276 16 397 16Q518 16 582.50 86Q647 156 647 294L647 700L667 700L667 293Q667 147 596 72Q525-3 397-3M261 808L533 808L533 788L261 788L261 808M315 905Q304 905 296.50 913Q289 921 289 931Q289 942 296.50 949.50Q304 957 315 957Q325 957 333 949.50Q341 942 341 931Q341 921 333 913Q325 905 315 905M479 905Q468 905 460.50 913Q453 921 453 931Q453 942 460.50 949.50Q468 957 479 957Q489 957 497 949.50Q505 942 505 931Q505 921 497 913Q489 905 479 905Z"  horiz-adv-x="794" vert-adv-y="1000"  />

      
      <glyph glyph-name="uni0172" unicode="&#x0172;" d="M667 700L667 293Q667 65 490 8Q334-43 334-130Q334-161 354-177.50Q374-194 406-194Q443-194 468-171L479-186Q448-213 405-213Q365-213 339.50-190.50Q314-168 314-130Q314-54 414-2Q408-3 397-3Q269-3 198 72Q127 147 127 293L127 700L147 700L147 294Q147 156 211.50 86Q276 16 397 16Q518 16 582.50 86Q647 156 647 294L647 700L667 700Z"  horiz-adv-x="794" vert-adv-y="1000"  />

      
      <glyph glyph-name="uni016E" unicode="&#x016E;" d="M397-3Q269-3 198 72Q127 147 127 293L127 700L147 700L147 294Q147 156 211.50 86Q276 16 397 16Q518 16 582.50 86Q647 156 647 294L647 700L667 700L667 293Q667 147 596 72Q525-3 397-3M396 780Q356 780 330 806.50Q304 833 304 870Q304 908 330.50 935.50Q357 963 396 963Q435 963 462 935.50Q489 908 489 870Q489 833 462.50 806.50Q436 780 396 780M396 799Q428 799 448.50 819.50Q469 840 469 870Q469 900 448 922Q427 944 396 944Q365 944 344.50 922.50Q324 901 324 870Q324 840 344 819.50Q364 799 396 799Z"  horiz-adv-x="794" vert-adv-y="1000"  />

      
      <glyph glyph-name="uni0168" unicode="&#x0168;" d="M397-3Q269-3 198 72Q127 147 127 293L127 700L147 700L147 294Q147 156 211.50 86Q276 16 397 16Q518 16 582.50 86Q647 156 647 294L647 700L667 700L667 293Q667 147 596 72Q525-3 397-3M460 769Q440 769 424.50 778.50Q409 788 389 807Q373 822 360.50 830Q348 838 334 838Q310 838 296 820Q282 802 280 771L261 771Q263 810 282.50 833.50Q302 857 334 857Q354 857 369.50 847.50Q385 838 405 819Q421 804 433.50 796Q446 788 460 788Q484 788 498 805.50Q512 823 514 853L533 853Q531 815 511.50 792Q492 769 460 769Z"  horiz-adv-x="794" vert-adv-y="1000"  />

      
      <glyph glyph-name="uni1E78" unicode="&#x1E78;" d="M397-3Q269-3 198 72Q127 147 127 293L127 700L147 700L147 294Q147 156 211.50 86Q276 16 397 16Q518 16 582.50 86Q647 156 647 294L647 700L667 700L667 293Q667 147 596 72Q525-3 397-3M458 772Q439 772 425 779Q411 786 390 801Q374 813 361.50 819.50Q349 826 336 826Q312 826 297.50 812.50Q283 799 282 774L263 774Q264 806 284 825.50Q304 845 336 845Q354 845 368.50 838Q383 831 404 816Q420 804 432.50 797.50Q445 791 458 791Q482 791 496.50 804Q511 817 512 841L531 841Q530 810 510 791Q490 772 458 772M479 970L519 970L382 870L352 870L479 970Z"  horiz-adv-x="794" vert-adv-y="1000"  />

      
      </font>
</defs>
</svg>
