<?xml version="1.0" standalone="no"?>
  <!DOCTYPE svg PUBLIC "-//W3C//DTD SVG 1.1//EN" "http://www.w3.org/Graphics/SVG/1.1/DTD/svg11.dtd" >
  <svg>
  <metadata>
  Created by font-carrier
  </metadata>
  <defs>
  <font id="Montserrat-SemiBoldItalic" horiz-adv-x="1670" vert-adv-y="1670" >
    <font-face
      
      font-family="Montserrat SemiBold"
      
      font-weight="400"
      
      font-stretch="normal"
      
      units-per-em="1000"
      
      ascent="968"
      
      descent="-251"
      
    />
      <missing-glyph />

      

      
      <glyph glyph-name="uni41" unicode="&#x41;" d="M534 162L182 162L81 0L-58 0L397 700L526 700L700 0L571 0L534 162M510 264L439 572L246 264L510 264Z"  horiz-adv-x="749" vert-adv-y="1000"  />

      
      <glyph glyph-name="unic1" unicode="&#xc1;" d="M534 162L182 162L81 0L-58 0L397 700L526 700L700 0L571 0L534 162M510 264L439 572L246 264L510 264M537 894L687 894L498 757L386 757L537 894Z"  horiz-adv-x="749" vert-adv-y="1000"  />

      
      <glyph glyph-name="uni0102" unicode="&#x0102;" d="M534 162L182 162L81 0L-58 0L397 700L526 700L700 0L571 0L534 162M510 264L439 572L246 264L510 264M482 750Q410 750 365 789.50Q320 829 325 894L405 894Q404 860 426.50 839.50Q449 819 489 819Q528 819 555 839.50Q582 860 588 894L672 894Q660 828 608 789Q556 750 482 750Z"  horiz-adv-x="749" vert-adv-y="1000"  />

      
      <glyph glyph-name="uni1EAE" unicode="&#x1EAE;" d="M534 162L182 162L81 0L-58 0L397 700L526 700L700 0L571 0L534 162M510 264L439 572L246 264L510 264M482 750Q409 750 364.50 781Q320 812 319 864L396 864Q399 840 423 826.50Q447 813 487 813Q527 813 552.50 826.50Q578 840 585 864L667 864Q655 811 605 780.50Q555 750 482 750M545 1008L683 1008L518 891L418 891L545 1008Z"  horiz-adv-x="749" vert-adv-y="1000"  />

      
      <glyph glyph-name="uni1EB6" unicode="&#x1EB6;" d="M534 162L182 162L81 0L-58 0L397 700L526 700L700 0L571 0L534 162M510 264L439 572L246 264L510 264M286-203Q261-203 246-188.50Q231-174 231-149Q231-122 251-102.50Q271-83 298-83Q321-83 337-98Q353-113 353-136Q353-166 334-184.50Q315-203 286-203M482 750Q410 750 365 789.50Q320 829 325 894L405 894Q404 860 426.50 839.50Q449 819 489 819Q528 819 555 839.50Q582 860 588 894L672 894Q660 828 608 789Q556 750 482 750Z"  horiz-adv-x="749" vert-adv-y="1000"  />

      
      <glyph glyph-name="uni1EB0" unicode="&#x1EB0;" d="M534 162L182 162L81 0L-58 0L397 700L526 700L700 0L571 0L534 162M510 264L439 572L246 264L510 264M482 750Q409 750 364.50 781Q320 812 319 864L396 864Q399 840 423 826.50Q447 813 487 813Q527 813 552.50 826.50Q578 840 585 864L667 864Q655 811 605 780.50Q555 750 482 750M350 1008L485 1008L576 891L480 891L350 1008Z"  horiz-adv-x="749" vert-adv-y="1000"  />

      
      <glyph glyph-name="uni1EB2" unicode="&#x1EB2;" d="M534 162L182 162L81 0L-58 0L397 700L526 700L700 0L571 0L534 162M510 264L439 572L246 264L510 264M482 750Q409 750 364.50 781Q320 812 319 864L396 864Q399 840 423 826.50Q447 813 487 813Q527 813 552.50 826.50Q578 840 585 864L667 864Q655 811 605 780.50Q555 750 482 750M468 897Q513 917 513 946Q513 958 505 965Q497 972 482 972Q458 972 436 960L419 1004Q456 1023 497 1023Q532 1023 553 1005Q574 987 574 957Q574 925 553.50 901.50Q533 878 498 863L468 897Z"  horiz-adv-x="749" vert-adv-y="1000"  />

      
      <glyph glyph-name="uni1EB4" unicode="&#x1EB4;" d="M534 162L182 162L81 0L-58 0L397 700L526 700L700 0L571 0L534 162M510 264L439 572L246 264L510 264M482 750Q409 750 364.50 781Q320 812 319 864L396 864Q399 840 423 826.50Q447 813 487 813Q527 813 552.50 826.50Q578 840 585 864L667 864Q655 811 605 780.50Q555 750 482 750M575 892Q550 892 531.50 900.50Q513 909 492 925Q476 936 466.50 941Q457 946 446 946Q425 946 411.50 933Q398 920 394 898L326 898Q335 952 367 982Q399 1012 446 1012Q471 1012 489 1003.50Q507 995 529 980Q545 969 554.50 964Q564 959 575 959Q596 959 610 972Q624 985 629 1006L694 1006Q687 953 655 922.50Q623 892 575 892Z"  horiz-adv-x="749" vert-adv-y="1000"  />

      
      <glyph glyph-name="uni01CD" unicode="&#x01CD;" d="M534 162L182 162L81 0L-58 0L397 700L526 700L700 0L571 0L534 162M510 264L439 572L246 264L510 264M685 894L534 757L420 757L304 894L404 894L483 820L580 894L685 894Z"  horiz-adv-x="749" vert-adv-y="1000"  />

      
      <glyph glyph-name="unic2" unicode="&#xc2;" d="M534 162L182 162L81 0L-58 0L397 700L526 700L700 0L571 0L534 162M510 264L439 572L246 264L510 264M563 757L484 831L387 757L282 757L433 894L547 894L663 757L563 757Z"  horiz-adv-x="749" vert-adv-y="1000"  />

      
      <glyph glyph-name="uni1EA4" unicode="&#x1EA4;" d="M534 162L182 162L81 0L-58 0L397 700L526 700L700 0L571 0L534 162M510 264L439 572L246 264L510 264M561 757L482 812L387 757L282 757L432 864L543 864L663 757L561 757M705 966L843 966L678 849L578 849L705 966Z"  horiz-adv-x="749" vert-adv-y="1000"  />

      
      <glyph glyph-name="uni1EAC" unicode="&#x1EAC;" d="M534 162L182 162L81 0L-58 0L397 700L526 700L700 0L571 0L534 162M510 264L439 572L246 264L510 264M286-203Q261-203 246-188.50Q231-174 231-149Q231-122 251-102.50Q271-83 298-83Q321-83 337-98Q353-113 353-136Q353-166 334-184.50Q315-203 286-203M563 757L484 831L387 757L282 757L433 894L547 894L663 757L563 757Z"  horiz-adv-x="749" vert-adv-y="1000"  />

      
      <glyph glyph-name="uni1EA6" unicode="&#x1EA6;" d="M534 162L182 162L81 0L-58 0L397 700L526 700L700 0L571 0L534 162M510 264L439 572L246 264L510 264M561 757L482 812L387 757L282 757L432 864L543 864L663 757L561 757M510 966L645 966L736 849L640 849L510 966Z"  horiz-adv-x="749" vert-adv-y="1000"  />

      
      <glyph glyph-name="uni1EA8" unicode="&#x1EA8;" d="M534 162L182 162L81 0L-58 0L397 700L526 700L700 0L571 0L534 162M510 264L439 572L246 264L510 264M561 757L482 812L387 757L282 757L432 864L543 864L663 757L561 757M609 864Q654 884 654 913Q654 925 646 932Q638 939 623 939Q599 939 577 927L560 971Q597 990 638 990Q673 990 694 972Q715 954 715 924Q715 892 694.50 868.50Q674 845 639 830L609 864Z"  horiz-adv-x="749" vert-adv-y="1000"  />

      
      <glyph glyph-name="uni1EAA" unicode="&#x1EAA;" d="M534 162L182 162L81 0L-58 0L397 700L526 700L700 0L571 0L534 162M510 264L439 572L246 264L510 264M561 757L482 812L387 757L282 757L432 864L543 864L663 757L561 757M576 898Q551 898 532.50 906.50Q514 915 493 931Q477 942 467.50 947Q458 952 447 952Q426 952 412.50 939Q399 926 395 904L327 904Q336 958 368 988Q400 1018 447 1018Q472 1018 490 1009.50Q508 1001 530 986Q546 975 555.50 970Q565 965 576 965Q597 965 611 978Q625 991 630 1012L695 1012Q688 959 656 928.50Q624 898 576 898Z"  horiz-adv-x="749" vert-adv-y="1000"  />

      
      <glyph glyph-name="uni0200" unicode="&#x0200;" d="M534 162L182 162L81 0L-58 0L397 700L526 700L700 0L571 0L534 162M510 264L439 572L246 264L510 264M251 894L371 894L425 757L332 757L251 894M439 894L559 894L613 757L520 757L439 894Z"  horiz-adv-x="749" vert-adv-y="1000"  />

      
      <glyph glyph-name="unic4" unicode="&#xc4;" d="M534 162L182 162L81 0L-58 0L397 700L526 700L700 0L571 0L534 162M510 264L439 572L246 264L510 264M386 768Q361 768 345 783Q329 798 329 822Q329 851 347.50 870Q366 889 392 889Q417 889 433 874Q449 859 449 834Q449 806 430 787Q411 768 386 768M579 768Q555 768 539 783Q523 798 523 822Q523 851 541.50 870Q560 889 587 889Q611 889 627.50 873.50Q644 858 644 834Q644 806 624.50 787Q605 768 579 768Z"  horiz-adv-x="749" vert-adv-y="1000"  />

      
      <glyph glyph-name="uni1EA0" unicode="&#x1EA0;" d="M534 162L182 162L81 0L-58 0L397 700L526 700L700 0L571 0L534 162M510 264L439 572L246 264L510 264M286-203Q261-203 246-188.50Q231-174 231-149Q231-122 251-102.50Q271-83 298-83Q321-83 337-98Q353-113 353-136Q353-166 334-184.50Q315-203 286-203Z"  horiz-adv-x="749" vert-adv-y="1000"  />

      
      <glyph glyph-name="unic0" unicode="&#xc0;" d="M534 162L182 162L81 0L-58 0L397 700L526 700L700 0L571 0L534 162M510 264L439 572L246 264L510 264M301 894L447 894L556 757L448 757L301 894Z"  horiz-adv-x="749" vert-adv-y="1000"  />

      
      <glyph glyph-name="uni1EA2" unicode="&#x1EA2;" d="M534 162L182 162L81 0L-58 0L397 700L526 700L700 0L571 0L534 162M510 264L439 572L246 264L510 264M467 793Q530 820 530 863Q530 881 517.50 891.50Q505 902 485 902Q454 902 424 882L401 938Q446 968 505 968Q551 968 578.50 944Q606 920 606 880Q606 794 501 745L467 793Z"  horiz-adv-x="749" vert-adv-y="1000"  />

      
      <glyph glyph-name="uni0202" unicode="&#x0202;" d="M534 162L182 162L81 0L-58 0L397 700L526 700L700 0L571 0L534 162M510 264L439 572L246 264L510 264M299 757Q311 823 363 862.50Q415 902 489 902Q561 902 605.50 862Q650 822 645 757L566 757Q567 792 544 813Q521 834 482 834Q443 834 416 813Q389 792 383 757L299 757Z"  horiz-adv-x="749" vert-adv-y="1000"  />

      
      <glyph glyph-name="uni0100" unicode="&#x0100;" d="M534 162L182 162L81 0L-58 0L397 700L526 700L700 0L571 0L534 162M510 264L439 572L246 264L510 264M319 863L666 863L652 788L305 788L319 863Z"  horiz-adv-x="749" vert-adv-y="1000"  />

      
      <glyph glyph-name="uni0104" unicode="&#x0104;" d="M534 162L182 162L81 0L-58 0L397 700L526 700L700 0L571 0L534 162M510 264L439 572L246 264L510 264M589-228Q537-228 504.50-203Q472-178 472-134Q472-80 517.50-36Q563 8 648 40L700 0Q559-52 559-117Q559-138 572.50-149Q586-160 608-160Q644-160 674-144L686-205Q642-228 589-228Z"  horiz-adv-x="749" vert-adv-y="1000"  />

      
      <glyph glyph-name="unic5" unicode="&#xc5;" d="M534 162L182 162L81 0L-58 0L397 700L526 700L700 0L571 0L534 162M510 264L439 572L246 264L510 264M495 759Q446 759 412.50 792Q379 825 379 873Q379 921 412.50 955Q446 989 495 989Q545 989 579 955Q613 921 613 873Q613 825 579 792Q545 759 495 759M495 810Q523 810 541 828Q559 846 559 873Q559 901 540.50 919.50Q522 938 495 938Q469 938 451 919.50Q433 901 433 873Q433 846 450.50 828Q468 810 495 810Z"  horiz-adv-x="749" vert-adv-y="1000"  />

      
      <glyph glyph-name="uni01FA" unicode="&#x01FA;" d="M534 162L182 162L81 0L-58 0L397 700L526 700L700 0L571 0L534 162M510 264L439 572L246 264L510 264M595 936Q613 907 613 873Q613 825 579 792Q545 759 495 759Q446 759 412.50 792Q379 825 379 873Q379 921 412.50 955Q446 989 495 989Q525 989 549 977L634 1064L697 1014L595 936M495 810Q523 810 541 828Q559 846 559 873Q559 901 540.50 919.50Q522 938 495 938Q469 938 451 919.50Q433 901 433 873Q433 846 450.50 828Q468 810 495 810Z"  horiz-adv-x="749" vert-adv-y="1000"  />

      
      <glyph glyph-name="unic3" unicode="&#xc3;" d="M534 162L182 162L81 0L-58 0L397 700L526 700L700 0L571 0L534 162M510 264L439 572L246 264L510 264M554 757Q529 757 510.50 767Q492 777 470 795Q453 809 441.50 816Q430 823 417 823Q396 823 382 806.50Q368 790 363 763L296 763Q306 827 338.50 862Q371 897 418 897Q442 897 460.50 887Q479 877 502 858Q521 843 531 837Q541 831 554 831Q575 831 589 846.50Q603 862 608 888L675 888Q665 826 633 791.50Q601 757 554 757Z"  horiz-adv-x="749" vert-adv-y="1000"  />

      
      <glyph glyph-name="unic6" unicode="&#xc6;" d="M682 591L646 409L985 409L963 302L624 302L586 109L981 109L959 0L436 0L468 162L209 162L85 0L-59 0L482 700L1085 700L1063 591L682 591M489 264L555 593L538 593L287 264L489 264Z"  horiz-adv-x="1064" vert-adv-y="1000"  />

      
      <glyph glyph-name="uni01FC" unicode="&#x01FC;" d="M682 591L646 409L985 409L963 302L624 302L586 109L981 109L959 0L436 0L468 162L209 162L85 0L-59 0L482 700L1085 700L1063 591L682 591M489 264L555 593L538 593L287 264L489 264M716 894L866 894L677 757L565 757L716 894Z"  horiz-adv-x="1064" vert-adv-y="1000"  />

      
      <glyph glyph-name="uni42" unicode="&#x42;" d="M607 362Q652 345 677 309Q702 273 702 220Q702 112 618 56Q534 0 392 0L41 0L181 700L504 700Q613 700 672.50 659.50Q732 619 732 543Q732 478 698 431.50Q664 385 607 362M290 598L251 405L436 405Q510 405 553 434.50Q596 464 596 521Q596 598 475 598L290 598M401 102Q483 102 527.50 132Q572 162 572 220Q572 265 540.50 284.50Q509 304 446 304L231 304L191 102L401 102Z"  horiz-adv-x="761" vert-adv-y="1000"  />

      
      <glyph glyph-name="uni43" unicode="&#x43;" d="M396-10Q291-10 214.50 27.50Q138 65 97 133Q56 201 56 289Q56 407 110 503Q164 599 262 654.50Q360 710 487 710Q578 710 647.50 680Q717 650 753 593L659 514Q600 596 478 596Q391 596 325 556Q259 516 223 447.50Q187 379 187 297Q187 208 244 156Q301 104 406 104Q527 104 605 185L681 103Q631 46 558 18Q485-10 396-10Z"  horiz-adv-x="727" vert-adv-y="1000"  />

      
      <glyph glyph-name="uni0106" unicode="&#x0106;" d="M396-10Q291-10 214.50 27.50Q138 65 97 133Q56 201 56 289Q56 407 110 503Q164 599 262 654.50Q360 710 487 710Q578 710 647.50 680Q717 650 753 593L659 514Q600 596 478 596Q391 596 325 556Q259 516 223 447.50Q187 379 187 297Q187 208 244 156Q301 104 406 104Q527 104 605 185L681 103Q631 46 558 18Q485-10 396-10M575 894L725 894L536 757L424 757L575 894Z"  horiz-adv-x="727" vert-adv-y="1000"  />

      
      <glyph glyph-name="uni010C" unicode="&#x010C;" d="M396-10Q291-10 214.50 27.50Q138 65 97 133Q56 201 56 289Q56 407 110 503Q164 599 262 654.50Q360 710 487 710Q578 710 647.50 680Q717 650 753 593L659 514Q600 596 478 596Q391 596 325 556Q259 516 223 447.50Q187 379 187 297Q187 208 244 156Q301 104 406 104Q527 104 605 185L681 103Q631 46 558 18Q485-10 396-10M723 894L572 757L458 757L342 894L442 894L521 820L618 894L723 894Z"  horiz-adv-x="727" vert-adv-y="1000"  />

      
      <glyph glyph-name="unic7" unicode="&#xc7;" d="M396-10Q291-10 214.50 27.50Q138 65 97 133Q56 201 56 289Q56 407 110 503Q164 599 262 654.50Q360 710 487 710Q578 710 647.50 680Q717 650 753 593L659 514Q600 596 478 596Q391 596 325 556Q259 516 223 447.50Q187 379 187 297Q187 208 244 156Q301 104 406 104Q527 104 605 185L681 103Q631 46 558 18Q485-10 396-10M289-228Q234-228 198-207L228-148Q259-164 297-164Q326-164 340.50-153.50Q355-143 356-126Q356-95 309-95L278-95L324 7L392 7L368-49Q403-54 421.50-73Q440-92 440-121Q440-171 398.50-199.50Q357-228 289-228Z"  horiz-adv-x="727" vert-adv-y="1000"  />

      
      <glyph glyph-name="uni1E08" unicode="&#x1E08;" d="M396-10Q291-10 214.50 27.50Q138 65 97 133Q56 201 56 289Q56 407 110 503Q164 599 262 654.50Q360 710 487 710Q578 710 647.50 680Q717 650 753 593L659 514Q600 596 478 596Q391 596 325 556Q259 516 223 447.50Q187 379 187 297Q187 208 244 156Q301 104 406 104Q527 104 605 185L681 103Q631 46 558 18Q485-10 396-10M289-228Q234-228 198-207L228-148Q259-164 297-164Q326-164 340.50-153.50Q355-143 356-126Q356-95 309-95L278-95L324 7L392 7L368-49Q403-54 421.50-73Q440-92 440-121Q440-171 398.50-199.50Q357-228 289-228M575 894L725 894L536 757L424 757L575 894Z"  horiz-adv-x="727" vert-adv-y="1000"  />

      
      <glyph glyph-name="uni0108" unicode="&#x0108;" d="M396-10Q291-10 214.50 27.50Q138 65 97 133Q56 201 56 289Q56 407 110 503Q164 599 262 654.50Q360 710 487 710Q578 710 647.50 680Q717 650 753 593L659 514Q600 596 478 596Q391 596 325 556Q259 516 223 447.50Q187 379 187 297Q187 208 244 156Q301 104 406 104Q527 104 605 185L681 103Q631 46 558 18Q485-10 396-10M601 757L522 831L425 757L320 757L471 894L585 894L701 757L601 757Z"  horiz-adv-x="727" vert-adv-y="1000"  />

      
      <glyph glyph-name="uni010A" unicode="&#x010A;" d="M396-10Q291-10 214.50 27.50Q138 65 97 133Q56 201 56 289Q56 407 110 503Q164 599 262 654.50Q360 710 487 710Q578 710 647.50 680Q717 650 753 593L659 514Q600 596 478 596Q391 596 325 556Q259 516 223 447.50Q187 379 187 297Q187 208 244 156Q301 104 406 104Q527 104 605 185L681 103Q631 46 558 18Q485-10 396-10M522 769Q492 769 473.50 786.50Q455 804 455 831Q455 866 477 888.50Q499 911 532 911Q561 911 579.50 893Q598 875 598 848Q598 813 576 791Q554 769 522 769Z"  horiz-adv-x="727" vert-adv-y="1000"  />

      
      <glyph glyph-name="uni44" unicode="&#x44;" d="M181 700L464 700Q569 700 646 664.50Q723 629 763.50 564Q804 499 804 411Q804 288 749.50 195Q695 102 596 51Q497 0 368 0L41 0L181 700M372 110Q464 110 532 148Q600 186 636.50 252.50Q673 319 673 403Q673 491 616 540.50Q559 590 450 590L289 590L193 110L372 110Z"  horiz-adv-x="826" vert-adv-y="1000"  />

      
      <glyph glyph-name="uni01C4" unicode="&#x01C4;" d="M181 700L464 700Q569 700 646 664.50Q723 629 763.50 564Q804 499 804 411Q804 288 749.50 195Q695 102 596 51Q497 0 368 0L41 0L181 700M372 110Q464 110 532 148Q600 186 636.50 252.50Q673 319 673 403Q673 491 616 540.50Q559 590 450 590L289 590L193 110L372 110M1479 613L971 110L1391 110L1368 0L770 0L787 87L1295 590L898 590L921 700L1497 700L1479 613M1434 894L1283 757L1169 757L1053 894L1153 894L1232 820L1329 894L1434 894Z"  horiz-adv-x="1452" vert-adv-y="1000"  />

      
      <glyph glyph-name="unid0" unicode="&#xd0;" d="M191 700L474 700Q579 700 656 664.50Q733 629 773.50 564Q814 499 814 411Q814 288 759.50 195Q705 102 606 51Q507 0 378 0L51 0L191 700M382 110Q474 110 542 148Q610 186 646.50 252.50Q683 319 683 403Q683 491 626 540.50Q569 590 460 590L299 590L203 110L382 110M32 404L448 404L428 308L12 308L32 404Z"  horiz-adv-x="836" vert-adv-y="1000"  />

      
      <glyph glyph-name="uni010E" unicode="&#x010E;" d="M181 700L464 700Q569 700 646 664.50Q723 629 763.50 564Q804 499 804 411Q804 288 749.50 195Q695 102 596 51Q497 0 368 0L41 0L181 700M372 110Q464 110 532 148Q600 186 636.50 252.50Q673 319 673 403Q673 491 616 540.50Q559 590 450 590L289 590L193 110L372 110M683 893L532 756L418 756L302 893L402 893L481 819L578 893L683 893Z"  horiz-adv-x="826" vert-adv-y="1000"  />

      
      <glyph glyph-name="uni0110" unicode="&#x0110;" d="M191 700L474 700Q579 700 656 664.50Q733 629 773.50 564Q814 499 814 411Q814 288 759.50 195Q705 102 606 51Q507 0 378 0L51 0L191 700M382 110Q474 110 542 148Q610 186 646.50 252.50Q683 319 683 403Q683 491 626 540.50Q569 590 460 590L299 590L203 110L382 110M32 404L448 404L428 308L12 308L32 404Z"  horiz-adv-x="836" vert-adv-y="1000"  />

      
      <glyph glyph-name="uni1E0C" unicode="&#x1E0C;" d="M181 700L464 700Q569 700 646 664.50Q723 629 763.50 564Q804 499 804 411Q804 288 749.50 195Q695 102 596 51Q497 0 368 0L41 0L181 700M372 110Q464 110 532 148Q600 186 636.50 252.50Q673 319 673 403Q673 491 616 540.50Q559 590 450 590L289 590L193 110L372 110M288-203Q263-203 248-188.50Q233-174 233-149Q233-122 253-102.50Q273-83 300-83Q323-83 339-98Q355-113 355-136Q355-166 336-184.50Q317-203 288-203Z"  horiz-adv-x="826" vert-adv-y="1000"  />

      
      <glyph glyph-name="uni1E0E" unicode="&#x1E0E;" d="M181 700L464 700Q569 700 646 664.50Q723 629 763.50 564Q804 499 804 411Q804 288 749.50 195Q695 102 596 51Q497 0 368 0L41 0L181 700M372 110Q464 110 532 148Q600 186 636.50 252.50Q673 319 673 403Q673 491 616 540.50Q559 590 450 590L289 590L193 110L372 110M127-104L475-104L462-178L114-178L127-104Z"  horiz-adv-x="826" vert-adv-y="1000"  />

      
      <glyph glyph-name="uni01C5" unicode="&#x01C5;" d="M181 700L464 700Q569 700 646 664.50Q723 629 763.50 564Q804 499 804 411Q804 288 749.50 195Q695 102 596 51Q497 0 368 0L41 0L181 700M372 110Q464 110 532 148Q600 186 636.50 252.50Q673 319 673 403Q673 491 616 540.50Q559 590 450 590L289 590L193 110L372 110M1354 455L995 100L1291 100L1271 0L810 0L825 79L1184 434L905 434L925 534L1370 534L1354 455M1374 744L1223 607L1109 607L993 744L1093 744L1172 670L1269 744L1374 744Z"  horiz-adv-x="1358" vert-adv-y="1000"  />

      
      <glyph glyph-name="uni45" unicode="&#x45;" d="M288 591L252 409L591 409L570 302L230 302L192 109L588 109L566 0L41 0L181 700L692 700L670 591L288 591Z"  horiz-adv-x="670" vert-adv-y="1000"  />

      
      <glyph glyph-name="unic9" unicode="&#xc9;" d="M288 591L252 409L591 409L570 302L230 302L192 109L588 109L566 0L41 0L181 700L692 700L670 591L288 591M513 894L663 894L474 757L362 757L513 894Z"  horiz-adv-x="670" vert-adv-y="1000"  />

      
      <glyph glyph-name="uni0114" unicode="&#x0114;" d="M288 591L252 409L591 409L570 302L230 302L192 109L588 109L566 0L41 0L181 700L692 700L670 591L288 591M458 750Q386 750 341 789.50Q296 829 301 894L381 894Q380 860 402.50 839.50Q425 819 465 819Q504 819 531 839.50Q558 860 564 894L648 894Q636 828 584 789Q532 750 458 750Z"  horiz-adv-x="670" vert-adv-y="1000"  />

      
      <glyph glyph-name="uni011A" unicode="&#x011A;" d="M288 591L252 409L591 409L570 302L230 302L192 109L588 109L566 0L41 0L181 700L692 700L670 591L288 591M661 894L510 757L396 757L280 894L380 894L459 820L556 894L661 894Z"  horiz-adv-x="670" vert-adv-y="1000"  />

      
      <glyph glyph-name="uni1E1C" unicode="&#x1E1C;" d="M288 591L252 409L591 409L570 302L230 302L192 109L588 109L566 0L41 0L181 700L692 700L670 591L288 591M237-228Q182-228 146-207L176-148Q207-164 245-164Q274-164 288.50-153.50Q303-143 304-126Q304-95 257-95L226-95L272 7L340 7L316-49Q351-54 369.50-73Q388-92 388-121Q388-171 346.50-199.50Q305-228 237-228M458 750Q386 750 341 789.50Q296 829 301 894L381 894Q380 860 402.50 839.50Q425 819 465 819Q504 819 531 839.50Q558 860 564 894L648 894Q636 828 584 789Q532 750 458 750Z"  horiz-adv-x="670" vert-adv-y="1000"  />

      
      <glyph glyph-name="unica" unicode="&#xca;" d="M288 591L252 409L591 409L570 302L230 302L192 109L588 109L566 0L41 0L181 700L692 700L670 591L288 591M539 757L460 831L363 757L258 757L409 894L523 894L639 757L539 757Z"  horiz-adv-x="670" vert-adv-y="1000"  />

      
      <glyph glyph-name="uni1EBE" unicode="&#x1EBE;" d="M288 591L252 409L591 409L570 302L230 302L192 109L588 109L566 0L41 0L181 700L692 700L670 591L288 591M537 757L458 812L363 757L258 757L408 864L519 864L639 757L537 757M681 966L819 966L654 849L554 849L681 966Z"  horiz-adv-x="670" vert-adv-y="1000"  />

      
      <glyph glyph-name="uni1EC6" unicode="&#x1EC6;" d="M288 591L252 409L591 409L570 302L230 302L192 109L588 109L566 0L41 0L181 700L692 700L670 591L288 591M270-203Q245-203 230-188.50Q215-174 215-149Q215-122 235-102.50Q255-83 282-83Q305-83 321-98Q337-113 337-136Q337-166 318-184.50Q299-203 270-203M539 757L460 831L363 757L258 757L409 894L523 894L639 757L539 757Z"  horiz-adv-x="670" vert-adv-y="1000"  />

      
      <glyph glyph-name="uni1EC0" unicode="&#x1EC0;" d="M288 591L252 409L591 409L570 302L230 302L192 109L588 109L566 0L41 0L181 700L692 700L670 591L288 591M537 757L458 812L363 757L258 757L408 864L519 864L639 757L537 757M486 966L621 966L712 849L616 849L486 966Z"  horiz-adv-x="670" vert-adv-y="1000"  />

      
      <glyph glyph-name="uni1EC2" unicode="&#x1EC2;" d="M288 591L252 409L591 409L570 302L230 302L192 109L588 109L566 0L41 0L181 700L692 700L670 591L288 591M537 757L458 812L363 757L258 757L408 864L519 864L639 757L537 757M585 864Q630 884 630 913Q630 925 622 932Q614 939 599 939Q575 939 553 927L536 971Q573 990 614 990Q649 990 670 972Q691 954 691 924Q691 892 670.50 868.50Q650 845 615 830L585 864Z"  horiz-adv-x="670" vert-adv-y="1000"  />

      
      <glyph glyph-name="uni1EC4" unicode="&#x1EC4;" d="M288 591L252 409L591 409L570 302L230 302L192 109L588 109L566 0L41 0L181 700L692 700L670 591L288 591M537 757L458 812L363 757L258 757L408 864L519 864L639 757L537 757M552 898Q527 898 508.50 906.50Q490 915 469 931Q453 942 443.50 947Q434 952 423 952Q402 952 388.50 939Q375 926 371 904L303 904Q312 958 344 988Q376 1018 423 1018Q448 1018 466 1009.50Q484 1001 506 986Q522 975 531.50 970Q541 965 552 965Q573 965 587 978Q601 991 606 1012L671 1012Q664 959 632 928.50Q600 898 552 898Z"  horiz-adv-x="670" vert-adv-y="1000"  />

      
      <glyph glyph-name="uni0204" unicode="&#x0204;" d="M288 591L252 409L591 409L570 302L230 302L192 109L588 109L566 0L41 0L181 700L692 700L670 591L288 591M227 894L347 894L401 757L308 757L227 894M415 894L535 894L589 757L496 757L415 894Z"  horiz-adv-x="670" vert-adv-y="1000"  />

      
      <glyph glyph-name="unicb" unicode="&#xcb;" d="M288 591L252 409L591 409L570 302L230 302L192 109L588 109L566 0L41 0L181 700L692 700L670 591L288 591M362 768Q337 768 321 783Q305 798 305 822Q305 851 323.50 870Q342 889 368 889Q393 889 409 874Q425 859 425 834Q425 806 406 787Q387 768 362 768M555 768Q531 768 515 783Q499 798 499 822Q499 851 517.50 870Q536 889 563 889Q587 889 603.50 873.50Q620 858 620 834Q620 806 600.50 787Q581 768 555 768Z"  horiz-adv-x="670" vert-adv-y="1000"  />

      
      <glyph glyph-name="uni0116" unicode="&#x0116;" d="M288 591L252 409L591 409L570 302L230 302L192 109L588 109L566 0L41 0L181 700L692 700L670 591L288 591M460 769Q430 769 411.50 786.50Q393 804 393 831Q393 866 415 888.50Q437 911 470 911Q499 911 517.50 893Q536 875 536 848Q536 813 514 791Q492 769 460 769Z"  horiz-adv-x="670" vert-adv-y="1000"  />

      
      <glyph glyph-name="uni1EB8" unicode="&#x1EB8;" d="M288 591L252 409L591 409L570 302L230 302L192 109L588 109L566 0L41 0L181 700L692 700L670 591L288 591M270-203Q245-203 230-188.50Q215-174 215-149Q215-122 235-102.50Q255-83 282-83Q305-83 321-98Q337-113 337-136Q337-166 318-184.50Q299-203 270-203Z"  horiz-adv-x="670" vert-adv-y="1000"  />

      
      <glyph glyph-name="unic8" unicode="&#xc8;" d="M288 591L252 409L591 409L570 302L230 302L192 109L588 109L566 0L41 0L181 700L692 700L670 591L288 591M277 894L423 894L532 757L424 757L277 894Z"  horiz-adv-x="670" vert-adv-y="1000"  />

      
      <glyph glyph-name="uni1EBA" unicode="&#x1EBA;" d="M288 591L252 409L591 409L570 302L230 302L192 109L588 109L566 0L41 0L181 700L692 700L670 591L288 591M443 793Q506 820 506 863Q506 881 493.50 891.50Q481 902 461 902Q430 902 400 882L377 938Q422 968 481 968Q527 968 554.50 944Q582 920 582 880Q582 794 477 745L443 793Z"  horiz-adv-x="670" vert-adv-y="1000"  />

      
      <glyph glyph-name="uni0206" unicode="&#x0206;" d="M288 591L252 409L591 409L570 302L230 302L192 109L588 109L566 0L41 0L181 700L692 700L670 591L288 591M275 757Q287 823 339 862.50Q391 902 465 902Q537 902 581.50 862Q626 822 621 757L542 757Q543 792 520 813Q497 834 458 834Q419 834 392 813Q365 792 359 757L275 757Z"  horiz-adv-x="670" vert-adv-y="1000"  />

      
      <glyph glyph-name="uni0112" unicode="&#x0112;" d="M288 591L252 409L591 409L570 302L230 302L192 109L588 109L566 0L41 0L181 700L692 700L670 591L288 591M295 863L642 863L628 788L281 788L295 863Z"  horiz-adv-x="670" vert-adv-y="1000"  />

      
      <glyph glyph-name="uni1E16" unicode="&#x1E16;" d="M288 591L252 409L591 409L570 302L230 302L192 109L588 109L566 0L41 0L181 700L692 700L670 591L288 591M291 846L639 846L626 776L278 776L291 846M525 1026L663 1026L498 909L398 909L525 1026Z"  horiz-adv-x="670" vert-adv-y="1000"  />

      
      <glyph glyph-name="uni1E14" unicode="&#x1E14;" d="M288 591L252 409L591 409L570 302L230 302L192 109L588 109L566 0L41 0L181 700L692 700L670 591L288 591M291 846L639 846L626 776L278 776L291 846M330 1026L465 1026L556 909L460 909L330 1026Z"  horiz-adv-x="670" vert-adv-y="1000"  />

      
      <glyph glyph-name="uni0118" unicode="&#x0118;" d="M288 591L252 409L591 409L570 302L230 302L192 109L588 109L566 0L41 0L181 700L692 700L670 591L288 591M455-228Q403-228 370.50-203Q338-178 338-134Q338-80 383.50-36Q429 8 514 40L566 0Q425-52 425-117Q425-138 438.50-149Q452-160 474-160Q510-160 540-144L552-205Q508-228 455-228Z"  horiz-adv-x="670" vert-adv-y="1000"  />

      
      <glyph glyph-name="uni1EBC" unicode="&#x1EBC;" d="M288 591L252 409L591 409L570 302L230 302L192 109L588 109L566 0L41 0L181 700L692 700L670 591L288 591M530 757Q505 757 486.50 767Q468 777 446 795Q429 809 417.50 816Q406 823 393 823Q372 823 358 806.50Q344 790 339 763L272 763Q282 827 314.50 862Q347 897 394 897Q418 897 436.50 887Q455 877 478 858Q497 843 507 837Q517 831 530 831Q551 831 565 846.50Q579 862 584 888L651 888Q641 826 609 791.50Q577 757 530 757Z"  horiz-adv-x="670" vert-adv-y="1000"  />

      
      <glyph glyph-name="uni01B7" unicode="&#x01B7;" d="M603 613L391 408Q468 394 510.50 347.50Q553 301 553 230Q553 161 514 106.50Q475 52 404 21Q333-10 242-10Q164-10 98 12Q32 34-9 74L56 173Q88 141 139 122Q190 103 250 103Q332 103 377 134.50Q422 166 422 223Q422 313 287 313L223 313L241 402L436 591L121 591L143 700L619 700L603 613Z"  horiz-adv-x="609" vert-adv-y="1000"  />

      
      <glyph glyph-name="uni01EE" unicode="&#x01EE;" d="M603 613L391 408Q468 394 510.50 347.50Q553 301 553 230Q553 161 514 106.50Q475 52 404 21Q333-10 242-10Q164-10 98 12Q32 34-9 74L56 173Q88 141 139 122Q190 103 250 103Q332 103 377 134.50Q422 166 422 223Q422 313 287 313L223 313L241 402L436 591L121 591L143 700L619 700L603 613M592 894L441 757L327 757L211 894L311 894L390 820L487 894L592 894Z"  horiz-adv-x="609" vert-adv-y="1000"  />

      
      <glyph glyph-name="uni46" unicode="&#x46;" d="M289 591L246 378L585 378L563 268L225 268L171 0L41 0L181 700L692 700L670 591L289 591Z"  horiz-adv-x="637" vert-adv-y="1000"  />

      
      <glyph glyph-name="uni47" unicode="&#x47;" d="M591 358L714 358L657 76Q604 35 536.50 12.50Q469-10 396-10Q293-10 216 27.50Q139 65 97.50 132.50Q56 200 56 289Q56 407 110 503Q164 599 263 654.50Q362 710 491 710Q586 710 657 680.50Q728 651 772 595L678 517Q644 558 597 577Q550 596 485 596Q396 596 328.50 556.50Q261 517 224 449Q187 381 187 297Q187 208 245 156Q303 104 411 104Q484 104 547 137L591 358Z"  horiz-adv-x="772" vert-adv-y="1000"  />

      
      <glyph glyph-name="uni011E" unicode="&#x011E;" d="M591 358L714 358L657 76Q604 35 536.50 12.50Q469-10 396-10Q293-10 216 27.50Q139 65 97.50 132.50Q56 200 56 289Q56 407 110 503Q164 599 263 654.50Q362 710 491 710Q586 710 657 680.50Q728 651 772 595L678 517Q644 558 597 577Q550 596 485 596Q396 596 328.50 556.50Q261 517 224 449Q187 381 187 297Q187 208 245 156Q303 104 411 104Q484 104 547 137L591 358M520 750Q448 750 403 789.50Q358 829 363 894L443 894Q442 860 464.50 839.50Q487 819 527 819Q566 819 593 839.50Q620 860 626 894L710 894Q698 828 646 789Q594 750 520 750Z"  horiz-adv-x="772" vert-adv-y="1000"  />

      
      <glyph glyph-name="uni01E6" unicode="&#x01E6;" d="M591 358L714 358L657 76Q604 35 536.50 12.50Q469-10 396-10Q293-10 216 27.50Q139 65 97.50 132.50Q56 200 56 289Q56 407 110 503Q164 599 263 654.50Q362 710 491 710Q586 710 657 680.50Q728 651 772 595L678 517Q644 558 597 577Q550 596 485 596Q396 596 328.50 556.50Q261 517 224 449Q187 381 187 297Q187 208 245 156Q303 104 411 104Q484 104 547 137L591 358M723 894L572 757L458 757L342 894L442 894L521 820L618 894L723 894Z"  horiz-adv-x="772" vert-adv-y="1000"  />

      
      <glyph glyph-name="uni011C" unicode="&#x011C;" d="M591 358L714 358L657 76Q604 35 536.50 12.50Q469-10 396-10Q293-10 216 27.50Q139 65 97.50 132.50Q56 200 56 289Q56 407 110 503Q164 599 263 654.50Q362 710 491 710Q586 710 657 680.50Q728 651 772 595L678 517Q644 558 597 577Q550 596 485 596Q396 596 328.50 556.50Q261 517 224 449Q187 381 187 297Q187 208 245 156Q303 104 411 104Q484 104 547 137L591 358M601 757L522 831L425 757L320 757L471 894L585 894L701 757L601 757Z"  horiz-adv-x="772" vert-adv-y="1000"  />

      
      <glyph glyph-name="uni0122" unicode="&#x0122;" d="M591 358L714 358L657 76Q604 35 536.50 12.50Q469-10 396-10Q293-10 216 27.50Q139 65 97.50 132.50Q56 200 56 289Q56 407 110 503Q164 599 263 654.50Q362 710 491 710Q586 710 657 680.50Q728 651 772 595L678 517Q644 558 597 577Q550 596 485 596Q396 596 328.50 556.50Q261 517 224 449Q187 381 187 297Q187 208 245 156Q303 104 411 104Q484 104 547 137L591 358M327-83Q355-83 370-96.50Q385-110 385-131Q385-146 379.50-158.50Q374-171 358-194L312-265L253-265L292-183Q279-178 271.50-167.50Q264-157 264-143Q264-117 280.50-100Q297-83 327-83Z"  horiz-adv-x="772" vert-adv-y="1000"  />

      
      <glyph glyph-name="uni0120" unicode="&#x0120;" d="M591 358L714 358L657 76Q604 35 536.50 12.50Q469-10 396-10Q293-10 216 27.50Q139 65 97.50 132.50Q56 200 56 289Q56 407 110 503Q164 599 263 654.50Q362 710 491 710Q586 710 657 680.50Q728 651 772 595L678 517Q644 558 597 577Q550 596 485 596Q396 596 328.50 556.50Q261 517 224 449Q187 381 187 297Q187 208 245 156Q303 104 411 104Q484 104 547 137L591 358M522 769Q492 769 473.50 786.50Q455 804 455 831Q455 866 477 888.50Q499 911 532 911Q561 911 579.50 893Q598 875 598 848Q598 813 576 791Q554 769 522 769Z"  horiz-adv-x="772" vert-adv-y="1000"  />

      
      <glyph glyph-name="uni1E20" unicode="&#x1E20;" d="M591 358L714 358L657 76Q604 35 536.50 12.50Q469-10 396-10Q293-10 216 27.50Q139 65 97.50 132.50Q56 200 56 289Q56 407 110 503Q164 599 263 654.50Q362 710 491 710Q586 710 657 680.50Q728 651 772 595L678 517Q644 558 597 577Q550 596 485 596Q396 596 328.50 556.50Q261 517 224 449Q187 381 187 297Q187 208 245 156Q303 104 411 104Q484 104 547 137L591 358M357 863L704 863L690 788L343 788L357 863Z"  horiz-adv-x="772" vert-adv-y="1000"  />

      
      <glyph glyph-name="uni01E4" unicode="&#x01E4;" d="M591 358L714 358L657 76Q604 35 536.50 12.50Q469-10 396-10Q293-10 216 27.50Q139 65 97.50 132.50Q56 200 56 289Q56 407 110 503Q164 599 263 654.50Q362 710 491 710Q586 710 657 680.50Q728 651 772 595L678 517Q644 558 597 577Q550 596 485 596Q396 596 328.50 556.50Q261 517 224 449Q187 381 187 297Q187 208 245 156Q303 104 411 104Q484 104 547 137L591 358M402.42 289.94L793.84 289.94L775.02 194.19L383.60 194.19L402.42 289.94Z"  horiz-adv-x="809" vert-adv-y="1000"  />

      
      <glyph glyph-name="uni48" unicode="&#x48;" d="M802 700L662 0L533 0L592 297L230 297L171 0L41 0L181 700L311 700L254 413L616 413L673 700L802 700Z"  horiz-adv-x="810" vert-adv-y="1000"  />

      
      <glyph glyph-name="uni0126" unicode="&#x0126;" d="M812 700L672 0L543 0L602 297L240 297L181 0L51 0L191 700L321 700L264 413L626 413L683 700L812 700M72 607L892 607L875 511L54 511L72 607Z"  horiz-adv-x="830" vert-adv-y="1000"  />

      
      <glyph glyph-name="uni1E2A" unicode="&#x1E2A;" d="M802 700L662 0L533 0L592 297L230 297L171 0L41 0L181 700L311 700L254 413L616 413L673 700L802 700M322-213Q273-213 235.50-195.50Q198-178 178.50-147Q159-116 162-77L242-77Q241-111 263-129.50Q285-148 325-148Q365-148 391.50-129.50Q418-111 424-77L508-77Q497-140 445.50-176.50Q394-213 322-213Z"  horiz-adv-x="810" vert-adv-y="1000"  />

      
      <glyph glyph-name="uni021E" unicode="&#x021E;" d="M802 700L662 0L533 0L592 297L230 297L171 0L41 0L181 700L311 700L254 413L616 413L673 700L802 700M715 894L564 757L450 757L334 894L434 894L513 820L610 894L715 894Z"  horiz-adv-x="810" vert-adv-y="1000"  />

      
      <glyph glyph-name="uni0124" unicode="&#x0124;" d="M802 700L662 0L533 0L592 297L230 297L171 0L41 0L181 700L311 700L254 413L616 413L673 700L802 700M593 757L514 831L417 757L312 757L463 894L577 894L693 757L593 757Z"  horiz-adv-x="810" vert-adv-y="1000"  />

      
      <glyph glyph-name="uni1E24" unicode="&#x1E24;" d="M802 700L662 0L533 0L592 297L230 297L171 0L41 0L181 700L311 700L254 413L616 413L673 700L802 700M316-203Q291-203 276-188.50Q261-174 261-149Q261-122 281-102.50Q301-83 328-83Q351-83 367-98Q383-113 383-136Q383-166 364-184.50Q345-203 316-203Z"  horiz-adv-x="810" vert-adv-y="1000"  />

      
      <glyph glyph-name="uni49" unicode="&#x49;" d="M181 700L311 700L171 0L41 0L181 700Z"  horiz-adv-x="319" vert-adv-y="1000"  />

      
      <glyph glyph-name="uni0132" unicode="&#x0132;" d="M296-10Q214-10 148.50 10Q83 30 36 65L100 167Q143 136 195.50 119.50Q248 103 304 103Q391 103 440.50 150.50Q490 198 511 304L590 700L719 700L640 298Q609 142 523.50 66Q438-10 296-10M175 700L305 700L228 315L98 315L175 700Z"  horiz-adv-x="722" vert-adv-y="1000"  />

      
      <glyph glyph-name="unicd" unicode="&#xcd;" d="M181 700L311 700L171 0L41 0L181 700M322 894L472 894L283 757L171 757L322 894Z"  horiz-adv-x="319" vert-adv-y="1000"  />

      
      <glyph glyph-name="uni012C" unicode="&#x012C;" d="M181 700L311 700L171 0L41 0L181 700M267 750Q195 750 150 789.50Q105 829 110 894L190 894Q189 860 211.50 839.50Q234 819 274 819Q313 819 340 839.50Q367 860 373 894L457 894Q445 828 393 789Q341 750 267 750Z"  horiz-adv-x="319" vert-adv-y="1000"  />

      
      <glyph glyph-name="unice" unicode="&#xce;" d="M181 700L311 700L171 0L41 0L181 700M348 757L269 831L172 757L67 757L218 894L332 894L448 757L348 757Z"  horiz-adv-x="319" vert-adv-y="1000"  />

      
      <glyph glyph-name="uni0208" unicode="&#x0208;" d="M181 700L311 700L171 0L41 0L181 700M36 894L156 894L210 757L117 757L36 894M224 894L344 894L398 757L305 757L224 894Z"  horiz-adv-x="319" vert-adv-y="1000"  />

      
      <glyph glyph-name="unicf" unicode="&#xcf;" d="M181 700L311 700L171 0L41 0L181 700M171 768Q146 768 130 783Q114 798 114 822Q114 851 132.50 870Q151 889 177 889Q202 889 218 874Q234 859 234 834Q234 806 215 787Q196 768 171 768M364 768Q340 768 324 783Q308 798 308 822Q308 851 326.50 870Q345 889 372 889Q396 889 412.50 873.50Q429 858 429 834Q429 806 409.50 787Q390 768 364 768Z"  horiz-adv-x="319" vert-adv-y="1000"  />

      
      <glyph glyph-name="uni1E2E" unicode="&#x1E2E;" d="M181 700L311 700L171 0L41 0L181 700M173 768Q149 768 133.50 782Q118 796 118 820Q118 847 136.50 865.50Q155 884 180 884Q203 884 218.50 869Q234 854 234 830Q234 803 216 785.50Q198 768 173 768M361 768Q337 768 322 782Q307 796 307 820Q307 847 325 865.50Q343 884 368 884Q392 884 407.50 869Q423 854 423 830Q423 803 404.50 785.50Q386 768 361 768M334 1026L472 1026L307 909L207 909L334 1026Z"  horiz-adv-x="319" vert-adv-y="1000"  />

      
      <glyph glyph-name="uni0130" unicode="&#x0130;" d="M181 700L311 700L171 0L41 0L181 700M269 769Q239 769 220.50 786.50Q202 804 202 831Q202 866 224 888.50Q246 911 279 911Q308 911 326.50 893Q345 875 345 848Q345 813 323 791Q301 769 269 769Z"  horiz-adv-x="319" vert-adv-y="1000"  />

      
      <glyph glyph-name="uni1ECA" unicode="&#x1ECA;" d="M181 700L311 700L171 0L41 0L181 700M71-203Q46-203 31-188.50Q16-174 16-149Q16-122 36-102.50Q56-83 83-83Q106-83 122-98Q138-113 138-136Q138-166 119-184.50Q100-203 71-203Z"  horiz-adv-x="319" vert-adv-y="1000"  />

      
      <glyph glyph-name="unicc" unicode="&#xcc;" d="M181 700L311 700L171 0L41 0L181 700M86 894L232 894L341 757L233 757L86 894Z"  horiz-adv-x="319" vert-adv-y="1000"  />

      
      <glyph glyph-name="uni1EC8" unicode="&#x1EC8;" d="M181 700L311 700L171 0L41 0L181 700M252 793Q315 820 315 863Q315 881 302.50 891.50Q290 902 270 902Q239 902 209 882L186 938Q231 968 290 968Q336 968 363.50 944Q391 920 391 880Q391 794 286 745L252 793Z"  horiz-adv-x="319" vert-adv-y="1000"  />

      
      <glyph glyph-name="uni020A" unicode="&#x020A;" d="M181 700L311 700L171 0L41 0L181 700M84 757Q96 823 148 862.50Q200 902 274 902Q346 902 390.50 862Q435 822 430 757L351 757Q352 792 329 813Q306 834 267 834Q228 834 201 813Q174 792 168 757L84 757Z"  horiz-adv-x="319" vert-adv-y="1000"  />

      
      <glyph glyph-name="uni012A" unicode="&#x012A;" d="M181 700L311 700L171 0L41 0L181 700M137 863L419 863L405 788L123 788L137 863Z"  horiz-adv-x="319" vert-adv-y="1000"  />

      
      <glyph glyph-name="uni012E" unicode="&#x012E;" d="M181 700L311 700L171 0L41 0L181 700M99-228Q51-228 25-203Q-1-178-1-138Q-1-85 35.50-41Q72 3 134 38L171 0Q129-31 107.50-63Q86-95 86-124Q86-140 95.50-150Q105-160 121-160Q136-160 156-151L165-211Q142-228 99-228Z"  horiz-adv-x="319" vert-adv-y="1000"  />

      
      <glyph glyph-name="uni0128" unicode="&#x0128;" d="M181 700L311 700L171 0L41 0L181 700M339 757Q314 757 295.50 767Q277 777 255 795Q238 809 226.50 816Q215 823 202 823Q181 823 167 806.50Q153 790 148 763L81 763Q91 827 123.50 862Q156 897 203 897Q227 897 245.50 887Q264 877 287 858Q306 843 316 837Q326 831 339 831Q360 831 374 846.50Q388 862 393 888L460 888Q450 826 418 791.50Q386 757 339 757Z"  horiz-adv-x="319" vert-adv-y="1000"  />

      
      <glyph glyph-name="uni4a" unicode="&#x4a;" d="M171-10Q95-10 40 17Q-15 44-45 94L43 178Q85 100 173 100Q226 100 257.50 129.50Q289 159 302 222L376 591L126 591L148 700L525 700L431 229Q405 100 342 45Q279-10 171-10Z"  horiz-adv-x="527" vert-adv-y="1000"  />

      
      <glyph glyph-name="uni0134" unicode="&#x0134;" d="M171-10Q95-10 40 17Q-15 44-45 94L43 178Q85 100 173 100Q226 100 257.50 129.50Q289 159 302 222L376 591L126 591L148 700L525 700L431 229Q405 100 342 45Q279-10 171-10M438 757L359 831L262 757L157 757L308 894L422 894L538 757L438 757Z"  horiz-adv-x="527" vert-adv-y="1000"  />

      
      <glyph glyph-name="uni4b" unicode="&#x4b;" d="M434 374L683 0L538 0L339 295L206 179L170 0L41 0L181 700L310 700L239 346L646 700L810 700L436 375L434 374Z"  horiz-adv-x="729" vert-adv-y="1000"  />

      
      <glyph glyph-name="uni01E8" unicode="&#x01E8;" d="M434 374L683 0L538 0L339 295L206 179L170 0L41 0L181 700L310 700L239 346L646 700L810 700L436 375L434 374M688 894L537 757L423 757L307 894L407 894L486 820L583 894L688 894Z"  horiz-adv-x="729" vert-adv-y="1000"  />

      
      <glyph glyph-name="uni0136" unicode="&#x0136;" d="M434 374L683 0L538 0L339 295L206 179L170 0L41 0L181 700L310 700L239 346L646 700L810 700L436 375L434 374M299-83Q327-83 342-96.50Q357-110 357-131Q357-146 351.50-158.50Q346-171 330-194L284-265L225-265L264-183Q251-178 243.50-167.50Q236-157 236-143Q236-117 252.50-100Q269-83 299-83Z"  horiz-adv-x="729" vert-adv-y="1000"  />

      
      <glyph glyph-name="uni4c" unicode="&#x4c;" d="M181 700L311 700L193 110L559 110L537 0L41 0L181 700Z"  horiz-adv-x="599" vert-adv-y="1000"  />

      
      <glyph glyph-name="uni01C7" unicode="&#x01C7;" d="M181 700L311 700L193 110L559 110L537 0L41 0L181 700M770-10Q694-10 639 17Q584 44 554 94L642 178Q684 100 772 100Q825 100 856.50 129.50Q888 159 901 222L975 591L725 591L747 700L1124 700L1030 229Q1004 100 941 45Q878-10 770-10Z"  horiz-adv-x="1126" vert-adv-y="1000"  />

      
      <glyph glyph-name="uni0139" unicode="&#x0139;" d="M181 700L311 700L193 110L559 110L537 0L41 0L181 700M323 894L473 894L284 757L172 757L323 894Z"  horiz-adv-x="599" vert-adv-y="1000"  />

      
      <glyph glyph-name="uni013D" unicode="&#x013D;" d="M181 700L311 700L193 110L559 110L537 0L41 0L181 700M529 737L628 737L573 540L490 540L529 737Z"  horiz-adv-x="599" vert-adv-y="1000"  />

      
      <glyph glyph-name="uni013B" unicode="&#x013B;" d="M181 700L311 700L193 110L559 110L537 0L41 0L181 700M275-83Q303-83 318-96.50Q333-110 333-131Q333-146 327.50-158.50Q322-171 306-194L260-265L201-265L240-183Q227-178 219.50-167.50Q212-157 212-143Q212-117 228.50-100Q245-83 275-83Z"  horiz-adv-x="599" vert-adv-y="1000"  />

      
      <glyph glyph-name="uni013F" unicode="&#x013F;" d="M181 700L311 700L193 110L559 110L537 0L41 0L181 700M484 329Q454 329 434 349Q414 369 414 398Q414 433 437 456Q460 479 492 479Q521 479 540.50 459Q560 439 560 409Q560 375 537 352Q514 329 484 329Z"  horiz-adv-x="599" vert-adv-y="1000"  />

      
      <glyph glyph-name="uni1E36" unicode="&#x1E36;" d="M181 700L311 700L193 110L559 110L537 0L41 0L181 700M265-203Q240-203 225-188.50Q210-174 210-149Q210-122 230-102.50Q250-83 277-83Q300-83 316-98Q332-113 332-136Q332-166 313-184.50Q294-203 265-203Z"  horiz-adv-x="599" vert-adv-y="1000"  />

      
      <glyph glyph-name="uni01C8" unicode="&#x01C8;" d="M181 700L311 700L193 110L559 110L537 0L41 0L181 700M543-201Q467-201 420-170L472-77Q501-98 543-98Q579-98 599.50-77.50Q620-57 630-12L739 534L864 534L755-10Q717-201 543-201M829 622Q796 622 775 642.50Q754 663 754 692Q754 726 777.50 749Q801 772 839 772Q872 772 893 752.50Q914 733 914 705Q914 668 890.50 645Q867 622 829 622Z"  horiz-adv-x="894" vert-adv-y="1000"  />

      
      <glyph glyph-name="uni1E3A" unicode="&#x1E3A;" d="M181 700L311 700L193 110L559 110L537 0L41 0L181 700M104-104L452-104L439-178L91-178L104-104Z"  horiz-adv-x="599" vert-adv-y="1000"  />

      
      <glyph glyph-name="uni0141" unicode="&#x0141;" d="M191 700L321 700L203 110L569 110L547 0L51 0L191 700M-2 306L394 567L444 493L48 231L-2 306Z"  horiz-adv-x="609" vert-adv-y="1000"  />

      
      <glyph glyph-name="uni4d" unicode="&#x4d;" d="M947 700L807 0L684 0L775 459L476 80L418 80L258 468L165 0L41 0L181 700L287 700L472 234L835 700L947 700Z"  horiz-adv-x="955" vert-adv-y="1000"  />

      
      <glyph glyph-name="uni1E42" unicode="&#x1E42;" d="M947 700L807 0L684 0L775 459L476 80L418 80L258 468L165 0L41 0L181 700L287 700L472 234L835 700L947 700M389-203Q364-203 349-188.50Q334-174 334-149Q334-122 354-102.50Q374-83 401-83Q424-83 440-98Q456-113 456-136Q456-166 437-184.50Q418-203 389-203Z"  horiz-adv-x="955" vert-adv-y="1000"  />

      
      <glyph glyph-name="uni4e" unicode="&#x4e;" d="M802 700L662 0L555 0L268 490L170 0L41 0L181 700L288 700L576 210L673 700L802 700Z"  horiz-adv-x="810" vert-adv-y="1000"  />

      
      <glyph glyph-name="uni01CA" unicode="&#x01CA;" d="M802 700L662 0L555 0L268 490L170 0L41 0L181 700L288 700L576 210L673 700L802 700M981-10Q905-10 850 17Q795 44 765 94L853 178Q895 100 983 100Q1036 100 1067.50 129.50Q1099 159 1112 222L1186 591L936 591L958 700L1335 700L1241 229Q1215 100 1152 45Q1089-10 981-10Z"  horiz-adv-x="1337" vert-adv-y="1000"  />

      
      <glyph glyph-name="uni0143" unicode="&#x0143;" d="M802 700L662 0L555 0L268 490L170 0L41 0L181 700L288 700L576 210L673 700L802 700M568 894L718 894L529 757L417 757L568 894Z"  horiz-adv-x="810" vert-adv-y="1000"  />

      
      <glyph glyph-name="uni0147" unicode="&#x0147;" d="M802 700L662 0L555 0L268 490L170 0L41 0L181 700L288 700L576 210L673 700L802 700M716 894L565 757L451 757L335 894L435 894L514 820L611 894L716 894Z"  horiz-adv-x="810" vert-adv-y="1000"  />

      
      <glyph glyph-name="uni0145" unicode="&#x0145;" d="M802 700L662 0L555 0L268 490L170 0L41 0L181 700L288 700L576 210L673 700L802 700M327-83Q355-83 370-96.50Q385-110 385-131Q385-146 379.50-158.50Q374-171 358-194L312-265L253-265L292-183Q279-178 271.50-167.50Q264-157 264-143Q264-117 280.50-100Q297-83 327-83Z"  horiz-adv-x="810" vert-adv-y="1000"  />

      
      <glyph glyph-name="uni1E44" unicode="&#x1E44;" d="M802 700L662 0L555 0L268 490L170 0L41 0L181 700L288 700L576 210L673 700L802 700M515 769Q485 769 466.50 786.50Q448 804 448 831Q448 866 470 888.50Q492 911 525 911Q554 911 572.50 893Q591 875 591 848Q591 813 569 791Q547 769 515 769Z"  horiz-adv-x="810" vert-adv-y="1000"  />

      
      <glyph glyph-name="uni1E46" unicode="&#x1E46;" d="M802 700L662 0L555 0L268 490L170 0L41 0L181 700L288 700L576 210L673 700L802 700M317-203Q292-203 277-188.50Q262-174 262-149Q262-122 282-102.50Q302-83 329-83Q352-83 368-98Q384-113 384-136Q384-166 365-184.50Q346-203 317-203Z"  horiz-adv-x="810" vert-adv-y="1000"  />

      
      <glyph glyph-name="uni014A" unicode="&#x014A;" d="M802 700L673 53Q654-43 619-99Q584-155 533-178Q482-201 410-201Q354-201 304.50-180.50Q255-160 227-125L298-37Q318-62 348-76.50Q378-91 414-91Q466-91 496-63.50Q526-36 539 28L268 490L170 0L41 0L181 700L288 700L575 211L673 700L802 700Z"  horiz-adv-x="810" vert-adv-y="1000"  />

      
      <glyph glyph-name="uni01CB" unicode="&#x01CB;" d="M802 700L662 0L555 0L268 490L170 0L41 0L181 700L288 700L576 210L673 700L802 700M754-201Q678-201 631-170L683-77Q712-98 754-98Q790-98 810.50-77.50Q831-57 841-12L950 534L1075 534L966-10Q928-201 754-201M1040 622Q1007 622 986 642.50Q965 663 965 692Q965 726 988.50 749Q1012 772 1050 772Q1083 772 1104 752.50Q1125 733 1125 705Q1125 668 1101.50 645Q1078 622 1040 622Z"  horiz-adv-x="1105" vert-adv-y="1000"  />

      
      <glyph glyph-name="uni1E48" unicode="&#x1E48;" d="M802 700L662 0L555 0L268 490L170 0L41 0L181 700L288 700L576 210L673 700L802 700M156-104L504-104L491-178L143-178L156-104Z"  horiz-adv-x="810" vert-adv-y="1000"  />

      
      <glyph glyph-name="unid1" unicode="&#xd1;" d="M802 700L662 0L555 0L268 490L170 0L41 0L181 700L288 700L576 210L673 700L802 700M585 757Q560 757 541.50 767Q523 777 501 795Q484 809 472.50 816Q461 823 448 823Q427 823 413 806.50Q399 790 394 763L327 763Q337 827 369.50 862Q402 897 449 897Q473 897 491.50 887Q510 877 533 858Q552 843 562 837Q572 831 585 831Q606 831 620 846.50Q634 862 639 888L706 888Q696 826 664 791.50Q632 757 585 757Z"  horiz-adv-x="810" vert-adv-y="1000"  />

      
      <glyph glyph-name="uni4f" unicode="&#x4f;" d="M391-10Q287-10 211.50 27.50Q136 65 96 132.50Q56 200 56 289Q56 407 109.50 503Q163 599 261 654.50Q359 710 485 710Q589 710 664.50 672.50Q740 635 780 567.50Q820 500 820 411Q820 293 766.50 197Q713 101 615 45.50Q517-10 391-10M402 104Q487 104 552.50 144.50Q618 185 653.50 253.50Q689 322 689 403Q689 491 632.50 543.50Q576 596 473 596Q388 596 322.50 555.50Q257 515 222 446.50Q187 378 187 297Q187 209 243 156.50Q299 104 402 104Z"  horiz-adv-x="842" vert-adv-y="1000"  />

      
      <glyph glyph-name="unid3" unicode="&#xd3;" d="M391-10Q287-10 211.50 27.50Q136 65 96 132.50Q56 200 56 289Q56 407 109.50 503Q163 599 261 654.50Q359 710 485 710Q589 710 664.50 672.50Q740 635 780 567.50Q820 500 820 411Q820 293 766.50 197Q713 101 615 45.50Q517-10 391-10M402 104Q487 104 552.50 144.50Q618 185 653.50 253.50Q689 322 689 403Q689 491 632.50 543.50Q576 596 473 596Q388 596 322.50 555.50Q257 515 222 446.50Q187 378 187 297Q187 209 243 156.50Q299 104 402 104M583 894L733 894L544 757L432 757L583 894Z"  horiz-adv-x="842" vert-adv-y="1000"  />

      
      <glyph glyph-name="uni014E" unicode="&#x014E;" d="M391-10Q287-10 211.50 27.50Q136 65 96 132.50Q56 200 56 289Q56 407 109.50 503Q163 599 261 654.50Q359 710 485 710Q589 710 664.50 672.50Q740 635 780 567.50Q820 500 820 411Q820 293 766.50 197Q713 101 615 45.50Q517-10 391-10M402 104Q487 104 552.50 144.50Q618 185 653.50 253.50Q689 322 689 403Q689 491 632.50 543.50Q576 596 473 596Q388 596 322.50 555.50Q257 515 222 446.50Q187 378 187 297Q187 209 243 156.50Q299 104 402 104M528 750Q456 750 411 789.50Q366 829 371 894L451 894Q450 860 472.50 839.50Q495 819 535 819Q574 819 601 839.50Q628 860 634 894L718 894Q706 828 654 789Q602 750 528 750Z"  horiz-adv-x="842" vert-adv-y="1000"  />

      
      <glyph glyph-name="unid4" unicode="&#xd4;" d="M391-10Q287-10 211.50 27.50Q136 65 96 132.50Q56 200 56 289Q56 407 109.50 503Q163 599 261 654.50Q359 710 485 710Q589 710 664.50 672.50Q740 635 780 567.50Q820 500 820 411Q820 293 766.50 197Q713 101 615 45.50Q517-10 391-10M402 104Q487 104 552.50 144.50Q618 185 653.50 253.50Q689 322 689 403Q689 491 632.50 543.50Q576 596 473 596Q388 596 322.50 555.50Q257 515 222 446.50Q187 378 187 297Q187 209 243 156.50Q299 104 402 104M609 757L530 831L433 757L328 757L479 894L593 894L709 757L609 757Z"  horiz-adv-x="842" vert-adv-y="1000"  />

      
      <glyph glyph-name="uni1ED0" unicode="&#x1ED0;" d="M391-10Q287-10 211.50 27.50Q136 65 96 132.50Q56 200 56 289Q56 407 109.50 503Q163 599 261 654.50Q359 710 485 710Q589 710 664.50 672.50Q740 635 780 567.50Q820 500 820 411Q820 293 766.50 197Q713 101 615 45.50Q517-10 391-10M402 104Q487 104 552.50 144.50Q618 185 653.50 253.50Q689 322 689 403Q689 491 632.50 543.50Q576 596 473 596Q388 596 322.50 555.50Q257 515 222 446.50Q187 378 187 297Q187 209 243 156.50Q299 104 402 104M607 757L528 812L433 757L328 757L478 864L589 864L709 757L607 757M751 966L889 966L724 849L624 849L751 966Z"  horiz-adv-x="842" vert-adv-y="1000"  />

      
      <glyph glyph-name="uni1ED8" unicode="&#x1ED8;" d="M391-10Q287-10 211.50 27.50Q136 65 96 132.50Q56 200 56 289Q56 407 109.50 503Q163 599 261 654.50Q359 710 485 710Q589 710 664.50 672.50Q740 635 780 567.50Q820 500 820 411Q820 293 766.50 197Q713 101 615 45.50Q517-10 391-10M402 104Q487 104 552.50 144.50Q618 185 653.50 253.50Q689 322 689 403Q689 491 632.50 543.50Q576 596 473 596Q388 596 322.50 555.50Q257 515 222 446.50Q187 378 187 297Q187 209 243 156.50Q299 104 402 104M332-203Q307-203 292-188.50Q277-174 277-149Q277-122 297-102.50Q317-83 344-83Q367-83 383-98Q399-113 399-136Q399-166 380-184.50Q361-203 332-203M609 757L530 831L433 757L328 757L479 894L593 894L709 757L609 757Z"  horiz-adv-x="842" vert-adv-y="1000"  />

      
      <glyph glyph-name="uni1ED2" unicode="&#x1ED2;" d="M391-10Q287-10 211.50 27.50Q136 65 96 132.50Q56 200 56 289Q56 407 109.50 503Q163 599 261 654.50Q359 710 485 710Q589 710 664.50 672.50Q740 635 780 567.50Q820 500 820 411Q820 293 766.50 197Q713 101 615 45.50Q517-10 391-10M402 104Q487 104 552.50 144.50Q618 185 653.50 253.50Q689 322 689 403Q689 491 632.50 543.50Q576 596 473 596Q388 596 322.50 555.50Q257 515 222 446.50Q187 378 187 297Q187 209 243 156.50Q299 104 402 104M607 757L528 812L433 757L328 757L478 864L589 864L709 757L607 757M556 966L691 966L782 849L686 849L556 966Z"  horiz-adv-x="842" vert-adv-y="1000"  />

      
      <glyph glyph-name="uni1ED4" unicode="&#x1ED4;" d="M391-10Q287-10 211.50 27.50Q136 65 96 132.50Q56 200 56 289Q56 407 109.50 503Q163 599 261 654.50Q359 710 485 710Q589 710 664.50 672.50Q740 635 780 567.50Q820 500 820 411Q820 293 766.50 197Q713 101 615 45.50Q517-10 391-10M402 104Q487 104 552.50 144.50Q618 185 653.50 253.50Q689 322 689 403Q689 491 632.50 543.50Q576 596 473 596Q388 596 322.50 555.50Q257 515 222 446.50Q187 378 187 297Q187 209 243 156.50Q299 104 402 104M607 757L528 812L433 757L328 757L478 864L589 864L709 757L607 757M655 864Q700 884 700 913Q700 925 692 932Q684 939 669 939Q645 939 623 927L606 971Q643 990 684 990Q719 990 740 972Q761 954 761 924Q761 892 740.50 868.50Q720 845 685 830L655 864Z"  horiz-adv-x="842" vert-adv-y="1000"  />

      
      <glyph glyph-name="uni1ED6" unicode="&#x1ED6;" d="M391-10Q287-10 211.50 27.50Q136 65 96 132.50Q56 200 56 289Q56 407 109.50 503Q163 599 261 654.50Q359 710 485 710Q589 710 664.50 672.50Q740 635 780 567.50Q820 500 820 411Q820 293 766.50 197Q713 101 615 45.50Q517-10 391-10M402 104Q487 104 552.50 144.50Q618 185 653.50 253.50Q689 322 689 403Q689 491 632.50 543.50Q576 596 473 596Q388 596 322.50 555.50Q257 515 222 446.50Q187 378 187 297Q187 209 243 156.50Q299 104 402 104M607 757L528 812L433 757L328 757L478 864L589 864L709 757L607 757M622 898Q597 898 578.50 906.50Q560 915 539 931Q523 942 513.50 947Q504 952 493 952Q472 952 458.50 939Q445 926 441 904L373 904Q382 958 414 988Q446 1018 493 1018Q518 1018 536 1009.50Q554 1001 576 986Q592 975 601.50 970Q611 965 622 965Q643 965 657 978Q671 991 676 1012L741 1012Q734 959 702 928.50Q670 898 622 898Z"  horiz-adv-x="842" vert-adv-y="1000"  />

      
      <glyph glyph-name="uni020C" unicode="&#x020C;" d="M391-10Q287-10 211.50 27.50Q136 65 96 132.50Q56 200 56 289Q56 407 109.50 503Q163 599 261 654.50Q359 710 485 710Q589 710 664.50 672.50Q740 635 780 567.50Q820 500 820 411Q820 293 766.50 197Q713 101 615 45.50Q517-10 391-10M402 104Q487 104 552.50 144.50Q618 185 653.50 253.50Q689 322 689 403Q689 491 632.50 543.50Q576 596 473 596Q388 596 322.50 555.50Q257 515 222 446.50Q187 378 187 297Q187 209 243 156.50Q299 104 402 104M297 894L417 894L471 757L378 757L297 894M485 894L605 894L659 757L566 757L485 894Z"  horiz-adv-x="842" vert-adv-y="1000"  />

      
      <glyph glyph-name="unid6" unicode="&#xd6;" d="M391-10Q287-10 211.50 27.50Q136 65 96 132.50Q56 200 56 289Q56 407 109.50 503Q163 599 261 654.50Q359 710 485 710Q589 710 664.50 672.50Q740 635 780 567.50Q820 500 820 411Q820 293 766.50 197Q713 101 615 45.50Q517-10 391-10M402 104Q487 104 552.50 144.50Q618 185 653.50 253.50Q689 322 689 403Q689 491 632.50 543.50Q576 596 473 596Q388 596 322.50 555.50Q257 515 222 446.50Q187 378 187 297Q187 209 243 156.50Q299 104 402 104M432 768Q407 768 391 783Q375 798 375 822Q375 851 393.50 870Q412 889 438 889Q463 889 479 874Q495 859 495 834Q495 806 476 787Q457 768 432 768M625 768Q601 768 585 783Q569 798 569 822Q569 851 587.50 870Q606 889 633 889Q657 889 673.50 873.50Q690 858 690 834Q690 806 670.50 787Q651 768 625 768Z"  horiz-adv-x="842" vert-adv-y="1000"  />

      
      <glyph glyph-name="uni022A" unicode="&#x022A;" d="M391-10Q287-10 211.50 27.50Q136 65 96 132.50Q56 200 56 289Q56 407 109.50 503Q163 599 261 654.50Q359 710 485 710Q589 710 664.50 672.50Q740 635 780 567.50Q820 500 820 411Q820 293 766.50 197Q713 101 615 45.50Q517-10 391-10M402 104Q487 104 552.50 144.50Q618 185 653.50 253.50Q689 322 689 403Q689 491 632.50 543.50Q576 596 473 596Q388 596 322.50 555.50Q257 515 222 446.50Q187 378 187 297Q187 209 243 156.50Q299 104 402 104M434 768Q410 768 394.50 782Q379 796 379 820Q379 847 397.50 865.50Q416 884 441 884Q464 884 479.50 869Q495 854 495 830Q495 803 477 785.50Q459 768 434 768M622 768Q598 768 583 782Q568 796 568 820Q568 847 586 865.50Q604 884 629 884Q653 884 668.50 869Q684 854 684 830Q684 803 665.50 785.50Q647 768 622 768M391 998L739 998L726 928L378 928L391 998Z"  horiz-adv-x="842" vert-adv-y="1000"  />

      
      <glyph glyph-name="uni0230" unicode="&#x0230;" d="M391-10Q287-10 211.50 27.50Q136 65 96 132.50Q56 200 56 289Q56 407 109.50 503Q163 599 261 654.50Q359 710 485 710Q589 710 664.50 672.50Q740 635 780 567.50Q820 500 820 411Q820 293 766.50 197Q713 101 615 45.50Q517-10 391-10M402 104Q487 104 552.50 144.50Q618 185 653.50 253.50Q689 322 689 403Q689 491 632.50 543.50Q576 596 473 596Q388 596 322.50 555.50Q257 515 222 446.50Q187 378 187 297Q187 209 243 156.50Q299 104 402 104M528 768Q504 768 488 783Q472 798 472 824Q472 852 490.50 870.50Q509 889 536 889Q559 889 576 873Q593 857 593 832Q593 805 573.50 786.50Q554 768 528 768M392 1002L740 1002L727 932L379 932L392 1002Z"  horiz-adv-x="842" vert-adv-y="1000"  />

      
      <glyph glyph-name="uni1ECC" unicode="&#x1ECC;" d="M391-10Q287-10 211.50 27.50Q136 65 96 132.50Q56 200 56 289Q56 407 109.50 503Q163 599 261 654.50Q359 710 485 710Q589 710 664.50 672.50Q740 635 780 567.50Q820 500 820 411Q820 293 766.50 197Q713 101 615 45.50Q517-10 391-10M402 104Q487 104 552.50 144.50Q618 185 653.50 253.50Q689 322 689 403Q689 491 632.50 543.50Q576 596 473 596Q388 596 322.50 555.50Q257 515 222 446.50Q187 378 187 297Q187 209 243 156.50Q299 104 402 104M332-203Q307-203 292-188.50Q277-174 277-149Q277-122 297-102.50Q317-83 344-83Q367-83 383-98Q399-113 399-136Q399-166 380-184.50Q361-203 332-203Z"  horiz-adv-x="842" vert-adv-y="1000"  />

      
      <glyph glyph-name="unid2" unicode="&#xd2;" d="M391-10Q287-10 211.50 27.50Q136 65 96 132.50Q56 200 56 289Q56 407 109.50 503Q163 599 261 654.50Q359 710 485 710Q589 710 664.50 672.50Q740 635 780 567.50Q820 500 820 411Q820 293 766.50 197Q713 101 615 45.50Q517-10 391-10M402 104Q487 104 552.50 144.50Q618 185 653.50 253.50Q689 322 689 403Q689 491 632.50 543.50Q576 596 473 596Q388 596 322.50 555.50Q257 515 222 446.50Q187 378 187 297Q187 209 243 156.50Q299 104 402 104M347 894L493 894L602 757L494 757L347 894Z"  horiz-adv-x="842" vert-adv-y="1000"  />

      
      <glyph glyph-name="uni1ECE" unicode="&#x1ECE;" d="M391-10Q287-10 211.50 27.50Q136 65 96 132.50Q56 200 56 289Q56 407 109.50 503Q163 599 261 654.50Q359 710 485 710Q589 710 664.50 672.50Q740 635 780 567.50Q820 500 820 411Q820 293 766.50 197Q713 101 615 45.50Q517-10 391-10M402 104Q487 104 552.50 144.50Q618 185 653.50 253.50Q689 322 689 403Q689 491 632.50 543.50Q576 596 473 596Q388 596 322.50 555.50Q257 515 222 446.50Q187 378 187 297Q187 209 243 156.50Q299 104 402 104M513 793Q576 820 576 863Q576 881 563.50 891.50Q551 902 531 902Q500 902 470 882L447 938Q492 968 551 968Q597 968 624.50 944Q652 920 652 880Q652 794 547 745L513 793Z"  horiz-adv-x="842" vert-adv-y="1000"  />

      
      <glyph glyph-name="uni01A0" unicode="&#x01A0;" d="M885 759Q885 695 847.50 654.50Q810 614 748 609Q783 570 801.50 520Q820 470 820 411Q820 293 766.50 197Q713 101 615 45.50Q517-10 391-10Q287-10 211.50 27.50Q136 65 96 132.50Q56 200 56 289Q56 407 109.50 503Q163 599 261 654.50Q359 710 485 710Q537 710 607 700Q671 692 705 692Q749 692 773.50 711.50Q798 731 798 764Q798 799 778 826L854 854Q885 813 885 759M402 104Q487 104 552.50 144.50Q618 185 653.50 253.50Q689 322 689 403Q689 491 632.50 543.50Q576 596 473 596Q388 596 322.50 555.50Q257 515 222 446.50Q187 378 187 297Q187 209 243 156.50Q299 104 402 104Z"  horiz-adv-x="842" vert-adv-y="1000"  />

      
      <glyph glyph-name="uni1EDA" unicode="&#x1EDA;" d="M885 759Q885 695 847.50 654.50Q810 614 748 609Q783 570 801.50 520Q820 470 820 411Q820 293 766.50 197Q713 101 615 45.50Q517-10 391-10Q287-10 211.50 27.50Q136 65 96 132.50Q56 200 56 289Q56 407 109.50 503Q163 599 261 654.50Q359 710 485 710Q537 710 607 700Q671 692 705 692Q749 692 773.50 711.50Q798 731 798 764Q798 799 778 826L854 854Q885 813 885 759M402 104Q487 104 552.50 144.50Q618 185 653.50 253.50Q689 322 689 403Q689 491 632.50 543.50Q576 596 473 596Q388 596 322.50 555.50Q257 515 222 446.50Q187 378 187 297Q187 209 243 156.50Q299 104 402 104M583 894L733 894L544 757L432 757L583 894Z"  horiz-adv-x="842" vert-adv-y="1000"  />

      
      <glyph glyph-name="uni1EE2" unicode="&#x1EE2;" d="M885 759Q885 695 847.50 654.50Q810 614 748 609Q783 570 801.50 520Q820 470 820 411Q820 293 766.50 197Q713 101 615 45.50Q517-10 391-10Q287-10 211.50 27.50Q136 65 96 132.50Q56 200 56 289Q56 407 109.50 503Q163 599 261 654.50Q359 710 485 710Q537 710 607 700Q671 692 705 692Q749 692 773.50 711.50Q798 731 798 764Q798 799 778 826L854 854Q885 813 885 759M402 104Q487 104 552.50 144.50Q618 185 653.50 253.50Q689 322 689 403Q689 491 632.50 543.50Q576 596 473 596Q388 596 322.50 555.50Q257 515 222 446.50Q187 378 187 297Q187 209 243 156.50Q299 104 402 104M332-203Q307-203 292-188.50Q277-174 277-149Q277-122 297-102.50Q317-83 344-83Q367-83 383-98Q399-113 399-136Q399-166 380-184.50Q361-203 332-203Z"  horiz-adv-x="842" vert-adv-y="1000"  />

      
      <glyph glyph-name="uni1EDC" unicode="&#x1EDC;" d="M885 759Q885 695 847.50 654.50Q810 614 748 609Q783 570 801.50 520Q820 470 820 411Q820 293 766.50 197Q713 101 615 45.50Q517-10 391-10Q287-10 211.50 27.50Q136 65 96 132.50Q56 200 56 289Q56 407 109.50 503Q163 599 261 654.50Q359 710 485 710Q537 710 607 700Q671 692 705 692Q749 692 773.50 711.50Q798 731 798 764Q798 799 778 826L854 854Q885 813 885 759M402 104Q487 104 552.50 144.50Q618 185 653.50 253.50Q689 322 689 403Q689 491 632.50 543.50Q576 596 473 596Q388 596 322.50 555.50Q257 515 222 446.50Q187 378 187 297Q187 209 243 156.50Q299 104 402 104M347 894L493 894L602 757L494 757L347 894Z"  horiz-adv-x="842" vert-adv-y="1000"  />

      
      <glyph glyph-name="uni1EDE" unicode="&#x1EDE;" d="M885 759Q885 695 847.50 654.50Q810 614 748 609Q783 570 801.50 520Q820 470 820 411Q820 293 766.50 197Q713 101 615 45.50Q517-10 391-10Q287-10 211.50 27.50Q136 65 96 132.50Q56 200 56 289Q56 407 109.50 503Q163 599 261 654.50Q359 710 485 710Q537 710 607 700Q671 692 705 692Q749 692 773.50 711.50Q798 731 798 764Q798 799 778 826L854 854Q885 813 885 759M402 104Q487 104 552.50 144.50Q618 185 653.50 253.50Q689 322 689 403Q689 491 632.50 543.50Q576 596 473 596Q388 596 322.50 555.50Q257 515 222 446.50Q187 378 187 297Q187 209 243 156.50Q299 104 402 104M513 793Q576 820 576 863Q576 881 563.50 891.50Q551 902 531 902Q500 902 470 882L447 938Q492 968 551 968Q597 968 624.50 944Q652 920 652 880Q652 794 547 745L513 793Z"  horiz-adv-x="842" vert-adv-y="1000"  />

      
      <glyph glyph-name="uni1EE0" unicode="&#x1EE0;" d="M885 759Q885 695 847.50 654.50Q810 614 748 609Q783 570 801.50 520Q820 470 820 411Q820 293 766.50 197Q713 101 615 45.50Q517-10 391-10Q287-10 211.50 27.50Q136 65 96 132.50Q56 200 56 289Q56 407 109.50 503Q163 599 261 654.50Q359 710 485 710Q537 710 607 700Q671 692 705 692Q749 692 773.50 711.50Q798 731 798 764Q798 799 778 826L854 854Q885 813 885 759M402 104Q487 104 552.50 144.50Q618 185 653.50 253.50Q689 322 689 403Q689 491 632.50 543.50Q576 596 473 596Q388 596 322.50 555.50Q257 515 222 446.50Q187 378 187 297Q187 209 243 156.50Q299 104 402 104M600 757Q575 757 556.50 767Q538 777 516 795Q499 809 487.50 816Q476 823 463 823Q442 823 428 806.50Q414 790 409 763L342 763Q352 827 384.50 862Q417 897 464 897Q488 897 506.50 887Q525 877 548 858Q567 843 577 837Q587 831 600 831Q621 831 635 846.50Q649 862 654 888L721 888Q711 826 679 791.50Q647 757 600 757Z"  horiz-adv-x="842" vert-adv-y="1000"  />

      
      <glyph glyph-name="uni0150" unicode="&#x0150;" d="M391-10Q287-10 211.50 27.50Q136 65 96 132.50Q56 200 56 289Q56 407 109.50 503Q163 599 261 654.50Q359 710 485 710Q589 710 664.50 672.50Q740 635 780 567.50Q820 500 820 411Q820 293 766.50 197Q713 101 615 45.50Q517-10 391-10M402 104Q487 104 552.50 144.50Q618 185 653.50 253.50Q689 322 689 403Q689 491 632.50 543.50Q576 596 473 596Q388 596 322.50 555.50Q257 515 222 446.50Q187 378 187 297Q187 209 243 156.50Q299 104 402 104M470 894L597 894L475 757L374 757L470 894M657 894L785 894L662 757L562 757L657 894Z"  horiz-adv-x="842" vert-adv-y="1000"  />

      
      <glyph glyph-name="uni020E" unicode="&#x020E;" d="M391-10Q287-10 211.50 27.50Q136 65 96 132.50Q56 200 56 289Q56 407 109.50 503Q163 599 261 654.50Q359 710 485 710Q589 710 664.50 672.50Q740 635 780 567.50Q820 500 820 411Q820 293 766.50 197Q713 101 615 45.50Q517-10 391-10M402 104Q487 104 552.50 144.50Q618 185 653.50 253.50Q689 322 689 403Q689 491 632.50 543.50Q576 596 473 596Q388 596 322.50 555.50Q257 515 222 446.50Q187 378 187 297Q187 209 243 156.50Q299 104 402 104M345 757Q357 823 409 862.50Q461 902 535 902Q607 902 651.50 862Q696 822 691 757L612 757Q613 792 590 813Q567 834 528 834Q489 834 462 813Q435 792 429 757L345 757Z"  horiz-adv-x="842" vert-adv-y="1000"  />

      
      <glyph glyph-name="uni014C" unicode="&#x014C;" d="M391-10Q287-10 211.50 27.50Q136 65 96 132.50Q56 200 56 289Q56 407 109.50 503Q163 599 261 654.50Q359 710 485 710Q589 710 664.50 672.50Q740 635 780 567.50Q820 500 820 411Q820 293 766.50 197Q713 101 615 45.50Q517-10 391-10M402 104Q487 104 552.50 144.50Q618 185 653.50 253.50Q689 322 689 403Q689 491 632.50 543.50Q576 596 473 596Q388 596 322.50 555.50Q257 515 222 446.50Q187 378 187 297Q187 209 243 156.50Q299 104 402 104M365 863L712 863L698 788L351 788L365 863Z"  horiz-adv-x="842" vert-adv-y="1000"  />

      
      <glyph glyph-name="uni1E52" unicode="&#x1E52;" d="M391-10Q287-10 211.50 27.50Q136 65 96 132.50Q56 200 56 289Q56 407 109.50 503Q163 599 261 654.50Q359 710 485 710Q589 710 664.50 672.50Q740 635 780 567.50Q820 500 820 411Q820 293 766.50 197Q713 101 615 45.50Q517-10 391-10M402 104Q487 104 552.50 144.50Q618 185 653.50 253.50Q689 322 689 403Q689 491 632.50 543.50Q576 596 473 596Q388 596 322.50 555.50Q257 515 222 446.50Q187 378 187 297Q187 209 243 156.50Q299 104 402 104M361 846L709 846L696 776L348 776L361 846M595 1026L733 1026L568 909L468 909L595 1026Z"  horiz-adv-x="842" vert-adv-y="1000"  />

      
      <glyph glyph-name="uni1E50" unicode="&#x1E50;" d="M391-10Q287-10 211.50 27.50Q136 65 96 132.50Q56 200 56 289Q56 407 109.50 503Q163 599 261 654.50Q359 710 485 710Q589 710 664.50 672.50Q740 635 780 567.50Q820 500 820 411Q820 293 766.50 197Q713 101 615 45.50Q517-10 391-10M402 104Q487 104 552.50 144.50Q618 185 653.50 253.50Q689 322 689 403Q689 491 632.50 543.50Q576 596 473 596Q388 596 322.50 555.50Q257 515 222 446.50Q187 378 187 297Q187 209 243 156.50Q299 104 402 104M361 846L709 846L696 776L348 776L361 846M400 1026L535 1026L626 909L530 909L400 1026Z"  horiz-adv-x="842" vert-adv-y="1000"  />

      
      <glyph glyph-name="uni01EA" unicode="&#x01EA;" d="M485 710Q589 710 664.50 672.50Q740 635 780 567.50Q820 500 820 411Q820 309 779.50 223Q739 137 665 79Q591 21 494 1Q399-20 357-51Q315-82 315-117Q315-138 328-149Q341-160 364-160Q400-160 429-144L442-205Q398-228 344-228Q292-228 260-203Q228-178 228-134Q228-55 312-4Q191 16 123.50 94Q56 172 56 289Q56 407 109.50 503Q163 599 261 654.50Q359 710 485 710M402 104Q487 104 552.50 144.50Q618 185 653.50 253.50Q689 322 689 403Q689 491 632.50 543.50Q576 596 473 596Q388 596 322.50 555.50Q257 515 222 446.50Q187 378 187 297Q187 209 243 156.50Q299 104 402 104Z"  horiz-adv-x="842" vert-adv-y="1000"  />

      
      <glyph glyph-name="unid8" unicode="&#xd8;" d="M391-10Q287-10 211.50 27.50Q136 65 96 132.50Q56 200 56 289Q56 407 109.50 503Q163 599 261 654.50Q359 710 485 710Q589 710 664.50 672.50Q740 635 780 567.50Q820 500 820 411Q820 293 766.50 197Q713 101 615 45.50Q517-10 391-10M402 104Q487 104 552.50 144.50Q618 185 653.50 253.50Q689 322 689 403Q689 491 632.50 543.50Q576 596 473 596Q388 596 322.50 555.50Q257 515 222 446.50Q187 378 187 297Q187 209 243 156.50Q299 104 402 104M773 770L869 770L103-70L6-70L773 770Z"  horiz-adv-x="842" vert-adv-y="1000"  />

      
      <glyph glyph-name="uni01FE" unicode="&#x01FE;" d="M391-10Q287-10 211.50 27.50Q136 65 96 132.50Q56 200 56 289Q56 407 109.50 503Q163 599 261 654.50Q359 710 485 710Q589 710 664.50 672.50Q740 635 780 567.50Q820 500 820 411Q820 293 766.50 197Q713 101 615 45.50Q517-10 391-10M402 104Q487 104 552.50 144.50Q618 185 653.50 253.50Q689 322 689 403Q689 491 632.50 543.50Q576 596 473 596Q388 596 322.50 555.50Q257 515 222 446.50Q187 378 187 297Q187 209 243 156.50Q299 104 402 104M773 770L869 770L103-70L6-70L773 770M583 894L733 894L544 757L432 757L583 894Z"  horiz-adv-x="842" vert-adv-y="1000"  />

      
      <glyph glyph-name="unid5" unicode="&#xd5;" d="M391-10Q287-10 211.50 27.50Q136 65 96 132.50Q56 200 56 289Q56 407 109.50 503Q163 599 261 654.50Q359 710 485 710Q589 710 664.50 672.50Q740 635 780 567.50Q820 500 820 411Q820 293 766.50 197Q713 101 615 45.50Q517-10 391-10M402 104Q487 104 552.50 144.50Q618 185 653.50 253.50Q689 322 689 403Q689 491 632.50 543.50Q576 596 473 596Q388 596 322.50 555.50Q257 515 222 446.50Q187 378 187 297Q187 209 243 156.50Q299 104 402 104M600 757Q575 757 556.50 767Q538 777 516 795Q499 809 487.50 816Q476 823 463 823Q442 823 428 806.50Q414 790 409 763L342 763Q352 827 384.50 862Q417 897 464 897Q488 897 506.50 887Q525 877 548 858Q567 843 577 837Q587 831 600 831Q621 831 635 846.50Q649 862 654 888L721 888Q711 826 679 791.50Q647 757 600 757Z"  horiz-adv-x="842" vert-adv-y="1000"  />

      
      <glyph glyph-name="uni1E4C" unicode="&#x1E4C;" d="M391-10Q287-10 211.50 27.50Q136 65 96 132.50Q56 200 56 289Q56 407 109.50 503Q163 599 261 654.50Q359 710 485 710Q589 710 664.50 672.50Q740 635 780 567.50Q820 500 820 411Q820 293 766.50 197Q713 101 615 45.50Q517-10 391-10M402 104Q487 104 552.50 144.50Q618 185 653.50 253.50Q689 322 689 403Q689 491 632.50 543.50Q576 596 473 596Q388 596 322.50 555.50Q257 515 222 446.50Q187 378 187 297Q187 209 243 156.50Q299 104 402 104M595 758Q570 758 551.50 766.50Q533 775 512 791Q496 802 486.50 807Q477 812 466 812Q445 812 431.50 799Q418 786 414 764L346 764Q355 818 387 848Q419 878 466 878Q491 878 509 869.50Q527 861 549 846Q565 835 574.50 830Q584 825 595 825Q616 825 630 838Q644 851 649 872L714 872Q707 819 675 788.50Q643 758 595 758M595 1026L733 1026L568 909L468 909L595 1026Z"  horiz-adv-x="842" vert-adv-y="1000"  />

      
      <glyph glyph-name="uni1E4E" unicode="&#x1E4E;" d="M391-10Q287-10 211.50 27.50Q136 65 96 132.50Q56 200 56 289Q56 407 109.50 503Q163 599 261 654.50Q359 710 485 710Q589 710 664.50 672.50Q740 635 780 567.50Q820 500 820 411Q820 293 766.50 197Q713 101 615 45.50Q517-10 391-10M402 104Q487 104 552.50 144.50Q618 185 653.50 253.50Q689 322 689 403Q689 491 632.50 543.50Q576 596 473 596Q388 596 322.50 555.50Q257 515 222 446.50Q187 378 187 297Q187 209 243 156.50Q299 104 402 104M595 758Q570 758 551.50 766.50Q533 775 512 791Q496 802 486.50 807Q477 812 466 812Q445 812 431.50 799Q418 786 414 764L346 764Q355 818 387 848Q419 878 466 878Q491 878 509 869.50Q527 861 549 846Q565 835 574.50 830Q584 825 595 825Q616 825 630 838Q644 851 649 872L714 872Q707 819 675 788.50Q643 758 595 758M464 920Q440 920 424.50 934Q409 948 409 972Q409 999 427.50 1017.50Q446 1036 471 1036Q494 1036 509.50 1021Q525 1006 525 982Q525 955 507 937.50Q489 920 464 920M652 920Q628 920 613 934Q598 948 598 972Q598 999 616 1017.50Q634 1036 659 1036Q683 1036 698.50 1021Q714 1006 714 982Q714 955 695.50 937.50Q677 920 652 920Z"  horiz-adv-x="842" vert-adv-y="1000"  />

      
      <glyph glyph-name="uni022C" unicode="&#x022C;" d="M391-10Q287-10 211.50 27.50Q136 65 96 132.50Q56 200 56 289Q56 407 109.50 503Q163 599 261 654.50Q359 710 485 710Q589 710 664.50 672.50Q740 635 780 567.50Q820 500 820 411Q820 293 766.50 197Q713 101 615 45.50Q517-10 391-10M402 104Q487 104 552.50 144.50Q618 185 653.50 253.50Q689 322 689 403Q689 491 632.50 543.50Q576 596 473 596Q388 596 322.50 555.50Q257 515 222 446.50Q187 378 187 297Q187 209 243 156.50Q299 104 402 104M595 758Q570 758 551.50 766.50Q533 775 512 791Q496 802 486.50 807Q477 812 466 812Q445 812 431.50 799Q418 786 414 764L346 764Q355 818 387 848Q419 878 466 878Q491 878 509 869.50Q527 861 549 846Q565 835 574.50 830Q584 825 595 825Q616 825 630 838Q644 851 649 872L714 872Q707 819 675 788.50Q643 758 595 758M391 998L739 998L726 928L378 928L391 998Z"  horiz-adv-x="842" vert-adv-y="1000"  />

      
      <glyph glyph-name="uni0152" unicode="&#x0152;" d="M749 591L713 409L1051 409L1030 302L691 302L653 109L1048 109L1026 0L395 0Q290 0 213.50 35.50Q137 71 96.50 136Q56 201 56 289Q56 412 110.50 505Q165 598 263.50 649Q362 700 491 700L1152 700L1130 591L749 591M524 110L620 590L488 590Q396 590 328 552Q260 514 223.50 447.50Q187 381 187 297Q187 209 243.50 159.50Q300 110 409 110L524 110Z"  horiz-adv-x="1131" vert-adv-y="1000"  />

      
      <glyph glyph-name="uni50" unicode="&#x50;" d="M451 700Q578 700 647.50 644.50Q717 589 717 489Q717 400 676.50 335.50Q636 271 560.50 236.50Q485 202 383 202L212 202L171 0L41 0L181 700L451 700M388 312Q483 312 534.50 354.50Q586 397 586 477Q586 533 547.50 561.50Q509 590 437 590L289 590L234 312L388 312Z"  horiz-adv-x="726" vert-adv-y="1000"  />

      
      <glyph glyph-name="unide" unicode="&#xde;" d="M439 618Q564 618 633 562.50Q702 507 702 407Q702 319 661.50 254.50Q621 190 545.50 155.50Q470 121 368 121L195 121L171 0L41 0L181 700L311 700L295 618L439 618M372 230Q467 230 519 272.50Q571 315 571 395Q571 451 532.50 479.50Q494 508 422 508L273 508L217 230L372 230Z"  horiz-adv-x="726" vert-adv-y="1000"  />

      
      <glyph glyph-name="uni51" unicode="&#x51;" d="M595-54Q630-54 662-40Q694-26 719-1L770-81Q739-117 692-135Q645-153 590-153Q426-153 332-7Q202 9 129 88.50Q56 168 56 289Q56 407 109.50 503Q163 599 261 654.50Q359 710 485 710Q589 710 664.50 672.50Q740 635 780 567.50Q820 500 820 411Q820 309 779.50 222.50Q739 136 664 77.50Q589 19 489-1Q510-29 535.50-41.50Q561-54 595-54M187 297Q187 209 243 156.50Q299 104 402 104Q487 104 552.50 144.50Q618 185 653.50 253.50Q689 322 689 403Q689 491 632.50 543.50Q576 596 473 596Q388 596 322.50 555.50Q257 515 222 446.50Q187 378 187 297Z"  horiz-adv-x="842" vert-adv-y="1000"  />

      
      <glyph glyph-name="uni52" unicode="&#x52;" d="M719 489Q719 388 665 318.50Q611 249 514 222L639 0L501 0L386 205L385 205L212 205L172 0L41 0L181 700L453 700Q580 700 649.50 644.50Q719 589 719 489M389 312Q484 312 536 354.50Q588 397 588 477Q588 533 549.50 561.50Q511 590 439 590L290 590L234 312L389 312Z"  horiz-adv-x="731" vert-adv-y="1000"  />

      
      <glyph glyph-name="uni0154" unicode="&#x0154;" d="M719 489Q719 388 665 318.50Q611 249 514 222L639 0L501 0L386 205L385 205L212 205L172 0L41 0L181 700L453 700Q580 700 649.50 644.50Q719 589 719 489M389 312Q484 312 536 354.50Q588 397 588 477Q588 533 549.50 561.50Q511 590 439 590L290 590L234 312L389 312M535 894L685 894L496 757L384 757L535 894Z"  horiz-adv-x="731" vert-adv-y="1000"  />

      
      <glyph glyph-name="uni0158" unicode="&#x0158;" d="M719 489Q719 388 665 318.50Q611 249 514 222L639 0L501 0L386 205L385 205L212 205L172 0L41 0L181 700L453 700Q580 700 649.50 644.50Q719 589 719 489M389 312Q484 312 536 354.50Q588 397 588 477Q588 533 549.50 561.50Q511 590 439 590L290 590L234 312L389 312M683 894L532 757L418 757L302 894L402 894L481 820L578 894L683 894Z"  horiz-adv-x="731" vert-adv-y="1000"  />

      
      <glyph glyph-name="uni0156" unicode="&#x0156;" d="M719 489Q719 388 665 318.50Q611 249 514 222L639 0L501 0L386 205L385 205L212 205L172 0L41 0L181 700L453 700Q580 700 649.50 644.50Q719 589 719 489M389 312Q484 312 536 354.50Q588 397 588 477Q588 533 549.50 561.50Q511 590 439 590L290 590L234 312L389 312M294-83Q322-83 337-96.50Q352-110 352-131Q352-146 346.50-158.50Q341-171 325-194L279-265L220-265L259-183Q246-178 238.50-167.50Q231-157 231-143Q231-117 247.50-100Q264-83 294-83Z"  horiz-adv-x="731" vert-adv-y="1000"  />

      
      <glyph glyph-name="uni0210" unicode="&#x0210;" d="M719 489Q719 388 665 318.50Q611 249 514 222L639 0L501 0L386 205L385 205L212 205L172 0L41 0L181 700L453 700Q580 700 649.50 644.50Q719 589 719 489M389 312Q484 312 536 354.50Q588 397 588 477Q588 533 549.50 561.50Q511 590 439 590L290 590L234 312L389 312M249 894L369 894L423 757L330 757L249 894M437 894L557 894L611 757L518 757L437 894Z"  horiz-adv-x="731" vert-adv-y="1000"  />

      
      <glyph glyph-name="uni1E5A" unicode="&#x1E5A;" d="M719 489Q719 388 665 318.50Q611 249 514 222L639 0L501 0L386 205L385 205L212 205L172 0L41 0L181 700L453 700Q580 700 649.50 644.50Q719 589 719 489M389 312Q484 312 536 354.50Q588 397 588 477Q588 533 549.50 561.50Q511 590 439 590L290 590L234 312L389 312M284-203Q259-203 244-188.50Q229-174 229-149Q229-122 249-102.50Q269-83 296-83Q319-83 335-98Q351-113 351-136Q351-166 332-184.50Q313-203 284-203Z"  horiz-adv-x="731" vert-adv-y="1000"  />

      
      <glyph glyph-name="uni0212" unicode="&#x0212;" d="M719 489Q719 388 665 318.50Q611 249 514 222L639 0L501 0L386 205L385 205L212 205L172 0L41 0L181 700L453 700Q580 700 649.50 644.50Q719 589 719 489M389 312Q484 312 536 354.50Q588 397 588 477Q588 533 549.50 561.50Q511 590 439 590L290 590L234 312L389 312M297 757Q309 823 361 862.50Q413 902 487 902Q559 902 603.50 862Q648 822 643 757L564 757Q565 792 542 813Q519 834 480 834Q441 834 414 813Q387 792 381 757L297 757Z"  horiz-adv-x="731" vert-adv-y="1000"  />

      
      <glyph glyph-name="uni1E5E" unicode="&#x1E5E;" d="M719 489Q719 388 665 318.50Q611 249 514 222L639 0L501 0L386 205L385 205L212 205L172 0L41 0L181 700L453 700Q580 700 649.50 644.50Q719 589 719 489M389 312Q484 312 536 354.50Q588 397 588 477Q588 533 549.50 561.50Q511 590 439 590L290 590L234 312L389 312M123-104L471-104L458-178L110-178L123-104Z"  horiz-adv-x="731" vert-adv-y="1000"  />

      
      <glyph glyph-name="uni53" unicode="&#x53;" d="M270-10Q189-10 115 13Q41 36-1 72L54 174Q98 139 158.50 118.50Q219 98 282 98Q359 98 404.50 124.50Q450 151 450 197Q450 223 431.50 240.50Q413 258 385.50 269Q358 280 309 294Q241 314 199 332.50Q157 351 127 388Q97 425 97 484Q97 552 135.50 603Q174 654 243 682Q312 710 402 710Q470 710 531 694.50Q592 679 636 651L585 548Q546 574 497 588Q448 602 395 602Q317 602 271.50 573.50Q226 545 226 498Q226 471 245 453Q264 435 291 424.50Q318 414 370 398Q436 379 478 361Q520 343 549.50 308Q579 273 579 217Q579 148 540.50 97Q502 46 431.50 18Q361-10 270-10Z"  horiz-adv-x="629" vert-adv-y="1000"  />

      
      <glyph glyph-name="uni015A" unicode="&#x015A;" d="M270-10Q189-10 115 13Q41 36-1 72L54 174Q98 139 158.50 118.50Q219 98 282 98Q359 98 404.50 124.50Q450 151 450 197Q450 223 431.50 240.50Q413 258 385.50 269Q358 280 309 294Q241 314 199 332.50Q157 351 127 388Q97 425 97 484Q97 552 135.50 603Q174 654 243 682Q312 710 402 710Q470 710 531 694.50Q592 679 636 651L585 548Q546 574 497 588Q448 602 395 602Q317 602 271.50 573.50Q226 545 226 498Q226 471 245 453Q264 435 291 424.50Q318 414 370 398Q436 379 478 361Q520 343 549.50 308Q579 273 579 217Q579 148 540.50 97Q502 46 431.50 18Q361-10 270-10M485 894L635 894L446 757L334 757L485 894Z"  horiz-adv-x="629" vert-adv-y="1000"  />

      
      <glyph glyph-name="uni1E64" unicode="&#x1E64;" d="M270-10Q189-10 115 13Q41 36-1 72L54 174Q98 139 158.50 118.50Q219 98 282 98Q359 98 404.50 124.50Q450 151 450 197Q450 223 431.50 240.50Q413 258 385.50 269Q358 280 309 294Q241 314 199 332.50Q157 351 127 388Q97 425 97 484Q97 552 135.50 603Q174 654 243 682Q312 710 402 710Q470 710 531 694.50Q592 679 636 651L585 548Q546 574 497 588Q448 602 395 602Q317 602 271.50 573.50Q226 545 226 498Q226 471 245 453Q264 435 291 424.50Q318 414 370 398Q436 379 478 361Q520 343 549.50 308Q579 273 579 217Q579 148 540.50 97Q502 46 431.50 18Q361-10 270-10M467 874L605 874L440 757L340 757L467 874M460 920Q436 920 420 935Q404 950 404 976Q404 1004 422.50 1022.50Q441 1041 468 1041Q491 1041 508 1025Q525 1009 525 984Q525 957 505.50 938.50Q486 920 460 920Z"  horiz-adv-x="629" vert-adv-y="1000"  />

      
      <glyph glyph-name="uniA78B" unicode="&#xA78B;" d="M161 700L288 700L193 297L80 297L161 700Z"  horiz-adv-x="277" vert-adv-y="1000"  />

      
      <glyph glyph-name="uni0160" unicode="&#x0160;" d="M270-10Q189-10 115 13Q41 36-1 72L54 174Q98 139 158.50 118.50Q219 98 282 98Q359 98 404.50 124.50Q450 151 450 197Q450 223 431.50 240.50Q413 258 385.50 269Q358 280 309 294Q241 314 199 332.50Q157 351 127 388Q97 425 97 484Q97 552 135.50 603Q174 654 243 682Q312 710 402 710Q470 710 531 694.50Q592 679 636 651L585 548Q546 574 497 588Q448 602 395 602Q317 602 271.50 573.50Q226 545 226 498Q226 471 245 453Q264 435 291 424.50Q318 414 370 398Q436 379 478 361Q520 343 549.50 308Q579 273 579 217Q579 148 540.50 97Q502 46 431.50 18Q361-10 270-10M633 894L482 757L368 757L252 894L352 894L431 820L528 894L633 894Z"  horiz-adv-x="629" vert-adv-y="1000"  />

      
      <glyph glyph-name="uni1E66" unicode="&#x1E66;" d="M270-10Q189-10 115 13Q41 36-1 72L54 174Q98 139 158.50 118.50Q219 98 282 98Q359 98 404.50 124.50Q450 151 450 197Q450 223 431.50 240.50Q413 258 385.50 269Q358 280 309 294Q241 314 199 332.50Q157 351 127 388Q97 425 97 484Q97 552 135.50 603Q174 654 243 682Q312 710 402 710Q470 710 531 694.50Q592 679 636 651L585 548Q546 574 497 588Q448 602 395 602Q317 602 271.50 573.50Q226 545 226 498Q226 471 245 453Q264 435 291 424.50Q318 414 370 398Q436 379 478 361Q520 343 549.50 308Q579 273 579 217Q579 148 540.50 97Q502 46 431.50 18Q361-10 270-10M629 864L479 757L368 757L248 864L349 864L429 809L523 864L629 864M455 897Q431 897 415 912Q399 927 399 953Q399 981 417.50 999.50Q436 1018 463 1018Q486 1018 503 1002Q520 986 520 961Q520 934 500.50 915.50Q481 897 455 897Z"  horiz-adv-x="629" vert-adv-y="1000"  />

      
      <glyph glyph-name="uni015E" unicode="&#x015E;" d="M270-10Q189-10 115 13Q41 36-1 72L54 174Q98 139 158.50 118.50Q219 98 282 98Q359 98 404.50 124.50Q450 151 450 197Q450 223 431.50 240.50Q413 258 385.50 269Q358 280 309 294Q241 314 199 332.50Q157 351 127 388Q97 425 97 484Q97 552 135.50 603Q174 654 243 682Q312 710 402 710Q470 710 531 694.50Q592 679 636 651L585 548Q546 574 497 588Q448 602 395 602Q317 602 271.50 573.50Q226 545 226 498Q226 471 245 453Q264 435 291 424.50Q318 414 370 398Q436 379 478 361Q520 343 549.50 308Q579 273 579 217Q579 148 540.50 97Q502 46 431.50 18Q361-10 270-10M201-228Q146-228 110-207L140-148Q171-164 209-164Q238-164 252.50-153.50Q267-143 268-126Q268-95 221-95L190-95L236 7L304 7L280-49Q315-54 333.50-73Q352-92 352-121Q352-171 310.50-199.50Q269-228 201-228Z"  horiz-adv-x="629" vert-adv-y="1000"  />

      
      <glyph glyph-name="uni015C" unicode="&#x015C;" d="M270-10Q189-10 115 13Q41 36-1 72L54 174Q98 139 158.50 118.50Q219 98 282 98Q359 98 404.50 124.50Q450 151 450 197Q450 223 431.50 240.50Q413 258 385.50 269Q358 280 309 294Q241 314 199 332.50Q157 351 127 388Q97 425 97 484Q97 552 135.50 603Q174 654 243 682Q312 710 402 710Q470 710 531 694.50Q592 679 636 651L585 548Q546 574 497 588Q448 602 395 602Q317 602 271.50 573.50Q226 545 226 498Q226 471 245 453Q264 435 291 424.50Q318 414 370 398Q436 379 478 361Q520 343 549.50 308Q579 273 579 217Q579 148 540.50 97Q502 46 431.50 18Q361-10 270-10M511 757L432 831L335 757L230 757L381 894L495 894L611 757L511 757Z"  horiz-adv-x="629" vert-adv-y="1000"  />

      
      <glyph glyph-name="uni0218" unicode="&#x0218;" d="M270-10Q189-10 115 13Q41 36-1 72L54 174Q98 139 158.50 118.50Q219 98 282 98Q359 98 404.50 124.50Q450 151 450 197Q450 223 431.50 240.50Q413 258 385.50 269Q358 280 309 294Q241 314 199 332.50Q157 351 127 388Q97 425 97 484Q97 552 135.50 603Q174 654 243 682Q312 710 402 710Q470 710 531 694.50Q592 679 636 651L585 548Q546 574 497 588Q448 602 395 602Q317 602 271.50 573.50Q226 545 226 498Q226 471 245 453Q264 435 291 424.50Q318 414 370 398Q436 379 478 361Q520 343 549.50 308Q579 273 579 217Q579 148 540.50 97Q502 46 431.50 18Q361-10 270-10M244-83Q272-83 287-96.50Q302-110 302-131Q302-146 296.50-158.50Q291-171 275-194L229-265L170-265L209-183Q196-178 188.50-167.50Q181-157 181-143Q181-117 197.50-100Q214-83 244-83Z"  horiz-adv-x="629" vert-adv-y="1000"  />

      
      <glyph glyph-name="uni1E60" unicode="&#x1E60;" d="M270-10Q189-10 115 13Q41 36-1 72L54 174Q98 139 158.50 118.50Q219 98 282 98Q359 98 404.50 124.50Q450 151 450 197Q450 223 431.50 240.50Q413 258 385.50 269Q358 280 309 294Q241 314 199 332.50Q157 351 127 388Q97 425 97 484Q97 552 135.50 603Q174 654 243 682Q312 710 402 710Q470 710 531 694.50Q592 679 636 651L585 548Q546 574 497 588Q448 602 395 602Q317 602 271.50 573.50Q226 545 226 498Q226 471 245 453Q264 435 291 424.50Q318 414 370 398Q436 379 478 361Q520 343 549.50 308Q579 273 579 217Q579 148 540.50 97Q502 46 431.50 18Q361-10 270-10M432 769Q402 769 383.50 786.50Q365 804 365 831Q365 866 387 888.50Q409 911 442 911Q471 911 489.50 893Q508 875 508 848Q508 813 486 791Q464 769 432 769Z"  horiz-adv-x="629" vert-adv-y="1000"  />

      
      <glyph glyph-name="uni1E62" unicode="&#x1E62;" d="M270-10Q189-10 115 13Q41 36-1 72L54 174Q98 139 158.50 118.50Q219 98 282 98Q359 98 404.50 124.50Q450 151 450 197Q450 223 431.50 240.50Q413 258 385.50 269Q358 280 309 294Q241 314 199 332.50Q157 351 127 388Q97 425 97 484Q97 552 135.50 603Q174 654 243 682Q312 710 402 710Q470 710 531 694.50Q592 679 636 651L585 548Q546 574 497 588Q448 602 395 602Q317 602 271.50 573.50Q226 545 226 498Q226 471 245 453Q264 435 291 424.50Q318 414 370 398Q436 379 478 361Q520 343 549.50 308Q579 273 579 217Q579 148 540.50 97Q502 46 431.50 18Q361-10 270-10M234-203Q209-203 194-188.50Q179-174 179-149Q179-122 199-102.50Q219-83 246-83Q269-83 285-98Q301-113 301-136Q301-166 282-184.50Q263-203 234-203Z"  horiz-adv-x="629" vert-adv-y="1000"  />

      
      <glyph glyph-name="uni1E68" unicode="&#x1E68;" d="M270-10Q189-10 115 13Q41 36-1 72L54 174Q98 139 158.50 118.50Q219 98 282 98Q359 98 404.50 124.50Q450 151 450 197Q450 223 431.50 240.50Q413 258 385.50 269Q358 280 309 294Q241 314 199 332.50Q157 351 127 388Q97 425 97 484Q97 552 135.50 603Q174 654 243 682Q312 710 402 710Q470 710 531 694.50Q592 679 636 651L585 548Q546 574 497 588Q448 602 395 602Q317 602 271.50 573.50Q226 545 226 498Q226 471 245 453Q264 435 291 424.50Q318 414 370 398Q436 379 478 361Q520 343 549.50 308Q579 273 579 217Q579 148 540.50 97Q502 46 431.50 18Q361-10 270-10M234-203Q209-203 194-188.50Q179-174 179-149Q179-122 199-102.50Q219-83 246-83Q269-83 285-98Q301-113 301-136Q301-166 282-184.50Q263-203 234-203M432 769Q402 769 383.50 786.50Q365 804 365 831Q365 866 387 888.50Q409 911 442 911Q471 911 489.50 893Q508 875 508 848Q508 813 486 791Q464 769 432 769Z"  horiz-adv-x="629" vert-adv-y="1000"  />

      
      <glyph glyph-name="uni1E9E" unicode="&#x1E9E;" d="M714 558L555 408Q627 395 670 348Q713 301 713 230Q713 159 679 105Q645 51 583 20.50Q521-10 439-10Q395-10 353-2.50Q311 5 282 18L317 121Q373 98 438 98Q504 98 543 132Q582 166 582 224Q582 270 550.50 294.50Q519 319 462 319Q423 319 388 308L376 368L597 579Q546 602 480 602Q286 602 245 404L165 0L35 0L118 412Q177 710 490 710Q560 710 624.50 691.50Q689 673 729 640L714 558Z"  horiz-adv-x="770" vert-adv-y="1000"  />

      
      <glyph glyph-name="uni018F" unicode="&#x018F;" d="M461 710Q565 710 640 672.50Q715 635 754.50 567Q794 499 794 410Q794 292 742 196Q690 100 596 45Q502-10 380-10Q280-10 206 27.50Q132 65 92.50 132.50Q53 200 53 287Q53 330 66 388L664 388L664 403Q664 492 609 544Q554 596 451 596Q389 596 331.50 576Q274 556 231 518L169 611Q224 659 299.50 684.50Q375 710 461 710M390 99Q482 99 548.50 151Q615 203 644 286L180 286Q182 197 236 148Q290 99 390 99Z"  horiz-adv-x="817" vert-adv-y="1000"  />

      
      <glyph glyph-name="uni54" unicode="&#x54;" d="M301 590L69 590L91 700L685 700L662 590L430 590L313 0L183 0L301 590Z"  horiz-adv-x="602" vert-adv-y="1000"  />

      
      <glyph glyph-name="uni0166" unicode="&#x0166;" d="M301 590L69 590L91 700L685 700L662 590L430 590L313 0L183 0L301 590M116 381L532 381L512 285L96 285L116 381Z"  horiz-adv-x="602" vert-adv-y="1000"  />

      
      <glyph glyph-name="uni0164" unicode="&#x0164;" d="M301 590L69 590L91 700L685 700L662 590L430 590L313 0L183 0L301 590M612 894L461 757L347 757L231 894L331 894L410 820L507 894L612 894Z"  horiz-adv-x="602" vert-adv-y="1000"  />

      
      <glyph glyph-name="uni0162" unicode="&#x0162;" d="M301 590L69 590L91 700L685 700L662 590L430 590L313 0L183 0L301 590M180-228Q125-228 89-207L119-148Q150-164 188-164Q217-164 231.50-153.50Q246-143 247-126Q247-95 200-95L169-95L215 7L283 7L259-49Q294-54 312.50-73Q331-92 331-121Q331-171 289.50-199.50Q248-228 180-228Z"  horiz-adv-x="602" vert-adv-y="1000"  />

      
      <glyph glyph-name="uni021A" unicode="&#x021A;" d="M301 590L69 590L91 700L685 700L662 590L430 590L313 0L183 0L301 590M223-83Q251-83 266-96.50Q281-110 281-131Q281-146 275.50-158.50Q270-171 254-194L208-265L149-265L188-183Q175-178 167.50-167.50Q160-157 160-143Q160-117 176.50-100Q193-83 223-83Z"  horiz-adv-x="602" vert-adv-y="1000"  />

      
      <glyph glyph-name="uni1E6C" unicode="&#x1E6C;" d="M301 590L69 590L91 700L685 700L662 590L430 590L313 0L183 0L301 590M213-203Q188-203 173-188.50Q158-174 158-149Q158-122 178-102.50Q198-83 225-83Q248-83 264-98Q280-113 280-136Q280-166 261-184.50Q242-203 213-203Z"  horiz-adv-x="602" vert-adv-y="1000"  />

      
      <glyph glyph-name="uni1E6E" unicode="&#x1E6E;" d="M301 590L69 590L91 700L685 700L662 590L430 590L313 0L183 0L301 590M52-104L400-104L387-178L39-178L52-104Z"  horiz-adv-x="602" vert-adv-y="1000"  />

      
      <glyph glyph-name="uni55" unicode="&#x55;" d="M361-10Q233-10 160.50 54Q88 118 88 230Q88 263 96 305L175 700L305 700L226 307Q219 267 219 245Q219 175 259 139.50Q299 104 374 104Q458 104 508.50 153Q559 202 581 308L659 700L787 700L707 299Q676 145 589 67.50Q502-10 361-10Z"  horiz-adv-x="789" vert-adv-y="1000"  />

      
      <glyph glyph-name="unida" unicode="&#xda;" d="M361-10Q233-10 160.50 54Q88 118 88 230Q88 263 96 305L175 700L305 700L226 307Q219 267 219 245Q219 175 259 139.50Q299 104 374 104Q458 104 508.50 153Q559 202 581 308L659 700L787 700L707 299Q676 145 589 67.50Q502-10 361-10M558 894L708 894L519 757L407 757L558 894Z"  horiz-adv-x="789" vert-adv-y="1000"  />

      
      <glyph glyph-name="uni016C" unicode="&#x016C;" d="M361-10Q233-10 160.50 54Q88 118 88 230Q88 263 96 305L175 700L305 700L226 307Q219 267 219 245Q219 175 259 139.50Q299 104 374 104Q458 104 508.50 153Q559 202 581 308L659 700L787 700L707 299Q676 145 589 67.50Q502-10 361-10M503 750Q431 750 386 789.50Q341 829 346 894L426 894Q425 860 447.50 839.50Q470 819 510 819Q549 819 576 839.50Q603 860 609 894L693 894Q681 828 629 789Q577 750 503 750Z"  horiz-adv-x="789" vert-adv-y="1000"  />

      
      <glyph glyph-name="uni01D3" unicode="&#x01D3;" d="M361-10Q233-10 160.50 54Q88 118 88 230Q88 263 96 305L175 700L305 700L226 307Q219 267 219 245Q219 175 259 139.50Q299 104 374 104Q458 104 508.50 153Q559 202 581 308L659 700L787 700L707 299Q676 145 589 67.50Q502-10 361-10M706 894L555 757L441 757L325 894L425 894L504 820L601 894L706 894Z"  horiz-adv-x="789" vert-adv-y="1000"  />

      
      <glyph glyph-name="unidb" unicode="&#xdb;" d="M361-10Q233-10 160.50 54Q88 118 88 230Q88 263 96 305L175 700L305 700L226 307Q219 267 219 245Q219 175 259 139.50Q299 104 374 104Q458 104 508.50 153Q559 202 581 308L659 700L787 700L707 299Q676 145 589 67.50Q502-10 361-10M584 757L505 831L408 757L303 757L454 894L568 894L684 757L584 757Z"  horiz-adv-x="789" vert-adv-y="1000"  />

      
      <glyph glyph-name="uni0214" unicode="&#x0214;" d="M361-10Q233-10 160.50 54Q88 118 88 230Q88 263 96 305L175 700L305 700L226 307Q219 267 219 245Q219 175 259 139.50Q299 104 374 104Q458 104 508.50 153Q559 202 581 308L659 700L787 700L707 299Q676 145 589 67.50Q502-10 361-10M272 894L392 894L446 757L353 757L272 894M460 894L580 894L634 757L541 757L460 894Z"  horiz-adv-x="789" vert-adv-y="1000"  />

      
      <glyph glyph-name="unidc" unicode="&#xdc;" d="M361-10Q233-10 160.50 54Q88 118 88 230Q88 263 96 305L175 700L305 700L226 307Q219 267 219 245Q219 175 259 139.50Q299 104 374 104Q458 104 508.50 153Q559 202 581 308L659 700L787 700L707 299Q676 145 589 67.50Q502-10 361-10M407 768Q382 768 366 783Q350 798 350 822Q350 851 368.50 870Q387 889 413 889Q438 889 454 874Q470 859 470 834Q470 806 451 787Q432 768 407 768M600 768Q576 768 560 783Q544 798 544 822Q544 851 562.50 870Q581 889 608 889Q632 889 648.50 873.50Q665 858 665 834Q665 806 645.50 787Q626 768 600 768Z"  horiz-adv-x="789" vert-adv-y="1000"  />

      
      <glyph glyph-name="uni1EE4" unicode="&#x1EE4;" d="M361-10Q233-10 160.50 54Q88 118 88 230Q88 263 96 305L175 700L305 700L226 307Q219 267 219 245Q219 175 259 139.50Q299 104 374 104Q458 104 508.50 153Q559 202 581 308L659 700L787 700L707 299Q676 145 589 67.50Q502-10 361-10M307-203Q282-203 267-188.50Q252-174 252-149Q252-122 272-102.50Q292-83 319-83Q342-83 358-98Q374-113 374-136Q374-166 355-184.50Q336-203 307-203Z"  horiz-adv-x="789" vert-adv-y="1000"  />

      
      <glyph glyph-name="unid9" unicode="&#xd9;" d="M361-10Q233-10 160.50 54Q88 118 88 230Q88 263 96 305L175 700L305 700L226 307Q219 267 219 245Q219 175 259 139.50Q299 104 374 104Q458 104 508.50 153Q559 202 581 308L659 700L787 700L707 299Q676 145 589 67.50Q502-10 361-10M322 894L468 894L577 757L469 757L322 894Z"  horiz-adv-x="789" vert-adv-y="1000"  />

      
      <glyph glyph-name="uni1EE6" unicode="&#x1EE6;" d="M361-10Q233-10 160.50 54Q88 118 88 230Q88 263 96 305L175 700L305 700L226 307Q219 267 219 245Q219 175 259 139.50Q299 104 374 104Q458 104 508.50 153Q559 202 581 308L659 700L787 700L707 299Q676 145 589 67.50Q502-10 361-10M488 793Q551 820 551 863Q551 881 538.50 891.50Q526 902 506 902Q475 902 445 882L422 938Q467 968 526 968Q572 968 599.50 944Q627 920 627 880Q627 794 522 745L488 793Z"  horiz-adv-x="789" vert-adv-y="1000"  />

      
      <glyph glyph-name="uni01AF" unicode="&#x01AF;" d="M361-10Q233-10 160.50 54Q88 118 88 230Q88 263 96 305L175 700L305 700L226 307Q219 267 219 245Q219 175 259 139.50Q299 104 374 104Q458 104 508.50 153Q559 202 581 308L659 700L787 700L707 299Q676 145 589 67.50Q502-10 361-10M722 700L744 700Q773 700 789.50 718Q806 736 806 764Q806 799 786 826L862 854Q892 814 892 760Q892 692 851.50 651.50Q811 611 742 611L722 611L722 700Z"  horiz-adv-x="800" vert-adv-y="1000"  />

      
      <glyph glyph-name="uni1EE8" unicode="&#x1EE8;" d="M361-10Q233-10 160.50 54Q88 118 88 230Q88 263 96 305L175 700L305 700L226 307Q219 267 219 245Q219 175 259 139.50Q299 104 374 104Q458 104 508.50 153Q559 202 581 308L659 700L787 700L707 299Q676 145 589 67.50Q502-10 361-10M722 700L744 700Q773 700 789.50 718Q806 736 806 764Q806 799 786 826L862 854Q892 814 892 760Q892 692 851.50 651.50Q811 611 742 611L722 611L722 700M558 894L708 894L519 757L407 757L558 894Z"  horiz-adv-x="800" vert-adv-y="1000"  />

      
      <glyph glyph-name="uni1EF0" unicode="&#x1EF0;" d="M361-10Q233-10 160.50 54Q88 118 88 230Q88 263 96 305L175 700L305 700L226 307Q219 267 219 245Q219 175 259 139.50Q299 104 374 104Q458 104 508.50 153Q559 202 581 308L659 700L787 700L707 299Q676 145 589 67.50Q502-10 361-10M722 700L744 700Q773 700 789.50 718Q806 736 806 764Q806 799 786 826L862 854Q892 814 892 760Q892 692 851.50 651.50Q811 611 742 611L722 611L722 700M307-203Q282-203 267-188.50Q252-174 252-149Q252-122 272-102.50Q292-83 319-83Q342-83 358-98Q374-113 374-136Q374-166 355-184.50Q336-203 307-203Z"  horiz-adv-x="800" vert-adv-y="1000"  />

      
      <glyph glyph-name="uni1EEA" unicode="&#x1EEA;" d="M361-10Q233-10 160.50 54Q88 118 88 230Q88 263 96 305L175 700L305 700L226 307Q219 267 219 245Q219 175 259 139.50Q299 104 374 104Q458 104 508.50 153Q559 202 581 308L659 700L787 700L707 299Q676 145 589 67.50Q502-10 361-10M722 700L744 700Q773 700 789.50 718Q806 736 806 764Q806 799 786 826L862 854Q892 814 892 760Q892 692 851.50 651.50Q811 611 742 611L722 611L722 700M322 894L468 894L577 757L469 757L322 894Z"  horiz-adv-x="800" vert-adv-y="1000"  />

      
      <glyph glyph-name="uni1EEC" unicode="&#x1EEC;" d="M361-10Q233-10 160.50 54Q88 118 88 230Q88 263 96 305L175 700L305 700L226 307Q219 267 219 245Q219 175 259 139.50Q299 104 374 104Q458 104 508.50 153Q559 202 581 308L659 700L787 700L707 299Q676 145 589 67.50Q502-10 361-10M722 700L744 700Q773 700 789.50 718Q806 736 806 764Q806 799 786 826L862 854Q892 814 892 760Q892 692 851.50 651.50Q811 611 742 611L722 611L722 700M488 793Q551 820 551 863Q551 881 538.50 891.50Q526 902 506 902Q475 902 445 882L422 938Q467 968 526 968Q572 968 599.50 944Q627 920 627 880Q627 794 522 745L488 793Z"  horiz-adv-x="800" vert-adv-y="1000"  />

      
      <glyph glyph-name="uni1EEE" unicode="&#x1EEE;" d="M361-10Q233-10 160.50 54Q88 118 88 230Q88 263 96 305L175 700L305 700L226 307Q219 267 219 245Q219 175 259 139.50Q299 104 374 104Q458 104 508.50 153Q559 202 581 308L659 700L787 700L707 299Q676 145 589 67.50Q502-10 361-10M722 700L744 700Q773 700 789.50 718Q806 736 806 764Q806 799 786 826L862 854Q892 814 892 760Q892 692 851.50 651.50Q811 611 742 611L722 611L722 700M575 757Q550 757 531.50 767Q513 777 491 795Q474 809 462.50 816Q451 823 438 823Q417 823 403 806.50Q389 790 384 763L317 763Q327 827 359.50 862Q392 897 439 897Q463 897 481.50 887Q500 877 523 858Q542 843 552 837Q562 831 575 831Q596 831 610 846.50Q624 862 629 888L696 888Q686 826 654 791.50Q622 757 575 757Z"  horiz-adv-x="800" vert-adv-y="1000"  />

      
      <glyph glyph-name="uni0170" unicode="&#x0170;" d="M361-10Q233-10 160.50 54Q88 118 88 230Q88 263 96 305L175 700L305 700L226 307Q219 267 219 245Q219 175 259 139.50Q299 104 374 104Q458 104 508.50 153Q559 202 581 308L659 700L787 700L707 299Q676 145 589 67.50Q502-10 361-10M445 894L572 894L450 757L349 757L445 894M632 894L760 894L637 757L537 757L632 894Z"  horiz-adv-x="789" vert-adv-y="1000"  />

      
      <glyph glyph-name="uni0216" unicode="&#x0216;" d="M361-10Q233-10 160.50 54Q88 118 88 230Q88 263 96 305L175 700L305 700L226 307Q219 267 219 245Q219 175 259 139.50Q299 104 374 104Q458 104 508.50 153Q559 202 581 308L659 700L787 700L707 299Q676 145 589 67.50Q502-10 361-10M320 757Q332 823 384 862.50Q436 902 510 902Q582 902 626.50 862Q671 822 666 757L587 757Q588 792 565 813Q542 834 503 834Q464 834 437 813Q410 792 404 757L320 757Z"  horiz-adv-x="789" vert-adv-y="1000"  />

      
      <glyph glyph-name="uni016A" unicode="&#x016A;" d="M361-10Q233-10 160.50 54Q88 118 88 230Q88 263 96 305L175 700L305 700L226 307Q219 267 219 245Q219 175 259 139.50Q299 104 374 104Q458 104 508.50 153Q559 202 581 308L659 700L787 700L707 299Q676 145 589 67.50Q502-10 361-10M340 863L687 863L673 788L326 788L340 863Z"  horiz-adv-x="789" vert-adv-y="1000"  />

      
      <glyph glyph-name="uni1E7A" unicode="&#x1E7A;" d="M361-10Q233-10 160.50 54Q88 118 88 230Q88 263 96 305L175 700L305 700L226 307Q219 267 219 245Q219 175 259 139.50Q299 104 374 104Q458 104 508.50 153Q559 202 581 308L659 700L787 700L707 299Q676 145 589 67.50Q502-10 361-10M336 847L684 847L671 777L323 777L336 847M439 921Q415 921 399.50 935Q384 949 384 973Q384 1000 402.50 1018.50Q421 1037 446 1037Q469 1037 484.50 1022Q500 1007 500 983Q500 956 482 938.50Q464 921 439 921M627 921Q603 921 588 935Q573 949 573 973Q573 1000 591 1018.50Q609 1037 634 1037Q658 1037 673.50 1022Q689 1007 689 983Q689 956 670.50 938.50Q652 921 627 921Z"  horiz-adv-x="789" vert-adv-y="1000"  />

      
      <glyph glyph-name="uni0172" unicode="&#x0172;" d="M787 700L707 299Q657 48 459 1Q379-18 338.50-50.50Q298-83 298-117Q298-138 311-149Q324-160 347-160Q383-160 412-144L425-205Q381-228 327-228Q275-228 243-203Q211-178 211-134Q211-58 295-5Q197 11 142.50 72Q88 133 88 230Q88 263 96 305L175 700L305 700L226 307Q219 267 219 245Q219 175 259 139.50Q299 104 374 104Q458 104 508.50 153Q559 202 581 308L659 700L787 700Z"  horiz-adv-x="789" vert-adv-y="1000"  />

      
      <glyph glyph-name="uni016E" unicode="&#x016E;" d="M361-10Q233-10 160.50 54Q88 118 88 230Q88 263 96 305L175 700L305 700L226 307Q219 267 219 245Q219 175 259 139.50Q299 104 374 104Q458 104 508.50 153Q559 202 581 308L659 700L787 700L707 299Q676 145 589 67.50Q502-10 361-10M516 759Q467 759 433.50 792Q400 825 400 873Q400 921 433.50 955Q467 989 516 989Q566 989 600 955Q634 921 634 873Q634 825 600 792Q566 759 516 759M516 810Q544 810 562 828Q580 846 580 873Q580 901 561.50 919.50Q543 938 516 938Q490 938 472 919.50Q454 901 454 873Q454 846 471.50 828Q489 810 516 810Z"  horiz-adv-x="789" vert-adv-y="1000"  />

      
      <glyph glyph-name="uni0168" unicode="&#x0168;" d="M361-10Q233-10 160.50 54Q88 118 88 230Q88 263 96 305L175 700L305 700L226 307Q219 267 219 245Q219 175 259 139.50Q299 104 374 104Q458 104 508.50 153Q559 202 581 308L659 700L787 700L707 299Q676 145 589 67.50Q502-10 361-10M575 757Q550 757 531.50 767Q513 777 491 795Q474 809 462.50 816Q451 823 438 823Q417 823 403 806.50Q389 790 384 763L317 763Q327 827 359.50 862Q392 897 439 897Q463 897 481.50 887Q500 877 523 858Q542 843 552 837Q562 831 575 831Q596 831 610 846.50Q624 862 629 888L696 888Q686 826 654 791.50Q622 757 575 757Z"  horiz-adv-x="789" vert-adv-y="1000"  />

      
      <glyph glyph-name="uni1E78" unicode="&#x1E78;" d="M361-10Q233-10 160.50 54Q88 118 88 230Q88 263 96 305L175 700L305 700L226 307Q219 267 219 245Q219 175 259 139.50Q299 104 374 104Q458 104 508.50 153Q559 202 581 308L659 700L787 700L707 299Q676 145 589 67.50Q502-10 361-10M570 758Q545 758 526.50 766.50Q508 775 487 791Q471 802 461.50 807Q452 812 441 812Q420 812 406.50 799Q393 786 389 764L321 764Q330 818 362 848Q394 878 441 878Q466 878 484 869.50Q502 861 524 846Q540 835 549.50 830Q559 825 570 825Q591 825 605 838Q619 851 624 872L689 872Q682 819 650 788.50Q618 758 570 758M570 1026L708 1026L543 909L443 909L570 1026Z"  horiz-adv-x="789" vert-adv-y="1000"  />

      
      <glyph glyph-name="uni56" unicode="&#x56;" d="M820 700L375 0L247 0L82 700L216 700L341 162L685 700L820 700Z"  horiz-adv-x="729" vert-adv-y="1000"  />

      
      </font>
</defs>
</svg>
