<?xml version="1.0" standalone="no"?>
  <!DOCTYPE svg PUBLIC "-//W3C//DTD SVG 1.1//EN" "http://www.w3.org/Graphics/SVG/1.1/DTD/svg11.dtd" >
  <svg>
  <metadata>
  Created by font-carrier
  </metadata>
  <defs>
  <font id="Montserrat-LightItalic" horiz-adv-x="1596" vert-adv-y="1596" >
    <font-face
      
      font-family="Montserrat Light"
      
      font-weight="400"
      
      font-stretch="normal"
      
      units-per-em="1000"
      
      ascent="968"
      
      descent="-251"
      
    />
      <missing-glyph />

      

      
      <glyph glyph-name="uni41" unicode="&#x41;" d="M546 197L139 197L10 0L-47 0L415 700L466 700L648 0L596 0L546 197M535 240L432 646L167 240L535 240Z"  horiz-adv-x="705" vert-adv-y="1000"  />

      
      <glyph glyph-name="unic1" unicode="&#xc1;" d="M546 197L139 197L10 0L-47 0L415 700L466 700L648 0L596 0L546 197M535 240L432 646L167 240L535 240M544 875L619 875L449 757L392 757L544 875Z"  horiz-adv-x="705" vert-adv-y="1000"  />

      
      <glyph glyph-name="uni0102" unicode="&#x0102;" d="M546 197L139 197L10 0L-47 0L415 700L466 700L648 0L596 0L546 197M535 240L432 646L167 240L535 240M461 753Q401 753 363 786.50Q325 820 329 875L366 875Q364 834 391 810Q418 786 464 786Q508 786 540.50 810.50Q573 835 579 875L617 875Q609 819 565.50 786Q522 753 461 753Z"  horiz-adv-x="705" vert-adv-y="1000"  />

      
      <glyph glyph-name="uni1EAE" unicode="&#x1EAE;" d="M546 197L139 197L10 0L-47 0L415 700L466 700L648 0L596 0L546 197M535 240L432 646L167 240L535 240M459 753Q400 753 363.50 777.50Q327 802 324 845L360 845Q364 816 390 800.50Q416 785 461 785Q508 785 537 800.50Q566 816 575 845L612 845Q602 802 560.50 777.50Q519 753 459 753M551 968L621 968L468 863L416 863L551 968Z"  horiz-adv-x="705" vert-adv-y="1000"  />

      
      <glyph glyph-name="uni1EB6" unicode="&#x1EB6;" d="M546 197L139 197L10 0L-47 0L415 700L466 700L648 0L596 0L546 197M535 240L432 646L167 240L535 240M265-184Q251-184 242.50-175.50Q234-167 234-154Q234-137 246.50-124.50Q259-112 275-112Q288-112 297-120.50Q306-129 306-142Q306-160 294-172Q282-184 265-184M461 753Q401 753 363 786.50Q325 820 329 875L366 875Q364 834 391 810Q418 786 464 786Q508 786 540.50 810.50Q573 835 579 875L617 875Q609 819 565.50 786Q522 753 461 753Z"  horiz-adv-x="705" vert-adv-y="1000"  />

      
      <glyph glyph-name="uni1EB0" unicode="&#x1EB0;" d="M546 197L139 197L10 0L-47 0L415 700L466 700L648 0L596 0L546 197M535 240L432 646L167 240L535 240M459 753Q400 753 363.50 777.50Q327 802 324 845L360 845Q364 816 390 800.50Q416 785 461 785Q508 785 537 800.50Q566 816 575 845L612 845Q602 802 560.50 777.50Q519 753 459 753M356 968L424 968L526 863L477 863L356 968Z"  horiz-adv-x="705" vert-adv-y="1000"  />

      
      <glyph glyph-name="uni1EB2" unicode="&#x1EB2;" d="M546 197L139 197L10 0L-47 0L415 700L466 700L648 0L596 0L546 197M535 240L432 646L167 240L535 240M459 753Q400 753 363.50 777.50Q327 802 324 845L360 845Q364 816 390 800.50Q416 785 461 785Q508 785 537 800.50Q566 816 575 845L612 845Q602 802 560.50 777.50Q519 753 459 753M450 858Q500 879 500 915Q500 929 490 937Q480 945 464 945Q440 945 418 932L409 958Q439 974 469 974Q497 974 514 959Q531 944 531 919Q531 865 465 837L450 858Z"  horiz-adv-x="705" vert-adv-y="1000"  />

      
      <glyph glyph-name="uni1EB4" unicode="&#x1EB4;" d="M546 197L139 197L10 0L-47 0L415 700L466 700L648 0L596 0L546 197M535 240L432 646L167 240L535 240M459 753Q400 753 363.50 777.50Q327 802 324 845L360 845Q364 816 390 800.50Q416 785 461 785Q508 785 537 800.50Q566 816 575 845L612 845Q602 802 560.50 777.50Q519 753 459 753M543 874Q522 874 506.50 882Q491 890 473 904Q458 916 447 922Q436 928 423 928Q399 928 383.50 914.50Q368 901 363 877L330 877Q337 916 362 938.50Q387 961 423 961Q443 961 457.50 953.50Q472 946 493 931Q508 919 518.50 913Q529 907 542 907Q566 907 582 920Q598 933 603 956L636 956Q629 918 604 896Q579 874 543 874Z"  horiz-adv-x="705" vert-adv-y="1000"  />

      
      <glyph glyph-name="uni01CD" unicode="&#x01CD;" d="M546 197L139 197L10 0L-47 0L415 700L466 700L648 0L596 0L546 197M535 240L432 646L167 240L535 240M627 875L487 757L432 757L319 875L367 875L462 788L574 875L627 875Z"  horiz-adv-x="705" vert-adv-y="1000"  />

      
      <glyph glyph-name="unic2" unicode="&#xc2;" d="M546 197L139 197L10 0L-47 0L415 700L466 700L648 0L596 0L546 197M535 240L432 646L167 240L535 240M557 757L462 844L349 757L297 757L437 875L492 875L605 757L557 757Z"  horiz-adv-x="705" vert-adv-y="1000"  />

      
      <glyph glyph-name="uni1EA4" unicode="&#x1EA4;" d="M546 197L139 197L10 0L-47 0L415 700L466 700L648 0L596 0L546 197M535 240L432 646L167 240L535 240M554 757L461 818L352 757L298 757L436 845L490 845L605 757L554 757M669 942L739 942L586 837L534 837L669 942Z"  horiz-adv-x="705" vert-adv-y="1000"  />

      
      <glyph glyph-name="uni1EAC" unicode="&#x1EAC;" d="M546 197L139 197L10 0L-47 0L415 700L466 700L648 0L596 0L546 197M535 240L432 646L167 240L535 240M265-184Q251-184 242.50-175.50Q234-167 234-154Q234-137 246.50-124.50Q259-112 275-112Q288-112 297-120.50Q306-129 306-142Q306-160 294-172Q282-184 265-184M557 757L462 844L349 757L297 757L437 875L492 875L605 757L557 757Z"  horiz-adv-x="705" vert-adv-y="1000"  />

      
      <glyph glyph-name="uni1EA6" unicode="&#x1EA6;" d="M546 197L139 197L10 0L-47 0L415 700L466 700L648 0L596 0L546 197M535 240L432 646L167 240L535 240M554 757L461 818L352 757L298 757L436 845L490 845L605 757L554 757M474 942L542 942L644 837L595 837L474 942Z"  horiz-adv-x="705" vert-adv-y="1000"  />

      
      <glyph glyph-name="uni1EA8" unicode="&#x1EA8;" d="M546 197L139 197L10 0L-47 0L415 700L466 700L648 0L596 0L546 197M535 240L432 646L167 240L535 240M554 757L461 818L352 757L298 757L436 845L490 845L605 757L554 757M562 842Q612 863 612 899Q612 913 602 921Q592 929 576 929Q552 929 530 916L521 942Q551 958 581 958Q609 958 626 943Q643 928 643 903Q643 849 577 821L562 842Z"  horiz-adv-x="705" vert-adv-y="1000"  />

      
      <glyph glyph-name="uni1EAA" unicode="&#x1EAA;" d="M546 197L139 197L10 0L-47 0L415 700L466 700L648 0L596 0L546 197M535 240L432 646L167 240L535 240M554 757L461 818L352 757L298 757L436 845L490 845L605 757L554 757M544 878Q523 878 507.50 886Q492 894 474 908Q459 920 448 926Q437 932 424 932Q400 932 384.50 918.50Q369 905 364 881L331 881Q338 920 363 942.50Q388 965 424 965Q444 965 458.50 957.50Q473 950 494 935Q509 923 519.50 917Q530 911 543 911Q567 911 583 924Q599 937 604 960L637 960Q630 922 605 900Q580 878 544 878Z"  horiz-adv-x="705" vert-adv-y="1000"  />

      
      <glyph glyph-name="uni0200" unicode="&#x0200;" d="M546 197L139 197L10 0L-47 0L415 700L466 700L648 0L596 0L546 197M535 240L432 646L167 240L535 240M259 875L319 875L398 757L351 757L259 875M412 875L472 875L551 757L504 757L412 875Z"  horiz-adv-x="705" vert-adv-y="1000"  />

      
      <glyph glyph-name="unic4" unicode="&#xc4;" d="M546 197L139 197L10 0L-47 0L415 700L466 700L648 0L596 0L546 197M535 240L432 646L167 240L535 240M375 784Q361 784 351 793.50Q341 803 341 817Q341 833 352 844.50Q363 856 379 856Q393 856 403 846.50Q413 837 413 823Q413 807 402 795.50Q391 784 375 784M548 784Q534 784 524 793.50Q514 803 514 817Q514 833 525 844.50Q536 856 551 856Q565 856 575.50 846.50Q586 837 586 823Q586 807 574.50 795.50Q563 784 548 784Z"  horiz-adv-x="705" vert-adv-y="1000"  />

      
      <glyph glyph-name="uni1EA0" unicode="&#x1EA0;" d="M546 197L139 197L10 0L-47 0L415 700L466 700L648 0L596 0L546 197M535 240L432 646L167 240L535 240M265-184Q251-184 242.50-175.50Q234-167 234-154Q234-137 246.50-124.50Q259-112 275-112Q288-112 297-120.50Q306-129 306-142Q306-160 294-172Q282-184 265-184Z"  horiz-adv-x="705" vert-adv-y="1000"  />

      
      <glyph glyph-name="unic0" unicode="&#xc0;" d="M546 197L139 197L10 0L-47 0L415 700L466 700L648 0L596 0L546 197M535 240L432 646L167 240L535 240M320 875L392 875L508 757L454 757L320 875Z"  horiz-adv-x="705" vert-adv-y="1000"  />

      
      <glyph glyph-name="uni1EA2" unicode="&#x1EA2;" d="M546 197L139 197L10 0L-47 0L415 700L466 700L648 0L596 0L546 197M535 240L432 646L167 240L535 240M450 776Q519 806 519 855Q519 876 504.50 888.50Q490 901 467 901Q436 901 406 881L393 909Q429 933 474 933Q511 933 533 914Q555 895 555 862Q555 826 533.50 798.50Q512 771 465 750L450 776Z"  horiz-adv-x="705" vert-adv-y="1000"  />

      
      <glyph glyph-name="uni0202" unicode="&#x0202;" d="M546 197L139 197L10 0L-47 0L415 700L466 700L648 0L596 0L546 197M535 240L432 646L167 240L535 240M307 757Q316 813 359 846Q402 879 463 879Q523 879 561 845.50Q599 812 595 757L558 757Q561 798 533.50 822Q506 846 460 846Q416 846 383.50 821.50Q351 797 345 757L307 757Z"  horiz-adv-x="705" vert-adv-y="1000"  />

      
      <glyph glyph-name="uni0100" unicode="&#x0100;" d="M546 197L139 197L10 0L-47 0L415 700L466 700L648 0L596 0L546 197M535 240L432 646L167 240L535 240M319 834L613 834L606 798L312 798L319 834Z"  horiz-adv-x="705" vert-adv-y="1000"  />

      
      <glyph glyph-name="uni0104" unicode="&#x0104;" d="M546 197L139 197L10 0L-47 0L415 700L466 700L648 0L596 0L546 197M535 240L432 646L167 240L535 240M545-217Q505-217 481-196.50Q457-176 457-141Q457-43 627 24L648 0Q497-58 497-135Q497-159 511.50-171.50Q526-184 552-184Q590-184 621-162L631-192Q592-217 545-217Z"  horiz-adv-x="705" vert-adv-y="1000"  />

      
      <glyph glyph-name="unic5" unicode="&#xc5;" d="M546 197L139 197L10 0L-47 0L415 700L466 700L648 0L596 0L546 197M535 240L432 646L167 240L535 240M474 774Q432 774 403.50 802.50Q375 831 375 871Q375 912 403.50 941.50Q432 971 474 971Q516 971 545 941.50Q574 912 574 871Q574 831 545.50 802.50Q517 774 474 774M474 802Q505 802 525 822Q545 842 545 871Q545 901 524.50 921.50Q504 942 474 942Q444 942 424.50 921.50Q405 901 405 871Q405 841 424.50 821.50Q444 802 474 802Z"  horiz-adv-x="705" vert-adv-y="1000"  />

      
      <glyph glyph-name="uni01FA" unicode="&#x01FA;" d="M546 197L139 197L10 0L-47 0L415 700L466 700L648 0L596 0L546 197M535 240L432 646L167 240L535 240M553 932Q574 905 574 871Q574 831 545.50 802.50Q517 774 474 774Q432 774 403.50 802.50Q375 831 375 871Q375 912 403.50 941.50Q432 971 474 971Q505 971 530 954L611 1034L641 1010L553 932M474 802Q505 802 525 822Q545 842 545 871Q545 901 524.50 921.50Q504 942 474 942Q444 942 424.50 921.50Q405 901 405 871Q405 841 424.50 821.50Q444 802 474 802Z"  horiz-adv-x="705" vert-adv-y="1000"  />

      
      <glyph glyph-name="unic3" unicode="&#xc3;" d="M546 197L139 197L10 0L-47 0L415 700L466 700L648 0L596 0L546 197M535 240L432 646L167 240L535 240M527 765Q505 765 489.50 774.50Q474 784 453 803Q437 818 424.50 826Q412 834 398 834Q376 834 360.50 816.50Q345 799 340 769L307 769Q314 815 338.50 842Q363 869 399 869Q420 869 435.50 859.50Q451 850 472 831Q488 816 500.50 808Q513 800 527 800Q549 800 565 817.50Q581 835 586 863L619 863Q611 818 587 791.50Q563 765 527 765Z"  horiz-adv-x="705" vert-adv-y="1000"  />

      
      <glyph glyph-name="unic6" unicode="&#xc6;" d="M605 654L550 378L922 378L913 333L541 333L483 46L915 46L905 0L423 0L462 197L172 197L12 0L-48 0L523 700L1031 700L1021 654L605 654M471 240L554 655L545 655L207 240L471 240Z"  horiz-adv-x="1022" vert-adv-y="1000"  />

      
      <glyph glyph-name="uni01FC" unicode="&#x01FC;" d="M605 654L550 378L922 378L913 333L541 333L483 46L915 46L905 0L423 0L462 197L172 197L12 0L-48 0L523 700L1031 700L1021 654L605 654M471 240L554 655L545 655L207 240L471 240M693 875L768 875L598 757L541 757L693 875Z"  horiz-adv-x="1022" vert-adv-y="1000"  />

      
      <glyph glyph-name="uni42" unicode="&#x42;" d="M556 360Q616 347 648 310.50Q680 274 680 216Q680 112 602 56Q524 0 385 0L70 0L210 700L500 700Q599 700 654.50 662.50Q710 625 710 554Q710 479 668 429.50Q626 380 556 360M196 377L435 377Q535 377 596 420.50Q657 464 657 546Q657 601 614 628.50Q571 656 491 656L252 656L196 377M390 44Q505 44 567 88Q629 132 629 214Q629 277 585 305Q541 333 452 333L188 333L130 44L390 44Z"  horiz-adv-x="752" vert-adv-y="1000"  />

      
      <glyph glyph-name="uni43" unicode="&#x43;" d="M389-5Q287-5 214.50 31Q142 67 104.50 132Q67 197 67 283Q67 397 119 494Q171 591 267 648Q363 705 491 705Q572 705 635.50 680Q699 655 734 609L698 576Q628 658 487 658Q377 658 293 607.50Q209 557 163.50 472Q118 387 118 285Q118 173 189 107.50Q260 42 393 42Q537 42 624 126L655 91Q609 45 539.50 20Q470-5 389-5Z"  horiz-adv-x="716" vert-adv-y="1000"  />

      
      <glyph glyph-name="uni0106" unicode="&#x0106;" d="M389-5Q287-5 214.50 31Q142 67 104.50 132Q67 197 67 283Q67 397 119 494Q171 591 267 648Q363 705 491 705Q572 705 635.50 680Q699 655 734 609L698 576Q628 658 487 658Q377 658 293 607.50Q209 557 163.50 472Q118 387 118 285Q118 173 189 107.50Q260 42 393 42Q537 42 624 126L655 91Q609 45 539.50 20Q470-5 389-5M600 875L675 875L505 757L448 757L600 875Z"  horiz-adv-x="716" vert-adv-y="1000"  />

      
      <glyph glyph-name="uni010C" unicode="&#x010C;" d="M389-5Q287-5 214.50 31Q142 67 104.50 132Q67 197 67 283Q67 397 119 494Q171 591 267 648Q363 705 491 705Q572 705 635.50 680Q699 655 734 609L698 576Q628 658 487 658Q377 658 293 607.50Q209 557 163.50 472Q118 387 118 285Q118 173 189 107.50Q260 42 393 42Q537 42 624 126L655 91Q609 45 539.50 20Q470-5 389-5M683 875L543 757L488 757L375 875L423 875L518 788L630 875L683 875Z"  horiz-adv-x="716" vert-adv-y="1000"  />

      
      <glyph glyph-name="unic7" unicode="&#xc7;" d="M389-5Q287-5 214.50 31Q142 67 104.50 132Q67 197 67 283Q67 397 119 494Q171 591 267 648Q363 705 491 705Q572 705 635.50 680Q699 655 734 609L698 576Q628 658 487 658Q377 658 293 607.50Q209 557 163.50 472Q118 387 118 285Q118 173 189 107.50Q260 42 393 42Q537 42 624 126L655 91Q609 45 539.50 20Q470-5 389-5M308-217Q257-217 226-192L245-164Q272-185 311-185Q344-185 363.50-168.50Q383-152 383-125Q383-104 368-92.50Q353-81 325-81L306-81L347 6L380 6L353-53Q386-57 404.50-75.50Q423-94 423-123Q423-164 391-190.50Q359-217 308-217Z"  horiz-adv-x="716" vert-adv-y="1000"  />

      
      <glyph glyph-name="uni1E08" unicode="&#x1E08;" d="M389-5Q287-5 214.50 31Q142 67 104.50 132Q67 197 67 283Q67 397 119 494Q171 591 267 648Q363 705 491 705Q572 705 635.50 680Q699 655 734 609L698 576Q628 658 487 658Q377 658 293 607.50Q209 557 163.50 472Q118 387 118 285Q118 173 189 107.50Q260 42 393 42Q537 42 624 126L655 91Q609 45 539.50 20Q470-5 389-5M308-217Q257-217 226-192L245-164Q272-185 311-185Q344-185 363.50-168.50Q383-152 383-125Q383-104 368-92.50Q353-81 325-81L306-81L347 6L380 6L353-53Q386-57 404.50-75.50Q423-94 423-123Q423-164 391-190.50Q359-217 308-217M600 875L675 875L505 757L448 757L600 875Z"  horiz-adv-x="716" vert-adv-y="1000"  />

      
      <glyph glyph-name="uni0108" unicode="&#x0108;" d="M389-5Q287-5 214.50 31Q142 67 104.50 132Q67 197 67 283Q67 397 119 494Q171 591 267 648Q363 705 491 705Q572 705 635.50 680Q699 655 734 609L698 576Q628 658 487 658Q377 658 293 607.50Q209 557 163.50 472Q118 387 118 285Q118 173 189 107.50Q260 42 393 42Q537 42 624 126L655 91Q609 45 539.50 20Q470-5 389-5M613 757L518 844L405 757L353 757L493 875L548 875L661 757L613 757Z"  horiz-adv-x="716" vert-adv-y="1000"  />

      
      <glyph glyph-name="uni010A" unicode="&#x010A;" d="M389-5Q287-5 214.50 31Q142 67 104.50 132Q67 197 67 283Q67 397 119 494Q171 591 267 648Q363 705 491 705Q572 705 635.50 680Q699 655 734 609L698 576Q628 658 487 658Q377 658 293 607.50Q209 557 163.50 472Q118 387 118 285Q118 173 189 107.50Q260 42 393 42Q537 42 624 126L655 91Q609 45 539.50 20Q470-5 389-5M518 785Q502 785 491.50 795Q481 805 481 820Q481 838 493 850.50Q505 863 522 863Q538 863 548.50 852.50Q559 842 559 827Q559 809 547 797Q535 785 518 785Z"  horiz-adv-x="716" vert-adv-y="1000"  />

      
      <glyph glyph-name="uni44" unicode="&#x44;" d="M210 700L470 700Q573 700 646.50 665Q720 630 758 566Q796 502 796 417Q796 296 742 201Q688 106 589 53Q490 0 360 0L70 0L210 700M363 46Q478 46 564.50 93Q651 140 697.50 224Q744 308 744 415Q744 526 673 590Q602 654 464 654L252 654L130 46L363 46Z"  horiz-adv-x="826" vert-adv-y="1000"  />

      
      <glyph glyph-name="uni01C4" unicode="&#x01C4;" d="M210 700L470 700Q573 700 646.50 665Q720 630 758 566Q796 502 796 417Q796 296 742 201Q688 106 589 53Q490 0 360 0L70 0L210 700M363 46Q478 46 564.50 93Q651 140 697.50 224Q744 308 744 415Q744 526 673 590Q602 654 464 654L252 654L130 46L363 46M1484 664L880 46L1371 46L1361 0L797 0L805 36L1408 654L935 654L944 700L1491 700L1484 664M1407 875L1267 757L1212 757L1099 875L1147 875L1242 788L1354 875L1407 875Z"  horiz-adv-x="1458" vert-adv-y="1000"  />

      
      <glyph glyph-name="unid0" unicode="&#xd0;" d="M213 700L473 700Q576 700 649.50 665Q723 630 761 566Q799 502 799 417Q799 296 745 201Q691 106 592 53Q493 0 363 0L73 0L213 700M366 46Q481 46 567.50 93Q654 140 700.50 224Q747 308 747 415Q747 526 676 590Q605 654 467 654L255 654L133 46L366 46M39 377L415 377L406 334L30 334L39 377Z"  horiz-adv-x="829" vert-adv-y="1000"  />

      
      <glyph glyph-name="uni010E" unicode="&#x010E;" d="M210 700L470 700Q573 700 646.50 665Q720 630 758 566Q796 502 796 417Q796 296 742 201Q688 106 589 53Q490 0 360 0L70 0L210 700M363 46Q478 46 564.50 93Q651 140 697.50 224Q744 308 744 415Q744 526 673 590Q602 654 464 654L252 654L130 46L363 46M660 874L520 756L465 756L352 874L400 874L495 787L607 874L660 874Z"  horiz-adv-x="826" vert-adv-y="1000"  />

      
      <glyph glyph-name="uni0110" unicode="&#x0110;" d="M213 700L473 700Q576 700 649.50 665Q723 630 761 566Q799 502 799 417Q799 296 745 201Q691 106 592 53Q493 0 363 0L73 0L213 700M366 46Q481 46 567.50 93Q654 140 700.50 224Q747 308 747 415Q747 526 676 590Q605 654 467 654L255 654L133 46L366 46M39 377L415 377L406 334L30 334L39 377Z"  horiz-adv-x="829" vert-adv-y="1000"  />

      
      <glyph glyph-name="uni1E0C" unicode="&#x1E0C;" d="M210 700L470 700Q573 700 646.50 665Q720 630 758 566Q796 502 796 417Q796 296 742 201Q688 106 589 53Q490 0 360 0L70 0L210 700M363 46Q478 46 564.50 93Q651 140 697.50 224Q744 308 744 415Q744 526 673 590Q602 654 464 654L252 654L130 46L363 46M303-184Q289-184 280.50-175.50Q272-167 272-154Q272-137 284.50-124.50Q297-112 313-112Q326-112 335-120.50Q344-129 344-142Q344-160 332-172Q320-184 303-184Z"  horiz-adv-x="826" vert-adv-y="1000"  />

      
      <glyph glyph-name="uni1E0E" unicode="&#x1E0E;" d="M210 700L470 700Q573 700 646.50 665Q720 630 758 566Q796 502 796 417Q796 296 742 201Q688 106 589 53Q490 0 360 0L70 0L210 700M363 46Q478 46 564.50 93Q651 140 697.50 224Q744 308 744 415Q744 526 673 590Q602 654 464 654L252 654L130 46L363 46M165-129L458-129L452-165L158-165L165-129Z"  horiz-adv-x="826" vert-adv-y="1000"  />

      
      <glyph glyph-name="uni01C5" unicode="&#x01C5;" d="M210 700L470 700Q573 700 646.50 665Q720 630 758 566Q796 502 796 417Q796 296 742 201Q688 106 589 53Q490 0 360 0L70 0L210 700M363 46Q478 46 564.50 93Q651 140 697.50 224Q744 308 744 415Q744 526 673 590Q602 654 464 654L252 654L130 46L363 46M1324 488L894 43L1241 43L1232 0L817 0L824 34L1253 479L919 479L927 522L1331 522L1324 488M1322 725L1182 607L1127 607L1014 725L1062 725L1157 638L1269 725L1322 725Z"  horiz-adv-x="1329" vert-adv-y="1000"  />

      
      <glyph glyph-name="uni45" unicode="&#x45;" d="M252 654L197 378L569 378L560 333L188 333L130 46L562 46L552 0L70 0L210 700L678 700L668 654L252 654Z"  horiz-adv-x="669" vert-adv-y="1000"  />

      
      <glyph glyph-name="unic9" unicode="&#xc9;" d="M252 654L197 378L569 378L560 333L188 333L130 46L562 46L552 0L70 0L210 700L678 700L668 654L252 654M548 875L623 875L453 757L396 757L548 875Z"  horiz-adv-x="669" vert-adv-y="1000"  />

      
      <glyph glyph-name="uni0114" unicode="&#x0114;" d="M252 654L197 378L569 378L560 333L188 333L130 46L562 46L552 0L70 0L210 700L678 700L668 654L252 654M465 753Q405 753 367 786.50Q329 820 333 875L370 875Q368 834 395 810Q422 786 468 786Q512 786 544.50 810.50Q577 835 583 875L621 875Q613 819 569.50 786Q526 753 465 753Z"  horiz-adv-x="669" vert-adv-y="1000"  />

      
      <glyph glyph-name="uni011A" unicode="&#x011A;" d="M252 654L197 378L569 378L560 333L188 333L130 46L562 46L552 0L70 0L210 700L678 700L668 654L252 654M631 875L491 757L436 757L323 875L371 875L466 788L578 875L631 875Z"  horiz-adv-x="669" vert-adv-y="1000"  />

      
      <glyph glyph-name="uni1E1C" unicode="&#x1E1C;" d="M252 654L197 378L569 378L560 333L188 333L130 46L562 46L552 0L70 0L210 700L678 700L668 654L252 654M264-217Q213-217 182-192L201-164Q228-185 267-185Q300-185 319.50-168.50Q339-152 339-125Q339-104 324-92.50Q309-81 281-81L262-81L303 6L336 6L309-53Q342-57 360.50-75.50Q379-94 379-123Q379-164 347-190.50Q315-217 264-217M465 753Q405 753 367 786.50Q329 820 333 875L370 875Q368 834 395 810Q422 786 468 786Q512 786 544.50 810.50Q577 835 583 875L621 875Q613 819 569.50 786Q526 753 465 753Z"  horiz-adv-x="669" vert-adv-y="1000"  />

      
      <glyph glyph-name="unica" unicode="&#xca;" d="M252 654L197 378L569 378L560 333L188 333L130 46L562 46L552 0L70 0L210 700L678 700L668 654L252 654M561 757L466 844L353 757L301 757L441 875L496 875L609 757L561 757Z"  horiz-adv-x="669" vert-adv-y="1000"  />

      
      <glyph glyph-name="uni1EBE" unicode="&#x1EBE;" d="M252 654L197 378L569 378L560 333L188 333L130 46L562 46L552 0L70 0L210 700L678 700L668 654L252 654M558 757L465 818L356 757L302 757L440 845L494 845L609 757L558 757M673 942L743 942L590 837L538 837L673 942Z"  horiz-adv-x="669" vert-adv-y="1000"  />

      
      <glyph glyph-name="uni1EC6" unicode="&#x1EC6;" d="M252 654L197 378L569 378L560 333L188 333L130 46L562 46L552 0L70 0L210 700L678 700L668 654L252 654M284-184Q270-184 261.50-175.50Q253-167 253-154Q253-137 265.50-124.50Q278-112 294-112Q307-112 316-120.50Q325-129 325-142Q325-160 313-172Q301-184 284-184M561 757L466 844L353 757L301 757L441 875L496 875L609 757L561 757Z"  horiz-adv-x="669" vert-adv-y="1000"  />

      
      <glyph glyph-name="uni1EC0" unicode="&#x1EC0;" d="M252 654L197 378L569 378L560 333L188 333L130 46L562 46L552 0L70 0L210 700L678 700L668 654L252 654M558 757L465 818L356 757L302 757L440 845L494 845L609 757L558 757M478 942L546 942L648 837L599 837L478 942Z"  horiz-adv-x="669" vert-adv-y="1000"  />

      
      <glyph glyph-name="uni1EC2" unicode="&#x1EC2;" d="M252 654L197 378L569 378L560 333L188 333L130 46L562 46L552 0L70 0L210 700L678 700L668 654L252 654M558 757L465 818L356 757L302 757L440 845L494 845L609 757L558 757M566 842Q616 863 616 899Q616 913 606 921Q596 929 580 929Q556 929 534 916L525 942Q555 958 585 958Q613 958 630 943Q647 928 647 903Q647 849 581 821L566 842Z"  horiz-adv-x="669" vert-adv-y="1000"  />

      
      <glyph glyph-name="uni1EC4" unicode="&#x1EC4;" d="M252 654L197 378L569 378L560 333L188 333L130 46L562 46L552 0L70 0L210 700L678 700L668 654L252 654M558 757L465 818L356 757L302 757L440 845L494 845L609 757L558 757M548 878Q527 878 511.50 886Q496 894 478 908Q463 920 452 926Q441 932 428 932Q404 932 388.50 918.50Q373 905 368 881L335 881Q342 920 367 942.50Q392 965 428 965Q448 965 462.50 957.50Q477 950 498 935Q513 923 523.50 917Q534 911 547 911Q571 911 587 924Q603 937 608 960L641 960Q634 922 609 900Q584 878 548 878Z"  horiz-adv-x="669" vert-adv-y="1000"  />

      
      <glyph glyph-name="uni0204" unicode="&#x0204;" d="M252 654L197 378L569 378L560 333L188 333L130 46L562 46L552 0L70 0L210 700L678 700L668 654L252 654M263 875L323 875L402 757L355 757L263 875M416 875L476 875L555 757L508 757L416 875Z"  horiz-adv-x="669" vert-adv-y="1000"  />

      
      <glyph glyph-name="unicb" unicode="&#xcb;" d="M252 654L197 378L569 378L560 333L188 333L130 46L562 46L552 0L70 0L210 700L678 700L668 654L252 654M379 784Q365 784 355 793.50Q345 803 345 817Q345 833 356 844.50Q367 856 383 856Q397 856 407 846.50Q417 837 417 823Q417 807 406 795.50Q395 784 379 784M552 784Q538 784 528 793.50Q518 803 518 817Q518 833 529 844.50Q540 856 555 856Q569 856 579.50 846.50Q590 837 590 823Q590 807 578.50 795.50Q567 784 552 784Z"  horiz-adv-x="669" vert-adv-y="1000"  />

      
      <glyph glyph-name="uni0116" unicode="&#x0116;" d="M252 654L197 378L569 378L560 333L188 333L130 46L562 46L552 0L70 0L210 700L678 700L668 654L252 654M466 785Q450 785 439.50 795Q429 805 429 820Q429 838 441 850.50Q453 863 470 863Q486 863 496.50 852.50Q507 842 507 827Q507 809 495 797Q483 785 466 785Z"  horiz-adv-x="669" vert-adv-y="1000"  />

      
      <glyph glyph-name="uni1EB8" unicode="&#x1EB8;" d="M252 654L197 378L569 378L560 333L188 333L130 46L562 46L552 0L70 0L210 700L678 700L668 654L252 654M284-184Q270-184 261.50-175.50Q253-167 253-154Q253-137 265.50-124.50Q278-112 294-112Q307-112 316-120.50Q325-129 325-142Q325-160 313-172Q301-184 284-184Z"  horiz-adv-x="669" vert-adv-y="1000"  />

      
      <glyph glyph-name="unic8" unicode="&#xc8;" d="M252 654L197 378L569 378L560 333L188 333L130 46L562 46L552 0L70 0L210 700L678 700L668 654L252 654M324 875L396 875L512 757L458 757L324 875Z"  horiz-adv-x="669" vert-adv-y="1000"  />

      
      <glyph glyph-name="uni1EBA" unicode="&#x1EBA;" d="M252 654L197 378L569 378L560 333L188 333L130 46L562 46L552 0L70 0L210 700L678 700L668 654L252 654M454 776Q523 806 523 855Q523 876 508.50 888.50Q494 901 471 901Q440 901 410 881L397 909Q433 933 478 933Q515 933 537 914Q559 895 559 862Q559 826 537.50 798.50Q516 771 469 750L454 776Z"  horiz-adv-x="669" vert-adv-y="1000"  />

      
      <glyph glyph-name="uni0206" unicode="&#x0206;" d="M252 654L197 378L569 378L560 333L188 333L130 46L562 46L552 0L70 0L210 700L678 700L668 654L252 654M311 757Q320 813 363 846Q406 879 467 879Q527 879 565 845.50Q603 812 599 757L562 757Q565 798 537.50 822Q510 846 464 846Q420 846 387.50 821.50Q355 797 349 757L311 757Z"  horiz-adv-x="669" vert-adv-y="1000"  />

      
      <glyph glyph-name="uni0112" unicode="&#x0112;" d="M252 654L197 378L569 378L560 333L188 333L130 46L562 46L552 0L70 0L210 700L678 700L668 654L252 654M323 834L617 834L610 798L316 798L323 834Z"  horiz-adv-x="669" vert-adv-y="1000"  />

      
      <glyph glyph-name="uni1E16" unicode="&#x1E16;" d="M252 654L197 378L569 378L560 333L188 333L130 46L562 46L552 0L70 0L210 700L678 700L668 654L252 654M320 818L614 818L607 784L313 784L320 818M559 986L629 986L476 881L424 881L559 986Z"  horiz-adv-x="669" vert-adv-y="1000"  />

      
      <glyph glyph-name="uni1E14" unicode="&#x1E14;" d="M252 654L197 378L569 378L560 333L188 333L130 46L562 46L552 0L70 0L210 700L678 700L668 654L252 654M320 818L614 818L607 784L313 784L320 818M364 986L432 986L534 881L485 881L364 986Z"  horiz-adv-x="669" vert-adv-y="1000"  />

      
      <glyph glyph-name="uni0118" unicode="&#x0118;" d="M252 654L197 378L569 378L560 333L188 333L130 46L562 46L552 0L70 0L210 700L678 700L668 654L252 654M449-217Q409-217 385-196.50Q361-176 361-141Q361-43 531 24L552 0Q401-58 401-135Q401-159 415.50-171.50Q430-184 456-184Q494-184 525-162L535-192Q496-217 449-217Z"  horiz-adv-x="669" vert-adv-y="1000"  />

      
      <glyph glyph-name="uni1EBC" unicode="&#x1EBC;" d="M252 654L197 378L569 378L560 333L188 333L130 46L562 46L552 0L70 0L210 700L678 700L668 654L252 654M531 765Q509 765 493.50 774.50Q478 784 457 803Q441 818 428.50 826Q416 834 402 834Q380 834 364.50 816.50Q349 799 344 769L311 769Q318 815 342.50 842Q367 869 403 869Q424 869 439.50 859.50Q455 850 476 831Q492 816 504.50 808Q517 800 531 800Q553 800 569 817.50Q585 835 590 863L623 863Q615 818 591 791.50Q567 765 531 765Z"  horiz-adv-x="669" vert-adv-y="1000"  />

      
      <glyph glyph-name="uni01B7" unicode="&#x01B7;" d="M577 664L315 394Q411 390 462 344.50Q513 299 513 220Q513 154 478.50 103Q444 52 381 23.50Q318-5 235-5Q155-5 92 21Q29 47-1 90L30 128Q56 89 111 65.50Q166 42 238 42Q342 42 402 89.50Q462 137 462 218Q462 352 280 352L242 352L249 389L507 654L136 654L146 700L584 700L577 664Z"  horiz-adv-x="586" vert-adv-y="1000"  />

      
      <glyph glyph-name="uni01EE" unicode="&#x01EE;" d="M577 664L315 394Q411 390 462 344.50Q513 299 513 220Q513 154 478.50 103Q444 52 381 23.50Q318-5 235-5Q155-5 92 21Q29 47-1 90L30 128Q56 89 111 65.50Q166 42 238 42Q342 42 402 89.50Q462 137 462 218Q462 352 280 352L242 352L249 389L507 654L136 654L146 700L584 700L577 664M553 875L413 757L358 757L245 875L293 875L388 788L500 875L553 875Z"  horiz-adv-x="586" vert-adv-y="1000"  />

      
      <glyph glyph-name="uni46" unicode="&#x46;" d="M252 654L192 355L564 355L555 309L183 309L121 0L70 0L210 700L678 700L668 654L252 654Z"  horiz-adv-x="631" vert-adv-y="1000"  />

      
      <glyph glyph-name="uni47" unicode="&#x47;" d="M492 705Q576 705 640.50 680Q705 655 743 608L707 576Q637 658 489 658Q379 658 294.50 608Q210 558 164 472.50Q118 387 118 285Q118 173 189.50 107.50Q261 42 395 42Q505 42 591 106L640 347L689 347L636 84Q589 42 524.50 18.50Q460-5 389-5Q288-5 215.50 31Q143 67 105 132Q67 197 67 283Q67 398 119 494.50Q171 591 267.50 648Q364 705 492 705Z"  horiz-adv-x="773" vert-adv-y="1000"  />

      
      <glyph glyph-name="uni011E" unicode="&#x011E;" d="M492 705Q576 705 640.50 680Q705 655 743 608L707 576Q637 658 489 658Q379 658 294.50 608Q210 558 164 472.50Q118 387 118 285Q118 173 189.50 107.50Q261 42 395 42Q505 42 591 106L640 347L689 347L636 84Q589 42 524.50 18.50Q460-5 389-5Q288-5 215.50 31Q143 67 105 132Q67 197 67 283Q67 398 119 494.50Q171 591 267.50 648Q364 705 492 705M514 752Q454 752 416 785.50Q378 819 382 874L419 874Q417 833 444 809Q471 785 517 785Q561 785 593.50 809.50Q626 834 632 874L670 874Q662 818 618.50 785Q575 752 514 752Z"  horiz-adv-x="773" vert-adv-y="1000"  />

      
      <glyph glyph-name="uni01E6" unicode="&#x01E6;" d="M492 705Q576 705 640.50 680Q705 655 743 608L707 576Q637 658 489 658Q379 658 294.50 608Q210 558 164 472.50Q118 387 118 285Q118 173 189.50 107.50Q261 42 395 42Q505 42 591 106L640 347L689 347L636 84Q589 42 524.50 18.50Q460-5 389-5Q288-5 215.50 31Q143 67 105 132Q67 197 67 283Q67 398 119 494.50Q171 591 267.50 648Q364 705 492 705M680 874L540 756L485 756L372 874L420 874L515 787L627 874L680 874Z"  horiz-adv-x="773" vert-adv-y="1000"  />

      
      <glyph glyph-name="uni011C" unicode="&#x011C;" d="M492 705Q576 705 640.50 680Q705 655 743 608L707 576Q637 658 489 658Q379 658 294.50 608Q210 558 164 472.50Q118 387 118 285Q118 173 189.50 107.50Q261 42 395 42Q505 42 591 106L640 347L689 347L636 84Q589 42 524.50 18.50Q460-5 389-5Q288-5 215.50 31Q143 67 105 132Q67 197 67 283Q67 398 119 494.50Q171 591 267.50 648Q364 705 492 705M610 756L515 843L402 756L350 756L490 874L545 874L658 756L610 756Z"  horiz-adv-x="773" vert-adv-y="1000"  />

      
      <glyph glyph-name="uni0122" unicode="&#x0122;" d="M492 705Q576 705 640.50 680Q705 655 743 608L707 576Q637 658 489 658Q379 658 294.50 608Q210 558 164 472.50Q118 387 118 285Q118 173 189.50 107.50Q261 42 395 42Q505 42 591 106L640 347L689 347L636 84Q589 42 524.50 18.50Q460-5 389-5Q288-5 215.50 31Q143 67 105 132Q67 197 67 283Q67 398 119 494.50Q171 591 267.50 648Q364 705 492 705M321-112Q338-112 347.50-121.50Q357-131 357-144Q357-154 354-162Q351-170 343-183L301-261L272-261L309-178Q298-175 291.50-166.50Q285-158 285-148Q285-133 295-122.50Q305-112 321-112Z"  horiz-adv-x="773" vert-adv-y="1000"  />

      
      <glyph glyph-name="uni0120" unicode="&#x0120;" d="M492 705Q576 705 640.50 680Q705 655 743 608L707 576Q637 658 489 658Q379 658 294.50 608Q210 558 164 472.50Q118 387 118 285Q118 173 189.50 107.50Q261 42 395 42Q505 42 591 106L640 347L689 347L636 84Q589 42 524.50 18.50Q460-5 389-5Q288-5 215.50 31Q143 67 105 132Q67 197 67 283Q67 398 119 494.50Q171 591 267.50 648Q364 705 492 705M515 784Q499 784 488.50 794Q478 804 478 819Q478 837 490 849.50Q502 862 519 862Q535 862 545.50 851.50Q556 841 556 826Q556 808 544 796Q532 784 515 784Z"  horiz-adv-x="773" vert-adv-y="1000"  />

      
      <glyph glyph-name="uni1E20" unicode="&#x1E20;" d="M492 705Q576 705 640.50 680Q705 655 743 608L707 576Q637 658 489 658Q379 658 294.50 608Q210 558 164 472.50Q118 387 118 285Q118 173 189.50 107.50Q261 42 395 42Q505 42 591 106L640 347L689 347L636 84Q589 42 524.50 18.50Q460-5 389-5Q288-5 215.50 31Q143 67 105 132Q67 197 67 283Q67 398 119 494.50Q171 591 267.50 648Q364 705 492 705M372 833L666 833L659 797L365 797L372 833Z"  horiz-adv-x="773" vert-adv-y="1000"  />

      
      <glyph glyph-name="uni01E4" unicode="&#x01E4;" d="M492 705Q576 705 640.50 680Q705 655 743 608L707 576Q637 658 489 658Q379 658 294.50 608Q210 558 164 472.50Q118 387 118 285Q118 173 189.50 107.50Q261 42 395 42Q505 42 591 106L640 347L689 347L636 84Q589 42 524.50 18.50Q460-5 389-5Q288-5 215.50 31Q143 67 105 132Q67 197 67 283Q67 398 119 494.50Q171 591 267.50 648Q364 705 492 705M411.78 257L781.49 257L772.64 214L402.93 214L411.78 257Z"  horiz-adv-x="805" vert-adv-y="1000"  />

      
      <glyph glyph-name="uni48" unicode="&#x48;" d="M780 700L640 0L589 0L655 332L187 332L121 0L70 0L210 700L261 700L197 379L665 379L729 700L780 700Z"  horiz-adv-x="814" vert-adv-y="1000"  />

      
      <glyph glyph-name="uni0126" unicode="&#x0126;" d="M783 700L643 0L592 0L658 332L190 332L124 0L73 0L213 700L264 700L200 379L668 379L732 700L783 700M77 565L865 565L857 523L69 523L77 565Z"  horiz-adv-x="820" vert-adv-y="1000"  />

      
      <glyph glyph-name="uni1E2A" unicode="&#x1E2A;" d="M780 700L640 0L589 0L655 332L187 332L121 0L70 0L210 700L261 700L197 379L665 379L729 700L780 700M325-202Q264-202 226.50-170Q189-138 193-86L229-86Q228-125 254-147.50Q280-170 327-170Q373-170 405-148Q437-126 443-86L480-86Q473-140 429-171Q385-202 325-202Z"  horiz-adv-x="814" vert-adv-y="1000"  />

      
      <glyph glyph-name="uni021E" unicode="&#x021E;" d="M780 700L640 0L589 0L655 332L187 332L121 0L70 0L210 700L261 700L197 379L665 379L729 700L780 700M682 875L542 757L487 757L374 875L422 875L517 788L629 875L682 875Z"  horiz-adv-x="814" vert-adv-y="1000"  />

      
      <glyph glyph-name="uni0124" unicode="&#x0124;" d="M780 700L640 0L589 0L655 332L187 332L121 0L70 0L210 700L261 700L197 379L665 379L729 700L780 700M612 757L517 844L404 757L352 757L492 875L547 875L660 757L612 757Z"  horiz-adv-x="814" vert-adv-y="1000"  />

      
      <glyph glyph-name="uni1E24" unicode="&#x1E24;" d="M780 700L640 0L589 0L655 332L187 332L121 0L70 0L210 700L261 700L197 379L665 379L729 700L780 700M320-184Q306-184 297.50-175.50Q289-167 289-154Q289-137 301.50-124.50Q314-112 330-112Q343-112 352-120.50Q361-129 361-142Q361-160 349-172Q337-184 320-184Z"  horiz-adv-x="814" vert-adv-y="1000"  />

      
      <glyph glyph-name="uni49" unicode="&#x49;" d="M210 700L261 700L121 0L70 0L210 700Z"  horiz-adv-x="295" vert-adv-y="1000"  />

      
      <glyph glyph-name="uni0132" unicode="&#x0132;" d="M291-5Q223-5 166 13Q109 31 68 62L96 104Q135 74 185.50 58Q236 42 294 42Q403 42 466.50 103.50Q530 165 556 297L636 700L688 700L606 292Q576 141 498.50 68Q421-5 291-5M204 700L255 700L174 297L123 297L204 700Z"  horiz-adv-x="716" vert-adv-y="1000"  />

      
      <glyph glyph-name="unicd" unicode="&#xcd;" d="M210 700L261 700L121 0L70 0L210 700M339 875L414 875L244 757L187 757L339 875Z"  horiz-adv-x="295" vert-adv-y="1000"  />

      
      <glyph glyph-name="uni012C" unicode="&#x012C;" d="M210 700L261 700L121 0L70 0L210 700M256 753Q196 753 158 786.50Q120 820 124 875L161 875Q159 834 186 810Q213 786 259 786Q303 786 335.50 810.50Q368 835 374 875L412 875Q404 819 360.50 786Q317 753 256 753Z"  horiz-adv-x="295" vert-adv-y="1000"  />

      
      <glyph glyph-name="unice" unicode="&#xce;" d="M210 700L261 700L121 0L70 0L210 700M352 757L257 844L144 757L92 757L232 875L287 875L400 757L352 757Z"  horiz-adv-x="295" vert-adv-y="1000"  />

      
      <glyph glyph-name="uni0208" unicode="&#x0208;" d="M210 700L261 700L121 0L70 0L210 700M54 875L114 875L193 757L146 757L54 875M207 875L267 875L346 757L299 757L207 875Z"  horiz-adv-x="295" vert-adv-y="1000"  />

      
      <glyph glyph-name="unicf" unicode="&#xcf;" d="M210 700L261 700L121 0L70 0L210 700M170 784Q156 784 146 793.50Q136 803 136 817Q136 833 147 844.50Q158 856 174 856Q188 856 198 846.50Q208 837 208 823Q208 807 197 795.50Q186 784 170 784M343 784Q329 784 319 793.50Q309 803 309 817Q309 833 320 844.50Q331 856 346 856Q360 856 370.50 846.50Q381 837 381 823Q381 807 369.50 795.50Q358 784 343 784Z"  horiz-adv-x="295" vert-adv-y="1000"  />

      
      <glyph glyph-name="uni1E2E" unicode="&#x1E2E;" d="M210 700L261 700L121 0L70 0L210 700M171 784Q157 784 147 793.50Q137 803 137 816Q137 832 148 843.50Q159 855 174 855Q188 855 198 845.50Q208 836 208 822Q208 806 197 795Q186 784 171 784M342 784Q328 784 318 793.50Q308 803 308 816Q308 832 319 843.50Q330 855 345 855Q359 855 369 845.50Q379 836 379 822Q379 806 368 795Q357 784 342 784M350 986L420 986L267 881L215 881L350 986Z"  horiz-adv-x="295" vert-adv-y="1000"  />

      
      <glyph glyph-name="uni0130" unicode="&#x0130;" d="M210 700L261 700L121 0L70 0L210 700M257 785Q241 785 230.50 795Q220 805 220 820Q220 838 232 850.50Q244 863 261 863Q277 863 287.50 852.50Q298 842 298 827Q298 809 286 797Q274 785 257 785Z"  horiz-adv-x="295" vert-adv-y="1000"  />

      
      <glyph glyph-name="uni1ECA" unicode="&#x1ECA;" d="M210 700L261 700L121 0L70 0L210 700M60-184Q46-184 37.50-175.50Q29-167 29-154Q29-137 41.50-124.50Q54-112 70-112Q83-112 92-120.50Q101-129 101-142Q101-160 89-172Q77-184 60-184Z"  horiz-adv-x="295" vert-adv-y="1000"  />

      
      <glyph glyph-name="unicc" unicode="&#xcc;" d="M210 700L261 700L121 0L70 0L210 700M115 875L187 875L303 757L249 757L115 875Z"  horiz-adv-x="295" vert-adv-y="1000"  />

      
      <glyph glyph-name="uni1EC8" unicode="&#x1EC8;" d="M210 700L261 700L121 0L70 0L210 700M245 776Q314 806 314 855Q314 876 299.50 888.50Q285 901 262 901Q231 901 201 881L188 909Q224 933 269 933Q306 933 328 914Q350 895 350 862Q350 826 328.50 798.50Q307 771 260 750L245 776Z"  horiz-adv-x="295" vert-adv-y="1000"  />

      
      <glyph glyph-name="uni020A" unicode="&#x020A;" d="M210 700L261 700L121 0L70 0L210 700M102 757Q111 813 154 846Q197 879 258 879Q318 879 356 845.50Q394 812 390 757L353 757Q356 798 328.50 822Q301 846 255 846Q211 846 178.50 821.50Q146 797 140 757L102 757Z"  horiz-adv-x="295" vert-adv-y="1000"  />

      
      <glyph glyph-name="uni012A" unicode="&#x012A;" d="M210 700L261 700L121 0L70 0L210 700M142 835L381 835L374 799L135 799L142 835Z"  horiz-adv-x="295" vert-adv-y="1000"  />

      
      <glyph glyph-name="uni012E" unicode="&#x012E;" d="M210 700L261 700L121 0L70 0L210 700M66-217Q34-217 15.50-198Q-3-179-3-147Q-3-101 26.50-57.50Q56-14 104 21L121 0Q80-35 58.50-71.50Q37-108 37-142Q37-163 47-173.50Q57-184 75-184Q95-184 114-168L123-196Q102-217 66-217Z"  horiz-adv-x="295" vert-adv-y="1000"  />

      
      <glyph glyph-name="uni0128" unicode="&#x0128;" d="M210 700L261 700L121 0L70 0L210 700M322 765Q300 765 284.50 774.50Q269 784 248 803Q232 818 219.50 826Q207 834 193 834Q171 834 155.50 816.50Q140 799 135 769L102 769Q109 815 133.50 842Q158 869 194 869Q215 869 230.50 859.50Q246 850 267 831Q283 816 295.50 808Q308 800 322 800Q344 800 360 817.50Q376 835 381 863L414 863Q406 818 382 791.50Q358 765 322 765Z"  horiz-adv-x="295" vert-adv-y="1000"  />

      
      <glyph glyph-name="uni4a" unicode="&#x4a;" d="M147-5Q83-5 35.50 22Q-12 49-34 95L4 127Q23 87 61 64Q99 41 150 41Q216 41 255.50 78.50Q295 116 313 204L403 654L145 654L154 700L463 700L363 201Q341 90 288.50 42.50Q236-5 147-5Z"  horiz-adv-x="491" vert-adv-y="1000"  />

      
      <glyph glyph-name="uni0134" unicode="&#x0134;" d="M147-5Q83-5 35.50 22Q-12 49-34 95L4 127Q23 87 61 64Q99 41 150 41Q216 41 255.50 78.50Q295 116 313 204L403 654L145 654L154 700L463 700L363 201Q341 90 288.50 42.50Q236-5 147-5M425 757L330 844L217 757L165 757L305 875L360 875L473 757L425 757Z"  horiz-adv-x="491" vert-adv-y="1000"  />

      
      <glyph glyph-name="uni4b" unicode="&#x4b;" d="M383 376L642 0L583 0L346 345L158 184L121 0L70 0L210 700L261 700L172 255L693 700L762 700L383 376Z"  horiz-adv-x="703" vert-adv-y="1000"  />

      
      <glyph glyph-name="uni01E8" unicode="&#x01E8;" d="M383 376L642 0L583 0L346 345L158 184L121 0L70 0L210 700L261 700L172 255L693 700L762 700L383 376M647 875L507 757L452 757L339 875L387 875L482 788L594 875L647 875Z"  horiz-adv-x="703" vert-adv-y="1000"  />

      
      <glyph glyph-name="uni0136" unicode="&#x0136;" d="M383 376L642 0L583 0L346 345L158 184L121 0L70 0L210 700L261 700L172 255L693 700L762 700L383 376M290-112Q307-112 316.50-121.50Q326-131 326-144Q326-154 323-162Q320-170 312-183L270-261L241-261L278-178Q267-175 260.50-166.50Q254-158 254-148Q254-133 264-122.50Q274-112 290-112Z"  horiz-adv-x="703" vert-adv-y="1000"  />

      
      <glyph glyph-name="uni4c" unicode="&#x4c;" d="M210 700L261 700L130 46L533 46L523 0L70 0L210 700Z"  horiz-adv-x="585" vert-adv-y="1000"  />

      
      <glyph glyph-name="uni01C7" unicode="&#x01C7;" d="M210 700L261 700L130 46L533 46L523 0L70 0L210 700M732-5Q668-5 620.50 22Q573 49 551 95L589 127Q608 87 646 64Q684 41 735 41Q801 41 840.50 78.50Q880 116 898 204L988 654L730 654L739 700L1048 700L948 201Q926 90 873.50 42.50Q821-5 732-5Z"  horiz-adv-x="1076" vert-adv-y="1000"  />

      
      <glyph glyph-name="uni0139" unicode="&#x0139;" d="M210 700L261 700L130 46L533 46L523 0L70 0L210 700M340 875L415 875L245 757L188 757L340 875Z"  horiz-adv-x="585" vert-adv-y="1000"  />

      
      <glyph glyph-name="uni013D" unicode="&#x013D;" d="M210 700L261 700L130 46L533 46L523 0L70 0L210 700M536 725L579 725L536 540L499 540L536 725Z"  horiz-adv-x="585" vert-adv-y="1000"  />

      
      <glyph glyph-name="uni013B" unicode="&#x013B;" d="M210 700L261 700L130 46L533 46L523 0L70 0L210 700M277-112Q294-112 303.50-121.50Q313-131 313-144Q313-154 310-162Q307-170 299-183L257-261L228-261L265-178Q254-175 247.50-166.50Q241-158 241-148Q241-133 251-122.50Q261-112 277-112Z"  horiz-adv-x="585" vert-adv-y="1000"  />

      
      <glyph glyph-name="uni013F" unicode="&#x013F;" d="M210 700L261 700L130 46L533 46L523 0L70 0L210 700M462 333Q446 333 435 344.50Q424 356 424 372Q424 390 436 402Q448 414 465 414Q481 414 492 402.50Q503 391 503 375Q503 357 491 345Q479 333 462 333Z"  horiz-adv-x="585" vert-adv-y="1000"  />

      
      <glyph glyph-name="uni1E36" unicode="&#x1E36;" d="M210 700L261 700L130 46L533 46L523 0L70 0L210 700M272-184Q258-184 249.50-175.50Q241-167 241-154Q241-137 253.50-124.50Q266-112 282-112Q295-112 304-120.50Q313-129 313-142Q313-160 301-172Q289-184 272-184Z"  horiz-adv-x="585" vert-adv-y="1000"  />

      
      <glyph glyph-name="uni01C8" unicode="&#x01C8;" d="M210 700L261 700L130 46L533 46L523 0L70 0L210 700M519-198Q487-198 459.50-189Q432-180 413-164L439-126Q471-155 521-155Q567-155 594.50-129Q622-103 633-48L747 522L797 522L682-52Q668-126 627.50-162Q587-198 519-198M802 649Q786 649 775 660Q764 671 764 686Q764 704 776.50 717Q789 730 808 730Q824 730 835.50 719Q847 708 847 693Q847 674 834 661.50Q821 649 802 649Z"  horiz-adv-x="851" vert-adv-y="1000"  />

      
      <glyph glyph-name="uni1E3A" unicode="&#x1E3A;" d="M210 700L261 700L130 46L533 46L523 0L70 0L210 700M134-129L427-129L421-165L127-165L134-129Z"  horiz-adv-x="585" vert-adv-y="1000"  />

      
      <glyph glyph-name="uni0141" unicode="&#x0141;" d="M213 700L264 700L133 46L536 46L526 0L73 0L213 700M34 299L345 502L367 469L56 266L34 299Z"  horiz-adv-x="588" vert-adv-y="1000"  />

      
      <glyph glyph-name="uni4d" unicode="&#x4d;" d="M921 700L781 0L731 0L850 595L463 93L438 93L240 602L120 0L70 0L210 700L252 700L461 159L876 700L921 700Z"  horiz-adv-x="956" vert-adv-y="1000"  />

      
      <glyph glyph-name="uni1E42" unicode="&#x1E42;" d="M921 700L781 0L731 0L850 595L463 93L438 93L240 602L120 0L70 0L210 700L252 700L461 159L876 700L921 700M391-184Q377-184 368.50-175.50Q360-167 360-154Q360-137 372.50-124.50Q385-112 401-112Q414-112 423-120.50Q432-129 432-142Q432-160 420-172Q408-184 391-184Z"  horiz-adv-x="956" vert-adv-y="1000"  />

      
      <glyph glyph-name="uni4e" unicode="&#x4e;" d="M780 700L640 0L597 0L244 616L121 0L70 0L210 700L252 700L606 84L729 700L780 700Z"  horiz-adv-x="814" vert-adv-y="1000"  />

      
      <glyph glyph-name="uni01CA" unicode="&#x01CA;" d="M780 700L640 0L597 0L244 616L121 0L70 0L210 700L252 700L606 84L729 700L780 700M961-5Q897-5 849.50 22Q802 49 780 95L818 127Q837 87 875 64Q913 41 964 41Q1030 41 1069.50 78.50Q1109 116 1127 204L1217 654L959 654L968 700L1277 700L1177 201Q1155 90 1102.50 42.50Q1050-5 961-5Z"  horiz-adv-x="1305" vert-adv-y="1000"  />

      
      <glyph glyph-name="uni0143" unicode="&#x0143;" d="M780 700L640 0L597 0L244 616L121 0L70 0L210 700L252 700L606 84L729 700L780 700M599 875L674 875L504 757L447 757L599 875Z"  horiz-adv-x="814" vert-adv-y="1000"  />

      
      <glyph glyph-name="uni0147" unicode="&#x0147;" d="M780 700L640 0L597 0L244 616L121 0L70 0L210 700L252 700L606 84L729 700L780 700M682 875L542 757L487 757L374 875L422 875L517 788L629 875L682 875Z"  horiz-adv-x="814" vert-adv-y="1000"  />

      
      <glyph glyph-name="uni0145" unicode="&#x0145;" d="M780 700L640 0L597 0L244 616L121 0L70 0L210 700L252 700L606 84L729 700L780 700M325-112Q342-112 351.50-121.50Q361-131 361-144Q361-154 358-162Q355-170 347-183L305-261L276-261L313-178Q302-175 295.50-166.50Q289-158 289-148Q289-133 299-122.50Q309-112 325-112Z"  horiz-adv-x="814" vert-adv-y="1000"  />

      
      <glyph glyph-name="uni1E44" unicode="&#x1E44;" d="M780 700L640 0L597 0L244 616L121 0L70 0L210 700L252 700L606 84L729 700L780 700M517 785Q501 785 490.50 795Q480 805 480 820Q480 838 492 850.50Q504 863 521 863Q537 863 547.50 852.50Q558 842 558 827Q558 809 546 797Q534 785 517 785Z"  horiz-adv-x="814" vert-adv-y="1000"  />

      
      <glyph glyph-name="uni1E46" unicode="&#x1E46;" d="M780 700L640 0L597 0L244 616L121 0L70 0L210 700L252 700L606 84L729 700L780 700M320-184Q306-184 297.50-175.50Q289-167 289-154Q289-137 301.50-124.50Q314-112 330-112Q343-112 352-120.50Q361-129 361-142Q361-160 349-172Q337-184 320-184Z"  horiz-adv-x="814" vert-adv-y="1000"  />

      
      <glyph glyph-name="uni014A" unicode="&#x014A;" d="M780 700L642 13Q619-102 567-150Q515-198 425-198Q368-198 321.50-173Q275-148 253-106L287-73Q306-110 342.50-131.50Q379-153 428-153Q494-153 533-115.50Q572-78 590 9L591 12L244 616L121 0L70 0L210 700L252 700L605 86L729 700L780 700Z"  horiz-adv-x="814" vert-adv-y="1000"  />

      
      <glyph glyph-name="uni01CB" unicode="&#x01CB;" d="M780 700L640 0L597 0L244 616L121 0L70 0L210 700L252 700L606 84L729 700L780 700M748-198Q716-198 688.50-189Q661-180 642-164L668-126Q700-155 750-155Q796-155 823.50-129Q851-103 862-48L976 522L1026 522L911-52Q897-126 856.50-162Q816-198 748-198M1031 649Q1015 649 1004 660Q993 671 993 686Q993 704 1005.50 717Q1018 730 1037 730Q1053 730 1064.50 719Q1076 708 1076 693Q1076 674 1063 661.50Q1050 649 1031 649Z"  horiz-adv-x="1080" vert-adv-y="1000"  />

      
      <glyph glyph-name="uni1E48" unicode="&#x1E48;" d="M780 700L640 0L597 0L244 616L121 0L70 0L210 700L252 700L606 84L729 700L780 700M182-129L475-129L469-165L175-165L182-129Z"  horiz-adv-x="814" vert-adv-y="1000"  />

      
      <glyph glyph-name="unid1" unicode="&#xd1;" d="M780 700L640 0L597 0L244 616L121 0L70 0L210 700L252 700L606 84L729 700L780 700M582 765Q560 765 544.50 774.50Q529 784 508 803Q492 818 479.50 826Q467 834 453 834Q431 834 415.50 816.50Q400 799 395 769L362 769Q369 815 393.50 842Q418 869 454 869Q475 869 490.50 859.50Q506 850 527 831Q543 816 555.50 808Q568 800 582 800Q604 800 620 817.50Q636 835 641 863L674 863Q666 818 642 791.50Q618 765 582 765Z"  horiz-adv-x="814" vert-adv-y="1000"  />

      
      <glyph glyph-name="uni4f" unicode="&#x4f;" d="M387-5Q286-5 214 31Q142 67 104.50 132Q67 197 67 283Q67 397 118.50 493.50Q170 590 265.50 647.50Q361 705 486 705Q587 705 659.50 669Q732 633 769.50 568Q807 503 807 417Q807 303 755 206.50Q703 110 607.50 52.50Q512-5 387-5M392 42Q499 42 582 92.50Q665 143 710 228.50Q755 314 755 415Q755 527 684.50 592.50Q614 658 482 658Q375 658 292 607.50Q209 557 163.50 471.50Q118 386 118 285Q118 174 189 108Q260 42 392 42Z"  horiz-adv-x="838" vert-adv-y="1000"  />

      
      <glyph glyph-name="unid3" unicode="&#xd3;" d="M387-5Q286-5 214 31Q142 67 104.50 132Q67 197 67 283Q67 397 118.50 493.50Q170 590 265.50 647.50Q361 705 486 705Q587 705 659.50 669Q732 633 769.50 568Q807 503 807 417Q807 303 755 206.50Q703 110 607.50 52.50Q512-5 387-5M392 42Q499 42 582 92.50Q665 143 710 228.50Q755 314 755 415Q755 527 684.50 592.50Q614 658 482 658Q375 658 292 607.50Q209 557 163.50 471.50Q118 386 118 285Q118 174 189 108Q260 42 392 42M610 875L685 875L515 757L458 757L610 875Z"  horiz-adv-x="838" vert-adv-y="1000"  />

      
      <glyph glyph-name="uni014E" unicode="&#x014E;" d="M387-5Q286-5 214 31Q142 67 104.50 132Q67 197 67 283Q67 397 118.50 493.50Q170 590 265.50 647.50Q361 705 486 705Q587 705 659.50 669Q732 633 769.50 568Q807 503 807 417Q807 303 755 206.50Q703 110 607.50 52.50Q512-5 387-5M392 42Q499 42 582 92.50Q665 143 710 228.50Q755 314 755 415Q755 527 684.50 592.50Q614 658 482 658Q375 658 292 607.50Q209 557 163.50 471.50Q118 386 118 285Q118 174 189 108Q260 42 392 42M527 753Q467 753 429 786.50Q391 820 395 875L432 875Q430 834 457 810Q484 786 530 786Q574 786 606.50 810.50Q639 835 645 875L683 875Q675 819 631.50 786Q588 753 527 753Z"  horiz-adv-x="838" vert-adv-y="1000"  />

      
      <glyph glyph-name="unid4" unicode="&#xd4;" d="M387-5Q286-5 214 31Q142 67 104.50 132Q67 197 67 283Q67 397 118.50 493.50Q170 590 265.50 647.50Q361 705 486 705Q587 705 659.50 669Q732 633 769.50 568Q807 503 807 417Q807 303 755 206.50Q703 110 607.50 52.50Q512-5 387-5M392 42Q499 42 582 92.50Q665 143 710 228.50Q755 314 755 415Q755 527 684.50 592.50Q614 658 482 658Q375 658 292 607.50Q209 557 163.50 471.50Q118 386 118 285Q118 174 189 108Q260 42 392 42M623 757L528 844L415 757L363 757L503 875L558 875L671 757L623 757Z"  horiz-adv-x="838" vert-adv-y="1000"  />

      
      <glyph glyph-name="uni1ED0" unicode="&#x1ED0;" d="M387-5Q286-5 214 31Q142 67 104.50 132Q67 197 67 283Q67 397 118.50 493.50Q170 590 265.50 647.50Q361 705 486 705Q587 705 659.50 669Q732 633 769.50 568Q807 503 807 417Q807 303 755 206.50Q703 110 607.50 52.50Q512-5 387-5M392 42Q499 42 582 92.50Q665 143 710 228.50Q755 314 755 415Q755 527 684.50 592.50Q614 658 482 658Q375 658 292 607.50Q209 557 163.50 471.50Q118 386 118 285Q118 174 189 108Q260 42 392 42M620 757L527 818L418 757L364 757L502 845L556 845L671 757L620 757M735 942L805 942L652 837L600 837L735 942Z"  horiz-adv-x="838" vert-adv-y="1000"  />

      
      <glyph glyph-name="uni1ED8" unicode="&#x1ED8;" d="M387-5Q286-5 214 31Q142 67 104.50 132Q67 197 67 283Q67 397 118.50 493.50Q170 590 265.50 647.50Q361 705 486 705Q587 705 659.50 669Q732 633 769.50 568Q807 503 807 417Q807 303 755 206.50Q703 110 607.50 52.50Q512-5 387-5M392 42Q499 42 582 92.50Q665 143 710 228.50Q755 314 755 415Q755 527 684.50 592.50Q614 658 482 658Q375 658 292 607.50Q209 557 163.50 471.50Q118 386 118 285Q118 174 189 108Q260 42 392 42M331-184Q317-184 308.50-175.50Q300-167 300-154Q300-137 312.50-124.50Q325-112 341-112Q354-112 363-120.50Q372-129 372-142Q372-160 360-172Q348-184 331-184M623 757L528 844L415 757L363 757L503 875L558 875L671 757L623 757Z"  horiz-adv-x="838" vert-adv-y="1000"  />

      
      <glyph glyph-name="uni1ED2" unicode="&#x1ED2;" d="M387-5Q286-5 214 31Q142 67 104.50 132Q67 197 67 283Q67 397 118.50 493.50Q170 590 265.50 647.50Q361 705 486 705Q587 705 659.50 669Q732 633 769.50 568Q807 503 807 417Q807 303 755 206.50Q703 110 607.50 52.50Q512-5 387-5M392 42Q499 42 582 92.50Q665 143 710 228.50Q755 314 755 415Q755 527 684.50 592.50Q614 658 482 658Q375 658 292 607.50Q209 557 163.50 471.50Q118 386 118 285Q118 174 189 108Q260 42 392 42M620 757L527 818L418 757L364 757L502 845L556 845L671 757L620 757M540 942L608 942L710 837L661 837L540 942Z"  horiz-adv-x="838" vert-adv-y="1000"  />

      
      <glyph glyph-name="uni1ED4" unicode="&#x1ED4;" d="M387-5Q286-5 214 31Q142 67 104.50 132Q67 197 67 283Q67 397 118.50 493.50Q170 590 265.50 647.50Q361 705 486 705Q587 705 659.50 669Q732 633 769.50 568Q807 503 807 417Q807 303 755 206.50Q703 110 607.50 52.50Q512-5 387-5M392 42Q499 42 582 92.50Q665 143 710 228.50Q755 314 755 415Q755 527 684.50 592.50Q614 658 482 658Q375 658 292 607.50Q209 557 163.50 471.50Q118 386 118 285Q118 174 189 108Q260 42 392 42M620 757L527 818L418 757L364 757L502 845L556 845L671 757L620 757M628 842Q678 863 678 899Q678 913 668 921Q658 929 642 929Q618 929 596 916L587 942Q617 958 647 958Q675 958 692 943Q709 928 709 903Q709 849 643 821L628 842Z"  horiz-adv-x="838" vert-adv-y="1000"  />

      
      <glyph glyph-name="uni1ED6" unicode="&#x1ED6;" d="M387-5Q286-5 214 31Q142 67 104.50 132Q67 197 67 283Q67 397 118.50 493.50Q170 590 265.50 647.50Q361 705 486 705Q587 705 659.50 669Q732 633 769.50 568Q807 503 807 417Q807 303 755 206.50Q703 110 607.50 52.50Q512-5 387-5M392 42Q499 42 582 92.50Q665 143 710 228.50Q755 314 755 415Q755 527 684.50 592.50Q614 658 482 658Q375 658 292 607.50Q209 557 163.50 471.50Q118 386 118 285Q118 174 189 108Q260 42 392 42M620 757L527 818L418 757L364 757L502 845L556 845L671 757L620 757M610 878Q589 878 573.50 886Q558 894 540 908Q525 920 514 926Q503 932 490 932Q466 932 450.50 918.50Q435 905 430 881L397 881Q404 920 429 942.50Q454 965 490 965Q510 965 524.50 957.50Q539 950 560 935Q575 923 585.50 917Q596 911 609 911Q633 911 649 924Q665 937 670 960L703 960Q696 922 671 900Q646 878 610 878Z"  horiz-adv-x="838" vert-adv-y="1000"  />

      
      <glyph glyph-name="uni020C" unicode="&#x020C;" d="M387-5Q286-5 214 31Q142 67 104.50 132Q67 197 67 283Q67 397 118.50 493.50Q170 590 265.50 647.50Q361 705 486 705Q587 705 659.50 669Q732 633 769.50 568Q807 503 807 417Q807 303 755 206.50Q703 110 607.50 52.50Q512-5 387-5M392 42Q499 42 582 92.50Q665 143 710 228.50Q755 314 755 415Q755 527 684.50 592.50Q614 658 482 658Q375 658 292 607.50Q209 557 163.50 471.50Q118 386 118 285Q118 174 189 108Q260 42 392 42M325 875L385 875L464 757L417 757L325 875M478 875L538 875L617 757L570 757L478 875Z"  horiz-adv-x="838" vert-adv-y="1000"  />

      
      <glyph glyph-name="unid6" unicode="&#xd6;" d="M387-5Q286-5 214 31Q142 67 104.50 132Q67 197 67 283Q67 397 118.50 493.50Q170 590 265.50 647.50Q361 705 486 705Q587 705 659.50 669Q732 633 769.50 568Q807 503 807 417Q807 303 755 206.50Q703 110 607.50 52.50Q512-5 387-5M392 42Q499 42 582 92.50Q665 143 710 228.50Q755 314 755 415Q755 527 684.50 592.50Q614 658 482 658Q375 658 292 607.50Q209 557 163.50 471.50Q118 386 118 285Q118 174 189 108Q260 42 392 42M441 784Q427 784 417 793.50Q407 803 407 817Q407 833 418 844.50Q429 856 445 856Q459 856 469 846.50Q479 837 479 823Q479 807 468 795.50Q457 784 441 784M614 784Q600 784 590 793.50Q580 803 580 817Q580 833 591 844.50Q602 856 617 856Q631 856 641.50 846.50Q652 837 652 823Q652 807 640.50 795.50Q629 784 614 784Z"  horiz-adv-x="838" vert-adv-y="1000"  />

      
      <glyph glyph-name="uni022A" unicode="&#x022A;" d="M387-5Q286-5 214 31Q142 67 104.50 132Q67 197 67 283Q67 397 118.50 493.50Q170 590 265.50 647.50Q361 705 486 705Q587 705 659.50 669Q732 633 769.50 568Q807 503 807 417Q807 303 755 206.50Q703 110 607.50 52.50Q512-5 387-5M392 42Q499 42 582 92.50Q665 143 710 228.50Q755 314 755 415Q755 527 684.50 592.50Q614 658 482 658Q375 658 292 607.50Q209 557 163.50 471.50Q118 386 118 285Q118 174 189 108Q260 42 392 42M442 784Q428 784 418 793.50Q408 803 408 816Q408 832 419 843.50Q430 855 445 855Q459 855 469 845.50Q479 836 479 822Q479 806 468 795Q457 784 442 784M613 784Q599 784 589 793.50Q579 803 579 816Q579 832 590 843.50Q601 855 616 855Q630 855 640 845.50Q650 836 650 822Q650 806 639 795Q628 784 613 784M407 942L701 942L694 908L400 908L407 942Z"  horiz-adv-x="838" vert-adv-y="1000"  />

      
      <glyph glyph-name="uni0230" unicode="&#x0230;" d="M387-5Q286-5 214 31Q142 67 104.50 132Q67 197 67 283Q67 397 118.50 493.50Q170 590 265.50 647.50Q361 705 486 705Q587 705 659.50 669Q732 633 769.50 568Q807 503 807 417Q807 303 755 206.50Q703 110 607.50 52.50Q512-5 387-5M392 42Q499 42 582 92.50Q665 143 710 228.50Q755 314 755 415Q755 527 684.50 592.50Q614 658 482 658Q375 658 292 607.50Q209 557 163.50 471.50Q118 386 118 285Q118 174 189 108Q260 42 392 42M527 784Q513 784 503 793.50Q493 803 493 818Q493 834 504 845Q515 856 531 856Q545 856 555 846.50Q565 837 565 823Q565 807 554 795.50Q543 784 527 784M407 944L701 944L694 910L400 910L407 944Z"  horiz-adv-x="838" vert-adv-y="1000"  />

      
      <glyph glyph-name="uni1ECC" unicode="&#x1ECC;" d="M387-5Q286-5 214 31Q142 67 104.50 132Q67 197 67 283Q67 397 118.50 493.50Q170 590 265.50 647.50Q361 705 486 705Q587 705 659.50 669Q732 633 769.50 568Q807 503 807 417Q807 303 755 206.50Q703 110 607.50 52.50Q512-5 387-5M392 42Q499 42 582 92.50Q665 143 710 228.50Q755 314 755 415Q755 527 684.50 592.50Q614 658 482 658Q375 658 292 607.50Q209 557 163.50 471.50Q118 386 118 285Q118 174 189 108Q260 42 392 42M331-184Q317-184 308.50-175.50Q300-167 300-154Q300-137 312.50-124.50Q325-112 341-112Q354-112 363-120.50Q372-129 372-142Q372-160 360-172Q348-184 331-184Z"  horiz-adv-x="838" vert-adv-y="1000"  />

      
      <glyph glyph-name="unid2" unicode="&#xd2;" d="M387-5Q286-5 214 31Q142 67 104.50 132Q67 197 67 283Q67 397 118.50 493.50Q170 590 265.50 647.50Q361 705 486 705Q587 705 659.50 669Q732 633 769.50 568Q807 503 807 417Q807 303 755 206.50Q703 110 607.50 52.50Q512-5 387-5M392 42Q499 42 582 92.50Q665 143 710 228.50Q755 314 755 415Q755 527 684.50 592.50Q614 658 482 658Q375 658 292 607.50Q209 557 163.50 471.50Q118 386 118 285Q118 174 189 108Q260 42 392 42M386 875L458 875L574 757L520 757L386 875Z"  horiz-adv-x="838" vert-adv-y="1000"  />

      
      <glyph glyph-name="uni1ECE" unicode="&#x1ECE;" d="M387-5Q286-5 214 31Q142 67 104.50 132Q67 197 67 283Q67 397 118.50 493.50Q170 590 265.50 647.50Q361 705 486 705Q587 705 659.50 669Q732 633 769.50 568Q807 503 807 417Q807 303 755 206.50Q703 110 607.50 52.50Q512-5 387-5M392 42Q499 42 582 92.50Q665 143 710 228.50Q755 314 755 415Q755 527 684.50 592.50Q614 658 482 658Q375 658 292 607.50Q209 557 163.50 471.50Q118 386 118 285Q118 174 189 108Q260 42 392 42M516 776Q585 806 585 855Q585 876 570.50 888.50Q556 901 533 901Q502 901 472 881L459 909Q495 933 540 933Q577 933 599 914Q621 895 621 862Q621 826 599.50 798.50Q578 771 531 750L516 776Z"  horiz-adv-x="838" vert-adv-y="1000"  />

      
      <glyph glyph-name="uni01A0" unicode="&#x01A0;" d="M863 768Q863 713 826.50 682Q790 651 725 651Q708 651 682 653Q743 617 775 556.50Q807 496 807 417Q807 303 755 206.50Q703 110 607.50 52.50Q512-5 387-5Q286-5 214 31Q142 67 104.50 132Q67 197 67 283Q67 397 118.50 493.50Q170 590 265.50 647.50Q361 705 486 705Q534 705 573 701Q612 697 618 696Q674 689 717 689Q768 689 796 710Q824 731 824 768Q824 801 804 834L839 848Q863 810 863 768M755 415Q755 527 684.50 592.50Q614 658 482 658Q375 658 292 607.50Q209 557 163.50 471.50Q118 386 118 285Q118 174 189 108Q260 42 392 42Q499 42 582 92.50Q665 143 710 228.50Q755 314 755 415Z"  horiz-adv-x="838" vert-adv-y="1000"  />

      
      <glyph glyph-name="uni1EDA" unicode="&#x1EDA;" d="M863 768Q863 713 826.50 682Q790 651 725 651Q708 651 682 653Q743 617 775 556.50Q807 496 807 417Q807 303 755 206.50Q703 110 607.50 52.50Q512-5 387-5Q286-5 214 31Q142 67 104.50 132Q67 197 67 283Q67 397 118.50 493.50Q170 590 265.50 647.50Q361 705 486 705Q534 705 573 701Q612 697 618 696Q674 689 717 689Q768 689 796 710Q824 731 824 768Q824 801 804 834L839 848Q863 810 863 768M755 415Q755 527 684.50 592.50Q614 658 482 658Q375 658 292 607.50Q209 557 163.50 471.50Q118 386 118 285Q118 174 189 108Q260 42 392 42Q499 42 582 92.50Q665 143 710 228.50Q755 314 755 415M610 875L685 875L515 757L458 757L610 875Z"  horiz-adv-x="838" vert-adv-y="1000"  />

      
      <glyph glyph-name="uni1EE2" unicode="&#x1EE2;" d="M863 768Q863 713 826.50 682Q790 651 725 651Q708 651 682 653Q743 617 775 556.50Q807 496 807 417Q807 303 755 206.50Q703 110 607.50 52.50Q512-5 387-5Q286-5 214 31Q142 67 104.50 132Q67 197 67 283Q67 397 118.50 493.50Q170 590 265.50 647.50Q361 705 486 705Q534 705 573 701Q612 697 618 696Q674 689 717 689Q768 689 796 710Q824 731 824 768Q824 801 804 834L839 848Q863 810 863 768M755 415Q755 527 684.50 592.50Q614 658 482 658Q375 658 292 607.50Q209 557 163.50 471.50Q118 386 118 285Q118 174 189 108Q260 42 392 42Q499 42 582 92.50Q665 143 710 228.50Q755 314 755 415M331-184Q317-184 308.50-175.50Q300-167 300-154Q300-137 312.50-124.50Q325-112 341-112Q354-112 363-120.50Q372-129 372-142Q372-160 360-172Q348-184 331-184Z"  horiz-adv-x="838" vert-adv-y="1000"  />

      
      <glyph glyph-name="uni1EDC" unicode="&#x1EDC;" d="M863 768Q863 713 826.50 682Q790 651 725 651Q708 651 682 653Q743 617 775 556.50Q807 496 807 417Q807 303 755 206.50Q703 110 607.50 52.50Q512-5 387-5Q286-5 214 31Q142 67 104.50 132Q67 197 67 283Q67 397 118.50 493.50Q170 590 265.50 647.50Q361 705 486 705Q534 705 573 701Q612 697 618 696Q674 689 717 689Q768 689 796 710Q824 731 824 768Q824 801 804 834L839 848Q863 810 863 768M755 415Q755 527 684.50 592.50Q614 658 482 658Q375 658 292 607.50Q209 557 163.50 471.50Q118 386 118 285Q118 174 189 108Q260 42 392 42Q499 42 582 92.50Q665 143 710 228.50Q755 314 755 415M386 875L458 875L574 757L520 757L386 875Z"  horiz-adv-x="838" vert-adv-y="1000"  />

      
      <glyph glyph-name="uni1EDE" unicode="&#x1EDE;" d="M863 768Q863 713 826.50 682Q790 651 725 651Q708 651 682 653Q743 617 775 556.50Q807 496 807 417Q807 303 755 206.50Q703 110 607.50 52.50Q512-5 387-5Q286-5 214 31Q142 67 104.50 132Q67 197 67 283Q67 397 118.50 493.50Q170 590 265.50 647.50Q361 705 486 705Q534 705 573 701Q612 697 618 696Q674 689 717 689Q768 689 796 710Q824 731 824 768Q824 801 804 834L839 848Q863 810 863 768M755 415Q755 527 684.50 592.50Q614 658 482 658Q375 658 292 607.50Q209 557 163.50 471.50Q118 386 118 285Q118 174 189 108Q260 42 392 42Q499 42 582 92.50Q665 143 710 228.50Q755 314 755 415M516 776Q585 806 585 855Q585 876 570.50 888.50Q556 901 533 901Q502 901 472 881L459 909Q495 933 540 933Q577 933 599 914Q621 895 621 862Q621 826 599.50 798.50Q578 771 531 750L516 776Z"  horiz-adv-x="838" vert-adv-y="1000"  />

      
      <glyph glyph-name="uni1EE0" unicode="&#x1EE0;" d="M863 768Q863 713 826.50 682Q790 651 725 651Q708 651 682 653Q743 617 775 556.50Q807 496 807 417Q807 303 755 206.50Q703 110 607.50 52.50Q512-5 387-5Q286-5 214 31Q142 67 104.50 132Q67 197 67 283Q67 397 118.50 493.50Q170 590 265.50 647.50Q361 705 486 705Q534 705 573 701Q612 697 618 696Q674 689 717 689Q768 689 796 710Q824 731 824 768Q824 801 804 834L839 848Q863 810 863 768M755 415Q755 527 684.50 592.50Q614 658 482 658Q375 658 292 607.50Q209 557 163.50 471.50Q118 386 118 285Q118 174 189 108Q260 42 392 42Q499 42 582 92.50Q665 143 710 228.50Q755 314 755 415M593 765Q571 765 555.50 774.50Q540 784 519 803Q503 818 490.50 826Q478 834 464 834Q442 834 426.50 816.50Q411 799 406 769L373 769Q380 815 404.50 842Q429 869 465 869Q486 869 501.50 859.50Q517 850 538 831Q554 816 566.50 808Q579 800 593 800Q615 800 631 817.50Q647 835 652 863L685 863Q677 818 653 791.50Q629 765 593 765Z"  horiz-adv-x="838" vert-adv-y="1000"  />

      
      <glyph glyph-name="uni0150" unicode="&#x0150;" d="M387-5Q286-5 214 31Q142 67 104.50 132Q67 197 67 283Q67 397 118.50 493.50Q170 590 265.50 647.50Q361 705 486 705Q587 705 659.50 669Q732 633 769.50 568Q807 503 807 417Q807 303 755 206.50Q703 110 607.50 52.50Q512-5 387-5M392 42Q499 42 582 92.50Q665 143 710 228.50Q755 314 755 415Q755 527 684.50 592.50Q614 658 482 658Q375 658 292 607.50Q209 557 163.50 471.50Q118 386 118 285Q118 174 189 108Q260 42 392 42M530 875L593 875L466 757L415 757L530 875M683 875L746 875L618 757L568 757L683 875Z"  horiz-adv-x="838" vert-adv-y="1000"  />

      
      <glyph glyph-name="uni020E" unicode="&#x020E;" d="M387-5Q286-5 214 31Q142 67 104.50 132Q67 197 67 283Q67 397 118.50 493.50Q170 590 265.50 647.50Q361 705 486 705Q587 705 659.50 669Q732 633 769.50 568Q807 503 807 417Q807 303 755 206.50Q703 110 607.50 52.50Q512-5 387-5M392 42Q499 42 582 92.50Q665 143 710 228.50Q755 314 755 415Q755 527 684.50 592.50Q614 658 482 658Q375 658 292 607.50Q209 557 163.50 471.50Q118 386 118 285Q118 174 189 108Q260 42 392 42M373 757Q382 813 425 846Q468 879 529 879Q589 879 627 845.50Q665 812 661 757L624 757Q627 798 599.50 822Q572 846 526 846Q482 846 449.50 821.50Q417 797 411 757L373 757Z"  horiz-adv-x="838" vert-adv-y="1000"  />

      
      <glyph glyph-name="uni014C" unicode="&#x014C;" d="M387-5Q286-5 214 31Q142 67 104.50 132Q67 197 67 283Q67 397 118.50 493.50Q170 590 265.50 647.50Q361 705 486 705Q587 705 659.50 669Q732 633 769.50 568Q807 503 807 417Q807 303 755 206.50Q703 110 607.50 52.50Q512-5 387-5M392 42Q499 42 582 92.50Q665 143 710 228.50Q755 314 755 415Q755 527 684.50 592.50Q614 658 482 658Q375 658 292 607.50Q209 557 163.50 471.50Q118 386 118 285Q118 174 189 108Q260 42 392 42M385 834L679 834L672 798L378 798L385 834Z"  horiz-adv-x="838" vert-adv-y="1000"  />

      
      <glyph glyph-name="uni1E52" unicode="&#x1E52;" d="M387-5Q286-5 214 31Q142 67 104.50 132Q67 197 67 283Q67 397 118.50 493.50Q170 590 265.50 647.50Q361 705 486 705Q587 705 659.50 669Q732 633 769.50 568Q807 503 807 417Q807 303 755 206.50Q703 110 607.50 52.50Q512-5 387-5M392 42Q499 42 582 92.50Q665 143 710 228.50Q755 314 755 415Q755 527 684.50 592.50Q614 658 482 658Q375 658 292 607.50Q209 557 163.50 471.50Q118 386 118 285Q118 174 189 108Q260 42 392 42M382 818L676 818L669 784L375 784L382 818M621 986L691 986L538 881L486 881L621 986Z"  horiz-adv-x="838" vert-adv-y="1000"  />

      
      <glyph glyph-name="uni1E50" unicode="&#x1E50;" d="M387-5Q286-5 214 31Q142 67 104.50 132Q67 197 67 283Q67 397 118.50 493.50Q170 590 265.50 647.50Q361 705 486 705Q587 705 659.50 669Q732 633 769.50 568Q807 503 807 417Q807 303 755 206.50Q703 110 607.50 52.50Q512-5 387-5M392 42Q499 42 582 92.50Q665 143 710 228.50Q755 314 755 415Q755 527 684.50 592.50Q614 658 482 658Q375 658 292 607.50Q209 557 163.50 471.50Q118 386 118 285Q118 174 189 108Q260 42 392 42M382 818L676 818L669 784L375 784L382 818M426 986L494 986L596 881L547 881L426 986Z"  horiz-adv-x="838" vert-adv-y="1000"  />

      
      <glyph glyph-name="uni01EA" unicode="&#x01EA;" d="M486 705Q587 705 659.50 669Q732 633 769.50 568Q807 503 807 417Q807 316 766.50 228.50Q726 141 651.50 81.50Q577 22 477 3Q376-16 326.50-54.50Q277-93 277-135Q277-159 291.50-171.50Q306-184 332-184Q350-184 368.50-178Q387-172 401-162L411-192Q374-217 325-217Q285-217 261.50-197Q238-177 238-141Q238-100 266-64.50Q294-29 351-4Q216 6 141.50 83Q67 160 67 283Q67 397 118.50 493.50Q170 590 265.50 647.50Q361 705 486 705M392 42Q499 42 582 92.50Q665 143 710 228.50Q755 314 755 415Q755 527 684.50 592.50Q614 658 482 658Q375 658 292 607.50Q209 557 163.50 471.50Q118 386 118 285Q118 174 189 108Q260 42 392 42Z"  horiz-adv-x="838" vert-adv-y="1000"  />

      
      <glyph glyph-name="unid8" unicode="&#xd8;" d="M387-5Q286-5 214 31Q142 67 104.50 132Q67 197 67 283Q67 397 118.50 493.50Q170 590 265.50 647.50Q361 705 486 705Q587 705 659.50 669Q732 633 769.50 568Q807 503 807 417Q807 303 755 206.50Q703 110 607.50 52.50Q512-5 387-5M392 42Q499 42 582 92.50Q665 143 710 228.50Q755 314 755 415Q755 527 684.50 592.50Q614 658 482 658Q375 658 292 607.50Q209 557 163.50 471.50Q118 386 118 285Q118 174 189 108Q260 42 392 42M801 770L848 770L72-70L25-70L801 770Z"  horiz-adv-x="838" vert-adv-y="1000"  />

      
      <glyph glyph-name="uni01FE" unicode="&#x01FE;" d="M387-5Q286-5 214 31Q142 67 104.50 132Q67 197 67 283Q67 397 118.50 493.50Q170 590 265.50 647.50Q361 705 486 705Q587 705 659.50 669Q732 633 769.50 568Q807 503 807 417Q807 303 755 206.50Q703 110 607.50 52.50Q512-5 387-5M392 42Q499 42 582 92.50Q665 143 710 228.50Q755 314 755 415Q755 527 684.50 592.50Q614 658 482 658Q375 658 292 607.50Q209 557 163.50 471.50Q118 386 118 285Q118 174 189 108Q260 42 392 42M801 770L848 770L72-70L25-70L801 770M610 875L685 875L515 757L458 757L610 875Z"  horiz-adv-x="838" vert-adv-y="1000"  />

      
      <glyph glyph-name="unid5" unicode="&#xd5;" d="M387-5Q286-5 214 31Q142 67 104.50 132Q67 197 67 283Q67 397 118.50 493.50Q170 590 265.50 647.50Q361 705 486 705Q587 705 659.50 669Q732 633 769.50 568Q807 503 807 417Q807 303 755 206.50Q703 110 607.50 52.50Q512-5 387-5M392 42Q499 42 582 92.50Q665 143 710 228.50Q755 314 755 415Q755 527 684.50 592.50Q614 658 482 658Q375 658 292 607.50Q209 557 163.50 471.50Q118 386 118 285Q118 174 189 108Q260 42 392 42M593 765Q571 765 555.50 774.50Q540 784 519 803Q503 818 490.50 826Q478 834 464 834Q442 834 426.50 816.50Q411 799 406 769L373 769Q380 815 404.50 842Q429 869 465 869Q486 869 501.50 859.50Q517 850 538 831Q554 816 566.50 808Q579 800 593 800Q615 800 631 817.50Q647 835 652 863L685 863Q677 818 653 791.50Q629 765 593 765Z"  horiz-adv-x="838" vert-adv-y="1000"  />

      
      <glyph glyph-name="uni1E4C" unicode="&#x1E4C;" d="M387-5Q286-5 214 31Q142 67 104.50 132Q67 197 67 283Q67 397 118.50 493.50Q170 590 265.50 647.50Q361 705 486 705Q587 705 659.50 669Q732 633 769.50 568Q807 503 807 417Q807 303 755 206.50Q703 110 607.50 52.50Q512-5 387-5M392 42Q499 42 582 92.50Q665 143 710 228.50Q755 314 755 415Q755 527 684.50 592.50Q614 658 482 658Q375 658 292 607.50Q209 557 163.50 471.50Q118 386 118 285Q118 174 189 108Q260 42 392 42M588 768Q567 768 551.50 776Q536 784 518 798Q503 810 492 816Q481 822 468 822Q444 822 428.50 808.50Q413 795 408 771L375 771Q382 810 407 832.50Q432 855 468 855Q488 855 502.50 847.50Q517 840 538 825Q553 813 563.50 807Q574 801 587 801Q611 801 627 814Q643 827 648 850L681 850Q674 812 649 790Q624 768 588 768M621 986L691 986L538 881L486 881L621 986Z"  horiz-adv-x="838" vert-adv-y="1000"  />

      
      <glyph glyph-name="uni1E4E" unicode="&#x1E4E;" d="M387-5Q286-5 214 31Q142 67 104.50 132Q67 197 67 283Q67 397 118.50 493.50Q170 590 265.50 647.50Q361 705 486 705Q587 705 659.50 669Q732 633 769.50 568Q807 503 807 417Q807 303 755 206.50Q703 110 607.50 52.50Q512-5 387-5M392 42Q499 42 582 92.50Q665 143 710 228.50Q755 314 755 415Q755 527 684.50 592.50Q614 658 482 658Q375 658 292 607.50Q209 557 163.50 471.50Q118 386 118 285Q118 174 189 108Q260 42 392 42M588 768Q567 768 551.50 776Q536 784 518 798Q503 810 492 816Q481 822 468 822Q444 822 428.50 808.50Q413 795 408 771L375 771Q382 810 407 832.50Q432 855 468 855Q488 855 502.50 847.50Q517 840 538 825Q553 813 563.50 807Q574 801 587 801Q611 801 627 814Q643 827 648 850L681 850Q674 812 649 790Q624 768 588 768M467 908Q453 908 443 917.50Q433 927 433 940Q433 956 444 967.50Q455 979 470 979Q484 979 494 969.50Q504 960 504 946Q504 930 493 919Q482 908 467 908M638 908Q624 908 614 917.50Q604 927 604 940Q604 956 615 967.50Q626 979 641 979Q655 979 665 969.50Q675 960 675 946Q675 930 664 919Q653 908 638 908Z"  horiz-adv-x="838" vert-adv-y="1000"  />

      
      <glyph glyph-name="uni022C" unicode="&#x022C;" d="M387-5Q286-5 214 31Q142 67 104.50 132Q67 197 67 283Q67 397 118.50 493.50Q170 590 265.50 647.50Q361 705 486 705Q587 705 659.50 669Q732 633 769.50 568Q807 503 807 417Q807 303 755 206.50Q703 110 607.50 52.50Q512-5 387-5M392 42Q499 42 582 92.50Q665 143 710 228.50Q755 314 755 415Q755 527 684.50 592.50Q614 658 482 658Q375 658 292 607.50Q209 557 163.50 471.50Q118 386 118 285Q118 174 189 108Q260 42 392 42M588 768Q567 768 551.50 776Q536 784 518 798Q503 810 492 816Q481 822 468 822Q444 822 428.50 808.50Q413 795 408 771L375 771Q382 810 407 832.50Q432 855 468 855Q488 855 502.50 847.50Q517 840 538 825Q553 813 563.50 807Q574 801 587 801Q611 801 627 814Q643 827 648 850L681 850Q674 812 649 790Q624 768 588 768M407 942L701 942L694 908L400 908L407 942Z"  horiz-adv-x="838" vert-adv-y="1000"  />

      
      <glyph glyph-name="uni0152" unicode="&#x0152;" d="M700 654L645 378L1018 378L1009 333L636 333L579 46L1010 46L1001 0L393 0Q290 0 216.50 35Q143 70 105 134Q67 198 67 283Q67 404 120.50 499Q174 594 273 647Q372 700 502 700L1126 700L1117 654L700 654M649 654L500 654Q385 654 298.50 606.50Q212 559 165 475.50Q118 392 118 285Q118 174 189.50 110Q261 46 398 46L527 46L649 654Z"  horiz-adv-x="1117" vert-adv-y="1000"  />

      
      <glyph glyph-name="uni50" unicode="&#x50;" d="M454 700Q570 700 634 649.50Q698 599 698 507Q698 374 612 301.50Q526 229 376 229L167 229L121 0L70 0L210 700L454 700M376 275Q506 275 576 333Q646 391 646 503Q646 576 595.50 615Q545 654 451 654L252 654L176 275L376 275Z"  horiz-adv-x="715" vert-adv-y="1000"  />

      
      <glyph glyph-name="unide" unicode="&#xde;" d="M437 605Q552 605 615.50 554.50Q679 504 679 411Q679 278 593 206Q507 134 357 134L148 134L121 0L70 0L210 700L261 700L242 605L437 605M358 179Q487 179 557 237.50Q627 296 627 408Q627 481 577 520Q527 559 433 559L233 559L157 179L358 179Z"  horiz-adv-x="715" vert-adv-y="1000"  />

      
      <glyph glyph-name="uni51" unicode="&#x51;" d="M588-90Q629-90 665-73.50Q701-57 727-25L752-58Q721-95 677.50-114Q634-133 586-133Q521-133 467.50-100.50Q414-68 367-5Q272-1 204.50 36Q137 73 102 136.50Q67 200 67 283Q67 397 118.50 493.50Q170 590 265.50 647.50Q361 705 486 705Q587 705 659.50 669Q732 633 769.50 568Q807 503 807 417Q807 310 761 218Q715 126 630.50 67Q546 8 433-3Q498-90 588-90M118 285Q118 174 189 108Q260 42 392 42Q499 42 582 92.50Q665 143 710 228.50Q755 314 755 415Q755 527 684.50 592.50Q614 658 482 658Q375 658 292 607.50Q209 557 163.50 471.50Q118 386 118 285Z"  horiz-adv-x="838" vert-adv-y="1000"  />

      
      <glyph glyph-name="uni52" unicode="&#x52;" d="M698 507Q698 399 640.50 330.50Q583 262 478 240L613 0L557 0L426 232Q394 230 377 230L167 230L121 0L70 0L210 700L455 700Q571 700 634.50 649.50Q698 599 698 507M377 275Q507 275 577 333Q647 391 647 503Q647 576 596.50 615Q546 654 452 654L252 654L176 275L377 275Z"  horiz-adv-x="720" vert-adv-y="1000"  />

      
      <glyph glyph-name="uni0154" unicode="&#x0154;" d="M698 507Q698 399 640.50 330.50Q583 262 478 240L613 0L557 0L426 232Q394 230 377 230L167 230L121 0L70 0L210 700L455 700Q571 700 634.50 649.50Q698 599 698 507M377 275Q507 275 577 333Q647 391 647 503Q647 576 596.50 615Q546 654 452 654L252 654L176 275L377 275M559 875L634 875L464 757L407 757L559 875Z"  horiz-adv-x="720" vert-adv-y="1000"  />

      
      <glyph glyph-name="uni0158" unicode="&#x0158;" d="M698 507Q698 399 640.50 330.50Q583 262 478 240L613 0L557 0L426 232Q394 230 377 230L167 230L121 0L70 0L210 700L455 700Q571 700 634.50 649.50Q698 599 698 507M377 275Q507 275 577 333Q647 391 647 503Q647 576 596.50 615Q546 654 452 654L252 654L176 275L377 275M642 875L502 757L447 757L334 875L382 875L477 788L589 875L642 875Z"  horiz-adv-x="720" vert-adv-y="1000"  />

      
      <glyph glyph-name="uni0156" unicode="&#x0156;" d="M698 507Q698 399 640.50 330.50Q583 262 478 240L613 0L557 0L426 232Q394 230 377 230L167 230L121 0L70 0L210 700L455 700Q571 700 634.50 649.50Q698 599 698 507M377 275Q507 275 577 333Q647 391 647 503Q647 576 596.50 615Q546 654 452 654L252 654L176 275L377 275M285-112Q302-112 311.50-121.50Q321-131 321-144Q321-154 318-162Q315-170 307-183L265-261L236-261L273-178Q262-175 255.50-166.50Q249-158 249-148Q249-133 259-122.50Q269-112 285-112Z"  horiz-adv-x="720" vert-adv-y="1000"  />

      
      <glyph glyph-name="uni0210" unicode="&#x0210;" d="M698 507Q698 399 640.50 330.50Q583 262 478 240L613 0L557 0L426 232Q394 230 377 230L167 230L121 0L70 0L210 700L455 700Q571 700 634.50 649.50Q698 599 698 507M377 275Q507 275 577 333Q647 391 647 503Q647 576 596.50 615Q546 654 452 654L252 654L176 275L377 275M274 875L334 875L413 757L366 757L274 875M427 875L487 875L566 757L519 757L427 875Z"  horiz-adv-x="720" vert-adv-y="1000"  />

      
      <glyph glyph-name="uni1E5A" unicode="&#x1E5A;" d="M698 507Q698 399 640.50 330.50Q583 262 478 240L613 0L557 0L426 232Q394 230 377 230L167 230L121 0L70 0L210 700L455 700Q571 700 634.50 649.50Q698 599 698 507M377 275Q507 275 577 333Q647 391 647 503Q647 576 596.50 615Q546 654 452 654L252 654L176 275L377 275M280-184Q266-184 257.50-175.50Q249-167 249-154Q249-137 261.50-124.50Q274-112 290-112Q303-112 312-120.50Q321-129 321-142Q321-160 309-172Q297-184 280-184Z"  horiz-adv-x="720" vert-adv-y="1000"  />

      
      <glyph glyph-name="uni0212" unicode="&#x0212;" d="M698 507Q698 399 640.50 330.50Q583 262 478 240L613 0L557 0L426 232Q394 230 377 230L167 230L121 0L70 0L210 700L455 700Q571 700 634.50 649.50Q698 599 698 507M377 275Q507 275 577 333Q647 391 647 503Q647 576 596.50 615Q546 654 452 654L252 654L176 275L377 275M322 757Q331 813 374 846Q417 879 478 879Q538 879 576 845.50Q614 812 610 757L573 757Q576 798 548.50 822Q521 846 475 846Q431 846 398.50 821.50Q366 797 360 757L322 757Z"  horiz-adv-x="720" vert-adv-y="1000"  />

      
      <glyph glyph-name="uni1E5E" unicode="&#x1E5E;" d="M698 507Q698 399 640.50 330.50Q583 262 478 240L613 0L557 0L426 232Q394 230 377 230L167 230L121 0L70 0L210 700L455 700Q571 700 634.50 649.50Q698 599 698 507M377 275Q507 275 577 333Q647 391 647 503Q647 576 596.50 615Q546 654 452 654L252 654L176 275L377 275M142-129L435-129L429-165L135-165L142-129Z"  horiz-adv-x="720" vert-adv-y="1000"  />

      
      <glyph glyph-name="uni53" unicode="&#x53;" d="M265-5Q189-5 120 21.50Q51 48 18 88L45 127Q77 89 139.50 64.50Q202 40 269 40Q370 40 430.50 81Q491 122 491 195Q491 233 468.50 257Q446 281 412.50 295Q379 309 322 325Q256 345 216 362Q176 379 148.50 412Q121 445 121 498Q121 562 156 609Q191 656 252 680.50Q313 705 392 705Q453 705 508.50 689Q564 673 603 644L579 602Q542 630 493 645Q444 660 390 660Q292 660 232 618Q172 576 172 503Q172 464 195 439Q218 414 251.50 400Q285 386 344 369Q410 349 449 332.50Q488 316 515 284Q542 252 542 201Q542 103 465 49Q388-5 265-5Z"  horiz-adv-x="609" vert-adv-y="1000"  />

      
      <glyph glyph-name="uni015A" unicode="&#x015A;" d="M265-5Q189-5 120 21.50Q51 48 18 88L45 127Q77 89 139.50 64.50Q202 40 269 40Q370 40 430.50 81Q491 122 491 195Q491 233 468.50 257Q446 281 412.50 295Q379 309 322 325Q256 345 216 362Q176 379 148.50 412Q121 445 121 498Q121 562 156 609Q191 656 252 680.50Q313 705 392 705Q453 705 508.50 689Q564 673 603 644L579 602Q542 630 493 645Q444 660 390 660Q292 660 232 618Q172 576 172 503Q172 464 195 439Q218 414 251.50 400Q285 386 344 369Q410 349 449 332.50Q488 316 515 284Q542 252 542 201Q542 103 465 49Q388-5 265-5M511 875L586 875L416 757L359 757L511 875Z"  horiz-adv-x="609" vert-adv-y="1000"  />

      
      <glyph glyph-name="uni1E64" unicode="&#x1E64;" d="M265-5Q189-5 120 21.50Q51 48 18 88L45 127Q77 89 139.50 64.50Q202 40 269 40Q370 40 430.50 81Q491 122 491 195Q491 233 468.50 257Q446 281 412.50 295Q379 309 322 325Q256 345 216 362Q176 379 148.50 412Q121 445 121 498Q121 562 156 609Q191 656 252 680.50Q313 705 392 705Q453 705 508.50 689Q564 673 603 644L579 602Q542 630 493 645Q444 660 390 660Q292 660 232 618Q172 576 172 503Q172 464 195 439Q218 414 251.50 400Q285 386 344 369Q410 349 449 332.50Q488 316 515 284Q542 252 542 201Q542 103 465 49Q388-5 265-5M497 862L567 862L414 757L362 757L497 862M453 908Q439 908 429 917.50Q419 927 419 942Q419 958 430 969Q441 980 457 980Q471 980 481 970.50Q491 961 491 947Q491 931 480 919.50Q469 908 453 908Z"  horiz-adv-x="609" vert-adv-y="1000"  />

      
      <glyph glyph-name="uniA78B" unicode="&#xA78B;" d="M176 699L227 699L142 298L96 298L176 699Z"  horiz-adv-x="228" vert-adv-y="1000"  />

      
      <glyph glyph-name="uni0160" unicode="&#x0160;" d="M265-5Q189-5 120 21.50Q51 48 18 88L45 127Q77 89 139.50 64.50Q202 40 269 40Q370 40 430.50 81Q491 122 491 195Q491 233 468.50 257Q446 281 412.50 295Q379 309 322 325Q256 345 216 362Q176 379 148.50 412Q121 445 121 498Q121 562 156 609Q191 656 252 680.50Q313 705 392 705Q453 705 508.50 689Q564 673 603 644L579 602Q542 630 493 645Q444 660 390 660Q292 660 232 618Q172 576 172 503Q172 464 195 439Q218 414 251.50 400Q285 386 344 369Q410 349 449 332.50Q488 316 515 284Q542 252 542 201Q542 103 465 49Q388-5 265-5M594 875L454 757L399 757L286 875L334 875L429 788L541 875L594 875Z"  horiz-adv-x="609" vert-adv-y="1000"  />

      
      <glyph glyph-name="uni1E66" unicode="&#x1E66;" d="M265-5Q189-5 120 21.50Q51 48 18 88L45 127Q77 89 139.50 64.50Q202 40 269 40Q370 40 430.50 81Q491 122 491 195Q491 233 468.50 257Q446 281 412.50 295Q379 309 322 325Q256 345 216 362Q176 379 148.50 412Q121 445 121 498Q121 562 156 609Q191 656 252 680.50Q313 705 392 705Q453 705 508.50 689Q564 673 603 644L579 602Q542 630 493 645Q444 660 390 660Q292 660 232 618Q172 576 172 503Q172 464 195 439Q218 414 251.50 400Q285 386 344 369Q410 349 449 332.50Q488 316 515 284Q542 252 542 201Q542 103 465 49Q388-5 265-5M589 845L450 757L397 757L281 845L333 845L426 784L535 845L589 845M448 885Q434 885 424 894.50Q414 904 414 919Q414 935 425 946Q436 957 452 957Q466 957 476 947.50Q486 938 486 924Q486 908 475 896.50Q464 885 448 885Z"  horiz-adv-x="609" vert-adv-y="1000"  />

      
      <glyph glyph-name="uni015E" unicode="&#x015E;" d="M265-5Q189-5 120 21.50Q51 48 18 88L45 127Q77 89 139.50 64.50Q202 40 269 40Q370 40 430.50 81Q491 122 491 195Q491 233 468.50 257Q446 281 412.50 295Q379 309 322 325Q256 345 216 362Q176 379 148.50 412Q121 445 121 498Q121 562 156 609Q191 656 252 680.50Q313 705 392 705Q453 705 508.50 689Q564 673 603 644L579 602Q542 630 493 645Q444 660 390 660Q292 660 232 618Q172 576 172 503Q172 464 195 439Q218 414 251.50 400Q285 386 344 369Q410 349 449 332.50Q488 316 515 284Q542 252 542 201Q542 103 465 49Q388-5 265-5M212-217Q161-217 130-192L149-164Q176-185 215-185Q248-185 267.50-168.50Q287-152 287-125Q287-104 272-92.50Q257-81 229-81L210-81L251 6L284 6L257-53Q290-57 308.50-75.50Q327-94 327-123Q327-164 295-190.50Q263-217 212-217Z"  horiz-adv-x="609" vert-adv-y="1000"  />

      
      <glyph glyph-name="uni015C" unicode="&#x015C;" d="M265-5Q189-5 120 21.50Q51 48 18 88L45 127Q77 89 139.50 64.50Q202 40 269 40Q370 40 430.50 81Q491 122 491 195Q491 233 468.50 257Q446 281 412.50 295Q379 309 322 325Q256 345 216 362Q176 379 148.50 412Q121 445 121 498Q121 562 156 609Q191 656 252 680.50Q313 705 392 705Q453 705 508.50 689Q564 673 603 644L579 602Q542 630 493 645Q444 660 390 660Q292 660 232 618Q172 576 172 503Q172 464 195 439Q218 414 251.50 400Q285 386 344 369Q410 349 449 332.50Q488 316 515 284Q542 252 542 201Q542 103 465 49Q388-5 265-5M524 757L429 844L316 757L264 757L404 875L459 875L572 757L524 757Z"  horiz-adv-x="609" vert-adv-y="1000"  />

      
      <glyph glyph-name="uni0218" unicode="&#x0218;" d="M265-5Q189-5 120 21.50Q51 48 18 88L45 127Q77 89 139.50 64.50Q202 40 269 40Q370 40 430.50 81Q491 122 491 195Q491 233 468.50 257Q446 281 412.50 295Q379 309 322 325Q256 345 216 362Q176 379 148.50 412Q121 445 121 498Q121 562 156 609Q191 656 252 680.50Q313 705 392 705Q453 705 508.50 689Q564 673 603 644L579 602Q542 630 493 645Q444 660 390 660Q292 660 232 618Q172 576 172 503Q172 464 195 439Q218 414 251.50 400Q285 386 344 369Q410 349 449 332.50Q488 316 515 284Q542 252 542 201Q542 103 465 49Q388-5 265-5M237-112Q254-112 263.50-121.50Q273-131 273-144Q273-154 270-162Q267-170 259-183L217-261L188-261L225-178Q214-175 207.50-166.50Q201-158 201-148Q201-133 211-122.50Q221-112 237-112Z"  horiz-adv-x="609" vert-adv-y="1000"  />

      
      <glyph glyph-name="uni1E60" unicode="&#x1E60;" d="M265-5Q189-5 120 21.50Q51 48 18 88L45 127Q77 89 139.50 64.50Q202 40 269 40Q370 40 430.50 81Q491 122 491 195Q491 233 468.50 257Q446 281 412.50 295Q379 309 322 325Q256 345 216 362Q176 379 148.50 412Q121 445 121 498Q121 562 156 609Q191 656 252 680.50Q313 705 392 705Q453 705 508.50 689Q564 673 603 644L579 602Q542 630 493 645Q444 660 390 660Q292 660 232 618Q172 576 172 503Q172 464 195 439Q218 414 251.50 400Q285 386 344 369Q410 349 449 332.50Q488 316 515 284Q542 252 542 201Q542 103 465 49Q388-5 265-5M429 785Q413 785 402.50 795Q392 805 392 820Q392 838 404 850.50Q416 863 433 863Q449 863 459.50 852.50Q470 842 470 827Q470 809 458 797Q446 785 429 785Z"  horiz-adv-x="609" vert-adv-y="1000"  />

      
      <glyph glyph-name="uni1E62" unicode="&#x1E62;" d="M265-5Q189-5 120 21.50Q51 48 18 88L45 127Q77 89 139.50 64.50Q202 40 269 40Q370 40 430.50 81Q491 122 491 195Q491 233 468.50 257Q446 281 412.50 295Q379 309 322 325Q256 345 216 362Q176 379 148.50 412Q121 445 121 498Q121 562 156 609Q191 656 252 680.50Q313 705 392 705Q453 705 508.50 689Q564 673 603 644L579 602Q542 630 493 645Q444 660 390 660Q292 660 232 618Q172 576 172 503Q172 464 195 439Q218 414 251.50 400Q285 386 344 369Q410 349 449 332.50Q488 316 515 284Q542 252 542 201Q542 103 465 49Q388-5 265-5M232-184Q218-184 209.50-175.50Q201-167 201-154Q201-137 213.50-124.50Q226-112 242-112Q255-112 264-120.50Q273-129 273-142Q273-160 261-172Q249-184 232-184Z"  horiz-adv-x="609" vert-adv-y="1000"  />

      
      <glyph glyph-name="uni1E68" unicode="&#x1E68;" d="M265-5Q189-5 120 21.50Q51 48 18 88L45 127Q77 89 139.50 64.50Q202 40 269 40Q370 40 430.50 81Q491 122 491 195Q491 233 468.50 257Q446 281 412.50 295Q379 309 322 325Q256 345 216 362Q176 379 148.50 412Q121 445 121 498Q121 562 156 609Q191 656 252 680.50Q313 705 392 705Q453 705 508.50 689Q564 673 603 644L579 602Q542 630 493 645Q444 660 390 660Q292 660 232 618Q172 576 172 503Q172 464 195 439Q218 414 251.50 400Q285 386 344 369Q410 349 449 332.50Q488 316 515 284Q542 252 542 201Q542 103 465 49Q388-5 265-5M232-184Q218-184 209.50-175.50Q201-167 201-154Q201-137 213.50-124.50Q226-112 242-112Q255-112 264-120.50Q273-129 273-142Q273-160 261-172Q249-184 232-184M429 785Q413 785 402.50 795Q392 805 392 820Q392 838 404 850.50Q416 863 433 863Q449 863 459.50 852.50Q470 842 470 827Q470 809 458 797Q446 785 429 785Z"  horiz-adv-x="609" vert-adv-y="1000"  />

      
      <glyph glyph-name="uni1E9E" unicode="&#x1E9E;" d="M690 595L464 394L484 394Q573 394 625.50 349.50Q678 305 678 226Q678 156 646.50 103.50Q615 51 558 23Q501-5 425-5Q384-5 345 2.50Q306 10 276 24L293 69Q353 40 428 40Q518 40 572.50 89.50Q627 139 627 224Q627 287 586 320.50Q545 354 471 354Q423 354 384 343L378 372L646 611Q587 660 476 660Q361 660 291.50 600Q222 540 199 422L115 0L64 0L149 429Q176 564 259 634.50Q342 705 480 705Q551 705 606.50 686Q662 667 697 630L690 595Z"  horiz-adv-x="750" vert-adv-y="1000"  />

      
      <glyph glyph-name="uni018F" unicode="&#x018F;" d="M473 705Q571 705 641.50 669Q712 633 749 568Q786 503 786 417Q786 303 735 206.50Q684 110 591 52.50Q498-5 377-5Q281-5 210 31Q139 67 101.50 131Q64 195 64 279Q64 311 75 369L732 369Q734 399 734 415Q734 526 665 592Q596 658 468 658Q397 658 336.50 637Q276 616 233 577L207 615Q253 657 323 681Q393 705 473 705M382 41Q469 41 540.50 78Q612 115 659 179Q706 243 724 324L118 324Q115 303 115 282Q115 209 147 154.50Q179 100 239 70.50Q299 41 382 41Z"  horiz-adv-x="816" vert-adv-y="1000"  />

      
      <glyph glyph-name="uni54" unicode="&#x54;" d="M334 654L82 654L92 700L647 700L638 654L386 654L255 0L204 0L334 654Z"  horiz-adv-x="563" vert-adv-y="1000"  />

      
      <glyph glyph-name="uni0166" unicode="&#x0166;" d="M334 654L82 654L92 700L647 700L638 654L386 654L255 0L204 0L334 654M116 370L492 370L483 327L107 327L116 370Z"  horiz-adv-x="563" vert-adv-y="1000"  />

      
      <glyph glyph-name="uni0164" unicode="&#x0164;" d="M334 654L82 654L92 700L647 700L638 654L386 654L255 0L204 0L334 654M556 875L416 757L361 757L248 875L296 875L391 788L503 875L556 875Z"  horiz-adv-x="563" vert-adv-y="1000"  />

      
      <glyph glyph-name="uni0162" unicode="&#x0162;" d="M334 654L82 654L92 700L647 700L638 654L386 654L255 0L204 0L334 654M174-217Q123-217 92-192L111-164Q138-185 177-185Q210-185 229.50-168.50Q249-152 249-125Q249-104 234-92.50Q219-81 191-81L172-81L213 6L246 6L219-53Q252-57 270.50-75.50Q289-94 289-123Q289-164 257-190.50Q225-217 174-217Z"  horiz-adv-x="563" vert-adv-y="1000"  />

      
      <glyph glyph-name="uni021A" unicode="&#x021A;" d="M334 654L82 654L92 700L647 700L638 654L386 654L255 0L204 0L334 654M199-112Q216-112 225.50-121.50Q235-131 235-144Q235-154 232-162Q229-170 221-183L179-261L150-261L187-178Q176-175 169.50-166.50Q163-158 163-148Q163-133 173-122.50Q183-112 199-112Z"  horiz-adv-x="563" vert-adv-y="1000"  />

      
      <glyph glyph-name="uni1E6C" unicode="&#x1E6C;" d="M334 654L82 654L92 700L647 700L638 654L386 654L255 0L204 0L334 654M194-184Q180-184 171.50-175.50Q163-167 163-154Q163-137 175.50-124.50Q188-112 204-112Q217-112 226-120.50Q235-129 235-142Q235-160 223-172Q211-184 194-184Z"  horiz-adv-x="563" vert-adv-y="1000"  />

      
      <glyph glyph-name="uni1E6E" unicode="&#x1E6E;" d="M334 654L82 654L92 700L647 700L638 654L386 654L255 0L204 0L334 654M56-129L349-129L343-165L49-165L56-129Z"  horiz-adv-x="563" vert-adv-y="1000"  />

      
      <glyph glyph-name="uni55" unicode="&#x55;" d="M361-5Q244-5 179.50 54Q115 113 115 219Q115 252 123 297L204 700L255 700L175 298Q167 262 167 222Q167 134 218 88Q269 42 364 42Q474 42 540.50 104.50Q607 167 633 298L713 700L764 700L683 295Q624-5 361-5Z"  horiz-adv-x="793" vert-adv-y="1000"  />

      
      <glyph glyph-name="unida" unicode="&#xda;" d="M361-5Q244-5 179.50 54Q115 113 115 219Q115 252 123 297L204 700L255 700L175 298Q167 262 167 222Q167 134 218 88Q269 42 364 42Q474 42 540.50 104.50Q607 167 633 298L713 700L764 700L683 295Q624-5 361-5M588 875L663 875L493 757L436 757L588 875Z"  horiz-adv-x="793" vert-adv-y="1000"  />

      
      <glyph glyph-name="uni016C" unicode="&#x016C;" d="M361-5Q244-5 179.50 54Q115 113 115 219Q115 252 123 297L204 700L255 700L175 298Q167 262 167 222Q167 134 218 88Q269 42 364 42Q474 42 540.50 104.50Q607 167 633 298L713 700L764 700L683 295Q624-5 361-5M505 753Q445 753 407 786.50Q369 820 373 875L410 875Q408 834 435 810Q462 786 508 786Q552 786 584.50 810.50Q617 835 623 875L661 875Q653 819 609.50 786Q566 753 505 753Z"  horiz-adv-x="793" vert-adv-y="1000"  />

      
      <glyph glyph-name="uni01D3" unicode="&#x01D3;" d="M361-5Q244-5 179.50 54Q115 113 115 219Q115 252 123 297L204 700L255 700L175 298Q167 262 167 222Q167 134 218 88Q269 42 364 42Q474 42 540.50 104.50Q607 167 633 298L713 700L764 700L683 295Q624-5 361-5M671 875L531 757L476 757L363 875L411 875L506 788L618 875L671 875Z"  horiz-adv-x="793" vert-adv-y="1000"  />

      
      <glyph glyph-name="unidb" unicode="&#xdb;" d="M361-5Q244-5 179.50 54Q115 113 115 219Q115 252 123 297L204 700L255 700L175 298Q167 262 167 222Q167 134 218 88Q269 42 364 42Q474 42 540.50 104.50Q607 167 633 298L713 700L764 700L683 295Q624-5 361-5M601 757L506 844L393 757L341 757L481 875L536 875L649 757L601 757Z"  horiz-adv-x="793" vert-adv-y="1000"  />

      
      <glyph glyph-name="uni0214" unicode="&#x0214;" d="M361-5Q244-5 179.50 54Q115 113 115 219Q115 252 123 297L204 700L255 700L175 298Q167 262 167 222Q167 134 218 88Q269 42 364 42Q474 42 540.50 104.50Q607 167 633 298L713 700L764 700L683 295Q624-5 361-5M303 875L363 875L442 757L395 757L303 875M456 875L516 875L595 757L548 757L456 875Z"  horiz-adv-x="793" vert-adv-y="1000"  />

      
      <glyph glyph-name="unidc" unicode="&#xdc;" d="M361-5Q244-5 179.50 54Q115 113 115 219Q115 252 123 297L204 700L255 700L175 298Q167 262 167 222Q167 134 218 88Q269 42 364 42Q474 42 540.50 104.50Q607 167 633 298L713 700L764 700L683 295Q624-5 361-5M419 784Q405 784 395 793.50Q385 803 385 817Q385 833 396 844.50Q407 856 423 856Q437 856 447 846.50Q457 837 457 823Q457 807 446 795.50Q435 784 419 784M592 784Q578 784 568 793.50Q558 803 558 817Q558 833 569 844.50Q580 856 595 856Q609 856 619.50 846.50Q630 837 630 823Q630 807 618.50 795.50Q607 784 592 784Z"  horiz-adv-x="793" vert-adv-y="1000"  />

      
      <glyph glyph-name="uni1EE4" unicode="&#x1EE4;" d="M361-5Q244-5 179.50 54Q115 113 115 219Q115 252 123 297L204 700L255 700L175 298Q167 262 167 222Q167 134 218 88Q269 42 364 42Q474 42 540.50 104.50Q607 167 633 298L713 700L764 700L683 295Q624-5 361-5M309-184Q295-184 286.50-175.50Q278-167 278-154Q278-137 290.50-124.50Q303-112 319-112Q332-112 341-120.50Q350-129 350-142Q350-160 338-172Q326-184 309-184Z"  horiz-adv-x="793" vert-adv-y="1000"  />

      
      <glyph glyph-name="unid9" unicode="&#xd9;" d="M361-5Q244-5 179.50 54Q115 113 115 219Q115 252 123 297L204 700L255 700L175 298Q167 262 167 222Q167 134 218 88Q269 42 364 42Q474 42 540.50 104.50Q607 167 633 298L713 700L764 700L683 295Q624-5 361-5M364 875L436 875L552 757L498 757L364 875Z"  horiz-adv-x="793" vert-adv-y="1000"  />

      
      <glyph glyph-name="uni1EE6" unicode="&#x1EE6;" d="M361-5Q244-5 179.50 54Q115 113 115 219Q115 252 123 297L204 700L255 700L175 298Q167 262 167 222Q167 134 218 88Q269 42 364 42Q474 42 540.50 104.50Q607 167 633 298L713 700L764 700L683 295Q624-5 361-5M494 776Q563 806 563 855Q563 876 548.50 888.50Q534 901 511 901Q480 901 450 881L437 909Q473 933 518 933Q555 933 577 914Q599 895 599 862Q599 826 577.50 798.50Q556 771 509 750L494 776Z"  horiz-adv-x="793" vert-adv-y="1000"  />

      
      <glyph glyph-name="uni01AF" unicode="&#x01AF;" d="M361-5Q244-5 179.50 54Q115 113 115 219Q115 252 123 297L204 700L255 700L175 298Q167 262 167 222Q167 134 218 88Q269 42 364 42Q474 42 540.50 104.50Q607 167 633 298L713 700L764 700L683 295Q624-5 361-5M742 700L755 700Q789 700 805.50 719Q822 738 822 768Q822 804 802 834L837 848Q862 811 862 768Q862 719 834.50 689.50Q807 660 755 660L742 660L742 700Z"  horiz-adv-x="796" vert-adv-y="1000"  />

      
      <glyph glyph-name="uni1EE8" unicode="&#x1EE8;" d="M361-5Q244-5 179.50 54Q115 113 115 219Q115 252 123 297L204 700L255 700L175 298Q167 262 167 222Q167 134 218 88Q269 42 364 42Q474 42 540.50 104.50Q607 167 633 298L713 700L764 700L683 295Q624-5 361-5M742 700L755 700Q789 700 805.50 719Q822 738 822 768Q822 804 802 834L837 848Q862 811 862 768Q862 719 834.50 689.50Q807 660 755 660L742 660L742 700M588 875L663 875L493 757L436 757L588 875Z"  horiz-adv-x="796" vert-adv-y="1000"  />

      
      <glyph glyph-name="uni1EF0" unicode="&#x1EF0;" d="M361-5Q244-5 179.50 54Q115 113 115 219Q115 252 123 297L204 700L255 700L175 298Q167 262 167 222Q167 134 218 88Q269 42 364 42Q474 42 540.50 104.50Q607 167 633 298L713 700L764 700L683 295Q624-5 361-5M742 700L755 700Q789 700 805.50 719Q822 738 822 768Q822 804 802 834L837 848Q862 811 862 768Q862 719 834.50 689.50Q807 660 755 660L742 660L742 700M309-184Q295-184 286.50-175.50Q278-167 278-154Q278-137 290.50-124.50Q303-112 319-112Q332-112 341-120.50Q350-129 350-142Q350-160 338-172Q326-184 309-184Z"  horiz-adv-x="796" vert-adv-y="1000"  />

      
      <glyph glyph-name="uni1EEA" unicode="&#x1EEA;" d="M361-5Q244-5 179.50 54Q115 113 115 219Q115 252 123 297L204 700L255 700L175 298Q167 262 167 222Q167 134 218 88Q269 42 364 42Q474 42 540.50 104.50Q607 167 633 298L713 700L764 700L683 295Q624-5 361-5M742 700L755 700Q789 700 805.50 719Q822 738 822 768Q822 804 802 834L837 848Q862 811 862 768Q862 719 834.50 689.50Q807 660 755 660L742 660L742 700M364 875L436 875L552 757L498 757L364 875Z"  horiz-adv-x="796" vert-adv-y="1000"  />

      
      <glyph glyph-name="uni1EEC" unicode="&#x1EEC;" d="M361-5Q244-5 179.50 54Q115 113 115 219Q115 252 123 297L204 700L255 700L175 298Q167 262 167 222Q167 134 218 88Q269 42 364 42Q474 42 540.50 104.50Q607 167 633 298L713 700L764 700L683 295Q624-5 361-5M742 700L755 700Q789 700 805.50 719Q822 738 822 768Q822 804 802 834L837 848Q862 811 862 768Q862 719 834.50 689.50Q807 660 755 660L742 660L742 700M494 776Q563 806 563 855Q563 876 548.50 888.50Q534 901 511 901Q480 901 450 881L437 909Q473 933 518 933Q555 933 577 914Q599 895 599 862Q599 826 577.50 798.50Q556 771 509 750L494 776Z"  horiz-adv-x="796" vert-adv-y="1000"  />

      
      <glyph glyph-name="uni1EEE" unicode="&#x1EEE;" d="M361-5Q244-5 179.50 54Q115 113 115 219Q115 252 123 297L204 700L255 700L175 298Q167 262 167 222Q167 134 218 88Q269 42 364 42Q474 42 540.50 104.50Q607 167 633 298L713 700L764 700L683 295Q624-5 361-5M742 700L755 700Q789 700 805.50 719Q822 738 822 768Q822 804 802 834L837 848Q862 811 862 768Q862 719 834.50 689.50Q807 660 755 660L742 660L742 700M571 765Q549 765 533.50 774.50Q518 784 497 803Q481 818 468.50 826Q456 834 442 834Q420 834 404.50 816.50Q389 799 384 769L351 769Q358 815 382.50 842Q407 869 443 869Q464 869 479.50 859.50Q495 850 516 831Q532 816 544.50 808Q557 800 571 800Q593 800 609 817.50Q625 835 630 863L663 863Q655 818 631 791.50Q607 765 571 765Z"  horiz-adv-x="796" vert-adv-y="1000"  />

      
      <glyph glyph-name="uni0170" unicode="&#x0170;" d="M361-5Q244-5 179.50 54Q115 113 115 219Q115 252 123 297L204 700L255 700L175 298Q167 262 167 222Q167 134 218 88Q269 42 364 42Q474 42 540.50 104.50Q607 167 633 298L713 700L764 700L683 295Q624-5 361-5M508 875L571 875L444 757L393 757L508 875M661 875L724 875L596 757L546 757L661 875Z"  horiz-adv-x="793" vert-adv-y="1000"  />

      
      <glyph glyph-name="uni0216" unicode="&#x0216;" d="M361-5Q244-5 179.50 54Q115 113 115 219Q115 252 123 297L204 700L255 700L175 298Q167 262 167 222Q167 134 218 88Q269 42 364 42Q474 42 540.50 104.50Q607 167 633 298L713 700L764 700L683 295Q624-5 361-5M351 757Q360 813 403 846Q446 879 507 879Q567 879 605 845.50Q643 812 639 757L602 757Q605 798 577.50 822Q550 846 504 846Q460 846 427.50 821.50Q395 797 389 757L351 757Z"  horiz-adv-x="793" vert-adv-y="1000"  />

      
      <glyph glyph-name="uni016A" unicode="&#x016A;" d="M361-5Q244-5 179.50 54Q115 113 115 219Q115 252 123 297L204 700L255 700L175 298Q167 262 167 222Q167 134 218 88Q269 42 364 42Q474 42 540.50 104.50Q607 167 633 298L713 700L764 700L683 295Q624-5 361-5M363 834L657 834L650 798L356 798L363 834Z"  horiz-adv-x="793" vert-adv-y="1000"  />

      
      <glyph glyph-name="uni1E7A" unicode="&#x1E7A;" d="M361-5Q244-5 179.50 54Q115 113 115 219Q115 252 123 297L204 700L255 700L175 298Q167 262 167 222Q167 134 218 88Q269 42 364 42Q474 42 540.50 104.50Q607 167 633 298L713 700L764 700L683 295Q624-5 361-5M360 819L654 819L647 785L353 785L360 819M445 909Q431 909 421 918.50Q411 928 411 941Q411 957 422 968.50Q433 980 448 980Q462 980 472 970.50Q482 961 482 947Q482 931 471 920Q460 909 445 909M616 909Q602 909 592 918.50Q582 928 582 941Q582 957 593 968.50Q604 980 619 980Q633 980 643 970.50Q653 961 653 947Q653 931 642 920Q631 909 616 909Z"  horiz-adv-x="793" vert-adv-y="1000"  />

      
      <glyph glyph-name="uni0172" unicode="&#x0172;" d="M764 700L683 295Q635 50 451 5Q363-16 315.50-54.50Q268-93 268-135Q268-159 282-171.50Q296-184 322-184Q361-184 392-162L401-192Q364-217 315-217Q276-217 252-196.50Q228-176 228-141Q228-63 337-4Q231 2 173 60Q115 118 115 219Q115 252 123 297L204 700L255 700L175 298Q167 262 167 222Q167 134 218 88Q269 42 364 42Q474 42 540.50 104.50Q607 167 633 298L713 700L764 700Z"  horiz-adv-x="793" vert-adv-y="1000"  />

      
      <glyph glyph-name="uni016E" unicode="&#x016E;" d="M361-5Q244-5 179.50 54Q115 113 115 219Q115 252 123 297L204 700L255 700L175 298Q167 262 167 222Q167 134 218 88Q269 42 364 42Q474 42 540.50 104.50Q607 167 633 298L713 700L764 700L683 295Q624-5 361-5M518 774Q476 774 447.50 802.50Q419 831 419 871Q419 912 447.50 941.50Q476 971 518 971Q560 971 589 941.50Q618 912 618 871Q618 831 589.50 802.50Q561 774 518 774M518 802Q549 802 569 822Q589 842 589 871Q589 901 568.50 921.50Q548 942 518 942Q488 942 468.50 921.50Q449 901 449 871Q449 841 468.50 821.50Q488 802 518 802Z"  horiz-adv-x="793" vert-adv-y="1000"  />

      
      <glyph glyph-name="uni0168" unicode="&#x0168;" d="M361-5Q244-5 179.50 54Q115 113 115 219Q115 252 123 297L204 700L255 700L175 298Q167 262 167 222Q167 134 218 88Q269 42 364 42Q474 42 540.50 104.50Q607 167 633 298L713 700L764 700L683 295Q624-5 361-5M571 765Q549 765 533.50 774.50Q518 784 497 803Q481 818 468.50 826Q456 834 442 834Q420 834 404.50 816.50Q389 799 384 769L351 769Q358 815 382.50 842Q407 869 443 869Q464 869 479.50 859.50Q495 850 516 831Q532 816 544.50 808Q557 800 571 800Q593 800 609 817.50Q625 835 630 863L663 863Q655 818 631 791.50Q607 765 571 765Z"  horiz-adv-x="793" vert-adv-y="1000"  />

      
      <glyph glyph-name="uni1E78" unicode="&#x1E78;" d="M361-5Q244-5 179.50 54Q115 113 115 219Q115 252 123 297L204 700L255 700L175 298Q167 262 167 222Q167 134 218 88Q269 42 364 42Q474 42 540.50 104.50Q607 167 633 298L713 700L764 700L683 295Q624-5 361-5M566 768Q545 768 529.50 776Q514 784 496 798Q481 810 470 816Q459 822 446 822Q422 822 406.50 808.50Q391 795 386 771L353 771Q360 810 385 832.50Q410 855 446 855Q466 855 480.50 847.50Q495 840 516 825Q531 813 541.50 807Q552 801 565 801Q589 801 605 814Q621 827 626 850L659 850Q652 812 627 790Q602 768 566 768M599 986L669 986L516 881L464 881L599 986Z"  horiz-adv-x="793" vert-adv-y="1000"  />

      
      <glyph glyph-name="uni56" unicode="&#x56;" d="M769 700L316 0L266 0L93 700L147 700L302 66L713 700L769 700Z"  horiz-adv-x="687" vert-adv-y="1000"  />

      
      <glyph glyph-name="uni57" unicode="&#x57;" d="M1146 700L769 0L715 0L623 626L279 0L225 0L127 700L178 700L266 68L612 700L660 700L752 68L1094 700L1146 700Z"  horiz-adv-x="1098" vert-adv-y="1000"  />

      
      <glyph glyph-name="uni1E82" unicode="&#x1E82;" d="M1146 700L769 0L715 0L623 626L279 0L225 0L127 700L178 700L266 68L612 700L660 700L752 68L1094 700L1146 700M741 875L816 875L646 757L589 757L741 875Z"  horiz-adv-x="1098" vert-adv-y="1000"  />

      
      <glyph glyph-name="uni0174" unicode="&#x0174;" d="M1146 700L769 0L715 0L623 626L279 0L225 0L127 700L178 700L266 68L612 700L660 700L752 68L1094 700L1146 700M754 757L659 844L546 757L494 757L634 875L689 875L802 757L754 757Z"  horiz-adv-x="1098" vert-adv-y="1000"  />

      
      </font>
</defs>
</svg>
