<?xml version="1.0" standalone="no"?>
  <!DOCTYPE svg PUBLIC "-//W3C//DTD SVG 1.1//EN" "http://www.w3.org/Graphics/SVG/1.1/DTD/svg11.dtd" >
  <svg>
  <metadata>
  Created by font-carrier
  </metadata>
  <defs>
  <font id="Quicksand-SemiBold" horiz-adv-x="1363" vert-adv-y="1363" >
    <font-face
      
      font-family="Quicksand SemiBold"
      
      font-weight="400"
      
      font-stretch="normal"
      
      units-per-em="1000"
      
      ascent="1000"
      
      descent="-250"
      
    />
      <missing-glyph />

      

      
      <glyph glyph-name="uni41" unicode="&#x41;" d="M331 570L106 30Q100 14 88 5Q76-4 61-4Q39-4 28 8.50Q17 21 16 40Q16 47 19 56L273 670Q280 687 293.50 696Q307 705 323 704Q338 704 351 695Q364 686 370 670L621 65Q625 55 625 45Q625 23 610.50 9.50Q596-4 578-4Q563-4 550.50 5.50Q538 15 532 30L305 567L331 570M146 172L191 268L474 268L491 172L146 172Z"  horiz-adv-x="642" vert-adv-y="1000"  />

      
      <glyph glyph-name="unic1" unicode="&#xc1;" d="M331 570L106 30Q100 14 88 5Q76-4 61-4Q39-4 28 8.50Q17 21 16 40Q16 47 19 56L273 670Q280 687 293.50 696Q307 705 323 704Q338 704 351 695Q364 686 370 670L621 65Q625 55 625 45Q625 23 610.50 9.50Q596-4 578-4Q563-4 550.50 5.50Q538 15 532 30L305 567L331 570M146 172L191 268L474 268L491 172L146 172M325 741Q309 741 299.50 749.50Q290 758 290 771Q290 777 293.50 783Q297 789 303 795L390 868Q399 876 410 881.50Q421 887 432 887Q448 887 463 875.50Q478 864 478 844Q478 831 470 818.50Q462 806 447 798L347 747Q342 743 336 742Q330 741 325 741Z"  horiz-adv-x="642" vert-adv-y="1000"  />

      
      <glyph glyph-name="uni0102" unicode="&#x0102;" d="M331 570L106 30Q100 14 88 5Q76-4 61-4Q39-4 28 8.50Q17 21 16 40Q16 47 19 56L273 670Q280 687 293.50 696Q307 705 323 704Q338 704 351 695Q364 686 370 670L621 65Q625 55 625 45Q625 23 610.50 9.50Q596-4 578-4Q563-4 550.50 5.50Q538 15 532 30L305 567L331 570M146 172L191 268L474 268L491 172L146 172M323 764Q269 764 229 789Q189 814 172 859Q164 881 172.50 893.50Q181 906 198 906Q216 906 226 898Q236 890 248 875Q259 857 277.50 847Q296 837 323 837Q376 837 398 875Q410 890 420.50 898Q431 906 448 906Q466 906 474.50 894Q483 882 475 861Q458 814 418 789Q378 764 323 764Z"  horiz-adv-x="642" vert-adv-y="1000"  />

      
      <glyph glyph-name="uni1EAE" unicode="&#x1EAE;" d="M331 570L106 30Q100 14 88 5Q76-4 61-4Q39-4 28 8.50Q17 21 16 40Q16 47 19 56L273 670Q280 687 293.50 696Q307 705 323 704Q338 704 351 695Q364 686 370 670L621 65Q625 55 625 45Q625 23 610.50 9.50Q596-4 578-4Q563-4 550.50 5.50Q538 15 532 30L305 567L331 570M146 172L191 268L474 268L491 172L146 172M323 764Q269 764 229 789Q189 814 172 859Q164 881 172.50 893.50Q181 906 198 906Q216 906 226 898Q236 890 248 875Q259 857 277.50 847Q296 837 323 837Q376 837 398 875Q410 890 420.50 898Q431 906 448 906Q466 906 474.50 894Q483 882 475 861Q458 814 418 789Q378 764 323 764M325 931Q309 931 299.50 939.50Q290 948 290 961Q290 967 293.50 973Q297 979 303 985L390 1058Q399 1066 410 1071.50Q421 1077 432 1077Q448 1077 463 1065.50Q478 1054 478 1034Q478 1021 470 1008.50Q462 996 447 988L347 937Q342 933 336 932Q330 931 325 931Z"  horiz-adv-x="642" vert-adv-y="1000"  />

      
      <glyph glyph-name="uni1EB6" unicode="&#x1EB6;" d="M331 570L106 30Q100 14 88 5Q76-4 61-4Q39-4 28 8.50Q17 21 16 40Q16 47 19 56L273 670Q280 687 293.50 696Q307 705 323 704Q338 704 351 695Q364 686 370 670L621 65Q625 55 625 45Q625 23 610.50 9.50Q596-4 578-4Q563-4 550.50 5.50Q538 15 532 30L305 567L331 570M146 172L191 268L474 268L491 172L146 172M322-144Q293-144 280-133.50Q267-123 267-98L267-82Q267-56 281-45.50Q295-35 322-35Q353-35 366-45.50Q379-56 379-82L379-98Q379-124 365.50-134Q352-144 322-144M323 764Q269 764 229 789Q189 814 172 859Q164 881 172.50 893.50Q181 906 198 906Q216 906 226 898Q236 890 248 875Q259 857 277.50 847Q296 837 323 837Q376 837 398 875Q410 890 420.50 898Q431 906 448 906Q466 906 474.50 894Q483 882 475 861Q458 814 418 789Q378 764 323 764Z"  horiz-adv-x="642" vert-adv-y="1000"  />

      
      <glyph glyph-name="uni1EB0" unicode="&#x1EB0;" d="M331 570L106 30Q100 14 88 5Q76-4 61-4Q39-4 28 8.50Q17 21 16 40Q16 47 19 56L273 670Q280 687 293.50 696Q307 705 323 704Q338 704 351 695Q364 686 370 670L621 65Q625 55 625 45Q625 23 610.50 9.50Q596-4 578-4Q563-4 550.50 5.50Q538 15 532 30L305 567L331 570M146 172L191 268L474 268L491 172L146 172M323 764Q269 764 229 789Q189 814 172 859Q164 881 172.50 893.50Q181 906 198 906Q216 906 226 898Q236 890 248 875Q259 857 277.50 847Q296 837 323 837Q376 837 398 875Q410 890 420.50 898Q431 906 448 906Q466 906 474.50 894Q483 882 475 861Q458 814 418 789Q378 764 323 764M321 934Q316 934 310.50 935.50Q305 937 299 940L200 991Q168 1008 168 1037Q168 1057 183 1068.50Q198 1080 214 1080Q226 1080 237 1074.50Q248 1069 256 1061L343 988Q350 982 353 976Q356 970 356 964Q356 951 346.50 942.50Q337 934 321 934Z"  horiz-adv-x="642" vert-adv-y="1000"  />

      
      <glyph glyph-name="uni1EB2" unicode="&#x1EB2;" d="M331 570L106 30Q100 14 88 5Q76-4 61-4Q39-4 28 8.50Q17 21 16 40Q16 47 19 56L273 670Q280 687 293.50 696Q307 705 323 704Q338 704 351 695Q364 686 370 670L621 65Q625 55 625 45Q625 23 610.50 9.50Q596-4 578-4Q563-4 550.50 5.50Q538 15 532 30L305 567L331 570M146 172L191 268L474 268L491 172L146 172M323 764Q269 764 229 789Q189 814 172 859Q164 881 172.50 893.50Q181 906 198 906Q216 906 226 898Q236 890 248 875Q259 857 277.50 847Q296 837 323 837Q376 837 398 875Q410 890 420.50 898Q431 906 448 906Q466 906 474.50 894Q483 882 475 861Q458 814 418 789Q378 764 323 764M232 1110Q248 1123 266 1131Q284 1139 310 1139Q348 1139 369 1126Q390 1113 398 1093.50Q406 1074 406 1057Q406 1040 400 1027.50Q394 1015 382 1001Q373 991 367.50 983Q362 975 362 966Q361 956 351.50 951Q342 946 327 946Q319 946 310.50 951Q302 956 302 967Q302 976 306 986Q310 996 318 1006Q327 1018 335 1029Q343 1040 343 1050Q343 1063 332.50 1070.50Q322 1078 308 1078Q295 1078 284.50 1072.50Q274 1067 265 1060Q258 1055 248 1054.50Q238 1054 226 1065Q216 1077 219.50 1089.50Q223 1102 232 1110Z"  horiz-adv-x="642" vert-adv-y="1000"  />

      
      <glyph glyph-name="uni1EB4" unicode="&#x1EB4;" d="M331 570L106 30Q100 14 88 5Q76-4 61-4Q39-4 28 8.50Q17 21 16 40Q16 47 19 56L273 670Q280 687 293.50 696Q307 705 323 704Q338 704 351 695Q364 686 370 670L621 65Q625 55 625 45Q625 23 610.50 9.50Q596-4 578-4Q563-4 550.50 5.50Q538 15 532 30L305 567L331 570M146 172L191 268L474 268L491 172L146 172M323 764Q269 764 229 789Q189 814 172 859Q164 881 172.50 893.50Q181 906 198 906Q216 906 226 898Q236 890 248 875Q259 857 277.50 847Q296 837 323 837Q376 837 398 875Q410 890 420.50 898Q431 906 448 906Q466 906 474.50 894Q483 882 475 861Q458 814 418 789Q378 764 323 764M190 938Q171 938 158 954.50Q145 971 146 1000Q148 1032 175 1056.50Q202 1081 249 1081Q280 1081 307.50 1065.50Q335 1050 359 1035Q383 1020 401 1020Q413 1020 420 1027.50Q427 1035 425 1047Q420 1066 430.50 1077Q441 1088 456 1088Q476 1088 489 1071.50Q502 1055 501 1028Q500 1009 489.50 990Q479 971 459.50 957.50Q440 944 410 944Q378 944 347.50 959.50Q317 975 291 990Q265 1005 247 1005Q236 1005 228 998Q220 991 221 978Q226 960 215.50 949Q205 938 190 938Z"  horiz-adv-x="642" vert-adv-y="1000"  />

      
      <glyph glyph-name="uni01CD" unicode="&#x01CD;" d="M331 570L106 30Q100 14 88 5Q76-4 61-4Q39-4 28 8.50Q17 21 16 40Q16 47 19 56L273 670Q280 687 293.50 696Q307 705 323 704Q338 704 351 695Q364 686 370 670L621 65Q625 55 625 45Q625 23 610.50 9.50Q596-4 578-4Q563-4 550.50 5.50Q538 15 532 30L305 567L331 570M146 172L191 268L474 268L491 172L146 172M308 815L394 875Q408 884 418 888Q428 892 437 892Q449 892 456 885.50Q463 879 463 871Q463 865 460.50 859.50Q458 854 450 845L383 770Q372 757 360 751Q348 745 331 745L317 745Q300 745 288 751Q276 757 265 770L197 845Q190 854 187.50 859Q185 864 185 870Q185 878 192.50 885Q200 892 211 892Q228 892 254 875L340 816L308 815Z"  horiz-adv-x="642" vert-adv-y="1000"  />

      
      <glyph glyph-name="unic2" unicode="&#xc2;" d="M331 570L106 30Q100 14 88 5Q76-4 61-4Q39-4 28 8.50Q17 21 16 40Q16 47 19 56L273 670Q280 687 293.50 696Q307 705 323 704Q338 704 351 695Q364 686 370 670L621 65Q625 55 625 45Q625 23 610.50 9.50Q596-4 578-4Q563-4 550.50 5.50Q538 15 532 30L305 567L331 570M146 172L191 268L474 268L491 172L146 172M337 822L252 766Q238 758 227.50 752.50Q217 747 209 747Q198 747 190 754Q182 761 182 769Q182 776 185 781Q188 786 195 794L263 870Q274 882 285.50 888.50Q297 895 314 895L329 895Q346 895 357.50 888.50Q369 882 381 870L448 795Q456 786 458.50 781Q461 776 461 769Q461 761 453.50 754Q446 747 435 747Q426 747 416 752.50Q406 758 392 766L306 821L337 822Z"  horiz-adv-x="642" vert-adv-y="1000"  />

      
      <glyph glyph-name="uni1EA4" unicode="&#x1EA4;" d="M331 570L106 30Q100 14 88 5Q76-4 61-4Q39-4 28 8.50Q17 21 16 40Q16 47 19 56L273 670Q280 687 293.50 696Q307 705 323 704Q338 704 351 695Q364 686 370 670L621 65Q625 55 625 45Q625 23 610.50 9.50Q596-4 578-4Q563-4 550.50 5.50Q538 15 532 30L305 567L331 570M146 172L191 268L474 268L491 172L146 172M337 822L252 766Q238 758 227.50 752.50Q217 747 209 747Q198 747 190 754Q182 761 182 769Q182 776 185 781Q188 786 195 794L263 870Q274 882 285.50 888.50Q297 895 314 895L329 895Q346 895 357.50 888.50Q369 882 381 870L448 795Q456 786 458.50 781Q461 776 461 769Q461 761 453.50 754Q446 747 435 747Q426 747 416 752.50Q406 758 392 766L306 821L337 822M478 823Q462 823 452.50 831.50Q443 840 443 853Q443 859 446.50 865Q450 871 456 877L543 950Q552 958 563 963.50Q574 969 585 969Q601 969 616 957.50Q631 946 631 926Q631 913 623 900.50Q615 888 600 880L500 829Q495 825 489 824Q483 823 478 823Z"  horiz-adv-x="642" vert-adv-y="1000"  />

      
      <glyph glyph-name="uni1EAC" unicode="&#x1EAC;" d="M331 570L106 30Q100 14 88 5Q76-4 61-4Q39-4 28 8.50Q17 21 16 40Q16 47 19 56L273 670Q280 687 293.50 696Q307 705 323 704Q338 704 351 695Q364 686 370 670L621 65Q625 55 625 45Q625 23 610.50 9.50Q596-4 578-4Q563-4 550.50 5.50Q538 15 532 30L305 567L331 570M146 172L191 268L474 268L491 172L146 172M322-144Q293-144 280-133.50Q267-123 267-98L267-82Q267-56 281-45.50Q295-35 322-35Q353-35 366-45.50Q379-56 379-82L379-98Q379-124 365.50-134Q352-144 322-144M337 822L252 766Q238 758 227.50 752.50Q217 747 209 747Q198 747 190 754Q182 761 182 769Q182 776 185 781Q188 786 195 794L263 870Q274 882 285.50 888.50Q297 895 314 895L329 895Q346 895 357.50 888.50Q369 882 381 870L448 795Q456 786 458.50 781Q461 776 461 769Q461 761 453.50 754Q446 747 435 747Q426 747 416 752.50Q406 758 392 766L306 821L337 822Z"  horiz-adv-x="642" vert-adv-y="1000"  />

      
      <glyph glyph-name="uni1EA6" unicode="&#x1EA6;" d="M331 570L106 30Q100 14 88 5Q76-4 61-4Q39-4 28 8.50Q17 21 16 40Q16 47 19 56L273 670Q280 687 293.50 696Q307 705 323 704Q338 704 351 695Q364 686 370 670L621 65Q625 55 625 45Q625 23 610.50 9.50Q596-4 578-4Q563-4 550.50 5.50Q538 15 532 30L305 567L331 570M146 172L191 268L474 268L491 172L146 172M337 822L252 766Q238 758 227.50 752.50Q217 747 209 747Q198 747 190 754Q182 761 182 769Q182 776 185 781Q188 786 195 794L263 870Q274 882 285.50 888.50Q297 895 314 895L329 895Q346 895 357.50 888.50Q369 882 381 870L448 795Q456 786 458.50 781Q461 776 461 769Q461 761 453.50 754Q446 747 435 747Q426 747 416 752.50Q406 758 392 766L306 821L337 822M459 877Q454 877 448.50 878.50Q443 880 437 883L338 934Q306 951 306 980Q306 1000 321 1011.50Q336 1023 352 1023Q364 1023 375 1017.50Q386 1012 394 1004L481 931Q488 925 491 919Q494 913 494 907Q494 894 484.50 885.50Q475 877 459 877Z"  horiz-adv-x="642" vert-adv-y="1000"  />

      
      <glyph glyph-name="uni1EA8" unicode="&#x1EA8;" d="M331 570L106 30Q100 14 88 5Q76-4 61-4Q39-4 28 8.50Q17 21 16 40Q16 47 19 56L273 670Q280 687 293.50 696Q307 705 323 704Q338 704 351 695Q364 686 370 670L621 65Q625 55 625 45Q625 23 610.50 9.50Q596-4 578-4Q563-4 550.50 5.50Q538 15 532 30L305 567L331 570M146 172L191 268L474 268L491 172L146 172M337 822L252 766Q238 758 227.50 752.50Q217 747 209 747Q198 747 190 754Q182 761 182 769Q182 776 185 781Q188 786 195 794L263 870Q274 882 285.50 888.50Q297 895 314 895L329 895Q346 895 357.50 888.50Q369 882 381 870L448 795Q456 786 458.50 781Q461 776 461 769Q461 761 453.50 754Q446 747 435 747Q426 747 416 752.50Q406 758 392 766L306 821L337 822M401 977Q417 990 435 998Q453 1006 479 1006Q517 1006 538 993Q559 980 567 960.50Q575 941 575 924Q575 907 569 894.50Q563 882 551 868Q542 858 536.50 850Q531 842 531 833Q530 823 520.50 818Q511 813 496 813Q488 813 479.50 818Q471 823 471 834Q471 843 475 853Q479 863 487 873Q496 885 504 896Q512 907 512 917Q512 930 501.50 937.50Q491 945 477 945Q464 945 453.50 939.50Q443 934 434 927Q427 922 417 921.50Q407 921 395 932Q385 944 388.50 956.50Q392 969 401 977Z"  horiz-adv-x="642" vert-adv-y="1000"  />

      
      <glyph glyph-name="uni1EAA" unicode="&#x1EAA;" d="M331 570L106 30Q100 14 88 5Q76-4 61-4Q39-4 28 8.50Q17 21 16 40Q16 47 19 56L273 670Q280 687 293.50 696Q307 705 323 704Q338 704 351 695Q364 686 370 670L621 65Q625 55 625 45Q625 23 610.50 9.50Q596-4 578-4Q563-4 550.50 5.50Q538 15 532 30L305 567L331 570M146 172L191 268L474 268L491 172L146 172M337 812L252 756Q238 748 227.50 742.50Q217 737 209 737Q198 737 190 744Q182 751 182 759Q182 766 185 771Q188 776 195 784L263 860Q274 872 285.50 878.50Q297 885 314 885L329 885Q346 885 357.50 878.50Q369 872 381 860L448 785Q456 776 458.50 771Q461 766 461 759Q461 751 453.50 744Q446 737 435 737Q426 737 416 742.50Q406 748 392 756L306 811L337 812M190 889Q171 889 158 905.50Q145 922 146 951Q148 983 175 1007.50Q202 1032 249 1032Q280 1032 307.50 1016.50Q335 1001 359 986Q383 971 401 971Q413 971 420 978.50Q427 986 425 998Q420 1017 430.50 1028Q441 1039 456 1039Q476 1039 489 1022.50Q502 1006 501 979Q500 960 489.50 941Q479 922 459.50 908.50Q440 895 410 895Q378 895 347.50 910.50Q317 926 291 941Q265 956 247 956Q236 956 228 949Q220 942 221 929Q226 911 215.50 900Q205 889 190 889Z"  horiz-adv-x="642" vert-adv-y="1000"  />

      
      <glyph glyph-name="uni0200" unicode="&#x0200;" d="M331 570L106 30Q100 14 88 5Q76-4 61-4Q39-4 28 8.50Q17 21 16 40Q16 47 19 56L273 670Q280 687 293.50 696Q307 705 323 704Q338 704 351 695Q364 686 370 670L621 65Q625 55 625 45Q625 23 610.50 9.50Q596-4 578-4Q563-4 550.50 5.50Q538 15 532 30L305 567L331 570M146 172L191 268L474 268L491 172L146 172M240 753Q235 753 229.50 755Q224 757 218 759L119 811Q87 828 87 857Q87 876 102 887.50Q117 899 133 899Q145 899 156 893.50Q167 888 175 881L262 807Q269 801 272 795.50Q275 790 275 783Q275 770 265.50 761.50Q256 753 240 753M434 760Q428 760 422.50 761.50Q417 763 411 766L312 817Q281 834 281 863Q281 883 295.50 894.50Q310 906 326 906Q338 906 349 900.50Q360 895 368 887L455 814Q462 808 465 802Q468 796 468 790Q468 777 459 768.50Q450 760 434 760Z"  horiz-adv-x="642" vert-adv-y="1000"  />

      
      <glyph glyph-name="unic4" unicode="&#xc4;" d="M331 570L106 30Q100 14 88 5Q76-4 61-4Q39-4 28 8.50Q17 21 16 40Q16 47 19 56L273 670Q280 687 293.50 696Q307 705 323 704Q338 704 351 695Q364 686 370 670L621 65Q625 55 625 45Q625 23 610.50 9.50Q596-4 578-4Q563-4 550.50 5.50Q538 15 532 30L305 567L331 570M146 172L191 268L474 268L491 172L146 172M417 765Q390 765 376.50 776Q363 787 363 812L363 827Q363 853 377 863.50Q391 874 417 874Q446 874 459.50 863Q473 852 473 827L473 812Q473 786 459 775.50Q445 765 417 765M227 765Q200 765 186.50 776Q173 787 173 812L173 827Q173 853 187 863.50Q201 874 228 874Q256 874 269.50 863Q283 852 283 827L283 812Q283 786 269 775.50Q255 765 227 765Z"  horiz-adv-x="642" vert-adv-y="1000"  />

      
      <glyph glyph-name="uni1EA0" unicode="&#x1EA0;" d="M331 570L106 30Q100 14 88 5Q76-4 61-4Q39-4 28 8.50Q17 21 16 40Q16 47 19 56L273 670Q280 687 293.50 696Q307 705 323 704Q338 704 351 695Q364 686 370 670L621 65Q625 55 625 45Q625 23 610.50 9.50Q596-4 578-4Q563-4 550.50 5.50Q538 15 532 30L305 567L331 570M146 172L191 268L474 268L491 172L146 172M322-144Q293-144 280-133.50Q267-123 267-98L267-82Q267-56 281-45.50Q295-35 322-35Q353-35 366-45.50Q379-56 379-82L379-98Q379-124 365.50-134Q352-144 322-144Z"  horiz-adv-x="642" vert-adv-y="1000"  />

      
      <glyph glyph-name="unic0" unicode="&#xc0;" d="M331 570L106 30Q100 14 88 5Q76-4 61-4Q39-4 28 8.50Q17 21 16 40Q16 47 19 56L273 670Q280 687 293.50 696Q307 705 323 704Q338 704 351 695Q364 686 370 670L621 65Q625 55 625 45Q625 23 610.50 9.50Q596-4 578-4Q563-4 550.50 5.50Q538 15 532 30L305 567L331 570M146 172L191 268L474 268L491 172L146 172M321 744Q316 744 310.50 745.50Q305 747 299 750L200 801Q168 818 168 847Q168 867 183 878.50Q198 890 214 890Q226 890 237 884.50Q248 879 256 871L343 798Q350 792 353 786Q356 780 356 774Q356 761 346.50 752.50Q337 744 321 744Z"  horiz-adv-x="642" vert-adv-y="1000"  />

      
      <glyph glyph-name="uni1EA2" unicode="&#x1EA2;" d="M331 570L106 30Q100 14 88 5Q76-4 61-4Q39-4 28 8.50Q17 21 16 40Q16 47 19 56L273 670Q280 687 293.50 696Q307 705 323 704Q338 704 351 695Q364 686 370 670L621 65Q625 55 625 45Q625 23 610.50 9.50Q596-4 578-4Q563-4 550.50 5.50Q538 15 532 30L305 567L331 570M146 172L191 268L474 268L491 172L146 172M232 920Q248 933 266 941Q284 949 310 949Q348 949 369 936Q390 923 398 903.50Q406 884 406 867Q406 850 400 837.50Q394 825 382 811Q373 801 367.50 793Q362 785 362 776Q361 766 351.50 761Q342 756 327 756Q319 756 310.50 761Q302 766 302 777Q302 786 306 796Q310 806 318 816Q327 828 335 839Q343 850 343 860Q343 873 332.50 880.50Q322 888 308 888Q295 888 284.50 882.50Q274 877 265 870Q258 865 248 864.50Q238 864 226 875Q216 887 219.50 899.50Q223 912 232 920Z"  horiz-adv-x="642" vert-adv-y="1000"  />

      
      <glyph glyph-name="uni0202" unicode="&#x0202;" d="M331 570L106 30Q100 14 88 5Q76-4 61-4Q39-4 28 8.50Q17 21 16 40Q16 47 19 56L273 670Q280 687 293.50 696Q307 705 323 704Q338 704 351 695Q364 686 370 670L621 65Q625 55 625 45Q625 23 610.50 9.50Q596-4 578-4Q563-4 550.50 5.50Q538 15 532 30L305 567L331 570M146 172L191 268L474 268L491 172L146 172M323 907Q360 907 390 895.50Q420 884 441 862.50Q462 841 471 812Q480 792 471 779.50Q462 767 445 767Q427 767 416.50 775.50Q406 784 395 799Q385 816 367 825Q349 834 323 834Q296 834 278 825Q260 816 251 799Q241 784 230 775.50Q219 767 200 767Q184 767 175 779Q166 791 173 811Q183 841 204 862.50Q225 884 255.50 895.50Q286 907 323 907Z"  horiz-adv-x="642" vert-adv-y="1000"  />

      
      <glyph glyph-name="uni0100" unicode="&#x0100;" d="M331 570L106 30Q100 14 88 5Q76-4 61-4Q39-4 28 8.50Q17 21 16 40Q16 47 19 56L273 670Q280 687 293.50 696Q307 705 323 704Q338 704 351 695Q364 686 370 670L621 65Q625 55 625 45Q625 23 610.50 9.50Q596-4 578-4Q563-4 550.50 5.50Q538 15 532 30L305 567L331 570M146 172L191 268L474 268L491 172L146 172M201 762Q158 762 158 801Q158 839 201 839L447 839Q490 839 490 801Q490 762 447 762L201 762Z"  horiz-adv-x="642" vert-adv-y="1000"  />

      
      <glyph glyph-name="uni0104" unicode="&#x0104;" d="M538-201Q493-201 459.50-175.50Q426-150 426-98Q426-62 441.50-36.50Q457-11 481 6.50Q505 24 533 35Q561 46 585 53L584 21L541 10L305 567L331 570L106 30Q100 14 88 5Q76-4 61-4Q36-4 26.50 7Q17 18 17 38Q17 49 20 59L273 670Q280 687 293.50 696Q307 705 323 704Q338 704 351 695Q364 686 370 670L630 46Q633 38 633 31Q633 21 627 12Q621 3 607-1Q567-12 539-33Q511-54 511-80Q511-102 522.50-112Q534-122 547-122Q562-122 571-110Q578-100 588.50-96.50Q599-93 606-93Q621-93 632-103.50Q643-114 643-133Q643-148 628-164Q613-180 589-190.50Q565-201 538-201M160 172L191 268L474 268L491 172L160 172Z"  horiz-adv-x="645" vert-adv-y="1000"  />

      
      <glyph glyph-name="unic5" unicode="&#xc5;" d="M323 644Q294 644 269 658.50Q244 673 228.50 697Q213 721 213 749Q213 779 228.50 803Q244 827 269 841.50Q294 856 323 856Q352 856 377 841.50Q402 827 417.50 803Q433 779 433 749Q433 721 417.50 697Q402 673 377 658.50Q352 644 323 644M323 705Q344 705 357.50 717.50Q371 730 371 749Q371 772 356.50 784Q342 796 323 796Q302 796 288 783.50Q274 771 274 749Q274 730 288 717.50Q302 705 323 705M331 570L106 30Q100 14 88 5Q76-4 61-4Q39-4 28 8.50Q17 21 16 40Q16 47 19 56L273 670Q280 687 293.50 696Q307 705 323 704Q338 704 351 695Q364 686 370 670L621 65Q625 55 625 45Q625 23 610.50 9.50Q596-4 578-4Q563-4 550.50 5.50Q538 15 532 30L305 567L331 570M146 172L191 268L474 268L491 172L146 172Z"  horiz-adv-x="645" vert-adv-y="1000"  />

      
      <glyph glyph-name="uni01FA" unicode="&#x01FA;" d="M323 644Q294 644 269 658.50Q244 673 228.50 697Q213 721 213 749Q213 779 228.50 803Q244 827 269 841.50Q294 856 323 856Q352 856 377 841.50Q402 827 417.50 803Q433 779 433 749Q433 721 417.50 697Q402 673 377 658.50Q352 644 323 644M323 705Q344 705 357.50 717.50Q371 730 371 749Q371 772 356.50 784Q342 796 323 796Q302 796 288 783.50Q274 771 274 749Q274 730 288 717.50Q302 705 323 705M331 570L106 30Q100 14 88 5Q76-4 61-4Q39-4 28 8.50Q17 21 16 40Q16 47 19 56L273 670Q280 687 293.50 696Q307 705 323 704Q338 704 351 695Q364 686 370 670L621 65Q625 55 625 45Q625 23 610.50 9.50Q596-4 578-4Q563-4 550.50 5.50Q538 15 532 30L305 567L331 570M146 172L191 268L474 268L491 172L146 172M325 893Q309 893 299.50 901.50Q290 910 290 923Q290 929 293.50 935Q297 941 303 947L390 1020Q399 1028 410 1033.50Q421 1039 432 1039Q448 1039 463 1027.50Q478 1016 478 996Q478 983 470 970.50Q462 958 447 950L347 899Q342 895 336 894Q330 893 325 893Z"  horiz-adv-x="645" vert-adv-y="1000"  />

      
      <glyph glyph-name="unic3" unicode="&#xc3;" d="M331 570L106 30Q100 14 88 5Q76-4 61-4Q39-4 28 8.50Q17 21 16 40Q16 47 19 56L273 670Q280 687 293.50 696Q307 705 323 704Q338 704 351 695Q364 686 370 670L621 65Q625 55 625 45Q625 23 610.50 9.50Q596-4 578-4Q563-4 550.50 5.50Q538 15 532 30L305 567L331 570M146 172L191 268L474 268L491 172L146 172M190 748Q171 748 158 764.50Q145 781 146 810Q148 842 175 866.50Q202 891 249 891Q280 891 307.50 875.50Q335 860 359 845Q383 830 401 830Q413 830 420 837.50Q427 845 425 857Q420 876 430.50 887Q441 898 456 898Q476 898 489 881.50Q502 865 501 838Q500 819 489.50 800Q479 781 459.50 767.50Q440 754 410 754Q378 754 347.50 769.50Q317 785 291 800Q265 815 247 815Q236 815 228 808Q220 801 221 788Q226 770 215.50 759Q205 748 190 748Z"  horiz-adv-x="642" vert-adv-y="1000"  />

      
      <glyph glyph-name="unic6" unicode="&#xc6;" d="M190 246L442 246L424 214L424 546L443 536L89 16Q74-4 52-4Q36-4 21.50 8Q7 20 5 41Q5 58 16 75L437 678Q447 691 459 695.50Q471 700 484 700L803 700Q824 700 838.50 686Q853 672 853 651Q853 630 838.50 617Q824 604 803 604L518 604L528 613L528 386L519 403L758 403Q779 403 793.50 389Q808 375 808 354Q808 333 793.50 320Q779 307 758 307L518 307L528 320L528 74L519 96L803 96Q824 96 838.50 81.50Q853 67 853 48Q853 27 838.50 13.50Q824 0 803 0L475 0Q453 0 438.50 14.50Q424 29 424 51L424 165L447 152L136 152L190 246Z"  horiz-adv-x="896" vert-adv-y="1000"  />

      
      <glyph glyph-name="uni01FC" unicode="&#x01FC;" d="M190 246L442 246L424 214L424 546L443 536L89 16Q74-4 52-4Q36-4 21.50 8Q7 20 5 41Q5 58 16 75L437 678Q447 691 459 695.50Q471 700 484 700L803 700Q824 700 838.50 686Q853 672 853 651Q853 630 838.50 617Q824 604 803 604L518 604L528 613L528 386L519 403L758 403Q779 403 793.50 389Q808 375 808 354Q808 333 793.50 320Q779 307 758 307L518 307L528 320L528 74L519 96L803 96Q824 96 838.50 81.50Q853 67 853 48Q853 27 838.50 13.50Q824 0 803 0L475 0Q453 0 438.50 14.50Q424 29 424 51L424 165L447 152L136 152L190 246M607 741Q591 741 581.50 749.50Q572 758 572 771Q572 777 575.50 783Q579 789 585 795L672 868Q681 876 692 881.50Q703 887 714 887Q730 887 745 875.50Q760 864 760 844Q760 831 752 818.50Q744 806 729 798L629 747Q624 743 618 742Q612 741 607 741Z"  horiz-adv-x="896" vert-adv-y="1000"  />

      
      <glyph glyph-name="uni42" unicode="&#x42;" d="M388 700Q480 700 527.50 655Q575 610 575 524Q575 479 553.50 442.50Q532 406 490.50 385Q449 364 387 363L389 400Q422 400 460.50 391Q499 382 533 360Q567 338 589 300.50Q611 263 611 207Q611 146 591 105.50Q571 65 538 42Q505 19 465.50 9.50Q426 0 388 0L132 0Q111 0 96 14.50Q81 29 81 51L81 649Q81 671 96 685.50Q111 700 132 700L388 700M374 602L177 602L189 618L189 403L178 414L376 414Q412 415 439.50 438.50Q467 462 467 508Q467 555 442 578.50Q417 602 374 602M381 316L182 316L189 323L189 87L181 96L387 96Q439 96 471 123.50Q503 151 503 207Q503 254 484 277Q465 300 437 308Q409 316 381 316Z"  horiz-adv-x="654" vert-adv-y="1000"  />

      
      <glyph glyph-name="uni43" unicode="&#x43;" d="M578 660Q600 649 603.50 626Q607 603 592 584Q581 569 563.50 567Q546 565 529 574Q500 589 468 598Q436 607 400 607Q343 607 297.50 588.50Q252 570 219 535.50Q186 501 168.50 454Q151 407 151 350Q151 287 170 238.50Q189 190 222.50 156.50Q256 123 301.50 106.50Q347 90 400 90Q434 90 466.50 98Q499 106 528 122Q546 131 563.50 128.50Q581 126 592 111Q609 90 604.50 68.50Q600 47 579 36Q554 22 524 12Q494 2 463-4Q432-10 400-10Q328-10 264 14Q200 38 150 84Q100 130 71.50 197Q43 264 43 350Q43 427 69.50 492.50Q96 558 144.50 605.50Q193 653 258 679.50Q323 706 400 706Q448 706 493.50 694Q539 682 578 660Z"  horiz-adv-x="636" vert-adv-y="1000"  />

      
      <glyph glyph-name="uni0106" unicode="&#x0106;" d="M578 660Q600 649 603.50 626Q607 603 592 584Q581 569 563.50 567Q546 565 529 574Q500 589 468 598Q436 607 400 607Q343 607 297.50 588.50Q252 570 219 535.50Q186 501 168.50 454Q151 407 151 350Q151 287 170 238.50Q189 190 222.50 156.50Q256 123 301.50 106.50Q347 90 400 90Q434 90 466.50 98Q499 106 528 122Q546 131 563.50 128.50Q581 126 592 111Q609 90 604.50 68.50Q600 47 579 36Q554 22 524 12Q494 2 463-4Q432-10 400-10Q328-10 264 14Q200 38 150 84Q100 130 71.50 197Q43 264 43 350Q43 427 69.50 492.50Q96 558 144.50 605.50Q193 653 258 679.50Q323 706 400 706Q448 706 493.50 694Q539 682 578 660M375 741Q359 741 349.50 749.50Q340 758 340 771Q340 777 343.50 783Q347 789 353 795L440 868Q449 876 460 881.50Q471 887 482 887Q498 887 513 875.50Q528 864 528 844Q528 831 520 818.50Q512 806 497 798L397 747Q392 743 386 742Q380 741 375 741Z"  horiz-adv-x="636" vert-adv-y="1000"  />

      
      <glyph glyph-name="uni010C" unicode="&#x010C;" d="M578 660Q600 649 603.50 626Q607 603 592 584Q581 569 563.50 567Q546 565 529 574Q500 589 468 598Q436 607 400 607Q343 607 297.50 588.50Q252 570 219 535.50Q186 501 168.50 454Q151 407 151 350Q151 287 170 238.50Q189 190 222.50 156.50Q256 123 301.50 106.50Q347 90 400 90Q434 90 466.50 98Q499 106 528 122Q546 131 563.50 128.50Q581 126 592 111Q609 90 604.50 68.50Q600 47 579 36Q554 22 524 12Q494 2 463-4Q432-10 400-10Q328-10 264 14Q200 38 150 84Q100 130 71.50 197Q43 264 43 350Q43 427 69.50 492.50Q96 558 144.50 605.50Q193 653 258 679.50Q323 706 400 706Q448 706 493.50 694Q539 682 578 660M358 815L444 875Q458 884 468 888Q478 892 487 892Q499 892 506 885.50Q513 879 513 871Q513 865 510.50 859.50Q508 854 500 845L433 770Q422 757 410 751Q398 745 381 745L367 745Q350 745 338 751Q326 757 315 770L247 845Q240 854 237.50 859Q235 864 235 870Q235 878 242.50 885Q250 892 261 892Q278 892 304 875L390 816L358 815Z"  horiz-adv-x="636" vert-adv-y="1000"  />

      
      <glyph glyph-name="unic7" unicode="&#xc7;" d="M578 660Q600 649 603.50 626Q607 603 592 584Q581 569 563.50 567Q546 565 529 574Q500 589 468 598Q436 607 400 607Q343 607 297.50 588.50Q252 570 219 535.50Q186 501 168.50 454Q151 407 151 350Q151 287 170 238.50Q189 190 222.50 156.50Q256 123 301.50 106.50Q347 90 400 90Q434 90 466.50 98Q499 106 528 122Q546 131 563.50 128.50Q581 126 592 111Q609 90 604.50 68.50Q600 47 579 36Q554 22 524 12Q494 2 463-4Q432-10 400-10Q328-10 264 14Q200 38 150 84Q100 130 71.50 197Q43 264 43 350Q43 427 69.50 492.50Q96 558 144.50 605.50Q193 653 258 679.50Q323 706 400 706Q448 706 493.50 694Q539 682 578 660Z"  horiz-adv-x="636" vert-adv-y="1000"  />

      
      <glyph glyph-name="uni1E08" unicode="&#x1E08;" d="M578 660Q600 649 603.50 626Q607 603 592 584Q581 569 563.50 567Q546 565 529 574Q500 589 468 598Q436 607 400 607Q343 607 297.50 588.50Q252 570 219 535.50Q186 501 168.50 454Q151 407 151 350Q151 287 170 238.50Q189 190 222.50 156.50Q256 123 301.50 106.50Q347 90 400 90Q434 90 466.50 98Q499 106 528 122Q546 131 563.50 128.50Q581 126 592 111Q609 90 604.50 68.50Q600 47 579 36Q554 22 524 12Q494 2 463-4Q432-10 400-10Q328-10 264 14Q200 38 150 84Q100 130 71.50 197Q43 264 43 350Q43 427 69.50 492.50Q96 558 144.50 605.50Q193 653 258 679.50Q323 706 400 706Q448 706 493.50 694Q539 682 578 660M375 741Q359 741 349.50 749.50Q340 758 340 771Q340 777 343.50 783Q347 789 353 795L440 868Q449 876 460 881.50Q471 887 482 887Q498 887 513 875.50Q528 864 528 844Q528 831 520 818.50Q512 806 497 798L397 747Q392 743 386 742Q380 741 375 741Z"  horiz-adv-x="636" vert-adv-y="1000"  />

      
      <glyph glyph-name="uni0108" unicode="&#x0108;" d="M578 660Q600 649 603.50 626Q607 603 592 584Q581 569 563.50 567Q546 565 529 574Q500 589 468 598Q436 607 400 607Q343 607 297.50 588.50Q252 570 219 535.50Q186 501 168.50 454Q151 407 151 350Q151 287 170 238.50Q189 190 222.50 156.50Q256 123 301.50 106.50Q347 90 400 90Q434 90 466.50 98Q499 106 528 122Q546 131 563.50 128.50Q581 126 592 111Q609 90 604.50 68.50Q600 47 579 36Q554 22 524 12Q494 2 463-4Q432-10 400-10Q328-10 264 14Q200 38 150 84Q100 130 71.50 197Q43 264 43 350Q43 427 69.50 492.50Q96 558 144.50 605.50Q193 653 258 679.50Q323 706 400 706Q448 706 493.50 694Q539 682 578 660M387 822L302 766Q288 758 277.50 752.50Q267 747 259 747Q248 747 240 754Q232 761 232 769Q232 776 235 781Q238 786 245 794L313 870Q324 882 335.50 888.50Q347 895 364 895L379 895Q396 895 407.50 888.50Q419 882 431 870L498 795Q506 786 508.50 781Q511 776 511 769Q511 761 503.50 754Q496 747 485 747Q476 747 466 752.50Q456 758 442 766L356 821L387 822Z"  horiz-adv-x="636" vert-adv-y="1000"  />

      
      <glyph glyph-name="uni010A" unicode="&#x010A;" d="M578 660Q600 649 603.50 626Q607 603 592 584Q581 569 563.50 567Q546 565 529 574Q500 589 468 598Q436 607 400 607Q343 607 297.50 588.50Q252 570 219 535.50Q186 501 168.50 454Q151 407 151 350Q151 287 170 238.50Q189 190 222.50 156.50Q256 123 301.50 106.50Q347 90 400 90Q434 90 466.50 98Q499 106 528 122Q546 131 563.50 128.50Q581 126 592 111Q609 90 604.50 68.50Q600 47 579 36Q554 22 524 12Q494 2 463-4Q432-10 400-10Q328-10 264 14Q200 38 150 84Q100 130 71.50 197Q43 264 43 350Q43 427 69.50 492.50Q96 558 144.50 605.50Q193 653 258 679.50Q323 706 400 706Q448 706 493.50 694Q539 682 578 660M367 750Q338 750 325 761Q312 772 312 797L312 813Q312 839 326 849Q340 859 368 859Q398 859 411 849Q424 839 424 813L424 797Q424 771 410.50 760.50Q397 750 367 750Z"  horiz-adv-x="636" vert-adv-y="1000"  />

      
      <glyph glyph-name="uni44" unicode="&#x44;" d="M376 700Q449 700 505 672.50Q561 645 598.50 596.50Q636 548 655 484.50Q674 421 674 350Q674 253 640 173.50Q606 94 540 47Q474 0 376 0L132 0Q111 0 96 14.50Q81 29 81 51L81 649Q81 671 96 685.50Q111 700 132 700L376 700M366 96Q437 96 481 131Q525 166 545.50 223.50Q566 281 566 350Q566 401 554.50 446.50Q543 492 518.50 527.50Q494 563 456.50 583.50Q419 604 366 604L177 604L186 613L186 86L180 96L366 96Z"  horiz-adv-x="716" vert-adv-y="1000"  />

      
      <glyph glyph-name="uni01C4" unicode="&#x01C4;" d="M376 700Q449 700 505 672.50Q561 645 598.50 596.50Q636 548 655 484.50Q674 421 674 350Q674 253 640 173.50Q606 94 540 47Q474 0 376 0L132 0Q111 0 96 14.50Q81 29 81 51L81 649Q81 671 96 685.50Q111 700 132 700L376 700M366 96Q437 96 481 131Q525 166 545.50 223.50Q566 281 566 350Q566 401 554.50 446.50Q543 492 518.50 527.50Q494 563 456.50 583.50Q419 604 366 604L177 604L186 613L186 86L180 96L366 96Z"  horiz-adv-x="1363" vert-adv-y="1000"  />

      
      <glyph glyph-name="unid0" unicode="&#xd0;" d="M376 700Q449 700 505 672.50Q561 645 598.50 596.50Q636 548 655 484.50Q674 421 674 350Q674 253 640 173.50Q606 94 540 47Q474 0 376 0L132 0Q111 0 96 14.50Q81 29 81 51L81 649Q81 671 96 685.50Q111 700 132 700L376 700M366 96Q437 96 481 131Q525 166 545.50 223.50Q566 281 566 350Q566 401 554.50 446.50Q543 492 518.50 527.50Q494 563 456.50 583.50Q419 604 366 604L177 604L186 613L186 86L180 96L366 96M54 306Q32 306 17.50 318.50Q3 331 3 353Q3 372 17.50 385Q32 398 54 398L224 398Q246 398 260.50 385Q275 372 275 352Q275 331 260.50 318.50Q246 306 224 306L54 306Z"  horiz-adv-x="716" vert-adv-y="1000"  />

      
      <glyph glyph-name="uni010E" unicode="&#x010E;" d="M376 700Q449 700 505 672.50Q561 645 598.50 596.50Q636 548 655 484.50Q674 421 674 350Q674 253 640 173.50Q606 94 540 47Q474 0 376 0L132 0Q111 0 96 14.50Q81 29 81 51L81 649Q81 671 96 685.50Q111 700 132 700L376 700M366 96Q437 96 481 131Q525 166 545.50 223.50Q566 281 566 350Q566 401 554.50 446.50Q543 492 518.50 527.50Q494 563 456.50 583.50Q419 604 366 604L177 604L186 613L186 86L180 96L366 96M294 815L380 875Q394 884 404 888Q414 892 423 892Q435 892 442 885.50Q449 879 449 871Q449 865 446.50 859.50Q444 854 436 845L369 770Q358 757 346 751Q334 745 317 745L303 745Q286 745 274 751Q262 757 251 770L183 845Q176 854 173.50 859Q171 864 171 870Q171 878 178.50 885Q186 892 197 892Q214 892 240 875L326 816L294 815Z"  horiz-adv-x="716" vert-adv-y="1000"  />

      
      <glyph glyph-name="uni0110" unicode="&#x0110;" d="M376 700Q449 700 505 672.50Q561 645 598.50 596.50Q636 548 655 484.50Q674 421 674 350Q674 253 640 173.50Q606 94 540 47Q474 0 376 0L132 0Q111 0 96 14.50Q81 29 81 51L81 649Q81 671 96 685.50Q111 700 132 700L376 700M366 96Q437 96 481 131Q525 166 545.50 223.50Q566 281 566 350Q566 401 554.50 446.50Q543 492 518.50 527.50Q494 563 456.50 583.50Q419 604 366 604L177 604L186 613L186 86L180 96L366 96M54 306Q32 306 17.50 318.50Q3 331 3 353Q3 372 17.50 385Q32 398 54 398L224 398Q246 398 260.50 385Q275 372 275 352Q275 331 260.50 318.50Q246 306 224 306L54 306Z"  horiz-adv-x="716" vert-adv-y="1000"  />

      
      <glyph glyph-name="uni1E0C" unicode="&#x1E0C;" d="M376 700Q449 700 505 672.50Q561 645 598.50 596.50Q636 548 655 484.50Q674 421 674 350Q674 253 640 173.50Q606 94 540 47Q474 0 376 0L132 0Q111 0 96 14.50Q81 29 81 51L81 649Q81 671 96 685.50Q111 700 132 700L376 700M366 96Q437 96 481 131Q525 166 545.50 223.50Q566 281 566 350Q566 401 554.50 446.50Q543 492 518.50 527.50Q494 563 456.50 583.50Q419 604 366 604L177 604L186 613L186 86L180 96L366 96M318-144Q289-144 276-133.50Q263-123 263-98L263-82Q263-56 277-45.50Q291-35 318-35Q349-35 362-45.50Q375-56 375-82L375-98Q375-124 361.50-134Q348-144 318-144Z"  horiz-adv-x="716" vert-adv-y="1000"  />

      
      <glyph glyph-name="uni1E0E" unicode="&#x1E0E;" d="M376 700Q449 700 505 672.50Q561 645 598.50 596.50Q636 548 655 484.50Q674 421 674 350Q674 253 640 173.50Q606 94 540 47Q474 0 376 0L132 0Q111 0 96 14.50Q81 29 81 51L81 649Q81 671 96 685.50Q111 700 132 700L376 700M366 96Q437 96 481 131Q525 166 545.50 223.50Q566 281 566 350Q566 401 554.50 446.50Q543 492 518.50 527.50Q494 563 456.50 583.50Q419 604 366 604L177 604L186 613L186 86L180 96L366 96M212-143Q169-143 169-105Q169-67 212-67L443-67Q486-67 486-105Q486-143 443-143L212-143Z"  horiz-adv-x="716" vert-adv-y="1000"  />

      
      <glyph glyph-name="uni01F2" unicode="&#x01F2;" d="M376 700Q449 700 505 672.50Q561 645 598.50 596.50Q636 548 655 484.50Q674 421 674 350Q674 253 640 173.50Q606 94 540 47Q474 0 376 0L132 0Q111 0 96 14.50Q81 29 81 51L81 649Q81 671 96 685.50Q111 700 132 700L376 700M366 96Q437 96 481 131Q525 166 545.50 223.50Q566 281 566 350Q566 401 554.50 446.50Q543 492 518.50 527.50Q494 563 456.50 583.50Q419 604 366 604L177 604L186 613L186 86L180 96L366 96M1119 92Q1139 92 1152.50 79Q1166 66 1166 46Q1166 27 1152.50 13.50Q1139 0 1119 0L796 0Q775 0 762 15.50Q749 31 750 46Q751 58 753.50 67.50Q756 77 766 89L1033 443L1033 431L810 431Q790 431 776.50 444.50Q763 458 763 477Q763 497 776.50 510Q790 523 810 523L1118 523Q1137 523 1150.50 508.50Q1164 494 1162 473Q1162 464 1159.50 455.50Q1157 447 1148 436L885 86L881 92L1119 92Z"  horiz-adv-x="1198" vert-adv-y="1000"  />

      
      <glyph glyph-name="uni01C5" unicode="&#x01C5;" d="M376 700Q449 700 505 672.50Q561 645 598.50 596.50Q636 548 655 484.50Q674 421 674 350Q674 253 640 173.50Q606 94 540 47Q474 0 376 0L132 0Q111 0 96 14.50Q81 29 81 51L81 649Q81 671 96 685.50Q111 700 132 700L376 700M366 96Q437 96 481 131Q525 166 545.50 223.50Q566 281 566 350Q566 401 554.50 446.50Q543 492 518.50 527.50Q494 563 456.50 583.50Q419 604 366 604L177 604L186 613L186 86L180 96L366 96Z"  horiz-adv-x="1199" vert-adv-y="1000"  />

      
      <glyph glyph-name="uni45" unicode="&#x45;" d="M132 700L478 700Q499 700 513.50 686Q528 672 528 651Q528 630 513.50 617Q499 604 478 604L176 604L186 621L186 397L177 407L433 407Q454 407 468.50 393Q483 379 483 357Q483 336 468.50 323Q454 310 433 310L179 310L186 319L186 88L179 96L478 96Q499 96 513.50 81.50Q528 67 528 48Q528 27 513.50 13.50Q499 0 478 0L132 0Q111 0 96 14.50Q81 29 81 51L81 649Q81 671 96 685.50Q111 700 132 700Z"  horiz-adv-x="571" vert-adv-y="1000"  />

      
      <glyph glyph-name="unic9" unicode="&#xc9;" d="M132 700L478 700Q499 700 513.50 686Q528 672 528 651Q528 630 513.50 617Q499 604 478 604L176 604L186 621L186 397L177 407L433 407Q454 407 468.50 393Q483 379 483 357Q483 336 468.50 323Q454 310 433 310L179 310L186 319L186 88L179 96L478 96Q499 96 513.50 81.50Q528 67 528 48Q528 27 513.50 13.50Q499 0 478 0L132 0Q111 0 96 14.50Q81 29 81 51L81 649Q81 671 96 685.50Q111 700 132 700M312 741Q296 741 286.50 749.50Q277 758 277 771Q277 777 280.50 783Q284 789 290 795L377 868Q386 876 397 881.50Q408 887 419 887Q435 887 450 875.50Q465 864 465 844Q465 831 457 818.50Q449 806 434 798L334 747Q329 743 323 742Q317 741 312 741Z"  horiz-adv-x="571" vert-adv-y="1000"  />

      
      <glyph glyph-name="uni0114" unicode="&#x0114;" d="M132 700L478 700Q499 700 513.50 686Q528 672 528 651Q528 630 513.50 617Q499 604 478 604L176 604L186 621L186 397L177 407L433 407Q454 407 468.50 393Q483 379 483 357Q483 336 468.50 323Q454 310 433 310L179 310L186 319L186 88L179 96L478 96Q499 96 513.50 81.50Q528 67 528 48Q528 27 513.50 13.50Q499 0 478 0L132 0Q111 0 96 14.50Q81 29 81 51L81 649Q81 671 96 685.50Q111 700 132 700M310 764Q256 764 216 789Q176 814 159 859Q151 881 159.50 893.50Q168 906 185 906Q203 906 213 898Q223 890 235 875Q246 857 264.50 847Q283 837 310 837Q363 837 385 875Q397 890 407.50 898Q418 906 435 906Q453 906 461.50 894Q470 882 462 861Q445 814 405 789Q365 764 310 764Z"  horiz-adv-x="571" vert-adv-y="1000"  />

      
      <glyph glyph-name="uni011A" unicode="&#x011A;" d="M132 700L478 700Q499 700 513.50 686Q528 672 528 651Q528 630 513.50 617Q499 604 478 604L176 604L186 621L186 397L177 407L433 407Q454 407 468.50 393Q483 379 483 357Q483 336 468.50 323Q454 310 433 310L179 310L186 319L186 88L179 96L478 96Q499 96 513.50 81.50Q528 67 528 48Q528 27 513.50 13.50Q499 0 478 0L132 0Q111 0 96 14.50Q81 29 81 51L81 649Q81 671 96 685.50Q111 700 132 700M295 815L381 875Q395 884 405 888Q415 892 424 892Q436 892 443 885.50Q450 879 450 871Q450 865 447.50 859.50Q445 854 437 845L370 770Q359 757 347 751Q335 745 318 745L304 745Q287 745 275 751Q263 757 252 770L184 845Q177 854 174.50 859Q172 864 172 870Q172 878 179.50 885Q187 892 198 892Q215 892 241 875L327 816L295 815Z"  horiz-adv-x="571" vert-adv-y="1000"  />

      
      <glyph glyph-name="uni1E1C" unicode="&#x1E1C;" d="M132 700L478 700Q499 700 513.50 686Q528 672 528 651Q528 630 513.50 617Q499 604 478 604L176 604L186 621L186 397L177 407L433 407Q454 407 468.50 393Q483 379 483 357Q483 336 468.50 323Q454 310 433 310L179 310L186 319L186 88L179 96L478 96Q499 96 513.50 81.50Q528 67 528 48Q528 27 513.50 13.50Q499 0 478 0L132 0Q111 0 96 14.50Q81 29 81 51L81 649Q81 671 96 685.50Q111 700 132 700M310 764Q256 764 216 789Q176 814 159 859Q151 881 159.50 893.50Q168 906 185 906Q203 906 213 898Q223 890 235 875Q246 857 264.50 847Q283 837 310 837Q363 837 385 875Q397 890 407.50 898Q418 906 435 906Q453 906 461.50 894Q470 882 462 861Q445 814 405 789Q365 764 310 764Z"  horiz-adv-x="571" vert-adv-y="1000"  />

      
      <glyph glyph-name="unica" unicode="&#xca;" d="M132 700L478 700Q499 700 513.50 686Q528 672 528 651Q528 630 513.50 617Q499 604 478 604L176 604L186 621L186 397L177 407L433 407Q454 407 468.50 393Q483 379 483 357Q483 336 468.50 323Q454 310 433 310L179 310L186 319L186 88L179 96L478 96Q499 96 513.50 81.50Q528 67 528 48Q528 27 513.50 13.50Q499 0 478 0L132 0Q111 0 96 14.50Q81 29 81 51L81 649Q81 671 96 685.50Q111 700 132 700M325 822L240 766Q226 758 215.50 752.50Q205 747 197 747Q186 747 178 754Q170 761 170 769Q170 776 173 781Q176 786 183 794L251 870Q262 882 273.50 888.50Q285 895 302 895L317 895Q334 895 345.50 888.50Q357 882 369 870L436 795Q444 786 446.50 781Q449 776 449 769Q449 761 441.50 754Q434 747 423 747Q414 747 404 752.50Q394 758 380 766L294 821L325 822Z"  horiz-adv-x="571" vert-adv-y="1000"  />

      
      <glyph glyph-name="uni1EBE" unicode="&#x1EBE;" d="M132 700L478 700Q499 700 513.50 686Q528 672 528 651Q528 630 513.50 617Q499 604 478 604L176 604L186 621L186 397L177 407L433 407Q454 407 468.50 393Q483 379 483 357Q483 336 468.50 323Q454 310 433 310L179 310L186 319L186 88L179 96L478 96Q499 96 513.50 81.50Q528 67 528 48Q528 27 513.50 13.50Q499 0 478 0L132 0Q111 0 96 14.50Q81 29 81 51L81 649Q81 671 96 685.50Q111 700 132 700M325 822L240 766Q226 758 215.50 752.50Q205 747 197 747Q186 747 178 754Q170 761 170 769Q170 776 173 781Q176 786 183 794L251 870Q262 882 273.50 888.50Q285 895 302 895L317 895Q334 895 345.50 888.50Q357 882 369 870L436 795Q444 786 446.50 781Q449 776 449 769Q449 761 441.50 754Q434 747 423 747Q414 747 404 752.50Q394 758 380 766L294 821L325 822M479 818Q463 818 453.50 826.50Q444 835 444 848Q444 854 447.50 860Q451 866 457 872L544 945Q553 953 564 958.50Q575 964 586 964Q602 964 617 952.50Q632 941 632 921Q632 908 624 895.50Q616 883 601 875L501 824Q496 820 490 819Q484 818 479 818Z"  horiz-adv-x="571" vert-adv-y="1000"  />

      
      <glyph glyph-name="uni1EC6" unicode="&#x1EC6;" d="M132 700L478 700Q499 700 513.50 686Q528 672 528 651Q528 630 513.50 617Q499 604 478 604L176 604L186 621L186 397L177 407L433 407Q454 407 468.50 393Q483 379 483 357Q483 336 468.50 323Q454 310 433 310L179 310L186 319L186 88L179 96L478 96Q499 96 513.50 81.50Q528 67 528 48Q528 27 513.50 13.50Q499 0 478 0L132 0Q111 0 96 14.50Q81 29 81 51L81 649Q81 671 96 685.50Q111 700 132 700M294-144Q265-144 252-133.50Q239-123 239-98L239-82Q239-56 253-45.50Q267-35 294-35Q325-35 338-45.50Q351-56 351-82L351-98Q351-124 337.50-134Q324-144 294-144M325 822L240 766Q226 758 215.50 752.50Q205 747 197 747Q186 747 178 754Q170 761 170 769Q170 776 173 781Q176 786 183 794L251 870Q262 882 273.50 888.50Q285 895 302 895L317 895Q334 895 345.50 888.50Q357 882 369 870L436 795Q444 786 446.50 781Q449 776 449 769Q449 761 441.50 754Q434 747 423 747Q414 747 404 752.50Q394 758 380 766L294 821L325 822Z"  horiz-adv-x="571" vert-adv-y="1000"  />

      
      <glyph glyph-name="uni1EC0" unicode="&#x1EC0;" d="M132 700L478 700Q499 700 513.50 686Q528 672 528 651Q528 630 513.50 617Q499 604 478 604L176 604L186 621L186 397L177 407L433 407Q454 407 468.50 393Q483 379 483 357Q483 336 468.50 323Q454 310 433 310L179 310L186 319L186 88L179 96L478 96Q499 96 513.50 81.50Q528 67 528 48Q528 27 513.50 13.50Q499 0 478 0L132 0Q111 0 96 14.50Q81 29 81 51L81 649Q81 671 96 685.50Q111 700 132 700M325 822L240 766Q226 758 215.50 752.50Q205 747 197 747Q186 747 178 754Q170 761 170 769Q170 776 173 781Q176 786 183 794L251 870Q262 882 273.50 888.50Q285 895 302 895L317 895Q334 895 345.50 888.50Q357 882 369 870L436 795Q444 786 446.50 781Q449 776 449 769Q449 761 441.50 754Q434 747 423 747Q414 747 404 752.50Q394 758 380 766L294 821L325 822M448 880Q443 880 437.50 881.50Q432 883 426 886L327 937Q295 954 295 983Q295 1003 310 1014.50Q325 1026 341 1026Q353 1026 364 1020.50Q375 1015 383 1007L470 934Q477 928 480 922Q483 916 483 910Q483 897 473.50 888.50Q464 880 448 880Z"  horiz-adv-x="571" vert-adv-y="1000"  />

      
      <glyph glyph-name="uni1EC2" unicode="&#x1EC2;" d="M132 700L478 700Q499 700 513.50 686Q528 672 528 651Q528 630 513.50 617Q499 604 478 604L176 604L186 621L186 397L177 407L433 407Q454 407 468.50 393Q483 379 483 357Q483 336 468.50 323Q454 310 433 310L179 310L186 319L186 88L179 96L478 96Q499 96 513.50 81.50Q528 67 528 48Q528 27 513.50 13.50Q499 0 478 0L132 0Q111 0 96 14.50Q81 29 81 51L81 649Q81 671 96 685.50Q111 700 132 700M325 822L240 766Q226 758 215.50 752.50Q205 747 197 747Q186 747 178 754Q170 761 170 769Q170 776 173 781Q176 786 183 794L251 870Q262 882 273.50 888.50Q285 895 302 895L317 895Q334 895 345.50 888.50Q357 882 369 870L436 795Q444 786 446.50 781Q449 776 449 769Q449 761 441.50 754Q434 747 423 747Q414 747 404 752.50Q394 758 380 766L294 821L325 822M220 1137Q236 1150 254 1158Q272 1166 298 1166Q336 1166 357 1153Q378 1140 386 1120.50Q394 1101 394 1084Q394 1067 388 1054.50Q382 1042 370 1028Q361 1018 355.50 1010Q350 1002 350 993Q349 983 339.50 978Q330 973 315 973Q307 973 298.50 978Q290 983 290 994Q290 1003 294 1013Q298 1023 306 1033Q315 1045 323 1056Q331 1067 331 1077Q331 1090 320.50 1097.50Q310 1105 296 1105Q283 1105 272.50 1099.50Q262 1094 253 1087Q246 1082 236 1081.50Q226 1081 214 1092Q204 1104 207.50 1116.50Q211 1129 220 1137Z"  horiz-adv-x="571" vert-adv-y="1000"  />

      
      <glyph glyph-name="uni1EC4" unicode="&#x1EC4;" d="M132 700L478 700Q499 700 513.50 686Q528 672 528 651Q528 630 513.50 617Q499 604 478 604L176 604L186 621L186 397L177 407L433 407Q454 407 468.50 393Q483 379 483 357Q483 336 468.50 323Q454 310 433 310L179 310L186 319L186 88L179 96L478 96Q499 96 513.50 81.50Q528 67 528 48Q528 27 513.50 13.50Q499 0 478 0L132 0Q111 0 96 14.50Q81 29 81 51L81 649Q81 671 96 685.50Q111 700 132 700M325 822L240 766Q226 758 215.50 752.50Q205 747 197 747Q186 747 178 754Q170 761 170 769Q170 776 173 781Q176 786 183 794L251 870Q262 882 273.50 888.50Q285 895 302 895L317 895Q334 895 345.50 888.50Q357 882 369 870L436 795Q444 786 446.50 781Q449 776 449 769Q449 761 441.50 754Q434 747 423 747Q414 747 404 752.50Q394 758 380 766L294 821L325 822M177 898Q158 898 145 914.50Q132 931 133 960Q135 992 162 1016.50Q189 1041 236 1041Q267 1041 294.50 1025.50Q322 1010 346 995Q370 980 388 980Q400 980 407 987.50Q414 995 412 1007Q407 1026 417.50 1037Q428 1048 443 1048Q463 1048 476 1031.50Q489 1015 488 988Q487 969 476.50 950Q466 931 446.50 917.50Q427 904 397 904Q365 904 334.50 919.50Q304 935 278 950Q252 965 234 965Q223 965 215 958Q207 951 208 938Q213 920 202.50 909Q192 898 177 898Z"  horiz-adv-x="571" vert-adv-y="1000"  />

      
      <glyph glyph-name="uni0204" unicode="&#x0204;" d="M132 700L478 700Q499 700 513.50 686Q528 672 528 651Q528 630 513.50 617Q499 604 478 604L176 604L186 621L186 397L177 407L433 407Q454 407 468.50 393Q483 379 483 357Q483 336 468.50 323Q454 310 433 310L179 310L186 319L186 88L179 96L478 96Q499 96 513.50 81.50Q528 67 528 48Q528 27 513.50 13.50Q499 0 478 0L132 0Q111 0 96 14.50Q81 29 81 51L81 649Q81 671 96 685.50Q111 700 132 700M227 753Q222 753 216.50 755Q211 757 205 759L106 811Q74 828 74 857Q74 876 89 887.50Q104 899 120 899Q132 899 143 893.50Q154 888 162 881L249 807Q256 801 259 795.50Q262 790 262 783Q262 770 252.50 761.50Q243 753 227 753M421 760Q415 760 409.50 761.50Q404 763 398 766L299 817Q268 834 268 863Q268 883 282.50 894.50Q297 906 313 906Q325 906 336 900.50Q347 895 355 887L442 814Q449 808 452 802Q455 796 455 790Q455 777 446 768.50Q437 760 421 760Z"  horiz-adv-x="571" vert-adv-y="1000"  />

      
      <glyph glyph-name="unicb" unicode="&#xcb;" d="M132 700L478 700Q499 700 513.50 686Q528 672 528 651Q528 630 513.50 617Q499 604 478 604L176 604L186 621L186 397L177 407L433 407Q454 407 468.50 393Q483 379 483 357Q483 336 468.50 323Q454 310 433 310L179 310L186 319L186 88L179 96L478 96Q499 96 513.50 81.50Q528 67 528 48Q528 27 513.50 13.50Q499 0 478 0L132 0Q111 0 96 14.50Q81 29 81 51L81 649Q81 671 96 685.50Q111 700 132 700M404 765Q377 765 363.50 776Q350 787 350 812L350 827Q350 853 364 863.50Q378 874 404 874Q433 874 446.50 863Q460 852 460 827L460 812Q460 786 446 775.50Q432 765 404 765M214 765Q187 765 173.50 776Q160 787 160 812L160 827Q160 853 174 863.50Q188 874 215 874Q243 874 256.50 863Q270 852 270 827L270 812Q270 786 256 775.50Q242 765 214 765Z"  horiz-adv-x="571" vert-adv-y="1000"  />

      
      <glyph glyph-name="uni0116" unicode="&#x0116;" d="M132 700L478 700Q499 700 513.50 686Q528 672 528 651Q528 630 513.50 617Q499 604 478 604L176 604L186 621L186 397L177 407L433 407Q454 407 468.50 393Q483 379 483 357Q483 336 468.50 323Q454 310 433 310L179 310L186 319L186 88L179 96L478 96Q499 96 513.50 81.50Q528 67 528 48Q528 27 513.50 13.50Q499 0 478 0L132 0Q111 0 96 14.50Q81 29 81 51L81 649Q81 671 96 685.50Q111 700 132 700M309 750Q280 750 267 761Q254 772 254 797L254 813Q254 839 268 849Q282 859 310 859Q340 859 353 849Q366 839 366 813L366 797Q366 771 352.50 760.50Q339 750 309 750Z"  horiz-adv-x="571" vert-adv-y="1000"  />

      
      <glyph glyph-name="uni1EB8" unicode="&#x1EB8;" d="M132 700L478 700Q499 700 513.50 686Q528 672 528 651Q528 630 513.50 617Q499 604 478 604L176 604L186 621L186 397L177 407L433 407Q454 407 468.50 393Q483 379 483 357Q483 336 468.50 323Q454 310 433 310L179 310L186 319L186 88L179 96L478 96Q499 96 513.50 81.50Q528 67 528 48Q528 27 513.50 13.50Q499 0 478 0L132 0Q111 0 96 14.50Q81 29 81 51L81 649Q81 671 96 685.50Q111 700 132 700M294-144Q265-144 252-133.50Q239-123 239-98L239-82Q239-56 253-45.50Q267-35 294-35Q325-35 338-45.50Q351-56 351-82L351-98Q351-124 337.50-134Q324-144 294-144Z"  horiz-adv-x="571" vert-adv-y="1000"  />

      
      <glyph glyph-name="unic8" unicode="&#xc8;" d="M132 700L478 700Q499 700 513.50 686Q528 672 528 651Q528 630 513.50 617Q499 604 478 604L176 604L186 621L186 397L177 407L433 407Q454 407 468.50 393Q483 379 483 357Q483 336 468.50 323Q454 310 433 310L179 310L186 319L186 88L179 96L478 96Q499 96 513.50 81.50Q528 67 528 48Q528 27 513.50 13.50Q499 0 478 0L132 0Q111 0 96 14.50Q81 29 81 51L81 649Q81 671 96 685.50Q111 700 132 700M308 744Q303 744 297.50 745.50Q292 747 286 750L187 801Q155 818 155 847Q155 867 170 878.50Q185 890 201 890Q213 890 224 884.50Q235 879 243 871L330 798Q337 792 340 786Q343 780 343 774Q343 761 333.50 752.50Q324 744 308 744Z"  horiz-adv-x="571" vert-adv-y="1000"  />

      
      <glyph glyph-name="uni1EBA" unicode="&#x1EBA;" d="M132 700L478 700Q499 700 513.50 686Q528 672 528 651Q528 630 513.50 617Q499 604 478 604L176 604L186 621L186 397L177 407L433 407Q454 407 468.50 393Q483 379 483 357Q483 336 468.50 323Q454 310 433 310L179 310L186 319L186 88L179 96L478 96Q499 96 513.50 81.50Q528 67 528 48Q528 27 513.50 13.50Q499 0 478 0L132 0Q111 0 96 14.50Q81 29 81 51L81 649Q81 671 96 685.50Q111 700 132 700M220 920Q236 933 254 941Q272 949 298 949Q336 949 357 936Q378 923 386 903.50Q394 884 394 867Q394 850 388 837.50Q382 825 370 811Q361 801 355.50 793Q350 785 350 776Q349 766 339.50 761Q330 756 315 756Q307 756 298.50 761Q290 766 290 777Q290 786 294 796Q298 806 306 816Q315 828 323 839Q331 850 331 860Q331 873 320.50 880.50Q310 888 296 888Q283 888 272.50 882.50Q262 877 253 870Q246 865 236 864.50Q226 864 214 875Q204 887 207.50 899.50Q211 912 220 920Z"  horiz-adv-x="571" vert-adv-y="1000"  />

      
      <glyph glyph-name="uni0206" unicode="&#x0206;" d="M132 700L478 700Q499 700 513.50 686Q528 672 528 651Q528 630 513.50 617Q499 604 478 604L176 604L186 621L186 397L177 407L433 407Q454 407 468.50 393Q483 379 483 357Q483 336 468.50 323Q454 310 433 310L179 310L186 319L186 88L179 96L478 96Q499 96 513.50 81.50Q528 67 528 48Q528 27 513.50 13.50Q499 0 478 0L132 0Q111 0 96 14.50Q81 29 81 51L81 649Q81 671 96 685.50Q111 700 132 700M310 907Q347 907 377 895.50Q407 884 428 862.50Q449 841 458 812Q467 792 458 779.50Q449 767 432 767Q414 767 403.50 775.50Q393 784 382 799Q372 816 354 825Q336 834 310 834Q283 834 265 825Q247 816 238 799Q228 784 217 775.50Q206 767 187 767Q171 767 162 779Q153 791 160 811Q170 841 191 862.50Q212 884 242.50 895.50Q273 907 310 907Z"  horiz-adv-x="571" vert-adv-y="1000"  />

      
      <glyph glyph-name="uni0112" unicode="&#x0112;" d="M132 700L478 700Q499 700 513.50 686Q528 672 528 651Q528 630 513.50 617Q499 604 478 604L176 604L186 621L186 397L177 407L433 407Q454 407 468.50 393Q483 379 483 357Q483 336 468.50 323Q454 310 433 310L179 310L186 319L186 88L179 96L478 96Q499 96 513.50 81.50Q528 67 528 48Q528 27 513.50 13.50Q499 0 478 0L132 0Q111 0 96 14.50Q81 29 81 51L81 649Q81 671 96 685.50Q111 700 132 700M188 762Q145 762 145 801Q145 839 188 839L434 839Q477 839 477 801Q477 762 434 762L188 762Z"  horiz-adv-x="571" vert-adv-y="1000"  />

      
      <glyph glyph-name="uni1E16" unicode="&#x1E16;" d="M132 700L478 700Q499 700 513.50 686Q528 672 528 651Q528 630 513.50 617Q499 604 478 604L176 604L186 621L186 397L177 407L433 407Q454 407 468.50 393Q483 379 483 357Q483 336 468.50 323Q454 310 433 310L179 310L186 319L186 88L179 96L478 96Q499 96 513.50 81.50Q528 67 528 48Q528 27 513.50 13.50Q499 0 478 0L132 0Q111 0 96 14.50Q81 29 81 51L81 649Q81 671 96 685.50Q111 700 132 700M188 762Q145 762 145 801Q145 839 188 839L434 839Q477 839 477 801Q477 762 434 762L188 762M312 905Q296 905 286.50 913.50Q277 922 277 935Q277 941 280.50 947Q284 953 290 959L377 1032Q386 1040 397 1045.50Q408 1051 419 1051Q435 1051 450 1039.50Q465 1028 465 1008Q465 995 457 982.50Q449 970 434 962L334 911Q329 907 323 906Q317 905 312 905Z"  horiz-adv-x="571" vert-adv-y="1000"  />

      
      <glyph glyph-name="uni1E14" unicode="&#x1E14;" d="M132 700L478 700Q499 700 513.50 686Q528 672 528 651Q528 630 513.50 617Q499 604 478 604L176 604L186 621L186 397L177 407L433 407Q454 407 468.50 393Q483 379 483 357Q483 336 468.50 323Q454 310 433 310L179 310L186 319L186 88L179 96L478 96Q499 96 513.50 81.50Q528 67 528 48Q528 27 513.50 13.50Q499 0 478 0L132 0Q111 0 96 14.50Q81 29 81 51L81 649Q81 671 96 685.50Q111 700 132 700M188 762Q145 762 145 801Q145 839 188 839L434 839Q477 839 477 801Q477 762 434 762L188 762M308 908Q303 908 297.50 909.50Q292 911 286 914L187 965Q155 982 155 1011Q155 1031 170 1042.50Q185 1054 201 1054Q213 1054 224 1048.50Q235 1043 243 1035L330 962Q337 956 340 950Q343 944 343 938Q343 925 333.50 916.50Q324 908 308 908Z"  horiz-adv-x="571" vert-adv-y="1000"  />

      
      <glyph glyph-name="uni0118" unicode="&#x0118;" d="M409-201Q364-201 330.50-175.50Q297-150 297-98Q297-67 312.50-43Q328-19 353.50-1.50Q379 16 408 27.50Q437 39 463 46L459 0L132 0Q111 0 96 14.50Q81 29 81 51L81 649Q81 671 96 685.50Q111 700 132 700L478 700Q499 700 513.50 686Q528 672 528 651Q528 633 513.50 619Q499 605 478 605L176 605L186 622L186 397L177 407L433 407Q454 407 468.50 393Q483 379 483 357Q483 340 468.50 325Q454 310 433 310L179 310L186 319L186 88L179 96L478 96Q499 96 513.50 83Q528 70 528 48Q528 27 514 16Q500 5 478 0Q451-6 429-17.50Q407-29 394-45Q381-61 381-80Q381-101 392-111.50Q403-122 418-122Q433-122 441-111Q449-100 459.50-96.50Q470-93 477-93Q493-93 503.50-103.50Q514-114 514-133Q514-148 499-164Q484-180 460.50-190.50Q437-201 409-201Z"  horiz-adv-x="574" vert-adv-y="1000"  />

      
      <glyph glyph-name="uni1EBC" unicode="&#x1EBC;" d="M132 700L478 700Q499 700 513.50 686Q528 672 528 651Q528 630 513.50 617Q499 604 478 604L176 604L186 621L186 397L177 407L433 407Q454 407 468.50 393Q483 379 483 357Q483 336 468.50 323Q454 310 433 310L179 310L186 319L186 88L179 96L478 96Q499 96 513.50 81.50Q528 67 528 48Q528 27 513.50 13.50Q499 0 478 0L132 0Q111 0 96 14.50Q81 29 81 51L81 649Q81 671 96 685.50Q111 700 132 700M177 748Q158 748 145 764.50Q132 781 133 810Q135 842 162 866.50Q189 891 236 891Q267 891 294.50 875.50Q322 860 346 845Q370 830 388 830Q400 830 407 837.50Q414 845 412 857Q407 876 417.50 887Q428 898 443 898Q463 898 476 881.50Q489 865 488 838Q487 819 476.50 800Q466 781 446.50 767.50Q427 754 397 754Q365 754 334.50 769.50Q304 785 278 800Q252 815 234 815Q223 815 215 808Q207 801 208 788Q213 770 202.50 759Q192 748 177 748Z"  horiz-adv-x="571" vert-adv-y="1000"  />

      
      <glyph glyph-name="uni46" unicode="&#x46;" d="M134 0Q110 0 95.50 14.50Q81 29 81 51L81 649Q81 671 96 685.50Q111 700 132 700L470 700Q492 700 506.50 686Q521 672 521 651Q521 632 506.50 618Q492 604 470 604L178 604L185 614L185 391L179 403L425 403Q447 403 461.50 389Q476 375 476 354Q476 335 461.50 321Q447 307 425 307L177 307L185 315L185 51Q185 29 170 14.50Q155 0 134 0Z"  horiz-adv-x="563" vert-adv-y="1000"  />

      
      <glyph glyph-name="uni47" unicode="&#x47;" d="M406-10Q330-10 264 17.50Q198 45 148.50 94.50Q99 144 71 209Q43 274 43 350Q43 426 71 491Q99 556 148.50 605.50Q198 655 264 682.50Q330 710 406 710Q455 710 501 699Q547 688 584 667Q597 660 603 648.50Q609 637 609 626Q609 605 595.50 589.50Q582 574 562 574Q555 574 547.50 576Q540 578 534 581Q506 595 474 602.50Q442 610 406 610Q334 610 276 575.50Q218 541 184.50 482Q151 423 151 350Q151 278 184.50 218.50Q218 159 276 124.50Q334 90 406 90Q441 90 480 98.50Q519 107 546 121L538 94L538 284L554 270L423 270Q401 270 386.50 284Q372 298 372 320Q372 342 386.50 356Q401 370 423 370L596 370Q617 370 631.50 355.50Q646 341 646 319L646 97Q646 81 638 70Q630 59 620 52Q575 24 520.50 7Q466-10 406-10Z"  horiz-adv-x="696" vert-adv-y="1000"  />

      
      <glyph glyph-name="uni011E" unicode="&#x011E;" d="M406-10Q330-10 264 17.50Q198 45 148.50 94.50Q99 144 71 209Q43 274 43 350Q43 426 71 491Q99 556 148.50 605.50Q198 655 264 682.50Q330 710 406 710Q455 710 501 699Q547 688 584 667Q597 660 603 648.50Q609 637 609 626Q609 605 595.50 589.50Q582 574 562 574Q555 574 547.50 576Q540 578 534 581Q506 595 474 602.50Q442 610 406 610Q334 610 276 575.50Q218 541 184.50 482Q151 423 151 350Q151 278 184.50 218.50Q218 159 276 124.50Q334 90 406 90Q441 90 480 98.50Q519 107 546 121L538 94L538 284L554 270L423 270Q401 270 386.50 284Q372 298 372 320Q372 342 386.50 356Q401 370 423 370L596 370Q617 370 631.50 355.50Q646 341 646 319L646 97Q646 81 638 70Q630 59 620 52Q575 24 520.50 7Q466-10 406-10M385 764Q331 764 291 789Q251 814 234 859Q226 881 234.50 893.50Q243 906 260 906Q278 906 288 898Q298 890 310 875Q321 857 339.50 847Q358 837 385 837Q438 837 460 875Q472 890 482.50 898Q493 906 510 906Q528 906 536.50 894Q545 882 537 861Q520 814 480 789Q440 764 385 764Z"  horiz-adv-x="696" vert-adv-y="1000"  />

      
      <glyph glyph-name="uni01E6" unicode="&#x01E6;" d="M406-10Q330-10 264 17.50Q198 45 148.50 94.50Q99 144 71 209Q43 274 43 350Q43 426 71 491Q99 556 148.50 605.50Q198 655 264 682.50Q330 710 406 710Q455 710 501 699Q547 688 584 667Q597 660 603 648.50Q609 637 609 626Q609 605 595.50 589.50Q582 574 562 574Q555 574 547.50 576Q540 578 534 581Q506 595 474 602.50Q442 610 406 610Q334 610 276 575.50Q218 541 184.50 482Q151 423 151 350Q151 278 184.50 218.50Q218 159 276 124.50Q334 90 406 90Q441 90 480 98.50Q519 107 546 121L538 94L538 284L554 270L423 270Q401 270 386.50 284Q372 298 372 320Q372 342 386.50 356Q401 370 423 370L596 370Q617 370 631.50 355.50Q646 341 646 319L646 97Q646 81 638 70Q630 59 620 52Q575 24 520.50 7Q466-10 406-10M370 815L456 875Q470 884 480 888Q490 892 499 892Q511 892 518 885.50Q525 879 525 871Q525 865 522.50 859.50Q520 854 512 845L445 770Q434 757 422 751Q410 745 393 745L379 745Q362 745 350 751Q338 757 327 770L259 845Q252 854 249.50 859Q247 864 247 870Q247 878 254.50 885Q262 892 273 892Q290 892 316 875L402 816L370 815Z"  horiz-adv-x="696" vert-adv-y="1000"  />

      
      <glyph glyph-name="uni011C" unicode="&#x011C;" d="M406-10Q330-10 264 17.50Q198 45 148.50 94.50Q99 144 71 209Q43 274 43 350Q43 426 71 491Q99 556 148.50 605.50Q198 655 264 682.50Q330 710 406 710Q455 710 501 699Q547 688 584 667Q597 660 603 648.50Q609 637 609 626Q609 605 595.50 589.50Q582 574 562 574Q555 574 547.50 576Q540 578 534 581Q506 595 474 602.50Q442 610 406 610Q334 610 276 575.50Q218 541 184.50 482Q151 423 151 350Q151 278 184.50 218.50Q218 159 276 124.50Q334 90 406 90Q441 90 480 98.50Q519 107 546 121L538 94L538 284L554 270L423 270Q401 270 386.50 284Q372 298 372 320Q372 342 386.50 356Q401 370 423 370L596 370Q617 370 631.50 355.50Q646 341 646 319L646 97Q646 81 638 70Q630 59 620 52Q575 24 520.50 7Q466-10 406-10M400 822L315 766Q301 758 290.50 752.50Q280 747 272 747Q261 747 253 754Q245 761 245 769Q245 776 248 781Q251 786 258 794L326 870Q337 882 348.50 888.50Q360 895 377 895L392 895Q409 895 420.50 888.50Q432 882 444 870L511 795Q519 786 521.50 781Q524 776 524 769Q524 761 516.50 754Q509 747 498 747Q489 747 479 752.50Q469 758 455 766L369 821L400 822Z"  horiz-adv-x="696" vert-adv-y="1000"  />

      
      <glyph glyph-name="uni0122" unicode="&#x0122;" d="M406-10Q330-10 264 17.50Q198 45 148.50 94.50Q99 144 71 209Q43 274 43 350Q43 426 71 491Q99 556 148.50 605.50Q198 655 264 682.50Q330 710 406 710Q455 710 501 699Q547 688 584 667Q597 660 603 648.50Q609 637 609 626Q609 605 595.50 589.50Q582 574 562 574Q555 574 547.50 576Q540 578 534 581Q506 595 474 602.50Q442 610 406 610Q334 610 276 575.50Q218 541 184.50 482Q151 423 151 350Q151 278 184.50 218.50Q218 159 276 124.50Q334 90 406 90Q441 90 480 98.50Q519 107 546 121L538 94L538 284L554 270L423 270Q401 270 386.50 284Q372 298 372 320Q372 342 386.50 356Q401 370 423 370L596 370Q617 370 631.50 355.50Q646 341 646 319L646 97Q646 81 638 70Q630 59 620 52Q575 24 520.50 7Q466-10 406-10M474-105Q474-126 461.50-146.50Q449-167 428-180Q407-193 381-193Q358-193 347.50-183.50Q337-174 337-165Q337-153 343-148Q349-143 356-143Q361-143 369-145.50Q377-148 386-148Q396-147 402.50-139.50Q409-132 409-118Q409-106 399-106Q392-106 389-110Q386-114 373-114Q359-115 350-104.50Q341-94 341-78Q341-56 358-45Q375-34 403-34Q434-34 454-52.50Q474-71 474-105Z"  horiz-adv-x="696" vert-adv-y="1000"  />

      
      <glyph glyph-name="uni0120" unicode="&#x0120;" d="M406-10Q330-10 264 17.50Q198 45 148.50 94.50Q99 144 71 209Q43 274 43 350Q43 426 71 491Q99 556 148.50 605.50Q198 655 264 682.50Q330 710 406 710Q455 710 501 699Q547 688 584 667Q597 660 603 648.50Q609 637 609 626Q609 605 595.50 589.50Q582 574 562 574Q555 574 547.50 576Q540 578 534 581Q506 595 474 602.50Q442 610 406 610Q334 610 276 575.50Q218 541 184.50 482Q151 423 151 350Q151 278 184.50 218.50Q218 159 276 124.50Q334 90 406 90Q441 90 480 98.50Q519 107 546 121L538 94L538 284L554 270L423 270Q401 270 386.50 284Q372 298 372 320Q372 342 386.50 356Q401 370 423 370L596 370Q617 370 631.50 355.50Q646 341 646 319L646 97Q646 81 638 70Q630 59 620 52Q575 24 520.50 7Q466-10 406-10M384 750Q355 750 342 761Q329 772 329 797L329 813Q329 839 343 849Q357 859 385 859Q415 859 428 849Q441 839 441 813L441 797Q441 771 427.50 760.50Q414 750 384 750Z"  horiz-adv-x="696" vert-adv-y="1000"  />

      
      <glyph glyph-name="uni1E20" unicode="&#x1E20;" d="M406-10Q330-10 264 17.50Q198 45 148.50 94.50Q99 144 71 209Q43 274 43 350Q43 426 71 491Q99 556 148.50 605.50Q198 655 264 682.50Q330 710 406 710Q455 710 501 699Q547 688 584 667Q597 660 603 648.50Q609 637 609 626Q609 605 595.50 589.50Q582 574 562 574Q555 574 547.50 576Q540 578 534 581Q506 595 474 602.50Q442 610 406 610Q334 610 276 575.50Q218 541 184.50 482Q151 423 151 350Q151 278 184.50 218.50Q218 159 276 124.50Q334 90 406 90Q441 90 480 98.50Q519 107 546 121L538 94L538 284L554 270L423 270Q401 270 386.50 284Q372 298 372 320Q372 342 386.50 356Q401 370 423 370L596 370Q617 370 631.50 355.50Q646 341 646 319L646 97Q646 81 638 70Q630 59 620 52Q575 24 520.50 7Q466-10 406-10M264 762Q221 762 221 801Q221 839 264 839L510 839Q553 839 553 801Q553 762 510 762L264 762Z"  horiz-adv-x="696" vert-adv-y="1000"  />

      
      <glyph glyph-name="uni48" unicode="&#x48;" d="M135 700Q155 700 170.50 685.50Q186 671 186 649L186 51Q185 29 169.50 14.50Q154 0 133 0Q110 0 95.50 14.50Q81 29 81 51L81 649Q81 671 96 685.50Q111 700 135 700M586 700Q610 700 624 685.50Q638 671 638 649L638 51Q638 29 623.50 14.50Q609 0 585 0Q564 0 549 14.50Q534 29 534 51L534 649Q534 671 549.50 685.50Q565 700 586 700M131 402L587 402L586 306L130 306L131 402Z"  horiz-adv-x="719" vert-adv-y="1000"  />

      
      <glyph glyph-name="uni0126" unicode="&#x0126;" d="M98 490Q80 490 67.50 502.50Q55 515 55 533Q55 551 67.50 563Q80 575 98 575L716 575Q735 575 747 563Q759 551 759 532Q759 514 747 502Q735 490 716 490L98 490M182 700Q202 700 217.50 685.50Q233 671 233 649L233 51Q233 29 217 14.50Q201 0 180 0Q157 0 143 14.50Q129 29 129 51L129 649Q129 671 144 685.50Q159 700 182 700M634 700Q657 700 671 685.50Q685 671 685 649L685 51Q685 29 670.50 14.50Q656 0 632 0Q612 0 596.50 14.50Q581 29 581 51L581 649Q581 671 597 685.50Q613 700 634 700M178 402L634 402L634 306L177 306L178 402Z"  horiz-adv-x="814" vert-adv-y="1000"  />

      
      <glyph glyph-name="uni1E2A" unicode="&#x1E2A;" d="M135 700Q155 700 170.50 685.50Q186 671 186 649L186 51Q185 29 169.50 14.50Q154 0 133 0Q110 0 95.50 14.50Q81 29 81 51L81 649Q81 671 96 685.50Q111 700 135 700M586 700Q610 700 624 685.50Q638 671 638 649L638 51Q638 29 623.50 14.50Q609 0 585 0Q564 0 549 14.50Q534 29 534 51L534 649Q534 671 549.50 685.50Q565 700 586 700M131 402L587 402L586 306L130 306L131 402M361-175Q325-175 294.50-162Q264-149 242.50-126Q221-103 212-73Q204-52 213-39.50Q222-27 238-27Q257-27 268-35.50Q279-44 289-59Q298-79 316-90.50Q334-102 361-102Q387-102 405-90.50Q423-79 433-59Q444-44 454.50-35.50Q465-27 483-27Q500-27 509-39Q518-51 510-71Q501-102 479.50-125.50Q458-149 428-162Q398-175 361-175Z"  horiz-adv-x="719" vert-adv-y="1000"  />

      
      <glyph glyph-name="uni0124" unicode="&#x0124;" d="M135 700Q155 700 170.50 685.50Q186 671 186 649L186 51Q185 29 169.50 14.50Q154 0 133 0Q110 0 95.50 14.50Q81 29 81 51L81 649Q81 671 96 685.50Q111 700 135 700M586 700Q610 700 624 685.50Q638 671 638 649L638 51Q638 29 623.50 14.50Q609 0 585 0Q564 0 549 14.50Q534 29 534 51L534 649Q534 671 549.50 685.50Q565 700 586 700M131 402L587 402L586 306L130 306L131 402M375 822L290 766Q276 758 265.50 752.50Q255 747 247 747Q236 747 228 754Q220 761 220 769Q220 776 223 781Q226 786 233 794L301 870Q312 882 323.50 888.50Q335 895 352 895L367 895Q384 895 395.50 888.50Q407 882 419 870L486 795Q494 786 496.50 781Q499 776 499 769Q499 761 491.50 754Q484 747 473 747Q464 747 454 752.50Q444 758 430 766L344 821L375 822Z"  horiz-adv-x="719" vert-adv-y="1000"  />

      
      <glyph glyph-name="uni1E24" unicode="&#x1E24;" d="M135 700Q155 700 170.50 685.50Q186 671 186 649L186 51Q185 29 169.50 14.50Q154 0 133 0Q110 0 95.50 14.50Q81 29 81 51L81 649Q81 671 96 685.50Q111 700 135 700M586 700Q610 700 624 685.50Q638 671 638 649L638 51Q638 29 623.50 14.50Q609 0 585 0Q564 0 549 14.50Q534 29 534 51L534 649Q534 671 549.50 685.50Q565 700 586 700M131 402L587 402L586 306L130 306L131 402M359-144Q330-144 317-133.50Q304-123 304-98L304-82Q304-56 318-45.50Q332-35 359-35Q390-35 403-45.50Q416-56 416-82L416-98Q416-124 402.50-134Q389-144 359-144Z"  horiz-adv-x="719" vert-adv-y="1000"  />

      
      <glyph glyph-name="uni49" unicode="&#x49;" d="M186 51Q185 29 169.50 14.50Q154 0 133 0Q110 0 95.50 14.50Q81 29 81 51L81 649Q81 671 96 685.50Q111 700 135 700Q155 700 170.50 685.50Q186 671 186 649L186 51Z"  horiz-adv-x="267" vert-adv-y="1000"  />

      
      <glyph glyph-name="uni0132" unicode="&#x0132;" d="M194 299Q194 277 178 262.50Q162 248 142 248Q118 248 104 262.50Q90 277 90 299L90 649Q90 671 105 685.50Q120 700 143 700Q163 700 178.50 685.50Q194 671 194 649L194 299M278-10Q219-10 169.50 17Q120 44 91 92Q81 107 81 120Q81 141 97.50 155Q114 169 130 169Q143 169 155 161.50Q167 154 177 143Q196 117 221 103.50Q246 90 278 90Q313 90 342 106.50Q371 123 388.50 151.50Q406 180 406 214L406 649Q406 671 421.50 685.50Q437 700 458 700Q482 700 496 685.50Q510 671 510 649L510 214Q510 153 479.50 102Q449 51 396.50 20.50Q344-10 278-10Z"  horiz-adv-x="591" vert-adv-y="1000"  />

      
      <glyph glyph-name="unicd" unicode="&#xcd;" d="M186 51Q185 29 169.50 14.50Q154 0 133 0Q110 0 95.50 14.50Q81 29 81 51L81 649Q81 671 96 685.50Q111 700 135 700Q155 700 170.50 685.50Q186 671 186 649L186 51M137 741Q121 741 111.50 749.50Q102 758 102 771Q102 777 105.50 783Q109 789 115 795L202 868Q211 876 222 881.50Q233 887 244 887Q260 887 275 875.50Q290 864 290 844Q290 831 282 818.50Q274 806 259 798L159 747Q154 743 148 742Q142 741 137 741Z"  horiz-adv-x="267" vert-adv-y="1000"  />

      
      <glyph glyph-name="uni012C" unicode="&#x012C;" d="M186 51Q185 29 169.50 14.50Q154 0 133 0Q110 0 95.50 14.50Q81 29 81 51L81 649Q81 671 96 685.50Q111 700 135 700Q155 700 170.50 685.50Q186 671 186 649L186 51M135 764Q81 764 41 789Q1 814-16 859Q-24 881-15.50 893.50Q-7 906 10 906Q28 906 38 898Q48 890 60 875Q71 857 89.50 847Q108 837 135 837Q188 837 210 875Q222 890 232.50 898Q243 906 260 906Q278 906 286.50 894Q295 882 287 861Q270 814 230 789Q190 764 135 764Z"  horiz-adv-x="267" vert-adv-y="1000"  />

      
      <glyph glyph-name="uni01CF" unicode="&#x01CF;" d="M186 51Q185 29 169.50 14.50Q154 0 133 0Q110 0 95.50 14.50Q81 29 81 51L81 649Q81 671 96 685.50Q111 700 135 700Q155 700 170.50 685.50Q186 671 186 649L186 51M120 815L206 875Q220 884 230 888Q240 892 249 892Q261 892 268 885.50Q275 879 275 871Q275 865 272.50 859.50Q270 854 262 845L195 770Q184 757 172 751Q160 745 143 745L129 745Q112 745 100 751Q88 757 77 770L9 845Q2 854-0.50 859Q-3 864-3 870Q-3 878 4.50 885Q12 892 23 892Q40 892 66 875L152 816L120 815Z"  horiz-adv-x="267" vert-adv-y="1000"  />

      
      <glyph glyph-name="unice" unicode="&#xce;" d="M186 51Q185 29 169.50 14.50Q154 0 133 0Q110 0 95.50 14.50Q81 29 81 51L81 649Q81 671 96 685.50Q111 700 135 700Q155 700 170.50 685.50Q186 671 186 649L186 51M150 822L65 766Q51 758 40.50 752.50Q30 747 22 747Q11 747 3 754Q-5 761-5 769Q-5 776-2 781Q1 786 8 794L76 870Q87 882 98.50 888.50Q110 895 127 895L142 895Q159 895 170.50 888.50Q182 882 194 870L261 795Q269 786 271.50 781Q274 776 274 769Q274 761 266.50 754Q259 747 248 747Q239 747 229 752.50Q219 758 205 766L119 821L150 822Z"  horiz-adv-x="267" vert-adv-y="1000"  />

      
      <glyph glyph-name="uni0208" unicode="&#x0208;" d="M186 51Q185 29 169.50 14.50Q154 0 133 0Q110 0 95.50 14.50Q81 29 81 51L81 649Q81 671 96 685.50Q111 700 135 700Q155 700 170.50 685.50Q186 671 186 649L186 51M52 753Q47 753 41.50 755Q36 757 30 759L-69 811Q-101 828-101 857Q-101 876-86 887.50Q-71 899-55 899Q-43 899-32 893.50Q-21 888-13 881L74 807Q81 801 84 795.50Q87 790 87 783Q87 770 77.50 761.50Q68 753 52 753M246 760Q240 760 234.50 761.50Q229 763 223 766L124 817Q93 834 93 863Q93 883 107.50 894.50Q122 906 138 906Q150 906 161 900.50Q172 895 180 887L267 814Q274 808 277 802Q280 796 280 790Q280 777 271 768.50Q262 760 246 760Z"  horiz-adv-x="267" vert-adv-y="1000"  />

      
      <glyph glyph-name="unicf" unicode="&#xcf;" d="M186 51Q185 29 169.50 14.50Q154 0 133 0Q110 0 95.50 14.50Q81 29 81 51L81 649Q81 671 96 685.50Q111 700 135 700Q155 700 170.50 685.50Q186 671 186 649L186 51M230 765Q203 765 189.50 776Q176 787 176 812L176 827Q176 853 190 863.50Q204 874 230 874Q259 874 272.50 863Q286 852 286 827L286 812Q286 786 272 775.50Q258 765 230 765M40 765Q13 765-0.50 776Q-14 787-14 812L-14 827Q-14 853 0 863.50Q14 874 41 874Q69 874 82.50 863Q96 852 96 827L96 812Q96 786 82 775.50Q68 765 40 765Z"  horiz-adv-x="267" vert-adv-y="1000"  />

      
      <glyph glyph-name="uni1E2E" unicode="&#x1E2E;" d="M186 51Q185 29 169.50 14.50Q154 0 133 0Q110 0 95.50 14.50Q81 29 81 51L81 649Q81 671 96 685.50Q111 700 135 700Q155 700 170.50 685.50Q186 671 186 649L186 51M230 765Q203 765 189.50 776Q176 787 176 812L176 827Q176 853 190 863.50Q204 874 230 874Q259 874 272.50 863Q286 852 286 827L286 812Q286 786 272 775.50Q258 765 230 765M40 765Q13 765-0.50 776Q-14 787-14 812L-14 827Q-14 853 0 863.50Q14 874 41 874Q69 874 82.50 863Q96 852 96 827L96 812Q96 786 82 775.50Q68 765 40 765M137 930Q121 930 111.50 938.50Q102 947 102 960Q102 966 105.50 972Q109 978 115 984L202 1057Q211 1065 222 1070.50Q233 1076 244 1076Q260 1076 275 1064.50Q290 1053 290 1033Q290 1020 282 1007.50Q274 995 259 987L159 936Q154 932 148 931Q142 930 137 930Z"  horiz-adv-x="267" vert-adv-y="1000"  />

      
      <glyph glyph-name="uni0130" unicode="&#x0130;" d="M186 51Q185 29 169.50 14.50Q154 0 133 0Q110 0 95.50 14.50Q81 29 81 51L81 649Q81 671 96 685.50Q111 700 135 700Q155 700 170.50 685.50Q186 671 186 649L186 51M134 750Q105 750 92 761Q79 772 79 797L79 813Q79 839 93 849Q107 859 135 859Q165 859 178 849Q191 839 191 813L191 797Q191 771 177.50 760.50Q164 750 134 750Z"  horiz-adv-x="267" vert-adv-y="1000"  />

      
      <glyph glyph-name="uni1ECA" unicode="&#x1ECA;" d="M186 51Q185 29 169.50 14.50Q154 0 133 0Q110 0 95.50 14.50Q81 29 81 51L81 649Q81 671 96 685.50Q111 700 135 700Q155 700 170.50 685.50Q186 671 186 649L186 51M134-144Q105-144 92-133.50Q79-123 79-98L79-82Q79-56 93-45.50Q107-35 134-35Q165-35 178-45.50Q191-56 191-82L191-98Q191-124 177.50-134Q164-144 134-144Z"  horiz-adv-x="267" vert-adv-y="1000"  />

      
      <glyph glyph-name="unicc" unicode="&#xcc;" d="M186 51Q185 29 169.50 14.50Q154 0 133 0Q110 0 95.50 14.50Q81 29 81 51L81 649Q81 671 96 685.50Q111 700 135 700Q155 700 170.50 685.50Q186 671 186 649L186 51M134 744Q129 744 123.50 745.50Q118 747 112 750L13 801Q-19 818-19 847Q-19 867-4 878.50Q11 890 27 890Q39 890 50 884.50Q61 879 69 871L156 798Q163 792 166 786Q169 780 169 774Q169 761 159.50 752.50Q150 744 134 744Z"  horiz-adv-x="267" vert-adv-y="1000"  />

      
      <glyph glyph-name="uni1EC8" unicode="&#x1EC8;" d="M186 51Q185 29 169.50 14.50Q154 0 133 0Q110 0 95.50 14.50Q81 29 81 51L81 649Q81 671 96 685.50Q111 700 135 700Q155 700 170.50 685.50Q186 671 186 649L186 51M45 920Q61 933 79 941Q97 949 123 949Q161 949 182 936Q203 923 211 903.50Q219 884 219 867Q219 850 213 837.50Q207 825 195 811Q186 801 180.50 793Q175 785 175 776Q174 766 164.50 761Q155 756 140 756Q132 756 123.50 761Q115 766 115 777Q115 786 119 796Q123 806 131 816Q140 828 148 839Q156 850 156 860Q156 873 145.50 880.50Q135 888 121 888Q108 888 97.50 882.50Q87 877 78 870Q71 865 61 864.50Q51 864 39 875Q29 887 32.50 899.50Q36 912 45 920Z"  horiz-adv-x="267" vert-adv-y="1000"  />

      
      <glyph glyph-name="uni020A" unicode="&#x020A;" d="M186 51Q185 29 169.50 14.50Q154 0 133 0Q110 0 95.50 14.50Q81 29 81 51L81 649Q81 671 96 685.50Q111 700 135 700Q155 700 170.50 685.50Q186 671 186 649L186 51M135 907Q172 907 202 895.50Q232 884 253 862.50Q274 841 283 812Q292 792 283 779.50Q274 767 257 767Q239 767 228.50 775.50Q218 784 207 799Q197 816 179 825Q161 834 135 834Q108 834 90 825Q72 816 63 799Q53 784 42 775.50Q31 767 12 767Q-4 767-13 779Q-22 791-15 811Q-5 841 16 862.50Q37 884 67.50 895.50Q98 907 135 907Z"  horiz-adv-x="267" vert-adv-y="1000"  />

      
      <glyph glyph-name="uni012A" unicode="&#x012A;" d="M186 51Q185 29 169.50 14.50Q154 0 133 0Q110 0 95.50 14.50Q81 29 81 51L81 649Q81 671 96 685.50Q111 700 135 700Q155 700 170.50 685.50Q186 671 186 649L186 51M14 762Q-29 762-29 801Q-29 839 14 839L260 839Q303 839 303 801Q303 762 260 762L14 762Z"  horiz-adv-x="267" vert-adv-y="1000"  />

      
      <glyph glyph-name="uni012E" unicode="&#x012E;" d="M96-201Q51-201 17.50-175.50Q-16-150-16-98Q-16-62-1.50-36.50Q13-11 37 6.50Q61 24 88.50 35Q116 46 143 53L130 5L81 31L81 649Q81 671 96.50 685.50Q112 700 136 700Q159 700 174 685.50Q189 671 189 649L189 34Q189 24 184 14.50Q179 5 164 0Q125-12 96.50-32Q68-52 68-80Q68-101 79.50-111.50Q91-122 105-122Q118-122 126-115Q134-108 143-100.50Q152-93 165-93Q180-93 190.50-103.50Q201-114 201-133Q201-148 186.50-164Q172-180 148-190.50Q124-201 96-201Z"  horiz-adv-x="265" vert-adv-y="1000"  />

      
      <glyph glyph-name="uni0128" unicode="&#x0128;" d="M186 51Q185 29 169.50 14.50Q154 0 133 0Q110 0 95.50 14.50Q81 29 81 51L81 649Q81 671 96 685.50Q111 700 135 700Q155 700 170.50 685.50Q186 671 186 649L186 51M2 748Q-17 748-30 764.50Q-43 781-42 810Q-40 842-13 866.50Q14 891 61 891Q92 891 119.50 875.50Q147 860 171 845Q195 830 213 830Q225 830 232 837.50Q239 845 237 857Q232 876 242.50 887Q253 898 268 898Q288 898 301 881.50Q314 865 313 838Q312 819 301.50 800Q291 781 271.50 767.50Q252 754 222 754Q190 754 159.50 769.50Q129 785 103 800Q77 815 59 815Q48 815 40 808Q32 801 33 788Q38 770 27.50 759Q17 748 2 748Z"  horiz-adv-x="267" vert-adv-y="1000"  />

      
      <glyph glyph-name="uni4a" unicode="&#x4a;" d="M245-10Q186-10 137 17Q88 44 58 92Q49 107 49 120Q49 141 65 155Q81 169 97 169Q111 169 122.50 161.50Q134 154 144 143Q164 117 189 103.50Q214 90 245 90Q281 90 310 106.50Q339 123 356 151.50Q373 180 373 214L373 649Q373 671 389 685.50Q405 700 426 700Q449 700 463 685.50Q477 671 477 649L477 214Q477 153 446.50 102Q416 51 363.50 20.50Q311-10 245-10Z"  horiz-adv-x="559" vert-adv-y="1000"  />

      
      <glyph glyph-name="uni0134" unicode="&#x0134;" d="M245-10Q186-10 137 17Q88 44 58 92Q49 107 49 120Q49 141 65 155Q81 169 97 169Q111 169 122.50 161.50Q134 154 144 143Q164 117 189 103.50Q214 90 245 90Q281 90 310 106.50Q339 123 356 151.50Q373 180 373 214L373 649Q373 671 389 685.50Q405 700 426 700Q449 700 463 685.50Q477 671 477 649L477 214Q477 153 446.50 102Q416 51 363.50 20.50Q311-10 245-10M440 822L355 766Q341 758 330.50 752.50Q320 747 312 747Q301 747 293 754Q285 761 285 769Q285 776 288 781Q291 786 298 794L366 870Q377 882 388.50 888.50Q400 895 417 895L432 895Q449 895 460.50 888.50Q472 882 484 870L551 795Q559 786 561.50 781Q564 776 564 769Q564 761 556.50 754Q549 747 538 747Q529 747 519 752.50Q509 758 495 766L409 821L440 822Z"  horiz-adv-x="559" vert-adv-y="1000"  />

      
      <glyph glyph-name="uni4b" unicode="&#x4b;" d="M569-1Q546-1 532 18L283 339L360 417L614 86Q626 70 626 51Q626 27 608 13Q590-1 569-1M574 703Q594 703 607 687Q620 671 620 654Q620 636 605 621L174 212L168 330L534 684Q552 703 574 703M133 0Q110 0 95.50 14.50Q81 29 81 51L81 649Q81 671 96 685.50Q111 700 135 700Q158 700 172 685.50Q186 671 186 649L186 51Q185 29 171 14.50Q157 0 133 0Z"  horiz-adv-x="662" vert-adv-y="1000"  />

      
      <glyph glyph-name="uni0136" unicode="&#x0136;" d="M569-1Q546-1 532 18L283 339L360 417L614 86Q626 70 626 51Q626 27 608 13Q590-1 569-1M574 703Q594 703 607 687Q620 671 620 654Q620 636 605 621L174 212L168 330L534 684Q552 703 574 703M133 0Q110 0 95.50 14.50Q81 29 81 51L81 649Q81 671 96 685.50Q111 700 135 700Q158 700 172 685.50Q186 671 186 649L186 51Q185 29 171 14.50Q157 0 133 0M397-105Q397-126 384.50-146.50Q372-167 351-180Q330-193 304-193Q281-193 270.50-183.50Q260-174 260-165Q260-153 266-148Q272-143 279-143Q284-143 292-145.50Q300-148 309-148Q319-147 325.50-139.50Q332-132 332-118Q332-106 322-106Q315-106 312-110Q309-114 296-114Q282-115 273-104.50Q264-94 264-78Q264-56 281-45Q298-34 326-34Q357-34 377-52.50Q397-71 397-105Z"  horiz-adv-x="662" vert-adv-y="1000"  />

      
      <glyph glyph-name="uni4c" unicode="&#x4c;" d="M468 98Q489 98 503.50 84Q518 70 518 49Q518 28 503.50 14Q489 0 468 0L132 0Q110 0 95.50 14.50Q81 29 81 51L81 649Q81 671 96 685.50Q111 700 135 700Q155 700 170.50 685.50Q186 671 186 649L186 81L165 98L468 98Z"  horiz-adv-x="552" vert-adv-y="1000"  />

      
      <glyph glyph-name="uni01C7" unicode="&#x01C7;" d="M468 98Q489 98 503.50 84Q518 70 518 49Q518 28 503.50 14Q489 0 468 0L132 0Q110 0 95.50 14.50Q81 29 81 51L81 649Q81 671 96 685.50Q111 700 135 700Q155 700 170.50 685.50Q186 671 186 649L186 81L165 98L468 98M797-10Q738-10 689 17Q640 44 610 92Q601 107 601 120Q601 141 617 155Q633 169 649 169Q663 169 674.50 161.50Q686 154 696 143Q716 117 741 103.50Q766 90 797 90Q833 90 862 106.50Q891 123 908 151.50Q925 180 925 214L925 649Q925 671 941 685.50Q957 700 978 700Q1001 700 1015 685.50Q1029 671 1029 649L1029 214Q1029 153 998.50 102Q968 51 915.50 20.50Q863-10 797-10Z"  horiz-adv-x="1111" vert-adv-y="1000"  />

      
      <glyph glyph-name="uni0139" unicode="&#x0139;" d="M468 98Q489 98 503.50 84Q518 70 518 49Q518 28 503.50 14Q489 0 468 0L132 0Q110 0 95.50 14.50Q81 29 81 51L81 649Q81 671 96 685.50Q111 700 135 700Q155 700 170.50 685.50Q186 671 186 649L186 81L165 98L468 98M128 741Q112 741 102.50 749.50Q93 758 93 771Q93 777 96.50 783Q100 789 106 795L193 868Q202 876 213 881.50Q224 887 235 887Q251 887 266 875.50Q281 864 281 844Q281 831 273 818.50Q265 806 250 798L150 747Q145 743 139 742Q133 741 128 741Z"  horiz-adv-x="552" vert-adv-y="1000"  />

      
      <glyph glyph-name="uni013D" unicode="&#x013D;" d="M468 100Q489 100 503.50 85.50Q518 71 518 49Q518 28 503.50 14Q489 0 468 0L132 0Q110 0 95.50 14.50Q81 29 81 51L81 649Q81 671 96 685.50Q111 700 132 700Q154 700 167.50 685.50Q181 671 181 649L181 109Q181 100 190 100L468 100M517 597Q517 579 508 555.50Q499 532 483 510Q467 488 448 474Q429 460 408 460Q391 460 379 467.50Q367 475 367 494Q367 514 380.50 518.50Q394 523 405 527Q419 535 426.50 545.50Q434 556 434 571Q434 582 425 590Q416 598 401 598Q395 598 387 596Q379 594 373 590Q365 595 358.50 602Q352 609 353 624Q353 642 366 656.50Q379 671 398 679.50Q417 688 435 688Q472 688 494.50 664.50Q517 641 517 597Z"  horiz-adv-x="552" vert-adv-y="1000"  />

      
      <glyph glyph-name="uni013B" unicode="&#x013B;" d="M468 98Q489 98 503.50 84Q518 70 518 49Q518 28 503.50 14Q489 0 468 0L132 0Q110 0 95.50 14.50Q81 29 81 51L81 649Q81 671 96 685.50Q111 700 135 700Q155 700 170.50 685.50Q186 671 186 649L186 81L165 98L468 98M358-105Q358-126 345.50-146.50Q333-167 312-180Q291-193 265-193Q242-193 231.50-183.50Q221-174 221-165Q221-153 227-148Q233-143 240-143Q245-143 253-145.50Q261-148 270-148Q280-147 286.50-139.50Q293-132 293-118Q293-106 283-106Q276-106 273-110Q270-114 257-114Q243-115 234-104.50Q225-94 225-78Q225-56 242-45Q259-34 287-34Q318-34 338-52.50Q358-71 358-105Z"  horiz-adv-x="552" vert-adv-y="1000"  />

      
      <glyph glyph-name="uni013F" unicode="&#x013F;" d="M468 98Q489 98 503.50 84Q518 70 518 49Q518 28 503.50 14Q489 0 468 0L132 0Q110 0 95.50 14.50Q81 29 81 51L81 649Q81 671 96 685.50Q111 700 135 700Q155 700 170.50 685.50Q186 671 186 649L186 81L165 98L468 98M412 310Q387 310 373 324Q359 338 359 363L359 382Q359 407 373 420.50Q387 434 412 434L423 434Q448 434 461.50 420.50Q475 407 475 382L475 363Q475 338 461.50 324Q448 310 423 310L412 310Z"  horiz-adv-x="541" vert-adv-y="1000"  />

      
      <glyph glyph-name="uni1E36" unicode="&#x1E36;" d="M468 98Q489 98 503.50 84Q518 70 518 49Q518 28 503.50 14Q489 0 468 0L132 0Q110 0 95.50 14.50Q81 29 81 51L81 649Q81 671 96 685.50Q111 700 135 700Q155 700 170.50 685.50Q186 671 186 649L186 81L165 98L468 98M281-144Q252-144 239-133.50Q226-123 226-98L226-82Q226-56 240-45.50Q254-35 281-35Q312-35 325-45.50Q338-56 338-82L338-98Q338-124 324.50-134Q311-144 281-144Z"  horiz-adv-x="552" vert-adv-y="1000"  />

      
      <glyph glyph-name="uni01C8" unicode="&#x01C8;" d="M468 98Q489 98 503.50 84Q518 70 518 49Q518 28 503.50 14Q489 0 468 0L132 0Q110 0 95.50 14.50Q81 29 81 51L81 649Q81 671 96 685.50Q111 700 135 700Q155 700 170.50 685.50Q186 671 186 649L186 81L165 98L468 98Z"  horiz-adv-x="825" vert-adv-y="1000"  />

      
      <glyph glyph-name="uni1E3A" unicode="&#x1E3A;" d="M468 98Q489 98 503.50 84Q518 70 518 49Q518 28 503.50 14Q489 0 468 0L132 0Q110 0 95.50 14.50Q81 29 81 51L81 649Q81 671 96 685.50Q111 700 135 700Q155 700 170.50 685.50Q186 671 186 649L186 81L165 98L468 98M176-143Q133-143 133-105Q133-67 176-67L407-67Q450-67 450-105Q450-143 407-143L176-143Z"  horiz-adv-x="552" vert-adv-y="1000"  />

      
      <glyph glyph-name="uni0141" unicode="&#x0141;" d="M82 290Q60 290 49.50 305Q39 320 39 334Q39 360 66 372L336 491Q347 496 356 496Q377 496 387.50 480.50Q398 465 398 452Q398 425 370 413L100 294Q96 292 91 291Q86 290 82 290M244 90L238 100L531 100Q552 100 566.50 85.50Q581 71 581 49Q581 28 566.50 14Q552 0 531 0L195 0Q173 0 158.50 14.50Q144 29 144 51L144 649Q144 671 159 685.50Q174 700 195 700Q217 700 230.50 685.50Q244 671 244 649L244 90Z"  horiz-adv-x="615" vert-adv-y="1000"  />

      
      <glyph glyph-name="uni4d" unicode="&#x4d;" d="M133 701Q145 701 158 695Q171 689 178 678L432 291L389 293L648 678Q664 701 689 701Q709 701 724.50 686.50Q740 672 740 650L740 51Q740 29 726 14.50Q712 0 689 0Q665 0 650.50 14.50Q636 29 636 51L636 558L668 551L448 216Q441 207 430 200.50Q419 194 407 195Q396 194 384.50 200.50Q373 207 366 216L154 546L178 586L178 51Q178 29 164.50 14.50Q151 0 129 0Q108 0 94.50 14.50Q81 29 81 51L81 650Q81 671 96.50 686Q112 701 133 701Z"  horiz-adv-x="822" vert-adv-y="1000"  />

      
      <glyph glyph-name="uni1E42" unicode="&#x1E42;" d="M133 701Q145 701 158 695Q171 689 178 678L432 291L389 293L648 678Q664 701 689 701Q709 701 724.50 686.50Q740 672 740 650L740 51Q740 29 726 14.50Q712 0 689 0Q665 0 650.50 14.50Q636 29 636 51L636 558L668 551L448 216Q441 207 430 200.50Q419 194 407 195Q396 194 384.50 200.50Q373 207 366 216L154 546L178 586L178 51Q178 29 164.50 14.50Q151 0 129 0Q108 0 94.50 14.50Q81 29 81 51L81 650Q81 671 96.50 686Q112 701 133 701M410-144Q381-144 368-133.50Q355-123 355-98L355-82Q355-56 369-45.50Q383-35 410-35Q441-35 454-45.50Q467-56 467-82L467-98Q467-124 453.50-134Q440-144 410-144Z"  horiz-adv-x="822" vert-adv-y="1000"  />

      
      <glyph glyph-name="uni4e" unicode="&#x4e;" d="M606 700Q626 700 638.50 686.50Q651 673 651 653L651 51Q651 29 636.50 14.50Q622 0 600 0Q590 0 578.50 4Q567 8 561 15L150 548L173 561L173 46Q173 27 160 13.50Q147 0 127 0Q106 0 93.50 13.50Q81 27 81 46L81 649Q81 672 96 686Q111 700 132 700Q143 700 155.50 695.50Q168 691 174 682L575 160L560 146L560 653Q560 673 573 686.50Q586 700 606 700Z"  horiz-adv-x="733" vert-adv-y="1000"  />

      
      <glyph glyph-name="uni01CA" unicode="&#x01CA;" d="M606 700Q626 700 638.50 686.50Q651 673 651 653L651 51Q651 29 636.50 14.50Q622 0 600 0Q590 0 578.50 4Q567 8 561 15L150 548L173 561L173 46Q173 27 160 13.50Q147 0 127 0Q106 0 93.50 13.50Q81 27 81 46L81 649Q81 672 96 686Q111 700 132 700Q143 700 155.50 695.50Q168 691 174 682L575 160L560 146L560 653Q560 673 573 686.50Q586 700 606 700M978-10Q919-10 870 17Q821 44 791 92Q782 107 782 120Q782 141 798 155Q814 169 830 169Q844 169 855.50 161.50Q867 154 877 143Q897 117 922 103.50Q947 90 978 90Q1014 90 1043 106.50Q1072 123 1089 151.50Q1106 180 1106 214L1106 649Q1106 671 1122 685.50Q1138 700 1159 700Q1182 700 1196 685.50Q1210 671 1210 649L1210 214Q1210 153 1179.50 102Q1149 51 1096.50 20.50Q1044-10 978-10Z"  horiz-adv-x="1291" vert-adv-y="1000"  />

      
      <glyph glyph-name="uni0143" unicode="&#x0143;" d="M606 700Q626 700 638.50 686.50Q651 673 651 653L651 51Q651 29 636.50 14.50Q622 0 600 0Q590 0 578.50 4Q567 8 561 15L150 548L173 561L173 46Q173 27 160 13.50Q147 0 127 0Q106 0 93.50 13.50Q81 27 81 46L81 649Q81 672 96 686Q111 700 132 700Q143 700 155.50 695.50Q168 691 174 682L575 160L560 146L560 653Q560 673 573 686.50Q586 700 606 700M369 741Q353 741 343.50 749.50Q334 758 334 771Q334 777 337.50 783Q341 789 347 795L434 868Q443 876 454 881.50Q465 887 476 887Q492 887 507 875.50Q522 864 522 844Q522 831 514 818.50Q506 806 491 798L391 747Q386 743 380 742Q374 741 369 741Z"  horiz-adv-x="733" vert-adv-y="1000"  />

      
      <glyph glyph-name="uni0147" unicode="&#x0147;" d="M606 700Q626 700 638.50 686.50Q651 673 651 653L651 51Q651 29 636.50 14.50Q622 0 600 0Q590 0 578.50 4Q567 8 561 15L150 548L173 561L173 46Q173 27 160 13.50Q147 0 127 0Q106 0 93.50 13.50Q81 27 81 46L81 649Q81 672 96 686Q111 700 132 700Q143 700 155.50 695.50Q168 691 174 682L575 160L560 146L560 653Q560 673 573 686.50Q586 700 606 700M352 815L438 875Q452 884 462 888Q472 892 481 892Q493 892 500 885.50Q507 879 507 871Q507 865 504.50 859.50Q502 854 494 845L427 770Q416 757 404 751Q392 745 375 745L361 745Q344 745 332 751Q320 757 309 770L241 845Q234 854 231.50 859Q229 864 229 870Q229 878 236.50 885Q244 892 255 892Q272 892 298 875L384 816L352 815Z"  horiz-adv-x="733" vert-adv-y="1000"  />

      
      <glyph glyph-name="uni0145" unicode="&#x0145;" d="M606 700Q626 700 638.50 686.50Q651 673 651 653L651 51Q651 29 636.50 14.50Q622 0 600 0Q590 0 578.50 4Q567 8 561 15L150 548L173 561L173 46Q173 27 160 13.50Q147 0 127 0Q106 0 93.50 13.50Q81 27 81 46L81 649Q81 672 96 686Q111 700 132 700Q143 700 155.50 695.50Q168 691 174 682L575 160L560 146L560 653Q560 673 573 686.50Q586 700 606 700M442-105Q442-126 429.50-146.50Q417-167 396-180Q375-193 349-193Q326-193 315.50-183.50Q305-174 305-165Q305-153 311-148Q317-143 324-143Q329-143 337-145.50Q345-148 354-148Q364-147 370.50-139.50Q377-132 377-118Q377-106 367-106Q360-106 357-110Q354-114 341-114Q327-115 318-104.50Q309-94 309-78Q309-56 326-45Q343-34 371-34Q402-34 422-52.50Q442-71 442-105Z"  horiz-adv-x="733" vert-adv-y="1000"  />

      
      <glyph glyph-name="uni1E44" unicode="&#x1E44;" d="M606 700Q626 700 638.50 686.50Q651 673 651 653L651 51Q651 29 636.50 14.50Q622 0 600 0Q590 0 578.50 4Q567 8 561 15L150 548L173 561L173 46Q173 27 160 13.50Q147 0 127 0Q106 0 93.50 13.50Q81 27 81 46L81 649Q81 672 96 686Q111 700 132 700Q143 700 155.50 695.50Q168 691 174 682L575 160L560 146L560 653Q560 673 573 686.50Q586 700 606 700M366 750Q337 750 324 761Q311 772 311 797L311 813Q311 839 325 849Q339 859 367 859Q397 859 410 849Q423 839 423 813L423 797Q423 771 409.50 760.50Q396 750 366 750Z"  horiz-adv-x="733" vert-adv-y="1000"  />

      
      <glyph glyph-name="uni1E46" unicode="&#x1E46;" d="M606 700Q626 700 638.50 686.50Q651 673 651 653L651 51Q651 29 636.50 14.50Q622 0 600 0Q590 0 578.50 4Q567 8 561 15L150 548L173 561L173 46Q173 27 160 13.50Q147 0 127 0Q106 0 93.50 13.50Q81 27 81 46L81 649Q81 672 96 686Q111 700 132 700Q143 700 155.50 695.50Q168 691 174 682L575 160L560 146L560 653Q560 673 573 686.50Q586 700 606 700M366-144Q337-144 324-133.50Q311-123 311-98L311-82Q311-56 325-45.50Q339-35 366-35Q397-35 410-45.50Q423-56 423-82L423-98Q423-124 409.50-134Q396-144 366-144Z"  horiz-adv-x="733" vert-adv-y="1000"  />

      
      <glyph glyph-name="uni014A" unicode="&#x014A;" d="M495-200Q471-200 456-188Q441-176 441-156Q441-136 455-122Q469-108 490-107Q520-107 538-98Q556-89 563.50-70.50Q571-52 571-25L572 50L578 22L169 530L181 530L181 51Q181 29 166.50 14.50Q152 0 131 0Q110 0 95.50 14.50Q81 29 81 51L81 649Q81 671 96 685.50Q111 700 132 700Q145 700 155.50 694.50Q166 689 174 678L586 164L571 156L571 648Q571 670 586 684.50Q601 699 622 699Q644 699 657.50 684.50Q671 670 671 648L671 48L671-21Q671-84 648-124Q625-164 585.50-182Q546-200 495-200Z"  horiz-adv-x="753" vert-adv-y="1000"  />

      
      <glyph glyph-name="uni019D" unicode="&#x019D;" d="M24-197Q3-197-10-183Q-23-169-23-150Q-23-124-12.50-112.50Q-2-101 20-95Q43-89 56.50-75Q70-61 75.50-40.50Q81-20 81 4L81 649Q81 672 96 686Q111 700 132 700Q143 700 155.50 695.50Q168 691 174 682L575 160L556 146L556 653Q556 673 570 686.50Q584 700 605 700Q625 700 638 686.50Q651 673 651 653L651 51Q651 29 636.50 14.50Q622 0 600 0Q590 0 578.50 4Q567 8 561 15L150 548L176 561L176-22Q176-70 163-101.50Q150-133 130-152Q110-171 88.50-180.50Q67-190 49-193Q31-196 24-197Z"  horiz-adv-x="733" vert-adv-y="1000"  />

      
      <glyph glyph-name="uni01CB" unicode="&#x01CB;" d="M606 700Q626 700 638.50 686.50Q651 673 651 653L651 51Q651 29 636.50 14.50Q622 0 600 0Q590 0 578.50 4Q567 8 561 15L150 548L173 561L173 46Q173 27 160 13.50Q147 0 127 0Q106 0 93.50 13.50Q81 27 81 46L81 649Q81 672 96 686Q111 700 132 700Q143 700 155.50 695.50Q168 691 174 682L575 160L560 146L560 653Q560 673 573 686.50Q586 700 606 700Z"  horiz-adv-x="1006" vert-adv-y="1000"  />

      
      <glyph glyph-name="uni1E48" unicode="&#x1E48;" d="M606 700Q626 700 638.50 686.50Q651 673 651 653L651 51Q651 29 636.50 14.50Q622 0 600 0Q590 0 578.50 4Q567 8 561 15L150 548L173 561L173 46Q173 27 160 13.50Q147 0 127 0Q106 0 93.50 13.50Q81 27 81 46L81 649Q81 672 96 686Q111 700 132 700Q143 700 155.50 695.50Q168 691 174 682L575 160L560 146L560 653Q560 673 573 686.50Q586 700 606 700M260-143Q217-143 217-105Q217-67 260-67L491-67Q534-67 534-105Q534-143 491-143L260-143Z"  horiz-adv-x="733" vert-adv-y="1000"  />

      
      <glyph glyph-name="unid1" unicode="&#xd1;" d="M606 700Q626 700 638.50 686.50Q651 673 651 653L651 51Q651 29 636.50 14.50Q622 0 600 0Q590 0 578.50 4Q567 8 561 15L150 548L173 561L173 46Q173 27 160 13.50Q147 0 127 0Q106 0 93.50 13.50Q81 27 81 46L81 649Q81 672 96 686Q111 700 132 700Q143 700 155.50 695.50Q168 691 174 682L575 160L560 146L560 653Q560 673 573 686.50Q586 700 606 700M234 748Q215 748 202 764.50Q189 781 190 810Q192 842 219 866.50Q246 891 293 891Q324 891 351.50 875.50Q379 860 403 845Q427 830 445 830Q457 830 464 837.50Q471 845 469 857Q464 876 474.50 887Q485 898 500 898Q520 898 533 881.50Q546 865 545 838Q544 819 533.50 800Q523 781 503.50 767.50Q484 754 454 754Q422 754 391.50 769.50Q361 785 335 800Q309 815 291 815Q280 815 272 808Q264 801 265 788Q270 770 259.50 759Q249 748 234 748Z"  horiz-adv-x="733" vert-adv-y="1000"  />

      
      <glyph glyph-name="uni4f" unicode="&#x4f;" d="M719 350Q719 274 694 208.50Q669 143 623.50 94Q578 45 516 17.50Q454-10 380-10Q307-10 245 17.50Q183 45 137.50 94Q92 143 67.50 208.50Q43 274 43 350Q43 426 67.50 491.50Q92 557 137.50 606Q183 655 245 682.50Q307 710 380 710Q454 710 516 682.50Q578 655 623.50 606Q669 557 694 491.50Q719 426 719 350M611 350Q611 424 581.50 483Q552 542 500 576Q448 610 380 610Q313 610 261 576Q209 542 180 483.50Q151 425 151 350Q151 276 180 217Q209 158 261 124Q313 90 380 90Q448 90 500 124Q552 158 581.50 217Q611 276 611 350Z"  horiz-adv-x="761" vert-adv-y="1000"  />

      
      <glyph glyph-name="unid3" unicode="&#xd3;" d="M719 350Q719 274 694 208.50Q669 143 623.50 94Q578 45 516 17.50Q454-10 380-10Q307-10 245 17.50Q183 45 137.50 94Q92 143 67.50 208.50Q43 274 43 350Q43 426 67.50 491.50Q92 557 137.50 606Q183 655 245 682.50Q307 710 380 710Q454 710 516 682.50Q578 655 623.50 606Q669 557 694 491.50Q719 426 719 350M611 350Q611 424 581.50 483Q552 542 500 576Q448 610 380 610Q313 610 261 576Q209 542 180 483.50Q151 425 151 350Q151 276 180 217Q209 158 261 124Q313 90 380 90Q448 90 500 124Q552 158 581.50 217Q611 276 611 350M383 741Q367 741 357.50 749.50Q348 758 348 771Q348 777 351.50 783Q355 789 361 795L448 868Q457 876 468 881.50Q479 887 490 887Q506 887 521 875.50Q536 864 536 844Q536 831 528 818.50Q520 806 505 798L405 747Q400 743 394 742Q388 741 383 741Z"  horiz-adv-x="761" vert-adv-y="1000"  />

      
      <glyph glyph-name="uni014E" unicode="&#x014E;" d="M719 350Q719 274 694 208.50Q669 143 623.50 94Q578 45 516 17.50Q454-10 380-10Q307-10 245 17.50Q183 45 137.50 94Q92 143 67.50 208.50Q43 274 43 350Q43 426 67.50 491.50Q92 557 137.50 606Q183 655 245 682.50Q307 710 380 710Q454 710 516 682.50Q578 655 623.50 606Q669 557 694 491.50Q719 426 719 350M611 350Q611 424 581.50 483Q552 542 500 576Q448 610 380 610Q313 610 261 576Q209 542 180 483.50Q151 425 151 350Q151 276 180 217Q209 158 261 124Q313 90 380 90Q448 90 500 124Q552 158 581.50 217Q611 276 611 350M381 764Q327 764 287 789Q247 814 230 859Q222 881 230.50 893.50Q239 906 256 906Q274 906 284 898Q294 890 306 875Q317 857 335.50 847Q354 837 381 837Q434 837 456 875Q468 890 478.50 898Q489 906 506 906Q524 906 532.50 894Q541 882 533 861Q516 814 476 789Q436 764 381 764Z"  horiz-adv-x="761" vert-adv-y="1000"  />

      
      <glyph glyph-name="uni01D1" unicode="&#x01D1;" d="M719 350Q719 274 694 208.50Q669 143 623.50 94Q578 45 516 17.50Q454-10 380-10Q307-10 245 17.50Q183 45 137.50 94Q92 143 67.50 208.50Q43 274 43 350Q43 426 67.50 491.50Q92 557 137.50 606Q183 655 245 682.50Q307 710 380 710Q454 710 516 682.50Q578 655 623.50 606Q669 557 694 491.50Q719 426 719 350M611 350Q611 424 581.50 483Q552 542 500 576Q448 610 380 610Q313 610 261 576Q209 542 180 483.50Q151 425 151 350Q151 276 180 217Q209 158 261 124Q313 90 380 90Q448 90 500 124Q552 158 581.50 217Q611 276 611 350M366 815L452 875Q466 884 476 888Q486 892 495 892Q507 892 514 885.50Q521 879 521 871Q521 865 518.50 859.50Q516 854 508 845L441 770Q430 757 418 751Q406 745 389 745L375 745Q358 745 346 751Q334 757 323 770L255 845Q248 854 245.50 859Q243 864 243 870Q243 878 250.50 885Q258 892 269 892Q286 892 312 875L398 816L366 815Z"  horiz-adv-x="761" vert-adv-y="1000"  />

      
      <glyph glyph-name="unid4" unicode="&#xd4;" d="M719 350Q719 274 694 208.50Q669 143 623.50 94Q578 45 516 17.50Q454-10 380-10Q307-10 245 17.50Q183 45 137.50 94Q92 143 67.50 208.50Q43 274 43 350Q43 426 67.50 491.50Q92 557 137.50 606Q183 655 245 682.50Q307 710 380 710Q454 710 516 682.50Q578 655 623.50 606Q669 557 694 491.50Q719 426 719 350M611 350Q611 424 581.50 483Q552 542 500 576Q448 610 380 610Q313 610 261 576Q209 542 180 483.50Q151 425 151 350Q151 276 180 217Q209 158 261 124Q313 90 380 90Q448 90 500 124Q552 158 581.50 217Q611 276 611 350M396 822L311 766Q297 758 286.50 752.50Q276 747 268 747Q257 747 249 754Q241 761 241 769Q241 776 244 781Q247 786 254 794L322 870Q333 882 344.50 888.50Q356 895 373 895L388 895Q405 895 416.50 888.50Q428 882 440 870L507 795Q515 786 517.50 781Q520 776 520 769Q520 761 512.50 754Q505 747 494 747Q485 747 475 752.50Q465 758 451 766L365 821L396 822Z"  horiz-adv-x="761" vert-adv-y="1000"  />

      
      <glyph glyph-name="uni1ED0" unicode="&#x1ED0;" d="M719 350Q719 274 694 208.50Q669 143 623.50 94Q578 45 516 17.50Q454-10 380-10Q307-10 245 17.50Q183 45 137.50 94Q92 143 67.50 208.50Q43 274 43 350Q43 426 67.50 491.50Q92 557 137.50 606Q183 655 245 682.50Q307 710 380 710Q454 710 516 682.50Q578 655 623.50 606Q669 557 694 491.50Q719 426 719 350M611 350Q611 424 581.50 483Q552 542 500 576Q448 610 380 610Q313 610 261 576Q209 542 180 483.50Q151 425 151 350Q151 276 180 217Q209 158 261 124Q313 90 380 90Q448 90 500 124Q552 158 581.50 217Q611 276 611 350M396 822L311 766Q297 758 286.50 752.50Q276 747 268 747Q257 747 249 754Q241 761 241 769Q241 776 244 781Q247 786 254 794L322 870Q333 882 344.50 888.50Q356 895 373 895L388 895Q405 895 416.50 888.50Q428 882 440 870L507 795Q515 786 517.50 781Q520 776 520 769Q520 761 512.50 754Q505 747 494 747Q485 747 475 752.50Q465 758 451 766L365 821L396 822M539 823Q523 823 513.50 831.50Q504 840 504 853Q504 859 507.50 865Q511 871 517 877L604 950Q613 958 624 963.50Q635 969 646 969Q662 969 677 957.50Q692 946 692 926Q692 913 684 900.50Q676 888 661 880L561 829Q556 825 550 824Q544 823 539 823Z"  horiz-adv-x="761" vert-adv-y="1000"  />

      
      <glyph glyph-name="uni1ED8" unicode="&#x1ED8;" d="M719 350Q719 274 694 208.50Q669 143 623.50 94Q578 45 516 17.50Q454-10 380-10Q307-10 245 17.50Q183 45 137.50 94Q92 143 67.50 208.50Q43 274 43 350Q43 426 67.50 491.50Q92 557 137.50 606Q183 655 245 682.50Q307 710 380 710Q454 710 516 682.50Q578 655 623.50 606Q669 557 694 491.50Q719 426 719 350M611 350Q611 424 581.50 483Q552 542 500 576Q448 610 380 610Q313 610 261 576Q209 542 180 483.50Q151 425 151 350Q151 276 180 217Q209 158 261 124Q313 90 380 90Q448 90 500 124Q552 158 581.50 217Q611 276 611 350M380-144Q351-144 338-133.50Q325-123 325-98L325-82Q325-56 339-45.50Q353-35 380-35Q411-35 424-45.50Q437-56 437-82L437-98Q437-124 423.50-134Q410-144 380-144M396 822L311 766Q297 758 286.50 752.50Q276 747 268 747Q257 747 249 754Q241 761 241 769Q241 776 244 781Q247 786 254 794L322 870Q333 882 344.50 888.50Q356 895 373 895L388 895Q405 895 416.50 888.50Q428 882 440 870L507 795Q515 786 517.50 781Q520 776 520 769Q520 761 512.50 754Q505 747 494 747Q485 747 475 752.50Q465 758 451 766L365 821L396 822Z"  horiz-adv-x="761" vert-adv-y="1000"  />

      
      <glyph glyph-name="uni1ED2" unicode="&#x1ED2;" d="M719 350Q719 274 694 208.50Q669 143 623.50 94Q578 45 516 17.50Q454-10 380-10Q307-10 245 17.50Q183 45 137.50 94Q92 143 67.50 208.50Q43 274 43 350Q43 426 67.50 491.50Q92 557 137.50 606Q183 655 245 682.50Q307 710 380 710Q454 710 516 682.50Q578 655 623.50 606Q669 557 694 491.50Q719 426 719 350M611 350Q611 424 581.50 483Q552 542 500 576Q448 610 380 610Q313 610 261 576Q209 542 180 483.50Q151 425 151 350Q151 276 180 217Q209 158 261 124Q313 90 380 90Q448 90 500 124Q552 158 581.50 217Q611 276 611 350M396 822L311 766Q297 758 286.50 752.50Q276 747 268 747Q257 747 249 754Q241 761 241 769Q241 776 244 781Q247 786 254 794L322 870Q333 882 344.50 888.50Q356 895 373 895L388 895Q405 895 416.50 888.50Q428 882 440 870L507 795Q515 786 517.50 781Q520 776 520 769Q520 761 512.50 754Q505 747 494 747Q485 747 475 752.50Q465 758 451 766L365 821L396 822M535 873Q530 873 524.50 874.50Q519 876 513 879L414 930Q382 947 382 976Q382 996 397 1007.50Q412 1019 428 1019Q440 1019 451 1013.50Q462 1008 470 1000L557 927Q564 921 567 915Q570 909 570 903Q570 890 560.50 881.50Q551 873 535 873Z"  horiz-adv-x="761" vert-adv-y="1000"  />

      
      <glyph glyph-name="uni1ED4" unicode="&#x1ED4;" d="M719 350Q719 274 694 208.50Q669 143 623.50 94Q578 45 516 17.50Q454-10 380-10Q307-10 245 17.50Q183 45 137.50 94Q92 143 67.50 208.50Q43 274 43 350Q43 426 67.50 491.50Q92 557 137.50 606Q183 655 245 682.50Q307 710 380 710Q454 710 516 682.50Q578 655 623.50 606Q669 557 694 491.50Q719 426 719 350M611 350Q611 424 581.50 483Q552 542 500 576Q448 610 380 610Q313 610 261 576Q209 542 180 483.50Q151 425 151 350Q151 276 180 217Q209 158 261 124Q313 90 380 90Q448 90 500 124Q552 158 581.50 217Q611 276 611 350Z"  horiz-adv-x="761" vert-adv-y="1000"  />

      
      </font>
</defs>
</svg>
